<svg xmlns="http://www.w3.org/2000/svg" xmlns:xlink="http://www.w3.org/1999/xlink" width="103" height="103" viewBox="0 0 103 103">
  <defs>
    <filter id="Trazado_978624" x="0" y="0" width="103" height="103" filterUnits="userSpaceOnUse">
      <feOffset dy="3" input="SourceAlpha"/>
      <feGaussianBlur stdDeviation="3" result="blur"/>
      <feFlood flood-opacity="0.161"/>
      <feComposite operator="in" in2="blur"/>
      <feComposite in="SourceGraphic"/>
    </filter>
    <clipPath id="clip-path">
      <path id="path21" d="M0-682.665H71.682v71.682H0Z" transform="translate(0 682.665)"/>
    </clipPath>
  </defs>
  <g id="Grupo_1220094" data-name="Grupo 1220094" transform="translate(-615 -5547)">
    <g id="Grupo_1219545" data-name="Grupo 1219545" transform="translate(0 1368)">
      <g id="Grupo_1209912" data-name="Grupo 1209912" transform="translate(449.5 3121)">
        <g id="Grupo_1178144" data-name="Grupo 1178144" transform="translate(-19.5 -2004)">
          <g id="Grupo_1177896" data-name="Grupo 1177896" transform="translate(14 196)">
            <g id="Grupo_1176881" data-name="Grupo 1176881">
              <g id="Grupo_1175148" data-name="Grupo 1175148" transform="translate(0 1580)">
                <g id="Grupo_1173798" data-name="Grupo 1173798" transform="translate(-3 -3520)">
                  <g id="Grupo_1171925" data-name="Grupo 1171925" transform="translate(-22 -2246)">
                    <g id="Grupo_1164524" data-name="Grupo 1164524" transform="translate(205 7058)">
                      <g id="Grupo_1144123" data-name="Grupo 1144123">
                        <g transform="matrix(1, 0, 0, 1, -9, -6)" filter="url(#Trazado_978624)">
                          <g id="Trazado_978624-2" data-name="Trazado 978624" transform="translate(9 6)" fill="#e5f0f6">
                            <path d="M 42.5 83.5 C 36.96437835693359 83.5 31.59512901306152 82.41617584228516 26.54141235351562 80.27863311767578 C 21.65934181213379 78.21369171142578 17.27447128295898 75.25723266601562 13.50862312316895 71.49137878417969 C 9.742764472961426 67.72553253173828 6.786305904388428 63.34066009521484 4.721364498138428 58.45858764648438 C 2.583823442459106 53.40486907958984 1.5 48.03562164306641 1.5 42.5 C 1.5 36.96437835693359 2.583823442459106 31.59512901306152 4.721364498138428 26.54141235351562 C 6.786305904388428 21.65934181213379 9.742764472961426 17.27447128295898 13.50862312316895 13.50862312316895 C 17.27447128295898 9.742764472961426 21.65934181213379 6.786305904388428 26.54141235351562 4.721364498138428 C 31.59512901306152 2.583823442459106 36.96437835693359 1.5 42.5 1.5 C 48.03562164306641 1.5 53.40486907958984 2.583823442459106 58.45858764648438 4.721364498138428 C 63.34066009521484 6.786305904388428 67.72553253173828 9.742764472961426 71.49137878417969 13.50862312316895 C 75.25723266601562 17.27447128295898 78.21369171142578 21.65934181213379 80.27863311767578 26.54141235351562 C 82.41617584228516 31.59512901306152 83.5 36.96437835693359 83.5 42.5 C 83.5 48.03562164306641 82.41617584228516 53.40486907958984 80.27863311767578 58.45858764648438 C 78.21369171142578 63.34066009521484 75.25723266601562 67.72553253173828 71.49137878417969 71.49137878417969 C 67.72553253173828 75.25723266601562 63.34066009521484 78.21369171142578 58.45858764648438 80.27863311767578 C 53.40486907958984 82.41617584228516 48.03562164306641 83.5 42.5 83.5 Z" stroke="none"/>
                            <path d="M 42.5 3 C 37.16621398925781 3 31.99356079101562 4.043960571289062 27.125732421875 6.102882385253906 C 22.42246627807617 8.092185974121094 18.19785308837891 10.94070434570312 14.56928253173828 14.56928253173828 C 10.94070434570312 18.19785308837891 8.092185974121094 22.42246627807617 6.102882385253906 27.125732421875 C 4.043960571289062 31.99356079101562 3 37.16621398925781 3 42.5 C 3 47.83378601074219 4.043960571289062 53.00643920898438 6.102882385253906 57.87425231933594 C 8.092185974121094 62.57753372192383 10.94070434570312 66.80213165283203 14.56928253173828 70.43071746826172 C 18.19786834716797 74.05929565429688 22.42246627807617 76.90781402587891 27.125732421875 78.89711761474609 C 31.99356079101562 80.95603942871094 37.16621398925781 82 42.5 82 C 47.83378601074219 82 53.00642395019531 80.95603942871094 57.87425231933594 78.89711761474609 C 62.57753372192383 76.90781402587891 66.80213165283203 74.05929565429688 70.43071746826172 70.43071746826172 C 74.05929565429688 66.80213165283203 76.90781402587891 62.57753372192383 78.89711761474609 57.87425231933594 C 80.95603942871094 53.00642395019531 82 47.83378601074219 82 42.5 C 82 37.16621398925781 80.95603942871094 31.99356079101562 78.89711761474609 27.125732421875 C 76.90781402587891 22.42246627807617 74.05929565429688 18.19786834716797 70.43071746826172 14.56928253173828 C 66.80213165283203 10.94070434570312 62.57753372192383 8.092185974121094 57.87425231933594 6.102882385253906 C 53.00643920898438 4.043960571289062 47.83378601074219 3 42.5 3 M 42.5 0 C 65.97209167480469 0 85 19.02789306640625 85 42.5 C 85 65.97209167480469 65.97209167480469 85 42.5 85 C 19.02789306640625 85 0 65.97209167480469 0 42.5 C 0 19.02789306640625 19.02789306640625 0 42.5 0 Z" stroke="none" fill="#1172b3"/>
                          </g>
                        </g>
                      </g>
                    </g>
                  </g>
                </g>
              </g>
            </g>
          </g>
        </g>
      </g>
    </g>
    <g id="g15" transform="translate(625.25 6238.665)">
      <g id="g17" transform="translate(5.818 -672.847)">
        <g id="g19" clip-path="url(#clip-path)">
          <g id="g25" transform="translate(58.487 35.386)">
            <path id="path27" d="M-67.721,0l-7.945,12.145A12.145,12.145,0,0,0-63.521,0Z" transform="translate(75.666)" fill="#ffbb6e"/>
          </g>
          <g id="g29" transform="translate(46.341 35.386)">
            <path id="path31" d="M-171.242,0h-20.091a12.145,12.145,0,0,0,12.145,12.145c4.388,0,7.945-5.438,7.945-12.145" transform="translate(191.333)" fill="#ffd478"/>
          </g>
          <g id="g33" transform="translate(13.195 35.386)">
            <path id="path35" d="M-67.721,0l-7.945,12.145A12.145,12.145,0,0,0-63.521,0Z" transform="translate(75.666)" fill="#ffbb6e"/>
          </g>
          <g id="g37" transform="translate(1.05 35.386)">
            <path id="path39" d="M-171.242,0h-20.091a12.145,12.145,0,0,0,12.145,12.145c4.388,0,7.945-5.438,7.945-12.145" transform="translate(191.333)" fill="#ffd478"/>
          </g>
          <path id="path41" d="M285.533-460.885h-4.2v-31.781h4.2Z" transform="translate(-251.792 512.616)" fill="#fff5de"/>
          <path id="path43" d="M347.633-460.885h-6.3v-31.781h6.3Z" transform="translate(-305.491 512.616)" fill="#ffd478"/>
          <path id="path45" d="M325.533-460.885h-4.2v-31.781h4.2Z" transform="translate(-287.592 512.616)" fill="#ffe7ad"/>
          <g id="g47" transform="translate(35.841 49.631)">
            <path id="path49" d="M-89.5,0h-4.2L-100,8.4l10.5-4.2a2.1,2.1,0,0,0,2.1-2.1A2.1,2.1,0,0,0-89.5,0" transform="translate(100)" fill="#aa6f51"/>
          </g>
          <g id="g51" transform="translate(23.241 49.631)">
            <path id="path53" d="M-179-17.9a2.1,2.1,0,0,0-2.1-2.1h-16.8a2.1,2.1,0,0,0-2.1,2.1,2.1,2.1,0,0,0,2.1,2.1l10.5,4.2,6.3-4.2a2.1,2.1,0,0,0,2.1-2.1" transform="translate(200 20)" fill="#b88567"/>
          </g>
          <g id="g55" transform="translate(35.841 53.832)">
            <path id="path57" d="M-106.838-38.89l-2.034-4.563h-10.5v10.5h18.446v-2.1a6.473,6.473,0,0,1-5.911-3.836" transform="translate(119.373 43.453)" fill="#995e49"/>
          </g>
          <g id="g59" transform="translate(17.396 53.832)">
            <path id="path61" d="M-236.076-55.287a6.473,6.473,0,0,0,4.594,1.912v2.1h-32.291v-2.1a6.47,6.47,0,0,0,5.911-3.836l2.034-4.564h16.4l2.034,4.563a6.455,6.455,0,0,0,1.317,1.924" transform="translate(263.773 61.773)" fill="#aa6f51"/>
          </g>
          <path id="path63" d="M301.333-600.065h6.3v-12.6h-6.3Z" transform="translate(-269.692 620.015)" fill="#ffbb6e"/>
          <path id="path65" d="M345.533-600.065h-4.2v-12.6h4.2Z" transform="translate(-305.491 620.015)" fill="#ffa061"/>
          <g id="g67" transform="translate(37.941 17.851)">
            <path id="path69" d="M-35.8,0H-40V4.2h4.2a2.1,2.1,0,0,0,2.1-2.1A2.1,2.1,0,0,0-35.8,0" transform="translate(40)" fill="#ffbb6e"/>
          </g>
          <g id="g71" transform="translate(27.441 17.851)">
            <path id="path73" d="M-107.4-17.9a2.1,2.1,0,0,0-2.1-2.1h-8.4a2.1,2.1,0,0,0-2.1,2.1,2.1,2.1,0,0,0,2.1,2.1h8.4a2.1,2.1,0,0,0,2.1-2.1" transform="translate(120 20)" fill="#ffd478"/>
          </g>
          <g id="g75" transform="translate(54.287 5.25)">
            <path id="path77" d="M-35.8,0H-40V4.2h4.2a2.1,2.1,0,0,0,2.1-2.1A2.1,2.1,0,0,0-35.8,0" transform="translate(40)" fill="#ffd478"/>
          </g>
          <g id="g79" transform="translate(11.095 5.25)">
            <path id="path81" d="M-386.041-17.9a2.1,2.1,0,0,0-2.1-2.1h-41.091a2.1,2.1,0,0,0-2.1,2.1,2.1,2.1,0,0,0,2.1,2.1h41.091a2.1,2.1,0,0,0,2.1-2.1" transform="translate(431.332 20)" fill="#ffe7ad"/>
          </g>
          <g id="g83" transform="translate(50.086 62.23)">
            <path id="path85" d="M-35.8,0H-40V6.3l8.4-2.1A4.2,4.2,0,0,0-35.8,0" transform="translate(40)" fill="#aa6f51"/>
          </g>
          <g id="g87" transform="translate(13.195 62.23)">
            <path id="path89" d="M-314.441,0l-32.691,0a4.2,4.2,0,0,0-4.2,4.2V6.3l41.091,0V4.2a4.2,4.2,0,0,0-4.2-4.2" transform="translate(351.332)" fill="#b88567"/>
          </g>
          <g id="g91" transform="translate(58.032 66.432)">
            <path id="path93" d="M-35.8,0H-40l4.2,4.2h4.2A4.2,4.2,0,0,0-35.8,0" transform="translate(40)" fill="#ffbb6e"/>
          </g>
          <g id="g95" transform="translate(5.25 66.432)">
            <path id="path97" d="M-449.884,0h-48.581a4.2,4.2,0,0,0-4.2,4.2h56.982a4.2,4.2,0,0,0-4.2-4.2" transform="translate(502.665)" fill="#ffd478"/>
          </g>
          <g id="g99" transform="translate(29.541 1.05)">
            <path id="path101" d="M-107.4-53.7a6.3,6.3,0,0,1-6.3,6.3,6.3,6.3,0,0,1-6.3-6.3,6.3,6.3,0,0,1,6.3-6.3,6.3,6.3,0,0,1,6.3,6.3" transform="translate(120 60)" fill="#ffd478"/>
          </g>
          <g id="g103" transform="translate(33.741 5.25)">
            <path id="path105" d="M-35.8-17.9a2.1,2.1,0,0,1-2.1,2.1A2.1,2.1,0,0,1-40-17.9,2.1,2.1,0,0,1-37.9-20a2.1,2.1,0,0,1,2.1,2.1" transform="translate(40 20)" fill="#b88567"/>
          </g>
          <g id="g107" transform="translate(11.095 5.25)">
            <path id="path109" d="M-160.289-35.8h-16.705a2.1,2.1,0,0,1-2.1-2.1,2.1,2.1,0,0,1,2.1-2.1h16.705" transform="translate(179.094 40)" fill="none" stroke="#000" stroke-linecap="round" stroke-linejoin="round" stroke-miterlimit="10" stroke-width="2"/>
          </g>
          <g id="g111" transform="translate(27.441 17.851)">
            <path id="path113" d="M-125.3-35.8h-12.6a2.1,2.1,0,0,1-2.1-2.1,2.1,2.1,0,0,1,2.1-2.1h12.6a2.1,2.1,0,0,1,2.1,2.1A2.1,2.1,0,0,1-125.3-35.8Z" transform="translate(140 40)" fill="none" stroke="#000" stroke-linecap="round" stroke-linejoin="round" stroke-miterlimit="10" stroke-width="2"/>
          </g>
          <g id="g115" transform="translate(46.341 53.832)">
            <path id="path117" d="M0,0,2.035,4.563A6.471,6.471,0,0,0,7.945,8.4" fill="none" stroke="#000" stroke-linecap="round" stroke-linejoin="round" stroke-miterlimit="10" stroke-width="2"/>
          </g>
          <g id="g119" transform="translate(17.396 49.631)">
            <path id="path121" d="M0-107.4a6.471,6.471,0,0,0,5.91-3.836L7.945-115.8a2.1,2.1,0,0,1-2.1-2.1,2.1,2.1,0,0,1,2.1-2.1h21a2.1,2.1,0,0,1,2.1,2.1,2.1,2.1,0,0,1-2.1,2.1h-16.8" transform="translate(0 120)" fill="none" stroke="#000" stroke-linecap="round" stroke-linejoin="round" stroke-miterlimit="10" stroke-width="2"/>
          </g>
          <g id="g123" transform="translate(42.141 22.051)">
            <path id="path125" d="M0,0V27.581" fill="none" stroke="#000" stroke-linecap="round" stroke-linejoin="round" stroke-miterlimit="10" stroke-width="2"/>
          </g>
          <g id="g127" transform="translate(33.741 22.051)">
            <path id="path129" d="M0,0V27.581" fill="none" stroke="#000" stroke-linecap="round" stroke-linejoin="round" stroke-miterlimit="10" stroke-width="2"/>
          </g>
          <g id="g131" transform="translate(37.941 22.051)">
            <path id="path133" d="M0,0V27.581" fill="none" stroke="#000" stroke-linecap="round" stroke-linejoin="round" stroke-miterlimit="10" stroke-width="2"/>
          </g>
          <g id="g135" transform="translate(29.541 22.051)">
            <path id="path137" d="M0-235.085v-27.581" transform="translate(0 262.666)" fill="none" stroke="#000" stroke-linecap="round" stroke-linejoin="round" stroke-miterlimit="10" stroke-width="2"/>
          </g>
          <g id="g139" transform="translate(5.25 66.432)">
            <path id="path141" d="M-35.8,0A4.2,4.2,0,0,0-40,4.2H21.182a4.2,4.2,0,0,0-4.2-4.2Z" transform="translate(40)" fill="none" stroke="#000" stroke-linecap="round" stroke-linejoin="round" stroke-miterlimit="10" stroke-width="2"/>
          </g>
          <g id="g143" transform="translate(13.195 62.23)">
            <path id="path145" d="M-386.041-35.8a4.2,4.2,0,0,0-4.2-4.2l-36.891,0a4.2,4.2,0,0,0-4.2,4.2" transform="translate(431.332 40)" fill="none" stroke="#000" stroke-linecap="round" stroke-linejoin="round" stroke-miterlimit="10" stroke-width="2"/>
          </g>
          <g id="g147" transform="translate(1.05 13.65)">
            <path id="path149" d="M-103.521-288.785a12.145,12.145,0,0,1-12.145-12.145l12.145-21.736,12.145,21.736A12.145,12.145,0,0,1-103.521-288.785Z" transform="translate(115.666 322.666)" fill="none" stroke="#000" stroke-linecap="round" stroke-linejoin="round" stroke-miterlimit="10" stroke-width="2"/>
          </g>
          <g id="g151" transform="translate(13.195 13.65)">
            <path id="path153" d="M0,0V21.736" fill="none" stroke="#000" stroke-linecap="round" stroke-linejoin="round" stroke-miterlimit="10" stroke-width="2"/>
          </g>
          <g id="g155" transform="translate(58.487 13.65)">
            <path id="path157" d="M0,0V21.736" fill="none" stroke="#000" stroke-linecap="round" stroke-linejoin="round" stroke-miterlimit="10" stroke-width="2"/>
          </g>
          <g id="g159" transform="translate(1.05 35.386)">
            <path id="path161" d="M0,0H24.291" fill="none" stroke="#000" stroke-linecap="round" stroke-linejoin="round" stroke-miterlimit="10" stroke-width="2"/>
          </g>
          <g id="g163" transform="translate(29.541 1.05)">
            <path id="path165" d="M-107.4-53.7a6.3,6.3,0,0,1-6.3,6.3,6.3,6.3,0,0,1-6.3-6.3,6.3,6.3,0,0,1,6.3-6.3A6.3,6.3,0,0,1-107.4-53.7Z" transform="translate(120 60)" fill="none" stroke="#000" stroke-linecap="round" stroke-linejoin="round" stroke-miterlimit="10" stroke-width="2"/>
          </g>
          <g id="g167" transform="translate(33.741 5.25)">
            <path id="path169" d="M-35.8-17.9a2.1,2.1,0,0,1-2.1,2.1A2.1,2.1,0,0,1-40-17.9,2.1,2.1,0,0,1-37.9-20,2.1,2.1,0,0,1-35.8-17.9Z" transform="translate(40 20)" fill="none" stroke="#000" stroke-linecap="round" stroke-linejoin="round" stroke-miterlimit="10" stroke-width="2"/>
          </g>
          <g id="g171" transform="translate(41.781 5.25)">
            <path id="path173" d="M0-35.8H16.705a2.1,2.1,0,0,0,2.1-2.1,2.1,2.1,0,0,0-2.1-2.1H0" transform="translate(0 40)" fill="none" stroke="#000" stroke-linecap="round" stroke-linejoin="round" stroke-miterlimit="10" stroke-width="2"/>
          </g>
          <g id="g175" transform="translate(46.341 13.65)">
            <path id="path177" d="M-103.521-288.785A12.145,12.145,0,0,0-91.376-300.93l-12.145-21.736-12.145,21.736A12.145,12.145,0,0,0-103.521-288.785Z" transform="translate(115.666 322.666)" fill="none" stroke="#000" stroke-linecap="round" stroke-linejoin="round" stroke-miterlimit="10" stroke-width="2"/>
          </g>
          <g id="g179" transform="translate(46.341 35.386)">
            <path id="path181" d="M-207.042,0h-24.291" transform="translate(231.333)" fill="none" stroke="#000" stroke-linecap="round" stroke-linejoin="round" stroke-miterlimit="10" stroke-width="2"/>
          </g>
          <g id="g183" transform="translate(31.641 12.045)">
            <path id="path185" d="M0,0V5.806" fill="none" stroke="#000" stroke-linecap="round" stroke-linejoin="round" stroke-miterlimit="10" stroke-width="2"/>
          </g>
          <g id="g187" transform="translate(40.041 12.045)">
            <path id="path189" d="M0,0V5.806" fill="none" stroke="#000" stroke-linecap="round" stroke-linejoin="round" stroke-miterlimit="10" stroke-width="2"/>
          </g>
        </g>
      </g>
    </g>
  </g>
</svg>
