<svg xmlns="http://www.w3.org/2000/svg" xmlns:xlink="http://www.w3.org/1999/xlink" width="295" height="264" viewBox="0 0 295 264">
  <defs>
    <clipPath id="clip-path">
      <rect id="Rectángulo_421209" data-name="Rectángulo 421209" width="295" height="264" transform="translate(180 774)" fill="#fff" stroke="#707070" stroke-width="1"/>
    </clipPath>
    <clipPath id="clip-path-2">
      <path id="Trazado_1091090" data-name="Trazado 1091090" d="M288.862,224.169c-36.481,39.453-84.768,16.512-129.381,22.035-15.639,3.349-30.361,11.044-45.642,15.885a72.666,72.666,0,0,1-56.046-4.638c-46.468-24.691-45.362-89.4,3.575-122.746,44.049-27.6,37.667-28.37,60.956-71.307a115.094,115.094,0,0,1,6.83-10.056V25.658h39.427c15.737-3.436,33.213.554,51.343,14.815,5.861,4.611,9.444,12.491,12.127,21.619h49.841v74.575C306.228,156.13,319.435,188.125,288.862,224.169Z" transform="translate(-23.783 -24.498)"/>
    </clipPath>
  </defs>
  <g id="Enmascarar_grupo_1098933" data-name="Enmascarar grupo 1098933" transform="translate(-180 -774)" clip-path="url(#clip-path)">
    <g id="Grupo_1219901" data-name="Grupo 1219901" transform="translate(6)">
      <rect id="Rectángulo_421208" data-name="Rectángulo 421208" width="133" height="264" transform="translate(307 774)" fill="#ba9c5a"/>
      <g id="Grupo_1219900" data-name="Grupo 1219900" transform="translate(2332.729 -697.883)">
        <g id="Grupo_1219881" data-name="Grupo 1219881" transform="translate(-2119.357 1493)">
          <g id="Grupo_1219874" data-name="Grupo 1219874" transform="translate(12.807 4.569)">
            <path id="Trazado_1091071" data-name="Trazado 1091071" d="M145.065,67.693l5.71,14.678L138.2,72.751a26.629,26.629,0,1,1,6.868-5.058Z" transform="translate(-99.371 -22.399)" fill="#71c6ba"/>
            <g id="Grupo_1219873" data-name="Grupo 1219873" transform="translate(12.336 11.891)">
              <rect id="Rectángulo_421203" data-name="Rectángulo 421203" width="7.541" height="35.253" transform="matrix(0.714, -0.7, 0.7, 0.714, 0.183, 5.281)" fill="#dd8720"/>
              <rect id="Rectángulo_421204" data-name="Rectángulo 421204" width="7.541" height="35.253" transform="matrix(-0.7, -0.714, 0.714, -0.7, 5.281, 30.26)" fill="#dd8720"/>
            </g>
          </g>
          <g id="Grupo_1219878" data-name="Grupo 1219878" transform="translate(129.127)">
            <path id="Trazado_1091072" data-name="Trazado 1091072" d="M297.22,53.97l-7.451,12.562,13.006-6.916a24.729,24.729,0,1,0-5.555-5.646Z" transform="translate(-289.769 -14.921)" fill="#71c6ba"/>
            <g id="Grupo_1219877" data-name="Grupo 1219877" transform="translate(9.443 5.314)">
              <g id="Grupo_1219875" data-name="Grupo 1219875">
                <path id="Trazado_1091073" data-name="Trazado 1091073" d="M323.719,60.606a18.494,18.494,0,1,1,18.494-18.494A18.515,18.515,0,0,1,323.719,60.606Zm0-32.208a13.714,13.714,0,1,0,13.715,13.714A13.73,13.73,0,0,0,323.719,28.4Z" transform="translate(-305.225 -23.619)" fill="#dd8720"/>
              </g>
              <g id="Grupo_1219876" data-name="Grupo 1219876" transform="translate(4.714 4.719)">
                <rect id="Rectángulo_421205" data-name="Rectángulo 421205" width="32.17" height="4.779" transform="matrix(0.707, -0.707, 0.707, 0.707, 0, 22.748)" fill="#dd8720"/>
              </g>
            </g>
          </g>
          <g id="Grupo_1219880" data-name="Grupo 1219880" transform="translate(0 56.793)">
            <path id="Trazado_1091074" data-name="Trazado 1091074" d="M110.914,129.007l14.657-2.7-14.037-2.568a16.561,16.561,0,1,0-.62,5.267Z" transform="translate(-78.409 -107.883)" fill="#71c6ba"/>
            <g id="Grupo_1219879" data-name="Grupo 1219879" transform="translate(8.122 8.601)">
              <rect id="Rectángulo_421206" data-name="Rectángulo 421206" width="3.853" height="18.01" transform="translate(15.46 12.736) rotate(135)" fill="#e2f7f3"/>
              <rect id="Rectángulo_421207" data-name="Rectángulo 421207" width="3.853" height="18.01" transform="translate(12.735) rotate(45)" fill="#e2f7f3"/>
            </g>
          </g>
        </g>
        <path id="Trazado_1091075" data-name="Trazado 1091075" d="M308.252,163.091c-4.712,37.968-5.255,53.5-12.512,57.926a11.616,11.616,0,0,1-6.388,1.423c-13.629-.216-36.265-16.7-36.265-16.7l-8.348,48.129c7.362,22.088,14.067,60.487,14.067,60.487H133.831c1.27-12.259,9.671-51.085,9.671-51.085a172.436,172.436,0,0,1-18.852-8.4c-8.3-4.49-8.106-11.426-8.106-11.426-.638-21.1,6.557-74.733,10.182-83.856s10.989-8.348,10.989-8.348l29.862-12.944s.759-1.365,5.655-6.056a9.131,9.131,0,0,1,1.924-1.37c6.092-3.357,18.209-3.51,18.209-3.51s12.1.153,18.2,3.51a8.988,8.988,0,0,1,1.929,1.37c4.9,4.691,5.65,6.056,5.65,6.056s21.271,3.858,32.771,6.572,10.182,8.643,10.182,8.643L278,178.854l4.617-22.71c.316-.048.632-.095.943-.132,11.579-1.4,21.139,4.553,23.9,6.483C307.972,162.87,308.252,163.091,308.252,163.091Z" transform="translate(-2212.587 1434.333)" fill="#1b253f"/>
        <path id="Trazado_1091076" data-name="Trazado 1091076" d="M152.092,221.283,269.84,350.9H144.865l9.671-51.085,29.788,5.861.928-2.051,5.958,2.051,7.367-25.355-4.388-1.5.464-1.245-38.972-14.5Z" transform="translate(-2223.622 1397.79)" fill="#1b253f" opacity="0.7"/>
        <path id="Trazado_1091077" data-name="Trazado 1091077" d="M224.3,316.955l-7.367,25.356-5.958-2.051,8.937-24.809Z" transform="translate(-2249.342 1361.153)" fill="#fff1e6"/>
        <path id="Trazado_1091078" data-name="Trazado 1091078" d="M382.324,258.715l-.243.163a11.616,11.616,0,0,1-6.388,1.423c-13.629-.216-36.265-16.7-36.265-16.7l3.521-18.678S357.422,253.723,382.324,258.715Z" transform="translate(-2299.32 1396.375)" fill="#1b253f" opacity="0.7"/>
        <path id="Trazado_1091079" data-name="Trazado 1091079" d="M380.2,201.451l8.719,10.622L383.4,185.687Z" transform="translate(-2315.182 1411.64)" fill="#1b253f" opacity="0.7"/>
        <path id="Trazado_1091080" data-name="Trazado 1091080" d="M198.793,278.813l.464-1.245-38.972-14.5-3.589-41.78,16.311,39.362,28.521,15.823Z" transform="translate(-2228.224 1397.79)" fill="#1b253f" opacity="0.7"/>
        <path id="Trazado_1091081" data-name="Trazado 1091081" d="M188.4,353.633l-.928,2.051-29.788-5.861-4.733,22.835,41.408-16.975Z" transform="translate(-2226.767 1347.78)" fill="#1b253f" opacity="0.7"/>
        <path id="Trazado_1091082" data-name="Trazado 1091082" d="M208.694,142.749c12.663-4.375,29.149-3.892,41.817.29-1.783.016-3.526-.135-5.28-.184a357.28,357.28,0,0,0-36.537-.106Z" transform="translate(-2248.455 1429.54)" fill="#1b253f" opacity="0.7"/>
        <g id="Grupo_1219884" data-name="Grupo 1219884" transform="translate(-2152.729 1498.851)" clip-path="url(#clip-path-2)">
          <path id="Trazado_1091084" data-name="Trazado 1091084" d="M413.486,173.7l-.29,3.347c-2.757-1.929-12.317-7.879-23.9-6.483l.743-5.508s.9-.074,2.382-.042h.005c3.594.068,10.609.738,16.391,4.506A19.67,19.67,0,0,1,413.486,173.7Z" transform="translate(-165.994 -79.164)" fill="#fff1e6"/>
          <path id="Trazado_1091085" data-name="Trazado 1091085" d="M403.685,118.116s4.264,11.595-1.65,22.23c-5.782-3.768-12.8-4.438-16.391-4.506h-.005c-1.18-2.092-3.515-6.172-6.2-10.583-3.884-6.372-9.56-11.8-6.888-13.624a2.2,2.2,0,0,1,2.04-.016c3.273,1.222,8.069,6.756,8.069,6.756L380.021,95.3s-.469-2.34,1.708-2.625a.152.152,0,0,1,.053-.01c.279-.032.59.163.917.543.074.084.148.179.221.279a7.126,7.126,0,0,1,.469.738c.01.01.01.016.016.021.037.064.074.132.106.195s.084.148.121.227c.09.163.174.337.258.516.064.132.132.274.195.416.095.205.19.422.279.638.042.095.084.195.121.3.538,1.286,1.059,2.793,1.539,4.348.074.243.148.48.221.722a56.414,56.414,0,0,1,1.9,8.4.209.209,0,0,0,.006.058c.005.037.005.068.01.106.016.174.026.269.026.269v.006c.021.195.032.379.037.543L388,93.245s-.074-3.152,1.834-3.22,3,2.857,3.367,8.68c0,0,.01-.237.042-.616v-.006c.137-1.555.648-5.465,2.34-5.349.053.005.111.01.163.021,1.955.385,2.277,5.2,2.4,12.612.132,7.621.843,8.538.843,8.538l.006-.01a35.062,35.062,0,0,0,4.316-7.574c1.112-2.662,2.066-3.5,2.857-3.652a2.232,2.232,0,0,1,1.428.321C408.554,103.449,407.912,107.549,403.685,118.116Z" transform="translate(-159.207 -49.992)" fill="#f2c69c"/>
          <path id="Trazado_1091086" data-name="Trazado 1091086" d="M394.477,112.1v.006l-.343,5.086S390,99.54,388.015,94.348a.152.152,0,0,1,.053-.01c2.108-.243,5.845,12.464,6.382,17.5C394.466,112.009,394.477,112.1,394.477,112.1Z" transform="translate(-165.494 -51.669)" fill="#1b253f" opacity="0.7"/>
          <path id="Trazado_1091087" data-name="Trazado 1091087" d="M384.4,132.126v3.294s-3.853-6.941-8.069-10.05C379.6,126.592,384.4,132.126,384.4,132.126Z" transform="translate(-160.946 -63.744)" fill="#1b253f" opacity="0.7"/>
          <path id="Trazado_1091088" data-name="Trazado 1091088" d="M409.377,94.48l-2.1,20.855-.406-15.521v-.005c.137-1.555.648-5.465,2.34-5.349C409.266,94.464,409.324,94.469,409.377,94.48Z" transform="translate(-172.831 -51.716)" fill="#1b253f" opacity="0.7"/>
          <path id="Trazado_1091089" data-name="Trazado 1091089" d="M423.454,110.721c-.316,7.041-5.993,12.849-5.993,12.849l-1.186-1.613.005-.01a35.059,35.059,0,0,0,4.316-7.574C421.71,111.712,422.664,110.869,423.454,110.721Z" transform="translate(-176.489 -58.045)" fill="#1b253f" opacity="0.7"/>
        </g>
        <g id="Grupo_1219890" data-name="Grupo 1219890" transform="translate(-2152.729 1498.851)" clip-path="url(#clip-path-2)">
          <path id="Trazado_1091091" data-name="Trazado 1091091" d="M222.993,336.051a14.43,14.43,0,0,0,12.338,5.743c8.4-.293,21.781-10.647,21.781-10.647l-4.3-19.535L228.268,317.9Z" transform="translate(-101.289 -136.205)" fill="#f2c69c"/>
          <g id="Grupo_1219886" data-name="Grupo 1219886" transform="translate(133.072 153.24)">
            <path id="Trazado_1091092" data-name="Trazado 1091092" d="M260.98,330.848l-15.137-3.119,7.921-24.946,2.279-25.879,18.478,3.708-7.942,24.863Z" transform="translate(-243.251 -275.941)" fill="#69a69e"/>
            <path id="Trazado_1091093" data-name="Trazado 1091093" d="M255.017,275.328l-2.446,26.708-8.088,25.776,16.464,3.386,5.766-26.2,8.108-25.692Zm1.525,53.259-6.986-1.484c.473-2.358-.671-4.578-2.556-4.956l6.9-19.845,1.255-20.776c1.884.378,3.8-1.228,4.27-3.586l10.327,2.072c-.473,2.358.668,4.577,2.556,4.956l-6.918,19.761L260.812,325C258.925,324.622,257.015,326.228,256.543,328.587Z" transform="translate(-242.722 -275.328)" fill="#539187"/>
            <path id="Trazado_1091094" data-name="Trazado 1091094" d="M270.117,317.144c-.88,4.385-1.592,7.919-5.1,7.216s-2.81-4.362-1.929-8.747,1.613-7.836,5.117-7.133S271,312.759,270.117,317.144Z" transform="translate(-249.684 -288.191)" fill="#539187"/>
            <ellipse id="Elipse_14439" data-name="Elipse 14439" cx="3.437" cy="2.746" rx="3.437" ry="2.746" transform="translate(16.769 15.155) rotate(-78.651)" fill="#539187"/>
            <ellipse id="Elipse_14440" data-name="Elipse 14440" cx="3.437" cy="2.746" rx="3.437" ry="2.746" transform="translate(10.388 46.962) rotate(-78.651)" fill="#539187"/>
            <g id="Grupo_1219885" data-name="Grupo 1219885" transform="translate(0 0.079)">
              <path id="Trazado_1091095" data-name="Trazado 1091095" d="M256.585,329.88l-13.331-7.819,15.518-21.077,10.475-23.774,16.306,9.45-15.512,20.992Z" transform="translate(-242.243 -276.139)" fill="#69a69e"/>
              <path id="Trazado_1091096" data-name="Trazado 1091096" d="M268.441,275.457l-10.9,24.505L241.6,321.772l14.5,8.5,13.881-22.961,15.935-21.723ZM252.77,326.381l-6.138-3.65c1.206-2.081.836-4.551-.827-5.514l12.909-16.576,7.865-19.271c1.662.963,3.989.057,5.2-2.024l9.113,5.281c-1.206,2.081-.838,4.549.827,5.514l-12.9,16.489-10.848,17.726C256.3,323.392,253.976,324.3,252.77,326.381Z" transform="translate(-241.6 -275.457)" fill="#539187"/>
              <path id="Trazado_1091097" data-name="Trazado 1091097" d="M277.326,318.663c-2.243,3.87-4.052,6.988-7.144,5.2s-1.259-5.033.984-8.9,4.046-6.9,7.138-5.11S279.569,314.794,277.326,318.663Z" transform="translate(-252.083 -288.631)" fill="#539187"/>
              <ellipse id="Elipse_14441" data-name="Elipse 14441" cx="3.437" cy="2.746" rx="3.437" ry="2.746" transform="matrix(0.501, -0.865, 0.865, 0.501, 26.19, 15.783)" fill="#539187"/>
              <ellipse id="Elipse_14442" data-name="Elipse 14442" cx="3.437" cy="2.746" rx="3.437" ry="2.746" transform="matrix(0.501, -0.865, 0.865, 0.501, 9.923, 43.85)" fill="#539187"/>
            </g>
          </g>
          <g id="Grupo_1219887" data-name="Grupo 1219887" transform="translate(132.135 153.231)">
            <path id="Trazado_1091098" data-name="Trazado 1091098" d="M257.312,331.387l-15.567-6.978,13.4-22.481,7.552-24.856,19.023,8.419-13.406,22.394Z" transform="translate(-240.72 -275.997)" fill="#70c4b8"/>
            <path id="Trazado_1091099" data-name="Trazado 1091099" d="M261.7,275.313l-7.893,25.628L240.067,324.2,257,331.778,268.345,307.5l13.747-23.166Zm-8.9,52.759-7.175-3.264a4.12,4.12,0,0,0-1.753-5.533l11.3-17.73,5.448-20.1a4.12,4.12,0,0,0,5.274-2.423l10.632,4.705a4.118,4.118,0,0,0,1.753,5.533l-11.3,17.642-8.9,18.75A4.119,4.119,0,0,0,252.806,328.072Z" transform="translate(-240.067 -275.313)" fill="#69a69e"/>
            <path id="Trazado_1091100" data-name="Trazado 1091100" d="M274.563,319.345c-1.808,4.084-3.267,7.376-6.874,5.779s-2.142-5.015-.334-9.1,3.273-7.288,6.88-5.691S276.371,315.261,274.563,319.345Z" transform="translate(-249.951 -288.776)" fill="#69a69e"/>
            <ellipse id="Elipse_14443" data-name="Elipse 14443" cx="3.432" cy="3.031" rx="3.432" ry="3.031" transform="matrix(0.405, -0.914, 0.914, 0.405, 23.396, 16.058)" fill="#69a69e"/>
            <ellipse id="Elipse_14444" data-name="Elipse 14444" cx="3.432" cy="3.031" rx="3.432" ry="3.031" transform="matrix(0.405, -0.914, 0.914, 0.405, 10.284, 45.681)" fill="#69a69e"/>
          </g>
          <g id="Grupo_1219888" data-name="Grupo 1219888" transform="translate(135.837 174.584)">
            <path id="Trazado_1091101" data-name="Trazado 1091101" d="M253.318,313.263s19.1-2.673,23.448-2.984,2.747,4.4-1.032,5.792-13.726,4.162-13.726,4.162-5.47,11.081-15.882,9.63Z" transform="translate(-246.126 -310.264)" fill="#f2c69c"/>
            <path id="Trazado_1091102" data-name="Trazado 1091102" d="M291.246,311.456a1.685,1.685,0,0,0,1.666,1.653,14.5,14.5,0,0,0,2.964-.073,3.553,3.553,0,0,1-3.119,1.124,2.3,2.3,0,0,1-1.608-.966,1.366,1.366,0,0,1,.1-1.738Z" transform="translate(-263.54 -310.728)" fill="#1b253f" opacity="0.7"/>
          </g>
          <g id="Grupo_1219889" data-name="Grupo 1219889" transform="translate(143.667 179.673)">
            <path id="Trazado_1091103" data-name="Trazado 1091103" d="M268.68,341.426a9.208,9.208,0,0,1-2.33.26,10.2,10.2,0,0,1-4.369-1.031c-1.271-.621-2.713-1.627-2.99-3.1v0a2.62,2.62,0,0,1-.045-.389,2.747,2.747,0,0,1,2.3-2.857,2.563,2.563,0,0,1-.452-1.373,2.61,2.61,0,0,1,.04-.517,3.222,3.222,0,0,1,.81-1.594,4.644,4.644,0,0,1,2.26-1.3,9.723,9.723,0,0,1,4.547-.049.266.266,0,0,1-.016-.032s0,0,0,0,0,0,0-.005v0a2.815,2.815,0,0,1-.327-1.287,3.412,3.412,0,0,1,.773-2.154,5.222,5.222,0,0,1,1.238-1.136,7.482,7.482,0,0,1,3.9-1.218,3.258,3.258,0,0,1-.032-.815,4.093,4.093,0,0,1,1.3-2.626,6.462,6.462,0,0,1,3.988-1.574c.067-.005.136-.009.2-.013a5.226,5.226,0,0,1,3.649.885,3.18,3.18,0,0,1,.372.365,2.892,2.892,0,0,1-.139,3.723,5.883,5.883,0,0,1-3.718,1.8,2.653,2.653,0,0,1,.217.56,2.7,2.7,0,0,1,.092.69,3.533,3.533,0,0,1-1.144,2.532,6.49,6.49,0,0,1-2.543,1.425,2.175,2.175,0,0,1,.323.434,2.279,2.279,0,0,1,.277.862,2.861,2.861,0,0,1-.584,1.95,4.917,4.917,0,0,1-1.94,1.487,10.779,10.779,0,0,1-4.219,1.007,2.778,2.778,0,0,1,.623,3.783A3.361,3.361,0,0,1,268.68,341.426Z" transform="translate(-258.944 -318.594)" fill="#f2c69c"/>
            <path id="Trazado_1091104" data-name="Trazado 1091104" d="M286.1,323.125c.933-.7,2.789-.566,3.136.745.285,1.389-1.119,2.235-2.3,2.306.8-.5,1.873-1.141,1.679-2.158-.282-.9-1.638-1.021-2.516-.893Z" transform="translate(-269.509 -320.195)" fill="#1b253f" opacity="0.7"/>
            <path id="Trazado_1091105" data-name="Trazado 1091105" d="M277.576,330.462a3.453,3.453,0,0,1,2.042.4,1.916,1.916,0,0,1,.968,2c-.428,1.638-2.362,1.793-3.7,1.369,1.158-.12,2.736-.249,3.077-1.507.217-1.294-1.291-1.938-2.387-2.256Z" transform="translate(-265.924 -323.206)" fill="#1b253f" opacity="0.7"/>
            <path id="Trazado_1091106" data-name="Trazado 1091106" d="M264.031,339.2a3.411,3.411,0,0,1,1.963-.2,1.98,1.98,0,0,1,1.613,2c-.166,1.363-1.719,1.806-2.883,1.68,1.012-.348,2.481-.816,2.218-2.095-.385-1.21-1.771-1.351-2.911-1.379Z" transform="translate(-260.923 -326.507)" fill="#1b253f" opacity="0.7"/>
            <path id="Trazado_1091107" data-name="Trazado 1091107" d="M261.564,346.715a4,4,0,0,1,1.94.33,1.872,1.872,0,0,1,1.034,2.342,2.462,2.462,0,0,1-3.192.952c1.043.071,2.592-.447,2.687-1.548-.054-1.274-1.419-1.681-2.469-2.076Z" transform="translate(-259.878 -329.533)" fill="#1b253f" opacity="0.7"/>
            <path id="Trazado_1091108" data-name="Trazado 1091108" d="M289.3,328.806a4.531,4.531,0,0,1-5.53-1.373,29.3,29.3,0,0,0,5.53,1.373Z" transform="translate(-268.603 -322.033)" fill="#1b253f" opacity="0.7"/>
            <path id="Trazado_1091109" data-name="Trazado 1091109" d="M282.23,337.555a8.315,8.315,0,0,1-7.956-1.073c1.345.252,2.617.535,3.955.709,1.336.189,2.639.252,4,.364Z" transform="translate(-264.908 -325.554)" fill="#1b253f" opacity="0.7"/>
            <path id="Trazado_1091110" data-name="Trazado 1091110" d="M271.6,346.5a9.906,9.906,0,0,1-9.009-1.911c1.5.458,2.932.911,4.448,1.225,1.512.329,3.009.5,4.562.686Z" transform="translate(-260.364 -328.708)" fill="#1b253f" opacity="0.7"/>
          </g>
        </g>
        <g id="Grupo_1219891" data-name="Grupo 1219891" transform="translate(-2152.729 1498.851)" clip-path="url(#clip-path-2)">
          <path id="Trazado_1091112" data-name="Trazado 1091112" d="M248.28,128.128c-6.1-3.357-18.2-3.51-18.2-3.51s-12.117.153-18.209,3.51l1.212-5.808a6.235,6.235,0,0,1,1.37-.49c4.627-1.212,15.626-1.265,15.626-1.265s11,.053,15.626,1.265a6.8,6.8,0,0,1,1.365.49Z" transform="translate(-96.96 -61.875)" fill="#fff1e6"/>
          <path id="Trazado_1091113" data-name="Trazado 1091113" d="M250.221,72.1c-1.708,5.861-5.028,7.273-7.42,7.031L241.578,92.22c-4.622-1.212-15.626-1.265-15.626-1.265s-11,.053-15.626,1.265L209.1,79.133c-2.392.243-5.713-1.17-7.426-7.031s2.446-7.911,2.446-7.911S201.84,44.46,225.335,44.46s22.446,19.732,22.446,19.732S251.928,66.242,250.221,72.1Z" transform="translate(-92.835 -32.265)" fill="#f2c69c"/>
          <path id="Trazado_1091114" data-name="Trazado 1091114" d="M250.62,35.7a11.123,11.123,0,0,1-3.694,3.684,24.355,24.355,0,0,1,2,10.024,23.282,23.282,0,0,1-.511,4.643c-1.033,4.88-3.542,9.292-5.776,13.75-2.193,4.369-4.19,9.028-4.227,13.9h-.084a47.351,47.351,0,0,0-26.035-1.043,92.473,92.473,0,0,0-7.9-21.16c-2.04-3.916-4.427-7.969-4.185-12.374a11.2,11.2,0,0,1,6.192-9.254c-.274-2.846.285-5.892,2.229-7.969,2.04-2.182,5.228-2.909,8.216-2.857s5.929.764,8.907.965c6.44.437,12.907-1.507,19.316-.738,2.187.263,4.548,1,5.7,2.872A5.618,5.618,0,0,1,250.62,35.7Z" transform="translate(-92.418 -25.49)" fill="#1b253f"/>
          <path id="Trazado_1091115" data-name="Trazado 1091115" d="M248.929,51.232a23.282,23.282,0,0,1-.511,4.643c-1.033,4.88-3.542,9.292-5.776,13.75-2.193,4.369-4.19,9.028-4.227,13.9h-.084a47.352,47.352,0,0,0-26.035-1.043,92.473,92.473,0,0,0-7.9-21.16c-2.04-3.916-4.427-7.969-4.185-12.374A11.2,11.2,0,0,1,206.4,39.7c-.274-2.846.285-5.892,2.229-7.969,0,0-2.488,15.468,13.186,21.4C237.276,58.979,248.613,51.443,248.929,51.232Z" transform="translate(-92.418 -27.311)" fill="#1b253f" opacity="0.3"/>
        </g>
        <g id="Grupo_1219899" data-name="Grupo 1219899" transform="translate(-1999.402 1675.333)">
          <g id="Grupo_1219894" data-name="Grupo 1219894" transform="translate(0 26.773)">
            <g id="Grupo_1219893" data-name="Grupo 1219893">
              <path id="Trazado_1091117" data-name="Trazado 1091117" d="M318.445,374.1q.1,6.056.2,12.111a54.96,54.96,0,0,1-42.229-16.449l13.106-11.179A40.252,40.252,0,0,0,318.445,374.1Z" transform="translate(-275.402 -357.735)" fill="#71c6ba"/>
              <path id="Trazado_1091118" data-name="Trazado 1091118" d="M274.756,369.048c11.894,12.082,27.078,18.046,44.026,16.994q-.214-6.443-.429-12.886c-12.108-1.018-21.947-6.263-29.324-15.961Zm42.474,7.167q0,3.408,0,6.816c-2.057.074-3.8,1.034-3.909,2.317a55.058,55.058,0,0,1-33.675-13.233c1.2-1.208.936-3.306-.486-4.821l7.207-6.313a2.821,2.821,0,0,0,4.227.141A41.565,41.565,0,0,0,314.3,373.669C314.192,374.955,315.494,376.157,317.23,376.216Z" transform="translate(-274.756 -357.195)" fill="#69a8a0"/>
              <path id="Trazado_1091119" data-name="Trazado 1091119" d="M311.58,379.469c2.331,1.254,4.519,4.141,3.67,6.7-1,3.017-5.335,3.463-8.047,2.373-2.868-1.152-5.185-4.679-3.32-7.48C305.392,378.8,309.058,378.113,311.58,379.469Z" transform="translate(-285.827 -365.591)" fill="#69a8a0"/>
              <path id="Trazado_1091120" data-name="Trazado 1091120" d="M295.874,373.09a2.552,2.552,0,0,1,.547,3.447,2.583,2.583,0,0,1-3.646.142,2.438,2.438,0,0,1-.454-3.574A2.584,2.584,0,0,1,295.874,373.09Z" transform="translate(-281.361 -363.107)" fill="#69a8a0"/>
              <path id="Trazado_1091121" data-name="Trazado 1091121" d="M331.595,389.989c1.392.233,2.45,1.175,2.345,2.195s-1.447,1.763-2.978,1.561-2.556-1.3-2.311-2.348S330.2,389.755,331.595,389.989Z" transform="translate(-295.71 -369.934)" fill="#69a8a0"/>
            </g>
          </g>
          <g id="Grupo_1219896" data-name="Grupo 1219896" transform="translate(15.688)">
            <g id="Grupo_1219895" data-name="Grupo 1219895">
              <path id="Trazado_1091122" data-name="Trazado 1091122" d="M307.883,338.029,301.7,327.781a79.111,79.111,0,0,1,38.307-13.32q-.036,8.684-.071,17.368A64.432,64.432,0,0,0,307.883,338.029Z" transform="translate(-300.926 -313.796)" fill="#71c6ba"/>
              <path id="Trazado_1091123" data-name="Trazado 1091123" d="M340.2,313.372a79.462,79.462,0,0,0-39.765,14.009l6.693,10.835a63.8,63.8,0,0,1,32.845-6.135Q340.085,322.727,340.2,313.372Zm-33.667,21.7-3.422-5.806c1.533-.99,2.335-2.644,1.745-3.775a80.122,80.122,0,0,1,30.541-10.479,3.164,3.164,0,0,0,3.456,2.882q.019,4.828.038,9.658a2.787,2.787,0,0,0-2.78,3.063,66.293,66.293,0,0,0-25.885,5.175A2.69,2.69,0,0,0,306.532,335.072Z" transform="translate(-300.434 -313.372)" fill="#69a8a0"/>
              <path id="Trazado_1091124" data-name="Trazado 1091124" d="M332.089,334.283c-2.6.561-5.873-.575-6.737-3.1-.965-2.823,1.556-5.769,4.218-6.651,2.852-.946,6.3.445,6.868,3.576A5.527,5.527,0,0,1,332.089,334.283Z" transform="translate(-310.047 -317.599)" fill="#69a8a0"/>
              <path id="Trazado_1091125" data-name="Trazado 1091125" d="M351.656,330.075a2.385,2.385,0,1,1-.426-4.748,2.341,2.341,0,0,1,2.659,2.174A2.434,2.434,0,0,1,351.656,330.075Z" transform="translate(-319.327 -318.016)" fill="#69a8a0"/>
              <path id="Trazado_1091126" data-name="Trazado 1091126" d="M316.051,339.7a2.261,2.261,0,0,1-2.986-.631c-.458-.907.163-2.187,1.413-2.809a2.135,2.135,0,0,1,3.02.714A2.241,2.241,0,0,1,316.051,339.7Z" transform="translate(-305.29 -322.157)" fill="#69a8a0"/>
            </g>
          </g>
          <g id="Grupo_1219898" data-name="Grupo 1219898" transform="translate(42.474 23.966)">
            <g id="Grupo_1219897" data-name="Grupo 1219897">
              <path id="Trazado_1091127" data-name="Trazado 1091127" d="M345.749,358.847l8.394-5.71A28.459,28.459,0,0,1,375.227,376l-6.368,7.907A31.161,31.161,0,0,0,345.749,358.847Z" transform="translate(-344.852 -352.81)" fill="#70c4b8"/>
              <path id="Trazado_1091128" data-name="Trazado 1091128" d="M374.963,376.05A28.33,28.33,0,0,0,353.333,352.6l-9.053,6.107a31.218,31.218,0,0,1,23.865,25.874Zm-27.355-18.528,4.663-3.2a5.832,5.832,0,0,0,4.246-.21,28.851,28.851,0,0,1,17.195,18.641,5.83,5.83,0,0,0-.551,4.215l-3.564,4.39c-.29-1.665-1.2-2.335-1.86-1.56a31.34,31.34,0,0,0-18.723-20.3C349.838,358.909,349.243,357.945,347.608,357.523Z" transform="translate(-344.28 -352.601)" fill="#69a69e"/>
              <path id="Trazado_1091129" data-name="Trazado 1091129" d="M371.31,371.425c-1.136-1.232-3.36-4.245-1.536-5.8,1.763-1.5,4.934-.22,6.373,1.34s2.464,4.825.822,6.461C375.271,375.116,372.446,372.657,371.31,371.425Z" transform="translate(-353.929 -357.407)" fill="#69a69e"/>
              <path id="Trazado_1091130" data-name="Trazado 1091130" d="M384.2,386.25c-.473-1.195-.508-2.587.024-3.161s1.416-.138,1.877,1.026a3.625,3.625,0,0,1-.187,3.242C385.391,387.963,384.669,387.445,384.2,386.25Z" transform="translate(-359.668 -364.365)" fill="#69a69e"/>
              <path id="Trazado_1091131" data-name="Trazado 1091131" d="M360.037,361.483c-1.153-.568-1.611-1.329-.965-1.8a3.625,3.625,0,0,1,3.247.075c1.122.554,1.486,1.47.871,1.954S361.19,362.052,360.037,361.483Z" transform="translate(-349.92 -355.223)" fill="#69a69e"/>
            </g>
          </g>
        </g>
      </g>
    </g>
  </g>
</svg>
