<svg xmlns="http://www.w3.org/2000/svg" xmlns:xlink="http://www.w3.org/1999/xlink" width="1217.072" height="459.866" viewBox="0 0 1217.072 459.866">
  <defs>
    <filter id="Trazado_1036921" x="472.873" y="0" width="271.325" height="459.866" filterUnits="userSpaceOnUse">
      <feOffset dy="3" input="SourceAlpha"/>
      <feGaussianBlur stdDeviation="3" result="blur"/>
      <feFlood flood-opacity="0.161"/>
      <feComposite operator="in" in2="blur"/>
      <feComposite in="SourceGraphic"/>
    </filter>
    <filter id="Trazado_1036922" x="709.31" y="82.82" width="271.325" height="377.046" filterUnits="userSpaceOnUse">
      <feOffset dy="3" input="SourceAlpha"/>
      <feGaussianBlur stdDeviation="3" result="blur-2"/>
      <feFlood flood-opacity="0.161"/>
      <feComposite operator="in" in2="blur-2"/>
      <feComposite in="SourceGraphic"/>
    </filter>
    <filter id="Trazado_1036923" x="236.437" y="82.82" width="271.325" height="377.046" filterUnits="userSpaceOnUse">
      <feOffset dy="3" input="SourceAlpha"/>
      <feGaussianBlur stdDeviation="3" result="blur-3"/>
      <feFlood flood-opacity="0.161"/>
      <feComposite operator="in" in2="blur-3"/>
      <feComposite in="SourceGraphic"/>
    </filter>
    <filter id="Trazado_1036924" x="0" y="163.445" width="271.325" height="296.421" filterUnits="userSpaceOnUse">
      <feOffset dy="3" input="SourceAlpha"/>
      <feGaussianBlur stdDeviation="3" result="blur-4"/>
      <feFlood flood-opacity="0.161"/>
      <feComposite operator="in" in2="blur-4"/>
      <feComposite in="SourceGraphic"/>
    </filter>
    <filter id="Trazado_1036925" x="945.747" y="163.445" width="271.325" height="296.421" filterUnits="userSpaceOnUse">
      <feOffset dy="3" input="SourceAlpha"/>
      <feGaussianBlur stdDeviation="3" result="blur-5"/>
      <feFlood flood-opacity="0.161"/>
      <feComposite operator="in" in2="blur-5"/>
      <feComposite in="SourceGraphic"/>
    </filter>
    <clipPath id="clip-path">
      <path id="path2773" d="M0-682.665H99.822v99.822H0Z" transform="translate(0 682.665)" fill="#0b0a0a"/>
    </clipPath>
    <linearGradient id="linear-gradient" x1="0.519" y1="0.206" x2="0.496" y2="0.935" gradientUnits="objectBoundingBox">
      <stop offset="0.047" stop-color="#f28d67" stop-opacity="0"/>
      <stop offset="0.682" stop-color="#f28d67"/>
      <stop offset="1" stop-color="#f26f3d"/>
    </linearGradient>
  </defs>
  <g id="Grupo_1220000" data-name="Grupo 1220000" transform="translate(-191.464 -1426.134)">
    <g id="Grupo_1219999" data-name="Grupo 1219999">
      <g id="Grupo_1219902" data-name="Grupo 1219902" transform="translate(1.689 112)">
        <g id="Grupo_1177615" data-name="Grupo 1177615" transform="translate(-1.225 -801)">
          <g id="_5_27_08_Convertido_" data-name="5_27_08 [Convertido]" transform="translate(200 2121.134)">
            <g transform="matrix(1, 0, 0, 1, -9, -6)" filter="url(#Trazado_1036921)">
              <path id="Trazado_1036921-2" data-name="Trazado 1036921" d="M257.1,3.952,145.945,115.111A20.222,20.222,0,0,0,140,129.432V441.866H393.325v-312.4a20.163,20.163,0,0,0-5.945-14.321L276.221,3.952A13.536,13.536,0,0,0,257.1,3.952Z" transform="translate(341.87 6)" fill="#56678d"/>
            </g>
            <g transform="matrix(1, 0, 0, 1, -9, -6)" filter="url(#Trazado_1036922)">
              <path id="Trazado_1036922-2" data-name="Trazado 1036922" d="M327.1,28.438,215.945,139.6A20.222,20.222,0,0,0,210,153.918V383.566H463.325V153.952a20.163,20.163,0,0,0-5.945-14.321L346.221,28.472a13.536,13.536,0,0,0-19.118,0Z" transform="translate(508.31 64.3)" fill="#ba9c5a"/>
            </g>
            <g transform="matrix(1, 0, 0, 1, -9, -6)" filter="url(#Trazado_1036923)">
              <path id="Trazado_1036923-2" data-name="Trazado 1036923" d="M187.1,28.438,75.945,139.6A20.222,20.222,0,0,0,70,153.918V383.566H323.325V153.952a20.163,20.163,0,0,0-5.945-14.321L206.221,28.472a13.536,13.536,0,0,0-19.118,0Z" transform="translate(175.44 64.3)" fill="#e9d24a"/>
            </g>
            <g transform="matrix(1, 0, 0, 1, -9, -6)" filter="url(#Trazado_1036924)">
              <path id="Trazado_1036924-2" data-name="Trazado 1036924" d="M117.1,52.342,5.945,163.5A20.222,20.222,0,0,0,0,177.822V326.811H253.325V177.822A20.163,20.163,0,0,0,247.38,163.5L136.221,52.342a13.536,13.536,0,0,0-19.118,0Z" transform="translate(9 121.06)" fill="#1172b3"/>
            </g>
            <g transform="matrix(1, 0, 0, 1, -9, -6)" filter="url(#Trazado_1036925)">
              <path id="Trazado_1036925-2" data-name="Trazado 1036925" d="M397.1,52.342,285.945,163.5A20.222,20.222,0,0,0,280,177.822V326.811H533.325V177.822A20.163,20.163,0,0,0,527.38,163.5L416.221,52.342a13.536,13.536,0,0,0-19.118,0Z" transform="translate(674.75 121.06)" fill="#083e61"/>
            </g>
            <circle id="Elipse_12471" data-name="Elipse 12471" cx="76.335" cy="76.335" r="76.335" transform="translate(759.637 160.507)" fill="#414143" opacity="0"/>
            <circle id="Elipse_12474" data-name="Elipse 12474" cx="76.335" cy="76.335" r="76.335" transform="translate(286.764 160.507)" fill="#414143" opacity="0"/>
          </g>
          <path id="Trazado_1092205" data-name="Trazado 1092205" d="M9,0H1.441V-12.6H8.71v2.312H4.28v2.8H8.4v2.3H4.28V-2.3H9Zm1.162-.237v-2.25a5.913,5.913,0,0,0,1.367.615,4.531,4.531,0,0,0,1.288.2,2.762,2.762,0,0,0,1.165-.2.653.653,0,0,0,.426-.615.569.569,0,0,0-.193-.439,1.8,1.8,0,0,0-.5-.308,5.635,5.635,0,0,0-.664-.237q-.36-.105-.694-.237a6.653,6.653,0,0,1-.945-.435,2.731,2.731,0,0,1-.686-.541,2.125,2.125,0,0,1-.422-.712,2.841,2.841,0,0,1-.145-.958,2.466,2.466,0,0,1,.33-1.3,2.692,2.692,0,0,1,.879-.892,4.016,4.016,0,0,1,1.257-.51A6.553,6.553,0,0,1,14.1-9.22a8.168,8.168,0,0,1,1.213.092,9.053,9.053,0,0,1,1.213.268v2.145A4.383,4.383,0,0,0,15.4-7.176a4.764,4.764,0,0,0-1.182-.154,2.619,2.619,0,0,0-.514.048,1.693,1.693,0,0,0-.426.141.783.783,0,0,0-.29.237.546.546,0,0,0-.105.33.609.609,0,0,0,.158.422,1.374,1.374,0,0,0,.413.3,4.078,4.078,0,0,0,.567.229q.312.1.62.207a8.056,8.056,0,0,1,1,.422,3.2,3.2,0,0,1,.769.536,2.105,2.105,0,0,1,.492.721,2.562,2.562,0,0,1,.171.984,2.568,2.568,0,0,1-.347,1.367,2.78,2.78,0,0,1-.923.923,4.185,4.185,0,0,1-1.327.519,7.357,7.357,0,0,1-1.56.163A8.042,8.042,0,0,1,10.162-.237ZM27.478,4.14H24.7V-1.239h-.035A3.085,3.085,0,0,1,21.9.22,3.446,3.446,0,0,1,19.168-.962,4.881,4.881,0,0,1,18.135-4.28a5.394,5.394,0,0,1,1.134-3.595A3.679,3.679,0,0,1,22.222-9.22a2.678,2.678,0,0,1,2.443,1.266H24.7V-9h2.777ZM24.754-4.3v-.721a2.2,2.2,0,0,0-.51-1.477,1.643,1.643,0,0,0-1.31-.6,1.7,1.7,0,0,0-1.45.725,3.359,3.359,0,0,0-.527,2.008,2.835,2.835,0,0,0,.514,1.8,1.629,1.629,0,0,0,1.34.65,1.722,1.722,0,0,0,1.411-.659A2.673,2.673,0,0,0,24.754-4.3ZM38.37,0H35.6V-1.371h-.044A3.141,3.141,0,0,1,32.806.22q-3.129,0-3.129-3.788V-9h2.769v5.186q0,1.907,1.512,1.907a1.5,1.5,0,0,0,1.2-.523A2.109,2.109,0,0,0,35.6-3.85V-9H38.37ZM48.8-3.709H42.924q.141,1.96,2.47,1.96a4.822,4.822,0,0,0,2.61-.7v2A6.858,6.858,0,0,1,44.761.22,4.565,4.565,0,0,1,41.377-.989a4.566,4.566,0,0,1-1.2-3.371,4.816,4.816,0,0,1,1.3-3.551,4.334,4.334,0,0,1,3.2-1.31,3.933,3.933,0,0,1,3.045,1.169A4.5,4.5,0,0,1,48.8-4.878ZM46.22-5.414q0-1.934-1.564-1.934a1.494,1.494,0,0,0-1.156.554,2.513,2.513,0,0,0-.593,1.38ZM64.74,0H61.972V-5.133q0-1.96-1.441-1.96a1.324,1.324,0,0,0-1.116.589,2.42,2.42,0,0,0-.431,1.468V0H56.206V-5.186q0-1.907-1.415-1.907a1.356,1.356,0,0,0-1.138.563A2.475,2.475,0,0,0,53.227-5V0H50.449V-9h2.777v1.406h.035A3.321,3.321,0,0,1,54.47-8.767a3.321,3.321,0,0,1,1.7-.453,2.592,2.592,0,0,1,2.61,1.679A3.329,3.329,0,0,1,61.8-9.22q2.936,0,2.936,3.621Zm9.687,0H71.8V-1.292h-.035A2.933,2.933,0,0,1,69.084.22a2.8,2.8,0,0,1-2.061-.743A2.661,2.661,0,0,1,66.272-2.5q0-2.619,3.1-3.023l2.443-.325q0-1.477-1.6-1.477a5.46,5.46,0,0,0-3.059.958V-8.464a6.881,6.881,0,0,1,1.586-.527,8.339,8.339,0,0,1,1.833-.229q3.85,0,3.85,3.841Zm-2.61-3.656v-.606l-1.635.211q-1.354.176-1.354,1.222a1.01,1.01,0,0,0,.33.778,1.266,1.266,0,0,0,.892.3,1.644,1.644,0,0,0,1.274-.541A1.952,1.952,0,0,0,71.817-3.656ZM90.4,0H87.624V-1.239h-.035A3.114,3.114,0,0,1,84.8.22,3.412,3.412,0,0,1,82.087-.971,4.93,4.93,0,0,1,81.058-4.3a5.366,5.366,0,0,1,1.134-3.577A3.7,3.7,0,0,1,85.163-9.22a2.527,2.527,0,0,1,2.426,1.248h.035v-5.353H90.4ZM87.677-4.377v-.677a2.13,2.13,0,0,0-.51-1.459,1.683,1.683,0,0,0-1.327-.58,1.673,1.673,0,0,0-1.441.725,3.367,3.367,0,0,0-.519,1.991,2.914,2.914,0,0,0,.5,1.828,1.663,1.663,0,0,0,1.389.642,1.67,1.67,0,0,0,1.375-.677A2.821,2.821,0,0,0,87.677-4.377Zm13.15.668H94.956q.141,1.96,2.47,1.96a4.822,4.822,0,0,0,2.61-.7v2A6.858,6.858,0,0,1,96.793.22,4.565,4.565,0,0,1,93.409-.989a4.566,4.566,0,0,1-1.2-3.371,4.816,4.816,0,0,1,1.3-3.551,4.334,4.334,0,0,1,3.2-1.31A3.933,3.933,0,0,1,99.75-8.051a4.5,4.5,0,0,1,1.077,3.173ZM98.252-5.414q0-1.934-1.564-1.934a1.494,1.494,0,0,0-1.156.554,2.513,2.513,0,0,0-.593,1.38ZM105.258,0h-2.777V-13.324h2.777Zm16.114,0h-2.777V-1.239h-.035A3.114,3.114,0,0,1,115.774.22a3.412,3.412,0,0,1-2.716-1.191A4.93,4.93,0,0,1,112.029-4.3a5.366,5.366,0,0,1,1.134-3.577,3.7,3.7,0,0,1,2.971-1.345,2.527,2.527,0,0,1,2.426,1.248h.035v-5.353h2.777Zm-2.725-4.377v-.677a2.13,2.13,0,0,0-.51-1.459,1.683,1.683,0,0,0-1.327-.58,1.673,1.673,0,0,0-1.441.725,3.367,3.367,0,0,0-.519,1.991,2.914,2.914,0,0,0,.5,1.828,1.663,1.663,0,0,0,1.389.642,1.67,1.67,0,0,0,1.375-.677A2.821,2.821,0,0,0,118.648-4.377Zm13.15.668h-5.871q.141,1.96,2.47,1.96a4.822,4.822,0,0,0,2.61-.7v2a6.858,6.858,0,0,1-3.243.668A4.565,4.565,0,0,1,124.38-.989a4.566,4.566,0,0,1-1.2-3.371,4.816,4.816,0,0,1,1.3-3.551,4.334,4.334,0,0,1,3.2-1.31,3.933,3.933,0,0,1,3.045,1.169A4.5,4.5,0,0,1,131.8-4.878Zm-2.575-1.705q0-1.934-1.564-1.934a1.494,1.494,0,0,0-1.156.554,2.513,2.513,0,0,0-.593,1.38ZM136.229,0h-2.777V-13.324h2.777Zm3.746-10.424a1.622,1.622,0,0,1-1.151-.417,1.345,1.345,0,0,1-.448-1.024,1.3,1.3,0,0,1,.448-1.02,1.676,1.676,0,0,1,1.151-.4,1.672,1.672,0,0,1,1.156.4,1.3,1.3,0,0,1,.444,1.02,1.34,1.34,0,0,1-.444,1.037A1.65,1.65,0,0,1,139.975-10.424ZM141.346,0h-2.777V-9h2.777Zm7.78-.105a4.105,4.105,0,0,1-1.854.325q-2.936,0-2.936-3.05V-6.952h-1.459V-9h1.459v-1.942l2.769-.791V-9h2.021v2.048H147.1v3.639q0,1.406,1.116,1.406a1.882,1.882,0,0,0,.905-.255Zm5.785.325a4.838,4.838,0,0,1-3.538-1.261,4.573,4.573,0,0,1-1.288-3.423,4.573,4.573,0,0,1,1.336-3.494,5.048,5.048,0,0,1,3.612-1.261,4.78,4.78,0,0,1,3.516,1.261,4.483,4.483,0,0,1,1.274,3.335,4.759,4.759,0,0,1-1.314,3.542A4.892,4.892,0,0,1,154.911.22Zm.07-7.312a1.852,1.852,0,0,0-1.529.677,2.984,2.984,0,0,0-.545,1.916q0,2.593,2.092,2.593,2,0,2-2.663Q156.994-7.093,154.982-7.093Z" transform="translate(246.06 2533.5)" fill="#0b0a0a"/>
          <path id="Trazado_1092204" data-name="Trazado 1092204" d="M10.292-10.292H6.7V0H3.85V-10.292H.272V-12.6h10.02Zm2.832-.132a1.622,1.622,0,0,1-1.151-.417,1.345,1.345,0,0,1-.448-1.024,1.3,1.3,0,0,1,.448-1.02,1.676,1.676,0,0,1,1.151-.4,1.672,1.672,0,0,1,1.156.4,1.3,1.3,0,0,1,.444,1.02,1.34,1.34,0,0,1-.444,1.037A1.65,1.65,0,0,1,13.124-10.424ZM14.495,0H11.718V-9h2.777Zm5.152-1.046h-.035V4.14H16.835V-9h2.777v1.354h.035A3.265,3.265,0,0,1,22.539-9.22a3.253,3.253,0,0,1,2.7,1.2A5.108,5.108,0,0,1,26.2-4.755a5.537,5.537,0,0,1-1.112,3.612A3.625,3.625,0,0,1,22.126.22,2.8,2.8,0,0,1,19.647-1.046Zm-.079-3.691v.721A2.291,2.291,0,0,0,20.06-2.5a1.6,1.6,0,0,0,1.292.589,1.7,1.7,0,0,0,1.472-.734,3.543,3.543,0,0,0,.523-2.079q0-2.373-1.846-2.373a1.733,1.733,0,0,0-1.393.646A2.576,2.576,0,0,0,19.568-4.737ZM29.4-10.424a1.622,1.622,0,0,1-1.151-.417,1.345,1.345,0,0,1-.448-1.024,1.3,1.3,0,0,1,.448-1.02,1.676,1.676,0,0,1,1.151-.4,1.672,1.672,0,0,1,1.156.4A1.3,1.3,0,0,1,31-11.865a1.34,1.34,0,0,1-.444,1.037A1.65,1.65,0,0,1,29.4-10.424ZM30.776,0H28V-9h2.777Zm9.16-.325A5.492,5.492,0,0,1,37.22.22a4.593,4.593,0,0,1-3.357-1.257A4.341,4.341,0,0,1,32.579-4.28,4.782,4.782,0,0,1,33.955-7.9,5.083,5.083,0,0,1,37.633-9.22a4.72,4.72,0,0,1,2.3.422v2.355a3.166,3.166,0,0,0-1.942-.65,2.559,2.559,0,0,0-1.894.7,2.607,2.607,0,0,0-.7,1.929,2.565,2.565,0,0,0,.668,1.876,2.455,2.455,0,0,0,1.837.681,3.666,3.666,0,0,0,2.03-.65Zm3.227-10.1a1.622,1.622,0,0,1-1.151-.417,1.345,1.345,0,0,1-.448-1.024,1.3,1.3,0,0,1,.448-1.02,1.676,1.676,0,0,1,1.151-.4,1.672,1.672,0,0,1,1.156.4,1.3,1.3,0,0,1,.444,1.02,1.34,1.34,0,0,1-.444,1.037A1.65,1.65,0,0,1,43.163-10.424ZM44.534,0H41.757V-9h2.777ZM55.681,0H52.9V-1.239h-.035A3.114,3.114,0,0,1,50.082.22,3.412,3.412,0,0,1,47.366-.971,4.93,4.93,0,0,1,46.338-4.3a5.366,5.366,0,0,1,1.134-3.577A3.7,3.7,0,0,1,50.442-9.22a2.527,2.527,0,0,1,2.426,1.248H52.9v-5.353h2.777ZM52.956-4.377v-.677a2.13,2.13,0,0,0-.51-1.459,1.683,1.683,0,0,0-1.327-.58,1.673,1.673,0,0,0-1.441.725,3.367,3.367,0,0,0-.519,1.991,2.914,2.914,0,0,0,.5,1.828,1.663,1.663,0,0,0,1.389.642,1.67,1.67,0,0,0,1.375-.677A2.821,2.821,0,0,0,52.956-4.377ZM65.509,0H62.881V-1.292h-.035A2.933,2.933,0,0,1,60.165.22,2.8,2.8,0,0,1,58.1-.523,2.661,2.661,0,0,1,57.352-2.5q0-2.619,3.1-3.023L62.9-5.854q0-1.477-1.6-1.477a5.46,5.46,0,0,0-3.059.958V-8.464a6.881,6.881,0,0,1,1.586-.527,8.339,8.339,0,0,1,1.833-.229q3.85,0,3.85,3.841ZM62.9-3.656v-.606l-1.635.211Q59.91-3.876,59.91-2.83a1.01,1.01,0,0,0,.33.778,1.266,1.266,0,0,0,.892.3,1.644,1.644,0,0,0,1.274-.541A1.952,1.952,0,0,0,62.9-3.656ZM76.514,0H73.737V-1.239H73.7A3.114,3.114,0,0,1,70.916.22,3.412,3.412,0,0,1,68.2-.971,4.93,4.93,0,0,1,67.172-4.3a5.366,5.366,0,0,1,1.134-3.577A3.7,3.7,0,0,1,71.276-9.22,2.527,2.527,0,0,1,73.7-7.972h.035v-5.353h2.777ZM73.79-4.377v-.677a2.13,2.13,0,0,0-.51-1.459,1.683,1.683,0,0,0-1.327-.58,1.673,1.673,0,0,0-1.441.725,3.367,3.367,0,0,0-.519,1.991,2.914,2.914,0,0,0,.5,1.828,1.663,1.663,0,0,0,1.389.642,1.67,1.67,0,0,0,1.375-.677A2.821,2.821,0,0,0,73.79-4.377Z" transform="translate(529 2533.5)" fill="#0b0a0a"/>
          <path id="Trazado_1092203" data-name="Trazado 1092203" d="M4.28-4.342V0H1.441V-12.6H5.889q4.764,0,4.764,4.017A3.854,3.854,0,0,1,9.286-5.515,5.414,5.414,0,0,1,5.634-4.342Zm0-6.082V-6.5H5.4q2.268,0,2.268-1.986,0-1.942-2.268-1.942ZM20.507,0H17.739V-1.371h-.044A3.141,3.141,0,0,1,14.944.22q-3.129,0-3.129-3.788V-9h2.769v5.186q0,1.907,1.512,1.907a1.5,1.5,0,0,0,1.2-.523,2.109,2.109,0,0,0,.448-1.419V-9h2.769Zm10.76,0H28.5V-5Q28.5-7.093,27-7.093a1.483,1.483,0,0,0-1.187.554,2.109,2.109,0,0,0-.466,1.406V0H22.575V-9h2.777v1.424h.035A3.183,3.183,0,0,1,28.279-9.22q2.988,0,2.988,3.709ZM34.6-10.424a1.622,1.622,0,0,1-1.151-.417A1.345,1.345,0,0,1,33-11.865a1.3,1.3,0,0,1,.448-1.02,1.676,1.676,0,0,1,1.151-.4,1.672,1.672,0,0,1,1.156.4,1.3,1.3,0,0,1,.444,1.02,1.34,1.34,0,0,1-.444,1.037A1.65,1.65,0,0,1,34.6-10.424ZM35.972,0H33.195V-9h2.777Zm4.88-1.046h-.035V0H38.04V-13.324h2.777v5.678h.035A3.3,3.3,0,0,1,43.779-9.22a3.211,3.211,0,0,1,2.681,1.2,5.155,5.155,0,0,1,.94,3.27,5.582,5.582,0,0,1-1.1,3.612A3.579,3.579,0,0,1,43.366.22,2.836,2.836,0,0,1,40.853-1.046Zm-.079-3.8v.923a2.107,2.107,0,0,0,.5,1.441,1.63,1.63,0,0,0,1.283.571,1.7,1.7,0,0,0,1.472-.734,3.543,3.543,0,0,0,.523-2.079,2.819,2.819,0,0,0-.479-1.745,1.616,1.616,0,0,0-1.367-.628,1.766,1.766,0,0,0-1.384.624A2.37,2.37,0,0,0,40.774-4.843Zm9.565-5.581a1.622,1.622,0,0,1-1.151-.417,1.345,1.345,0,0,1-.448-1.024,1.3,1.3,0,0,1,.448-1.02,1.676,1.676,0,0,1,1.151-.4,1.672,1.672,0,0,1,1.156.4,1.3,1.3,0,0,1,.444,1.02,1.34,1.34,0,0,1-.444,1.037A1.65,1.65,0,0,1,50.338-10.424ZM51.71,0H48.932V-9H51.71Zm4.845,0H53.777V-13.324h2.777Zm3.474-10.424a1.622,1.622,0,0,1-1.151-.417,1.345,1.345,0,0,1-.448-1.024,1.3,1.3,0,0,1,.448-1.02,1.676,1.676,0,0,1,1.151-.4,1.672,1.672,0,0,1,1.156.4,1.3,1.3,0,0,1,.444,1.02,1.34,1.34,0,0,1-.444,1.037A1.65,1.65,0,0,1,60.029-10.424ZM61.4,0H58.623V-9H61.4ZM72.275,0H69.5V-1.239h-.035A3.114,3.114,0,0,1,66.676.22,3.412,3.412,0,0,1,63.96-.971,4.93,4.93,0,0,1,62.932-4.3a5.366,5.366,0,0,1,1.134-3.577A3.7,3.7,0,0,1,67.036-9.22a2.527,2.527,0,0,1,2.426,1.248H69.5v-5.353h2.777ZM69.55-4.377v-.677a2.13,2.13,0,0,0-.51-1.459,1.683,1.683,0,0,0-1.327-.58,1.673,1.673,0,0,0-1.441.725,3.367,3.367,0,0,0-.519,1.991,2.914,2.914,0,0,0,.5,1.828,1.663,1.663,0,0,0,1.389.642,1.67,1.67,0,0,0,1.375-.677A2.821,2.821,0,0,0,69.55-4.377ZM81.831,0H79.2V-1.292h-.035A2.933,2.933,0,0,1,76.487.22a2.8,2.8,0,0,1-2.061-.743A2.661,2.661,0,0,1,73.674-2.5q0-2.619,3.1-3.023l2.443-.325q0-1.477-1.6-1.477a5.46,5.46,0,0,0-3.059.958V-8.464a6.881,6.881,0,0,1,1.586-.527,8.339,8.339,0,0,1,1.833-.229q3.85,0,3.85,3.841ZM79.22-3.656v-.606l-1.635.211q-1.354.176-1.354,1.222a1.01,1.01,0,0,0,.33.778,1.266,1.266,0,0,0,.892.3,1.644,1.644,0,0,0,1.274-.541A1.952,1.952,0,0,0,79.22-3.656ZM92.565,0H89.787V-1.239h-.035A3.114,3.114,0,0,1,86.966.22,3.412,3.412,0,0,1,84.25-.971,4.93,4.93,0,0,1,83.222-4.3a5.366,5.366,0,0,1,1.134-3.577A3.7,3.7,0,0,1,87.326-9.22a2.527,2.527,0,0,1,2.426,1.248h.035v-5.353h2.777ZM89.84-4.377v-.677a2.13,2.13,0,0,0-.51-1.459A1.683,1.683,0,0,0,88-7.093a1.673,1.673,0,0,0-1.441.725,3.367,3.367,0,0,0-.519,1.991,2.914,2.914,0,0,0,.5,1.828,1.663,1.663,0,0,0,1.389.642,1.67,1.67,0,0,0,1.375-.677A2.821,2.821,0,0,0,89.84-4.377Z" transform="translate(1228.642 2533.5)" fill="#fff"/>
          <path id="Trazado_1092202" data-name="Trazado 1092202" d="M-42.729-.448a8.311,8.311,0,0,1-3.6.668,6.074,6.074,0,0,1-4.562-1.705,6.233,6.233,0,0,1-1.661-4.544,6.659,6.659,0,0,1,1.868-4.9,6.533,6.533,0,0,1,4.847-1.881,9.065,9.065,0,0,1,3.111.466v2.733a5.513,5.513,0,0,0-2.883-.756,3.824,3.824,0,0,0-2.865,1.116,4.142,4.142,0,0,0-1.09,3.023,4.062,4.062,0,0,0,1.028,2.914A3.633,3.633,0,0,0-45.77-2.232a5.905,5.905,0,0,0,3.041-.809ZM-32.251,0h-2.769V-1.371h-.044A3.141,3.141,0,0,1-37.814.22q-3.129,0-3.129-3.788V-9h2.769v5.186q0,1.907,1.512,1.907a1.5,1.5,0,0,0,1.2-.523,2.109,2.109,0,0,0,.448-1.419V-9h2.769Zm5.117,0h-2.777V-13.324h2.777Zm5.152-1.046h-.035V4.14h-2.777V-9h2.777v1.354h.035A3.265,3.265,0,0,1-19.09-9.22a3.253,3.253,0,0,1,2.7,1.2,5.108,5.108,0,0,1,.954,3.265,5.537,5.537,0,0,1-1.112,3.612A3.625,3.625,0,0,1-19.5.22,2.8,2.8,0,0,1-21.982-1.046Zm-.079-3.691v.721A2.291,2.291,0,0,0-21.568-2.5a1.6,1.6,0,0,0,1.292.589A1.7,1.7,0,0,0-18.8-2.641a3.543,3.543,0,0,0,.523-2.079q0-2.373-1.846-2.373a1.733,1.733,0,0,0-1.393.646A2.576,2.576,0,0,0-22.061-4.737ZM-6.318,0H-8.946V-1.292h-.035A2.933,2.933,0,0,1-11.661.22a2.8,2.8,0,0,1-2.061-.743A2.661,2.661,0,0,1-14.474-2.5q0-2.619,3.1-3.023l2.443-.325q0-1.477-1.6-1.477a5.46,5.46,0,0,0-3.059.958V-8.464A6.881,6.881,0,0,1-12-8.991a8.339,8.339,0,0,1,1.833-.229q3.85,0,3.85,3.841Zm-2.61-3.656v-.606l-1.635.211q-1.354.176-1.354,1.222a1.01,1.01,0,0,0,.33.778,1.266,1.266,0,0,0,.892.3A1.644,1.644,0,0,0-9.42-2.29,1.952,1.952,0,0,0-8.928-3.656Zm7.622,2.61h-.035V0H-4.119V-13.324h2.777v5.678h.035A3.3,3.3,0,0,1,1.621-9.22,3.211,3.211,0,0,1,4.3-8.024a5.155,5.155,0,0,1,.94,3.27,5.582,5.582,0,0,1-1.1,3.612A3.579,3.579,0,0,1,1.208.22,2.836,2.836,0,0,1-1.306-1.046Zm-.079-3.8v.923a2.107,2.107,0,0,0,.5,1.441A1.63,1.63,0,0,0,.4-1.907a1.7,1.7,0,0,0,1.472-.734A3.543,3.543,0,0,0,2.394-4.72a2.819,2.819,0,0,0-.479-1.745A1.616,1.616,0,0,0,.548-7.093a1.766,1.766,0,0,0-1.384.624A2.37,2.37,0,0,0-1.385-4.843Zm9.837-5.581A1.622,1.622,0,0,1,7.3-10.841a1.345,1.345,0,0,1-.448-1.024,1.3,1.3,0,0,1,.448-1.02,1.676,1.676,0,0,1,1.151-.4,1.672,1.672,0,0,1,1.156.4,1.3,1.3,0,0,1,.444,1.02,1.34,1.34,0,0,1-.444,1.037A1.65,1.65,0,0,1,8.452-10.424ZM9.823,0H7.045V-9H9.823ZM14.94,0H12.162V-13.324H14.94Zm3.746-10.424a1.622,1.622,0,0,1-1.151-.417,1.345,1.345,0,0,1-.448-1.024,1.3,1.3,0,0,1,.448-1.02,1.676,1.676,0,0,1,1.151-.4,1.672,1.672,0,0,1,1.156.4,1.3,1.3,0,0,1,.444,1.02,1.34,1.34,0,0,1-.444,1.037A1.65,1.65,0,0,1,18.686-10.424ZM20.057,0H17.279V-9h2.777ZM31.2,0H28.426V-1.239h-.035A3.114,3.114,0,0,1,25.6.22,3.412,3.412,0,0,1,22.889-.971,4.93,4.93,0,0,1,21.86-4.3a5.366,5.366,0,0,1,1.134-3.577A3.7,3.7,0,0,1,25.965-9.22a2.527,2.527,0,0,1,2.426,1.248h.035v-5.353H31.2ZM28.478-4.377v-.677a2.13,2.13,0,0,0-.51-1.459,1.683,1.683,0,0,0-1.327-.58,1.673,1.673,0,0,0-1.441.725,3.367,3.367,0,0,0-.519,1.991,2.914,2.914,0,0,0,.5,1.828,1.663,1.663,0,0,0,1.389.642,1.67,1.67,0,0,0,1.375-.677A2.821,2.821,0,0,0,28.478-4.377ZM41.031,0H38.4V-1.292h-.035A2.933,2.933,0,0,1,35.687.22a2.8,2.8,0,0,1-2.061-.743A2.661,2.661,0,0,1,32.875-2.5q0-2.619,3.1-3.023l2.443-.325q0-1.477-1.6-1.477a5.46,5.46,0,0,0-3.059.958V-8.464a6.881,6.881,0,0,1,1.586-.527,8.339,8.339,0,0,1,1.833-.229q3.85,0,3.85,3.841Zm-2.61-3.656v-.606l-1.635.211q-1.354.176-1.354,1.222a1.01,1.01,0,0,0,.33.778,1.266,1.266,0,0,0,.892.3,1.644,1.644,0,0,0,1.274-.541A1.952,1.952,0,0,0,38.421-3.656ZM52.037,0H49.259V-1.239h-.035A3.114,3.114,0,0,1,46.438.22,3.412,3.412,0,0,1,43.722-.971,4.93,4.93,0,0,1,42.694-4.3a5.366,5.366,0,0,1,1.134-3.577A3.7,3.7,0,0,1,46.8-9.22a2.527,2.527,0,0,1,2.426,1.248h.035v-5.353h2.777ZM49.312-4.377v-.677a2.13,2.13,0,0,0-.51-1.459,1.683,1.683,0,0,0-1.327-.58,1.673,1.673,0,0,0-1.441.725,3.367,3.367,0,0,0-.519,1.991,2.914,2.914,0,0,0,.5,1.828,1.663,1.663,0,0,0,1.389.642,1.67,1.67,0,0,0,1.375-.677A2.821,2.821,0,0,0,49.312-4.377Z" transform="translate(1036 2533.5)" fill="#fff"/>
          <path id="Trazado_1092201" data-name="Trazado 1092201" d="M-50.493,0h-3.094l-.9-2.8h-4.482L-59.853,0h-3.076l4.588-12.6h3.366Zm-4.641-4.983L-56.487-9.22a5.521,5.521,0,0,1-.211-1.134h-.07a4.807,4.807,0,0,1-.22,1.1l-1.371,4.271ZM-40.5,0h-2.769V-5q0-2.092-1.494-2.092a1.483,1.483,0,0,0-1.187.554,2.109,2.109,0,0,0-.466,1.406V0H-49.19V-9h2.777v1.424h.035A3.183,3.183,0,0,1-43.486-9.22q2.988,0,2.988,3.709Zm7.639-.105A4.105,4.105,0,0,1-34.713.22q-2.936,0-2.936-3.05V-6.952h-1.459V-9h1.459v-1.942l2.769-.791V-9h2.021v2.048H-34.88v3.639q0,1.406,1.116,1.406a1.882,1.882,0,0,0,.905-.255Zm2.973-10.318a1.622,1.622,0,0,1-1.151-.417,1.345,1.345,0,0,1-.448-1.024,1.3,1.3,0,0,1,.448-1.02,1.676,1.676,0,0,1,1.151-.4,1.672,1.672,0,0,1,1.156.4,1.3,1.3,0,0,1,.444,1.02,1.34,1.34,0,0,1-.444,1.037A1.65,1.65,0,0,1-29.886-10.424ZM-28.515,0h-2.777V-9h2.777Zm3.746-10.424a1.622,1.622,0,0,1-1.151-.417,1.345,1.345,0,0,1-.448-1.024,1.3,1.3,0,0,1,.448-1.02,1.676,1.676,0,0,1,1.151-.4,1.672,1.672,0,0,1,1.156.4,1.3,1.3,0,0,1,.444,1.02,1.34,1.34,0,0,1-.444,1.037A1.65,1.65,0,0,1-24.769-10.424ZM-23.4-.158a4.892,4.892,0,0,1-.976,3.19,3.421,3.421,0,0,1-2.812,1.2,3.889,3.889,0,0,1-1.327-.264V1.784a2.163,2.163,0,0,0,1.028.325q1.31,0,1.31-2.057V-9H-23.4ZM-12.506,0h-2.769V-1.371h-.044A3.141,3.141,0,0,1-18.07.22Q-21.2.22-21.2-3.568V-9h2.769v5.186q0,1.907,1.512,1.907a1.5,1.5,0,0,0,1.2-.523,2.109,2.109,0,0,0,.448-1.419V-9h2.769ZM-4.3-6.5a2.409,2.409,0,0,0-1.169-.272A1.684,1.684,0,0,0-6.879-6.1,2.9,2.9,0,0,0-7.389-4.3V0h-2.777V-9h2.777v1.67h.035A2.4,2.4,0,0,1-4.981-9.158a1.788,1.788,0,0,1,.686.105Zm2.77-3.929a1.622,1.622,0,0,1-1.151-.417,1.345,1.345,0,0,1-.448-1.024,1.3,1.3,0,0,1,.448-1.02,1.676,1.676,0,0,1,1.151-.4,1.672,1.672,0,0,1,1.156.4,1.3,1.3,0,0,1,.444,1.02,1.34,1.34,0,0,1-.444,1.037A1.65,1.65,0,0,1-1.525-10.424ZM-.154,0H-2.931V-9H-.154ZM10.993,0H8.215V-1.239H8.18A3.114,3.114,0,0,1,5.394.22,3.412,3.412,0,0,1,2.678-.971,4.93,4.93,0,0,1,1.65-4.3,5.366,5.366,0,0,1,2.784-7.875,3.7,3.7,0,0,1,5.754-9.22,2.527,2.527,0,0,1,8.18-7.972h.035v-5.353h2.777ZM8.268-4.377v-.677a2.13,2.13,0,0,0-.51-1.459,1.683,1.683,0,0,0-1.327-.58,1.673,1.673,0,0,0-1.441.725,3.367,3.367,0,0,0-.519,1.991,2.914,2.914,0,0,0,.5,1.828,1.663,1.663,0,0,0,1.389.642,1.67,1.67,0,0,0,1.375-.677A2.821,2.821,0,0,0,8.268-4.377Zm6.471-6.047a1.622,1.622,0,0,1-1.151-.417,1.345,1.345,0,0,1-.448-1.024,1.3,1.3,0,0,1,.448-1.02,1.676,1.676,0,0,1,1.151-.4,1.672,1.672,0,0,1,1.156.4,1.3,1.3,0,0,1,.444,1.02,1.34,1.34,0,0,1-.444,1.037A1.65,1.65,0,0,1,14.738-10.424ZM16.11,0H13.332V-9H16.11Zm9.16-.325A5.492,5.492,0,0,1,22.554.22,4.593,4.593,0,0,1,19.2-1.037,4.341,4.341,0,0,1,17.913-4.28,4.782,4.782,0,0,1,19.289-7.9,5.083,5.083,0,0,1,22.967-9.22a4.72,4.72,0,0,1,2.3.422v2.355a3.166,3.166,0,0,0-1.942-.65,2.559,2.559,0,0,0-1.894.7,2.607,2.607,0,0,0-.7,1.929A2.565,2.565,0,0,0,21.4-2.588a2.455,2.455,0,0,0,1.837.681,3.666,3.666,0,0,0,2.03-.65Zm3.227-10.1a1.622,1.622,0,0,1-1.151-.417,1.345,1.345,0,0,1-.448-1.024,1.3,1.3,0,0,1,.448-1.02,1.676,1.676,0,0,1,1.151-.4,1.672,1.672,0,0,1,1.156.4,1.3,1.3,0,0,1,.444,1.02,1.34,1.34,0,0,1-.444,1.037A1.65,1.65,0,0,1,28.5-10.424ZM29.868,0H27.091V-9h2.777ZM41.014,0H38.237V-1.239H38.2A3.114,3.114,0,0,1,35.416.22,3.412,3.412,0,0,1,32.7-.971,4.93,4.93,0,0,1,31.672-4.3a5.366,5.366,0,0,1,1.134-3.577A3.7,3.7,0,0,1,35.776-9.22,2.527,2.527,0,0,1,38.2-7.972h.035v-5.353h2.777ZM38.29-4.377v-.677a2.13,2.13,0,0,0-.51-1.459,1.683,1.683,0,0,0-1.327-.58,1.673,1.673,0,0,0-1.441.725,3.367,3.367,0,0,0-.519,1.991,2.914,2.914,0,0,0,.5,1.828,1.663,1.663,0,0,0,1.389.642,1.67,1.67,0,0,0,1.375-.677A2.821,2.821,0,0,0,38.29-4.377ZM50.842,0H48.214V-1.292h-.035A2.933,2.933,0,0,1,45.5.22a2.8,2.8,0,0,1-2.061-.743A2.661,2.661,0,0,1,42.686-2.5q0-2.619,3.1-3.023l2.443-.325q0-1.477-1.6-1.477a5.46,5.46,0,0,0-3.059.958V-8.464a6.881,6.881,0,0,1,1.586-.527,8.339,8.339,0,0,1,1.833-.229q3.85,0,3.85,3.841Zm-2.61-3.656v-.606L46.6-4.052q-1.354.176-1.354,1.222a1.01,1.01,0,0,0,.33.778,1.266,1.266,0,0,0,.892.3A1.644,1.644,0,0,0,47.74-2.29,1.952,1.952,0,0,0,48.232-3.656ZM61.848,0H59.071V-1.239h-.035A3.114,3.114,0,0,1,56.249.22,3.412,3.412,0,0,1,53.534-.971,4.93,4.93,0,0,1,52.505-4.3a5.366,5.366,0,0,1,1.134-3.577A3.7,3.7,0,0,1,56.61-9.22a2.527,2.527,0,0,1,2.426,1.248h.035v-5.353h2.777ZM59.123-4.377v-.677a2.13,2.13,0,0,0-.51-1.459,1.683,1.683,0,0,0-1.327-.58,1.673,1.673,0,0,0-1.441.725,3.367,3.367,0,0,0-.519,1.991,2.914,2.914,0,0,0,.5,1.828,1.663,1.663,0,0,0,1.389.642,1.67,1.67,0,0,0,1.375-.677A2.821,2.821,0,0,0,59.123-4.377Z" transform="translate(805 2206.5)" fill="#fff"/>
        </g>
      </g>
      <path id="debt_12198039" d="M143.478,25.256a4.91,4.91,0,0,0-4.9-4.9h-.219a4.9,4.9,0,0,0-4.542-6.754H118.188l4.229-3.314c3.04-2.382,2.839-5.129,1.743-6.757C122.459,1,118.045-.094,113.6,2.45a102.584,102.584,0,0,0-9.5,6.184c-3.21,2.3-5.057,3.621-8.034,4.155V10.6A3.049,3.049,0,0,0,93.026,7.55H89.318A3.049,3.049,0,0,0,86.272,10.6v3.065H77.021a3.049,3.049,0,0,0-3.046,3.046v19.2a3.049,3.049,0,0,0,3.046,3.046h9.252v3.3a3.049,3.049,0,0,0,3.046,3.046h.327v1.855h-.063a3.578,3.578,0,0,0-3.574,3.574v7.654a3.578,3.578,0,0,0,3.574,3.574h3.18a3.576,3.576,0,0,0,3.35-2.342l2.515-.674.016.061a3.572,3.572,0,0,0,4.377,2.527l7.393-1.981a3.58,3.58,0,0,0,2.527-4.377l-.016-.061,2.881-.772a5.137,5.137,0,0,0,.573,2.076,4.208,4.208,0,0,0-2.739,3.938v1.818a18.93,18.93,0,1,0,14.667-.369v-1.45a4.208,4.208,0,0,0-2.739-3.938,5.175,5.175,0,0,0-8.709-5.52l-4.726,1.266-.016-.061a3.58,3.58,0,0,0-4.377-2.527l-7.394,1.981a3.578,3.578,0,0,0-2.527,4.377l.016.061-1.5.4V50.734a3.578,3.578,0,0,0-3.574-3.574H92.7V45.305h.327a3.049,3.049,0,0,0,3.046-3.046V40.81c5.57,2.552,12.248,2.858,15.119,2.858h17.617a4.9,4.9,0,0,0,4.542-6.754h1.183a4.9,4.9,0,0,0,4.531-6.778,4.911,4.911,0,0,0,4.413-4.88ZM77.03,35.911l-.009-19.2h9.252V35.9Zm60.26,43.526a15.877,15.877,0,1,1-15.877-15.877A15.895,15.895,0,0,1,137.289,79.437ZM121.413,60.506a18.9,18.9,0,0,0-4.716.595v-.744a1.147,1.147,0,0,1,1.146-1.146h2.986c.049,0,.1,0,.147,0s.1,0,.147,0h2.986a1.147,1.147,0,0,1,1.146,1.146V60.9a18.937,18.937,0,0,0-3.841-.392Zm-.437-8.592a2.122,2.122,0,0,1,.074,4.242H120.9a2.122,2.122,0,0,1,.074-4.242Zm-20.2,3.231a.526.526,0,0,1,.367-.636l7.394-1.981a.5.5,0,0,1,.131-.018.532.532,0,0,1,.262.071.518.518,0,0,1,.243.313l.016.061-.886.237a1.527,1.527,0,1,0,.791,2.951l.886-.237.016.061a.525.525,0,0,1-.367.636l-7.393,1.981a.525.525,0,0,1-.636-.367l-.016-.061.886-.237a1.527,1.527,0,1,0-.791-2.951l-.886.237Zm-8.01-4.929a.526.526,0,0,1,.519.519v7.654a.526.526,0,0,1-.519.519h-3.18a.526.526,0,0,1-.519-.519V50.734a.526.526,0,0,1,.519-.519h.063v.917a1.527,1.527,0,1,0,3.055,0v-.917Zm.255-7.964-1.761,0c-.028,0-.056,0-.085,0s-.062,0-.093,0l-1.752,0L89.319,10.6l3.7-.009Zm45.556-15.145H118.084a1.527,1.527,0,1,0,0,3.055h16.457a1.85,1.85,0,0,1-.008,3.7H117.873a1.527,1.527,0,0,0,0,3.055h10.935a1.85,1.85,0,1,1,0,3.7H111.191c-2.887,0-9.945-.326-15.119-3.226V15.881c3.993-.6,6.38-2.305,9.813-4.765A99.968,99.968,0,0,1,115.122,5.1c3.021-1.73,5.718-1.035,6.5.132.712,1.058-.527,2.2-1.093,2.647l-7.712,6.043a1.527,1.527,0,0,0,.942,2.73h20.051a1.85,1.85,0,0,1,0,3.7h-16.46a1.527,1.527,0,1,0,0,3.055h21.215a1.85,1.85,0,0,1,0,3.7ZM107.738,79.437a13.675,13.675,0,1,0,13.675-13.675A13.69,13.69,0,0,0,107.738,79.437Zm24.3,0a10.62,10.62,0,1,1-10.62-10.62A10.632,10.632,0,0,1,132.033,79.437Zm-10.62-8.747a1.527,1.527,0,0,1,1.527,1.527v.764a4.081,4.081,0,0,1,2.275,1.555,1.527,1.527,0,0,1-2.475,1.79,1.009,1.009,0,0,0-.813-.421h-.8a1,1,0,0,0,0,2h.565a4.057,4.057,0,0,1,1.245,7.918v.829a1.527,1.527,0,0,1-3.055,0v-.764a4.081,4.081,0,0,1-2.275-1.555,1.527,1.527,0,1,1,2.475-1.79,1.009,1.009,0,0,0,.813.421h.8a1,1,0,0,0,0-2h-.566a4.057,4.057,0,0,1-1.245-7.919v-.829A1.527,1.527,0,0,1,121.413,70.69Z" transform="translate(211.264 1709.549)" fill="#fff"/>
      <g id="g2763" transform="translate(528.4 2358.343)">
        <g id="g2765" transform="translate(40.828 -665.883)">
          <path id="path2767" d="M-146.687-93.347l-9.135,9.135L-171.81-100.2l9.136-9.135Z" transform="translate(171.81 109.334)" fill="none" stroke="#fff" stroke-linecap="round" stroke-linejoin="round" stroke-miterlimit="10" stroke-width="2"/>
        </g>
        <g id="g2769" transform="translate(0 -682.665)">
          <g id="g2771" clip-path="url(#clip-path)">
            <g id="g2777" transform="translate(57.463 1.439)">
              <path id="path2779" d="M-136.476-122.685l-2.362,2.362a1.56,1.56,0,0,1-2.206,0l-18.349-18.349a1.56,1.56,0,0,1,0-2.206l2.362-2.362a1.56,1.56,0,0,1,2.206,0l18.349,18.35A1.56,1.56,0,0,1-136.476-122.685Z" transform="translate(159.85 143.697)" fill="none" stroke="#fff" stroke-linecap="round" stroke-linejoin="round" stroke-miterlimit="10" stroke-width="2"/>
            </g>
            <g id="g2781" transform="translate(49.468 11.718)">
              <path id="path2783" d="M-123.424-109.632l-2.362,2.362a1.56,1.56,0,0,1-2.206,0l-16.114-16.114a1.56,1.56,0,0,1,0-2.206l2.362-2.362a1.56,1.56,0,0,1,2.206,0l16.114,16.114A1.56,1.56,0,0,1-123.424-109.632Z" transform="translate(144.562 128.409)" fill="none" stroke="#fff" stroke-linecap="round" stroke-linejoin="round" stroke-miterlimit="10" stroke-width="2"/>
            </g>
            <g id="g2785" transform="translate(54.53 6.5)">
              <path id="path2787" d="M0-33.371l3.432-5.715" transform="translate(0 39.087)" fill="none" stroke="#fff" stroke-linecap="round" stroke-linejoin="round" stroke-miterlimit="10" stroke-width="2"/>
            </g>
            <g id="g2789" transform="translate(70.566 24.771)">
              <path id="path2791" d="M0-20.319,5.667-23.8" transform="translate(0 23.799)" fill="none" stroke="#fff" stroke-linecap="round" stroke-linejoin="round" stroke-miterlimit="10" stroke-width="2"/>
            </g>
            <g id="g2793" transform="translate(25.486 33.416)">
              <path id="path2795" d="M-2.668-16.458-.306-18.82a1.56,1.56,0,0,1,2.206,0L20.249-.471a1.56,1.56,0,0,1,0,2.206L17.887,4.1a1.56,1.56,0,0,1-2.206,0L-2.668-14.253A1.559,1.559,0,0,1-2.668-16.458Z" transform="translate(3.125 19.277)" fill="none" stroke="#fff" stroke-linecap="round" stroke-linejoin="round" stroke-miterlimit="10" stroke-width="2"/>
            </g>
            <g id="g2797" transform="translate(35.717 25.373)">
              <path id="path2799" d="M-2.667-16.458-.305-18.82a1.56,1.56,0,0,1,2.206,0L18.015-2.707a1.56,1.56,0,0,1,0,2.206L15.653,1.861a1.56,1.56,0,0,1-2.206,0L-2.667-14.253A1.56,1.56,0,0,1-2.667-16.458Z" transform="translate(3.124 19.277)" fill="none" stroke="#fff" stroke-linecap="round" stroke-linejoin="round" stroke-miterlimit="10" stroke-width="2"/>
            </g>
            <g id="g2801" transform="translate(48.818 46.471)">
              <path id="path2803" d="M-20.036,0l-3.432,5.715" transform="translate(23.468)" fill="none" stroke="#fff" stroke-linecap="round" stroke-linejoin="round" stroke-miterlimit="10" stroke-width="2"/>
            </g>
            <g id="g2805" transform="translate(30.547 30.435)">
              <path id="path2807" d="M-33.089,0l-5.667,3.48" transform="translate(38.756)" fill="none" stroke="#fff" stroke-linecap="round" stroke-linejoin="round" stroke-miterlimit="10" stroke-width="2"/>
            </g>
            <g id="g2809" transform="translate(63.667 35.053)">
              <path id="path2811" d="M-65.876-125.6l16.126,17.238a1.615,1.615,0,0,0,2.321.039l4.49-4.49a1.615,1.615,0,0,0-.039-2.321L-77.158-147.11" transform="translate(77.158 147.11)" fill="none" stroke="#fff" stroke-linecap="round" stroke-linejoin="round" stroke-miterlimit="10" stroke-width="2"/>
            </g>
            <g id="g2813" transform="translate(59.099 39.621)">
              <path id="path2815" d="M0,0,11.186,11.957" fill="none" stroke="#fff" stroke-linecap="round" stroke-linejoin="round" stroke-miterlimit="10" stroke-width="2"/>
            </g>
            <g id="g2817" transform="translate(67.926 43.884)">
              <path id="path2819" d="M0-30.25l5.181-5.181" transform="translate(0 35.431)" fill="none" stroke="#fff" stroke-linecap="round" stroke-linejoin="round" stroke-miterlimit="10" stroke-width="2"/>
            </g>
            <g id="g2821" transform="translate(1.462 85.44)">
              <path id="path2823" d="M-90.485-75.436h47.542A1.56,1.56,0,0,0-41.384-77v-8.241A3.12,3.12,0,0,0-44.5-88.356h-58.36a3.12,3.12,0,0,0-3.119,3.119V-77a1.56,1.56,0,0,0,1.56,1.56h7.114" transform="translate(105.982 88.356)" fill="none" stroke="#fff" stroke-linecap="round" stroke-linejoin="round" stroke-miterlimit="10" stroke-width="2"/>
            </g>
            <g id="g2825" transform="translate(11.152 72.521)">
              <path id="path2827" d="M-264.024-37.717h-45.219v-4.9a1.56,1.56,0,0,1,1.56-1.56h42.1a1.56,1.56,0,0,1,1.56,1.56Z" transform="translate(309.243 44.177)" fill="none" stroke="#fff" stroke-linecap="round" stroke-linejoin="round" stroke-miterlimit="10" stroke-width="2"/>
            </g>
            <g id="g2829" transform="translate(4.692 78.98)">
              <path id="path2831" d="M0-37.717l1.309-5.237a1.615,1.615,0,0,1,1.567-1.223H55.263a1.615,1.615,0,0,1,1.567,1.223l1.309,5.237" transform="translate(0 44.177)" fill="none" stroke="#fff" stroke-linecap="round" stroke-linejoin="round" stroke-miterlimit="10" stroke-width="2"/>
            </g>
            <g id="g2833" transform="translate(1.462 91.9)">
              <path id="path2835" d="M0,0H64.6" fill="none" stroke="#fff" stroke-linecap="round" stroke-linejoin="round" stroke-miterlimit="10" stroke-width="2"/>
            </g>
            <g id="g2837" transform="translate(4.692 66.061)">
              <path id="path2839" d="M0,0H6.46" fill="none" stroke="#fff" stroke-linecap="round" stroke-linejoin="round" stroke-miterlimit="10" stroke-width="2"/>
            </g>
            <g id="g2841" transform="translate(10.75 43.451)">
              <path id="path2843" d="M0,0,5.594,3.23" fill="none" stroke="#fff" stroke-linecap="round" stroke-linejoin="round" stroke-miterlimit="10" stroke-width="2"/>
            </g>
          </g>
        </g>
      </g>
      <g id="official-documents_3052280" transform="translate(994 1675.435)">
        <path id="Trazado_1091132" data-name="Trazado 1091132" d="M54.174,33.051a3.883,3.883,0,0,0-.8-4.006,3.989,3.989,0,0,0-2.965-6.677h-.146A40.57,40.57,0,0,1,52.3,15.7,10.691,10.691,0,0,0,49.192,3.436,10.75,10.75,0,0,0,40.27,1.207,10.638,10.638,0,0,0,31.9,9.653a10.864,10.864,0,0,0,.418,5.585q.325.917.617,1.81a9.367,9.367,0,0,0-5.588,2.027l-4.041,3.233L1,19.518V43.912l5.342-.668V77.122A6.685,6.685,0,0,0,13.019,83.8H83.8V33.051ZM54.42,61.1a12.019,12.019,0,1,1-24.039,0,11.906,11.906,0,0,1,2.034-6.677h3.456a9.348,9.348,0,1,0,13.058,0h3.456A11.9,11.9,0,0,1,54.42,61.1Zm-5.342,0A6.685,6.685,0,0,1,42.4,67.773a6.563,6.563,0,0,1-.71-.072l7.316-7.316A6.563,6.563,0,0,1,49.078,61.1Zm-1.032-3.528-9.173,9.173a6.711,6.711,0,0,1-2.118-2.118l9.173-9.173A6.683,6.683,0,0,1,48.045,57.568Zm-4.935-3.077-7.316,7.316a6.563,6.563,0,0,1-.072-.71A6.685,6.685,0,0,1,42.4,54.418,6.563,6.563,0,0,1,43.111,54.491ZM54.42,51.747H30.381V50.412a4.011,4.011,0,0,1,4.006-4.006H50.413a4.011,4.011,0,0,1,4.006,4.006ZM37.71,25.038h3.355c.087,0,.168-.021.254-.025a3.891,3.891,0,0,0,.788,4.032,3.945,3.945,0,0,0,0,5.342,3.945,3.945,0,0,0,0,5.342,3.883,3.883,0,0,0-.8,4.006H38.394V32.613a45.033,45.033,0,0,0-.684-7.575Zm7.361,18.7a1.335,1.335,0,1,1,0-2.671h5.342a1.335,1.335,0,0,1,0,2.671Zm6.677-6.677a1.337,1.337,0,0,1-1.335,1.335H45.071a1.335,1.335,0,0,1,0-2.671h5.342A1.337,1.337,0,0,1,51.749,37.057Zm-4.006-4.006H45.071a1.335,1.335,0,0,1,0-2.671h5.342a1.335,1.335,0,1,1,0,2.671Zm4.006-6.677a1.337,1.337,0,0,1-1.335,1.335H45.071a1.335,1.335,0,1,1,0-2.671h5.342A1.337,1.337,0,0,1,51.749,26.373ZM34.53,10.139a7.948,7.948,0,0,1,6.249-6.312A8.091,8.091,0,0,1,47.492,5.5a8.021,8.021,0,0,1,2.336,9.2,43.764,43.764,0,0,0-2.288,7.672H45.664a5.287,5.287,0,0,0,.743-2.671,2.674,2.674,0,0,0-2.671-2.671h-8c-.275-.873-.568-1.764-.892-2.678A8.071,8.071,0,0,1,34.53,10.139Zm-5.51,11.02A6.7,6.7,0,0,1,33.191,19.7H43.736a2.674,2.674,0,0,1-2.671,2.671H36.505l-2.05,2.05a6.637,6.637,0,0,1-4.722,1.956H27.71v2.671h2.023a9.268,9.268,0,0,0,5.605-1.879,41.018,41.018,0,0,1,.385,5.447V43.735H33.191a6.7,6.7,0,0,1-4.171-1.464l-3.981-3.185V24.345ZM3.671,22.544l18.7,2.337V38.549l-18.7,2.337ZM17.026,41.909V70.444H13.019a6.608,6.608,0,0,0-4.006,1.37v-28.9Zm64.1,39.219H13.019a4.006,4.006,0,1,1,0-8.013H19.7V41.575l3.612-.451,4.041,3.233a9.284,9.284,0,0,0,2.324,1.33,6.656,6.656,0,0,0-1.965,4.725v4.006h1.605a14.69,14.69,0,1,0,26.172,0h1.6V50.412a6.654,6.654,0,0,0-3.365-5.763,3.966,3.966,0,0,0-.347-4.921,3.883,3.883,0,0,0,.8-4.006H81.129Z" transform="translate(0 0)" fill="#fff"/>
        <path id="Trazado_1091133" data-name="Trazado 1091133" d="M45,29h2.671V69.065H45Z" transform="translate(14.761 9.393)" fill="#fff"/>
        <path id="Trazado_1091134" data-name="Trazado 1091134" d="M49,29h2.671v2.671H49Z" transform="translate(16.103 9.393)" fill="#fff"/>
        <path id="Trazado_1091135" data-name="Trazado 1091135" d="M49,33h2.671V54.368H49Z" transform="translate(16.103 10.735)" fill="#fff"/>
        <path id="Trazado_1091136" data-name="Trazado 1091136" d="M49,51h2.671V61.684H49Z" transform="translate(16.103 16.773)" fill="#fff"/>
        <path id="Trazado_1091137" data-name="Trazado 1091137" d="M53,29h2.671V69.065H53Z" transform="translate(17.445 9.393)" fill="#fff"/>
        <path id="Trazado_1091138" data-name="Trazado 1091138" d="M57,29h2.671V69.065H57Z" transform="translate(18.787 9.393)" fill="#fff"/>
      </g>
    </g>
    <path id="crime_16459203" d="M3.3,31.376h.786l.844,6.178c0,.019.006.038.009.058a2.207,2.207,0,0,1-.245,1.5L2.644,42.748a4.427,4.427,0,0,0-.563,1.923l-.6,10.855a1.092,1.092,0,0,0,.026.284L.231,58.97a2.922,2.922,0,0,0,1.593,3.8l1.964.839a2.881,2.881,0,0,0,2.117.084,2.966,2.966,0,0,0,1.423,1.279l1.964.839a2.881,2.881,0,0,0,2.117.084,2.966,2.966,0,0,0,1.423,1.279l1.964.839a2.882,2.882,0,0,0,2.117.084,2.966,2.966,0,0,0,1.423,1.279l1.964.839a3,3,0,0,0,2.34.016,2.93,2.93,0,0,0,1.614-1.618l1.493-3.687a5.094,5.094,0,0,1-.567-.088l-1.63-.352-1.336,3.3a.745.745,0,0,1-.413.409.812.812,0,0,1-.635-.005L19.2,67.351a.735.735,0,0,1-.418-.948l1.1-2.709-2.211-.478-.959,2.369a.745.745,0,0,1-.413.409.81.81,0,0,1-.635-.005L13.7,65.149a.735.735,0,0,1-.418-.948l.814-2.009a5.011,5.011,0,0,1-1.737-1.649l-1.15,2.84a.745.745,0,0,1-.413.409.81.81,0,0,1-.635-.005l-1.964-.839A.735.735,0,0,1,7.775,62l3.071-7.583a.745.745,0,0,1,.413-.409.812.812,0,0,1,.311-.062.823.823,0,0,1,.324.067h0l.294.126a5.109,5.109,0,0,1,.984-1.974l-.412-.176h0a2.987,2.987,0,0,0-2.118-.083,2.966,2.966,0,0,0-1.423-1.28l-1.963-.839h0a3,3,0,0,0-3.284.607l.308-5.6a2.207,2.207,0,0,1,.282-.962l2.053-3.639a4.411,4.411,0,0,0,.5-2.962l-.8-5.853H20.267l-.52,7.265a1.1,1.1,0,0,0,.348.885L31.2,49.858a.592.592,0,0,1,.145.673L26.9,60.148a.7.7,0,0,1-.8.385L16.5,58.457a.633.633,0,0,1-.516-.591l.443-2.429a1.108,1.108,0,0,0,.016-.133.632.632,0,0,1,.229-.445.711.711,0,0,1,.547-.165l.068.005,7.175.343A1.1,1.1,0,0,0,25.32,53.2l-6.247-6.8a1.1,1.1,0,0,0-1.621,1.49l4.435,4.827L17.418,52.5a2.934,2.934,0,0,0-2.17.674,2.813,2.813,0,0,0-1,1.924L13.8,57.555a1.108,1.108,0,0,0-.016.133,2.82,2.82,0,0,0,2.249,2.921l9.613,2.077a2.919,2.919,0,0,0,3.266-1.627l4.436-9.617a2.81,2.81,0,0,0-.644-3.19L21.981,38.273l.494-6.9h1.741a3.3,3.3,0,0,0,3.253-2.752h2.3a3.3,3.3,0,0,0,3.252,2.752h4.4a3.3,3.3,0,0,0,3.252-2.752h2.3a3.3,3.3,0,0,0,3.252,2.752h1.76l.494,6.9L37.759,48.255a2.812,2.812,0,0,0-.635,3.2l4.426,9.594a2.92,2.92,0,0,0,3.27,1.639l9.614-2.077a2.82,2.82,0,0,0,2.249-2.921,1.112,1.112,0,0,0-.016-.134L56.218,55.1a2.81,2.81,0,0,0-1-1.924,2.934,2.934,0,0,0-2.17-.674l-4.47.214,4.435-4.827a1.1,1.1,0,0,0-1.621-1.49l-6.247,6.8a1.1,1.1,0,0,0-.187,1.211,1.088,1.088,0,0,0,1.05.633l7.175-.343.068-.005a.717.717,0,0,1,.546.164.632.632,0,0,1,.229.446,1.111,1.111,0,0,0,.016.134l.444,2.429a.633.633,0,0,1-.516.59l-9.614,2.077a.709.709,0,0,1-.8-.4l-4.425-9.593a.594.594,0,0,1,.134-.68L50.37,39.526a1.1,1.1,0,0,0,.348-.885l-.52-7.265H64.155l-.8,5.853a4.4,4.4,0,0,0,.5,2.962L65.9,43.83a2.213,2.213,0,0,1,.281.961l.308,5.6a3,3,0,0,0-3.284-.607l-1.963.839a2.966,2.966,0,0,0-1.423,1.28,2.987,2.987,0,0,0-2.118.083l-.412.176a5.109,5.109,0,0,1,.984,1.974l.293-.125a.816.816,0,0,1,.636-.005.744.744,0,0,1,.413.409L62.69,62a.735.735,0,0,1-.418.948l-1.963.839a.816.816,0,0,1-.636.005.744.744,0,0,1-.413-.409l-1.15-2.841a5.01,5.01,0,0,1-1.737,1.65l.813,2.009a.735.735,0,0,1-.418.948l-1.963.839a.816.816,0,0,1-.636.005.745.745,0,0,1-.413-.409L52.8,63.216l-2.211.478,1.1,2.709a.735.735,0,0,1-.418.948L49.3,68.19a.816.816,0,0,1-.636.005.744.744,0,0,1-.413-.409l-1.336-3.3-1.63.352a5.1,5.1,0,0,1-.567.088l1.493,3.687a2.93,2.93,0,0,0,1.614,1.618,3,3,0,0,0,2.34-.016l1.963-.839A2.966,2.966,0,0,0,53.552,68.1a2.883,2.883,0,0,0,2.118-.083l1.963-.839a2.966,2.966,0,0,0,1.423-1.279,2.883,2.883,0,0,0,2.118-.083l1.963-.839a2.966,2.966,0,0,0,1.423-1.279,2.883,2.883,0,0,0,2.118-.083l1.963-.839a2.922,2.922,0,0,0,1.593-3.8l-1.28-3.161a1.091,1.091,0,0,0,.026-.284l-.6-10.856a4.428,4.428,0,0,0-.562-1.922l-2.053-3.639a2.205,2.205,0,0,1-.245-1.5q.006-.029.01-.058l.844-6.178h.768a3.306,3.306,0,0,0,3.3-3.3v-1.1a3.305,3.305,0,0,0-3.019-3.288L70.45,1.574a1.1,1.1,0,1,0-2.181-.3L65.208,23.67H49.645L48.023,1.022a1.1,1.1,0,1,0-2.2.158l1.611,22.49H46.231a3.3,3.3,0,0,0-3.252,2.752h-2.3a3.3,3.3,0,0,0-3.252-2.752h-4.4a3.3,3.3,0,0,0-3.252,2.752h-2.3a3.3,3.3,0,0,0-3.252-2.752H23.027L24.638,1.18a1.1,1.1,0,0,0-2.2-.158L20.819,23.67H5.257L2.2,1.275a1.1,1.1,0,1,0-2.181.3l3.022,22.11A3.3,3.3,0,0,0,0,26.973v1.1a3.306,3.306,0,0,0,3.3,3.3Zm2.04,20.837a.745.745,0,0,1,.413-.409.812.812,0,0,1,.311-.062.824.824,0,0,1,.324.067h0l1.963.839a.735.735,0,0,1,.418.949L5.7,61.181a.745.745,0,0,1-.413.409.81.81,0,0,1-.635-.005l-1.964-.839a.735.735,0,0,1-.418-.948ZM68.193,59.8a.735.735,0,0,1-.418.948l-1.963.839a.815.815,0,0,1-.636.005.745.745,0,0,1-.413-.409L61.692,53.6a.735.735,0,0,1,.418-.948l1.963-.839a.815.815,0,0,1,.636-.005.745.745,0,0,1,.413.409ZM45.13,26.973a1.1,1.1,0,0,1,1.1-1.1H67.144a1.1,1.1,0,0,1,1.1,1.1v1.1a1.1,1.1,0,0,1-1.1,1.1H46.231a1.1,1.1,0,0,1-1.1-1.1Zm-13.209,0a1.1,1.1,0,0,1,1.1-1.1h4.4a1.1,1.1,0,0,1,1.1,1.1v1.1a1.1,1.1,0,0,1-1.1,1.1h-4.4a1.1,1.1,0,0,1-1.1-1.1Zm-29.72,0a1.1,1.1,0,0,1,1.1-1.1H24.216a1.1,1.1,0,0,1,1.1,1.1v1.1a1.1,1.1,0,0,1-1.1,1.1H3.3a1.1,1.1,0,0,1-1.1-1.1Z" transform="translate(1238.237 1709.237)" fill="#fff"/>
    <g id="Grupo_1219994" data-name="Grupo 1219994" transform="translate(569.644 1463.113)">
      <g id="Grupo_1219993" data-name="Grupo 1219993" transform="translate(136.038 72.447)">
        <path id="Trazado_1091345" data-name="Trazado 1091345" d="M308.605,206.359,348.9,288.142l-25.674,12.6-32.071-30.4Z" transform="translate(-168.369 -100.359)" fill="#d13a3a"/>
        <path id="Trazado_1091346" data-name="Trazado 1091346" d="M165.971,203.7l-26.958,90.185,22.208,8.687,32.171-41.986Z" transform="translate(-136.658 -99.806)" fill="#d13a3a"/>
        <g id="Grupo_1219987" data-name="Grupo 1219987" transform="translate(28.848)">
          <path id="Trazado_1091347" data-name="Trazado 1091347" d="M272.31,147.347c-.249-1.123-.471-2.253-.686-3.378-1.064-5.559-2.132-11.22-1.507-16.845.592-5.336,2.685-10.4,3.488-15.711a33.368,33.368,0,0,0-7.037-25.731c-14.627-17.938-43.95-16.97-59.6-1.162a42.387,42.387,0,0,0-11.376,36.793c.822,4.5,2.353,9.319.439,13.476a24.313,24.313,0,0,1-2.983,4.355C217.759,147.958,246.164,152.527,272.31,147.347Z" transform="translate(-176.769 -72.447)" fill="#2a1510"/>
          <path id="Trazado_1091348" data-name="Trazado 1091348" d="M175.4,401.265,197,467.713h39.358V406.62h3.1l25.023,61.093h37.337l-2.36-71.237L270.584,348.84,212.8,345.08Z" transform="translate(-173.091 -129.273)" fill="#2a1510"/>
          <g id="Grupo_1219982" data-name="Grupo 1219982" transform="translate(0 78.763)">
            <path id="Trazado_1091349" data-name="Trazado 1091349" d="M221.931,174.8a239.317,239.317,0,0,1-48.983,22.285c8.351,28.868,15.682,59.085,24.033,87.953a345.584,345.584,0,0,0-24.5,82.256c14.114,4.529,29.916,4.217,44.738,3.993,2.783-14.322,5.138-28.368,7.921-42.69,9.934,16.383,24.513,31.69,39.507,43.617,13.271-1.5,25.291-4.62,38.183-8.106a331.942,331.942,0,0,0-37.345-82.546c6.175-27.786,12.208-54.588,18.383-82.374-13.449-7.783-26.888-14.745-40.337-22.528-3.235-1.872-6.544-3.773-10.207-4.514S225.137,172.879,221.931,174.8Z" transform="translate(-172.483 -171.951)" fill="#d13a3a"/>
            <path id="Trazado_1091350" data-name="Trazado 1091350" d="M253.72,174.063l7.665,8.634-7.891,74.092-6.762,11.555-11.309-11.309-11.8-37.37.427-39.319,4.848-8.329Z" transform="translate(-183.142 -171.965)" fill="#f4e6d0"/>
            <g id="Grupo_1219980" data-name="Grupo 1219980" transform="translate(21.097 7.038)">
              <path id="Trazado_1091351" data-name="Trazado 1091351" d="M242.789,274.784l-3.713,6.163-3.553-5.212L199.9,223.552l9.078-5.007-9.838-8.431L219.9,180.842c1.5,30.543,10.166,60.683,19.16,84.477Q240.932,270.25,242.789,274.784Z" transform="translate(-199.135 -180.842)" fill="#d13a3a"/>
              <path id="Trazado_1091352" data-name="Trazado 1091352" d="M239.076,280.947l-3.553-5.212L199.9,223.552l9.078-5.007-9.839-8.431L219.9,180.842" transform="translate(-199.135 -180.842)" fill="none" stroke="#2a1510" stroke-linecap="round" stroke-linejoin="round" stroke-miterlimit="10" stroke-width="1"/>
            </g>
            <g id="Grupo_1219981" data-name="Grupo 1219981" transform="translate(41.42 7.395)">
              <path id="Trazado_1091353" data-name="Trazado 1091353" d="M271.531,216.044l9.352,4.49L248.14,274.878l-3.713,6.163L224.81,313.6a316.844,316.844,0,0,0,16.063-37.772c1.179-3.31,2.374-6.788,3.538-10.417,7.662-23.7,14.594-53.682,14.366-84.119l22.1,25.78Z" transform="translate(-224.81 -181.293)" fill="#d13a3a"/>
              <path id="Trazado_1091354" data-name="Trazado 1091354" d="M237.618,330.545c-5.876-10.043-7.5-23.144-1.5-33.11L246,281.042l3.713-6.163,32.742-54.344-9.352-4.49,9.352-8.971-22.1-25.78" transform="translate(-226.379 -181.293)" fill="none" stroke="#2a1510" stroke-linecap="round" stroke-linejoin="round" stroke-miterlimit="10" stroke-width="1"/>
            </g>
            <path id="Trazado_1091355" data-name="Trazado 1091355" d="M228.166,179.914a133.781,133.781,0,0,0,5.212,33.418,24.108,24.108,0,0,1,1.064-10.207,73.955,73.955,0,0,1,12.354,14.8,56.274,56.274,0,0,1,7.753-15.328q.9,4.556,1.794,9.112a83.468,83.468,0,0,0-1.123-33.4" transform="translate(-184.089 -173.275)" fill="none" stroke="#2a1510" stroke-linecap="round" stroke-linejoin="round" stroke-miterlimit="10" stroke-width="1"/>
            <path id="Trazado_1091356" data-name="Trazado 1091356" d="M251.284,228.354c1.449,18.051-.184,28.519-1.583,46.575" transform="translate(-188.578 -183.707)" fill="none" stroke="#2a1510" stroke-linecap="round" stroke-linejoin="round" stroke-miterlimit="10" stroke-width="1"/>
            <path id="Trazado_1091357" data-name="Trazado 1091357" d="M276.818,362.5,299.51,349.83" transform="translate(-194.23 -209.027)" fill="none" stroke="#2a1510" stroke-linecap="round" stroke-linejoin="round" stroke-miterlimit="10" stroke-width="1"/>
            <path id="Trazado_1091358" data-name="Trazado 1091358" d="M188.174,360.288a97.329,97.329,0,0,0,22.986,6.44" transform="translate(-175.754 -211.207)" fill="none" stroke="#2a1510" stroke-linecap="round" stroke-linejoin="round" stroke-miterlimit="10" stroke-width="1"/>
          </g>
          <g id="Grupo_1219983" data-name="Grupo 1219983" transform="translate(45.321 48.687)">
            <path id="Trazado_1091359" data-name="Trazado 1091359" d="M230.174,164.3l.3,20.509c-.575.616,9.722,16.6,16.119,22.01,5.083-5.789,10.619-21.759,9.418-22.2q-.229-1.553-.423-3.124C246.262,185.269,237.122,175.309,230.174,164.3Z" transform="translate(-229.829 -140.279)" fill="#f2ad93"/>
            <path id="Trazado_1091360" data-name="Trazado 1091360" d="M229.738,134.142l.344,23.831c6.949,11.011,16.088,20.971,25.41,17.2a271.017,271.017,0,0,1-1.72-28.317C247.9,137.3,237.871,132.968,229.738,134.142Z" transform="translate(-229.738 -133.954)" fill="#f77f54"/>
          </g>
          <g id="Grupo_1219986" data-name="Grupo 1219986" transform="translate(29.58 15.782)">
            <g id="Grupo_1219985" data-name="Grupo 1219985">
              <path id="Trazado_1091361" data-name="Trazado 1091361" d="M217.523,128.913a9.933,9.933,0,0,0-2.584-3.339,3.392,3.392,0,0,0-3.959-.207,3.241,3.241,0,0,0-1.114,2.311,7.8,7.8,0,0,0,.35,2.6,27.194,27.194,0,0,0,1.621,4.443,6.882,6.882,0,0,0,2.436,3.15,3.9,3.9,0,0,0,5.706-2.1" transform="translate(-209.853 -99.145)" fill="#f77f54"/>
              <path id="Trazado_1091362" data-name="Trazado 1091362" d="M273.343,128.913a9.933,9.933,0,0,1,2.584-3.339,3.391,3.391,0,0,1,3.959-.207A3.241,3.241,0,0,1,281,127.678a7.783,7.783,0,0,1-.35,2.6,27.194,27.194,0,0,1-1.621,4.443,6.881,6.881,0,0,1-2.436,3.15,3.9,3.9,0,0,1-5.706-2.1" transform="translate(-222.574 -99.145)" fill="#f77f54"/>
              <g id="Grupo_1219984" data-name="Grupo 1219984" transform="translate(6.078)">
                <path id="Trazado_1091363" data-name="Trazado 1091363" d="M246.438,92.662A46.756,46.756,0,0,0,238,92.506c-3.307,8.567-11.646,14.832-20.2,19.666-.439,3.135-.333,6.481.27,11.784,1.346,8.7.385,11.125,6.544,17.643,3.188,3.373,11.376,5.549,16.854,5.787,5.053.219,13.985-5.218,16.854-8.4,5.835-6.464,4.5-7.695,5.192-14.13,0-3.443.3-8.136.492-12.361a36.277,36.277,0,0,1-3.423-2.171C254.418,106.22,248.853,100.328,246.438,92.662Z" transform="translate(-217.532 -92.385)" fill="#f2ad93"/>
              </g>
              <path id="Trazado_1091364" data-name="Trazado 1091364" d="M240.043,123.34a2.159,2.159,0,1,1-2.159-2.159A2.159,2.159,0,0,1,240.043,123.34Z" transform="translate(-215.245 -98.387)" fill="#2a1510"/>
              <path id="Trazado_1091365" data-name="Trazado 1091365" d="M257.6,123.34a2.159,2.159,0,1,1-2.159-2.159A2.159,2.159,0,0,1,257.6,123.34Z" transform="translate(-218.904 -98.387)" fill="#2a1510"/>
              <path id="Trazado_1091366" data-name="Trazado 1091366" d="M246.268,123.135c-1.644,1.184-4.356,8.3-3.37,9.963,1.031,1.734,5.759,1.445,6.836-.067C250.655,131.738,247.535,123.394,246.268,123.135Z" transform="translate(-216.697 -98.794)" fill="url(#linear-gradient)"/>
            </g>
            <path id="Trazado_1091367" data-name="Trazado 1091367" d="M230.774,114.985a6.116,6.116,0,0,1,9.215-2.284" transform="translate(-214.213 -96.364)" fill="none" stroke="#2a1510" stroke-linecap="round" stroke-linejoin="round" stroke-miterlimit="10" stroke-width="1"/>
            <path id="Trazado_1091368" data-name="Trazado 1091368" d="M251.8,112.662a5.473,5.473,0,0,1,8.892,1.345" transform="translate(-218.596 -96.255)" fill="none" stroke="#2a1510" stroke-linecap="round" stroke-linejoin="round" stroke-miterlimit="10" stroke-width="1"/>
            <path id="Trazado_1091369" data-name="Trazado 1091369" d="M246.648,146.764a6.316,6.316,0,0,0,3.87-.835,6.834,6.834,0,0,0,2.626-3.177,10.933,10.933,0,0,0-3.336-2.134,3.713,3.713,0,0,0-3.736.606h-.325a3.715,3.715,0,0,0-3.737-.606,10.942,10.942,0,0,0-3.336,2.134,6.834,6.834,0,0,0,2.626,3.177,6.321,6.321,0,0,0,3.87.835Z" transform="translate(-215.86 -102.388)" fill="#d13a3a"/>
            <path id="Trazado_1091370" data-name="Trazado 1091370" d="M236.853,142.824a19.079,19.079,0,0,0,16.373-.222" transform="translate(-215.48 -102.852)" fill="none" stroke="#2a1510" stroke-linecap="round" stroke-linejoin="round" stroke-miterlimit="10" stroke-width="1"/>
          </g>
          <path id="Trazado_1091371" data-name="Trazado 1091371" d="M260.634,166.526" transform="translate(-190.857 -92.056)" fill="none" stroke="#2a1510" stroke-linecap="round" stroke-linejoin="round" stroke-miterlimit="10" stroke-width="1"/>
        </g>
        <g id="Grupo_1219988" data-name="Grupo 1219988" transform="translate(0 117.907)">
          <rect id="Rectngulo_421237" data-name="Rectngulo 421237" width="61.645" height="90.239" transform="translate(31.159 3.958)" fill="#4b4bbd"/>
          <rect id="Rectngulo_421238" data-name="Rectngulo 421238" width="18.588" height="9.258" transform="translate(52.687)" fill="#2a1510"/>
          <path id="Trazado_1091372" data-name="Trazado 1091372" d="M242.714,266.547a2.6,2.6,0,0,0-1.522-2.113,5.284,5.284,0,0,0,1.472-1.409,1.8,1.8,0,0,0,.056-1.935,2.7,2.7,0,0,0-2.324-.727c-4.739.075-9.48.075-14.219.15a10.332,10.332,0,0,0,9.711-7.749c-8.295,1.946-16.831,5.176-25.126,7.122-2.539,3.93-5.835,14.729-8.376,18.659l-9.781,5.44,12.06,13.83L215.511,286.7c9.135-2.088,17.312-6.325,25.734-10.434a2.2,2.2,0,0,0,1.207-1.789,2.155,2.155,0,0,0-.877-1.943c1.222-.8,1.117-2.77.1-3.815A2.226,2.226,0,0,0,242.714,266.547Z" transform="translate(-147.829 -227.938)" fill="#f2ad93"/>
          <path id="Trazado_1091373" data-name="Trazado 1091373" d="M176.09,296.653,192.427,317.1l10.957-11.234L189.057,289.44Z" transform="translate(-144.386 -235.583)" fill="#f4e6d0"/>
          <path id="Trazado_1091374" data-name="Trazado 1091374" d="M174.081,289.44l17.175,25.476-23.048,20.513a19.321,19.321,0,0,1-27.727-2.111h0a19.321,19.321,0,0,1,5.946-29.451Z" transform="translate(-136.038 -235.583)" fill="#d13a3a"/>
          <path id="Trazado_1091375" data-name="Trazado 1091375" d="M149.162,303.866l27.654-14.426,17.175,25.475" transform="translate(-138.774 -235.583)" fill="none" stroke="#2a1510" stroke-linecap="round" stroke-linejoin="round" stroke-miterlimit="10" stroke-width="1"/>
        </g>
        <path id="Trazado_1091376" data-name="Trazado 1091376" d="M141.65,344.871" transform="translate(-137.208 -129.23)" fill="none" stroke="#2a1510" stroke-linecap="round" stroke-linejoin="round" stroke-miterlimit="10" stroke-width="1"/>
        <g id="Grupo_1219991" data-name="Grupo 1219991" transform="translate(144.879 90.717)">
          <g id="Grupo_1219990" data-name="Grupo 1219990">
            <path id="Trazado_1091377" data-name="Trazado 1091377" d="M341.415,214.208l-7.844,7.728a15.066,15.066,0,0,0-2.607,3.075,10.1,10.1,0,0,0-1.132,5.729,30.131,30.131,0,0,0,1.17,5.8c2.927-.969,5.174-3.287,7.3-5.525a23.684,23.684,0,0,0,4.325-5.586,12,12,0,0,0,0-10.468" transform="translate(-321.304 -192.712)" fill="#f77f54"/>
            <path id="Trazado_1091378" data-name="Trazado 1091378" d="M342,213.235a66.678,66.678,0,0,0-.264-15.557c2.252,1.308,4.073,2.715,4.927,5.175,1.517,4.365.175,9.15-1.206,13.56" transform="translate(-323.793 -189.267)" fill="#f77f54"/>
            <path id="Trazado_1091379" data-name="Trazado 1091379" d="M324.038,215.731l-4.971,4.831,6.593-2.14,47.576-28.68-1.621-2.69Z" transform="translate(-319.067 -187.052)" fill="#2a1510"/>
            <g id="Grupo_1219989" data-name="Grupo 1219989" transform="translate(8.911 5.18)">
              <path id="Trazado_1091380" data-name="Trazado 1091380" d="M359.244,215.98l8.009-14.484-12.469-7.9-10.02,5.549a1.3,1.3,0,0,0,.186,2.357h0a6.2,6.2,0,0,0,4.453-.086l5.465-2.227,4.5,2.636-4.628,7.358-14.219-3.7-4.933,13.757,2.075,1.889-4.183,4.6a11.525,11.525,0,0,0-3,7.379l-.157,4.8,3.4,3.09Z" transform="translate(-330.324 -193.596)" fill="#f2ad93"/>
              <line id="Lnea_644" data-name="Lnea 644" x2="13.154" y2="4.893" transform="translate(8.663 16.155)" fill="none" stroke="#2a1510" stroke-linecap="round" stroke-linejoin="round" stroke-miterlimit="10" stroke-width="1"/>
              <line id="Lnea_645" data-name="Lnea 645" x2="9.172" y2="4.13" transform="translate(6.895 21.087)" fill="none" stroke="#2a1510" stroke-linecap="round" stroke-linejoin="round" stroke-miterlimit="10" stroke-width="1"/>
              <path id="Trazado_1091381" data-name="Trazado 1091381" d="M336.7,226.041a16.369,16.369,0,0,0,7.472,4.5" transform="translate(-331.653 -200.359)" fill="none" stroke="#2a1510" stroke-linecap="round" stroke-linejoin="round" stroke-miterlimit="10" stroke-width="1"/>
              <path id="Trazado_1091382" data-name="Trazado 1091382" d="M340.582,229.423l.579,2.2" transform="translate(-332.462 -201.064)" fill="none" stroke="#2a1510" stroke-linecap="round" stroke-linejoin="round" stroke-miterlimit="10" stroke-width="1"/>
            </g>
          </g>
          <path id="Trazado_1091383" data-name="Trazado 1091383" d="M330.325,247.908v29.172l16.892-1.667-5.412-33.8Z" transform="translate(-321.414 -198.424)" fill="#f2ad93"/>
        </g>
        <g id="Grupo_1219992" data-name="Grupo 1219992" transform="translate(146.825 142.731)">
          <path id="Trazado_1091384" data-name="Trazado 1091384" d="M325.871,272.912l25.636-5.291-5.047-14.859-21.14,5.323Z" transform="translate(-322.316 -252.762)" fill="#f4e6d0"/>
          <path id="Trazado_1091385" data-name="Trazado 1091385" d="M321.525,265.959l30.493-3.76,7.836,29.843A19.32,19.32,0,0,1,345.4,315.8h0a19.321,19.321,0,0,1-23.555-18.651Z" transform="translate(-321.525 -254.729)" fill="#d13a3a"/>
          <path id="Trazado_1091386" data-name="Trazado 1091386" d="M321.848,297.149l-.323-31.19,30.493-3.76" transform="translate(-321.525 -254.729)" fill="none" stroke="#2a1510" stroke-linecap="round" stroke-linejoin="round" stroke-miterlimit="10" stroke-width="1"/>
        </g>
      </g>
    </g>
  </g>
</svg>
