<svg xmlns="http://www.w3.org/2000/svg" width="86.385" height="89.797" viewBox="0 0 86.385 89.797">
  <g id="Grupo_1220034" data-name="Grupo 1220034" transform="translate(-165.092 -3774.272)">
    <rect id="Rectángulo_421243" data-name="Rectángulo 421243" width="61" height="89" transform="translate(190.477 3774.271)" fill="#cbd0dc"/>
    <g id="time_9882264" transform="translate(166.092 3778.002)">
      <g id="Grupo_1220018" data-name="Grupo 1220018" transform="translate(28.395 0)">
        <path id="Trazado_1091419" data-name="Trazado 1091419" d="M316.458,186.924H302.372a7.669,7.669,0,0,1-1.259-.105V216.91a1.8,1.8,0,0,0,1.8,1.8h13.647a1.8,1.8,0,0,0,1.8-1.8V186.683A7.627,7.627,0,0,1,316.458,186.924Z" transform="translate(-280.695 -156.014)" fill="#ffcebf"/>
        <g id="Grupo_1220010" data-name="Grupo 1220010" transform="translate(29.023 30.669)">
          <path id="Trazado_1091420" data-name="Trazado 1091420" d="M358.126,186.924h-4.937V216.91a1.8,1.8,0,0,1-1.8,1.8h6.846a1.8,1.8,0,0,0,1.8-1.8V186.683A7.63,7.63,0,0,1,358.126,186.924Z" transform="translate(-351.385 -186.683)" fill="#ffb09e"/>
        </g>
        <g id="Grupo_1220011" data-name="Grupo 1220011" transform="translate(20.418 30.845)">
          <path id="Trazado_1091421" data-name="Trazado 1091421" d="M301.113,324.293v6.674a1.8,1.8,0,0,0,1.8,1.8h13.647a1.8,1.8,0,0,0,1.8-1.8v-6.674Z" transform="translate(-301.113 -300.916)" fill="none" stroke="#000" stroke-linecap="round" stroke-linejoin="round" stroke-miterlimit="10" stroke-width="2"/>
          <rect id="Rectángulo_421241" data-name="Rectángulo 421241" width="17.255" height="6.132" transform="translate(0 11.813)" fill="none" stroke="#000" stroke-linecap="round" stroke-linejoin="round" stroke-miterlimit="10" stroke-width="2"/>
          <line id="Línea_646" data-name="Línea 646" y2="6.248" transform="translate(0 0.134)" fill="none" stroke="#000" stroke-linecap="round" stroke-linejoin="round" stroke-miterlimit="10" stroke-width="2"/>
          <line id="Línea_647" data-name="Línea 647" y1="6.382" transform="translate(17.255)" fill="none" stroke="#000" stroke-linecap="round" stroke-linejoin="round" stroke-miterlimit="10" stroke-width="2"/>
        </g>
        <path id="Trazado_1091422" data-name="Trazado 1091422" d="M222.357,292.56H187.252a2.716,2.716,0,1,0,0,5.431h35.106a2.716,2.716,0,1,0,0-5.431Z" transform="translate(-184.071 -243.769)" fill="#fb2b3a"/>
        <path id="Trazado_1091423" data-name="Trazado 1091423" d="M212.242,297.992h33.079a2.716,2.716,0,1,0,0-5.431H213.573" transform="translate(-207.035 -243.77)" fill="none" stroke="#000" stroke-linecap="round" stroke-linejoin="round" stroke-miterlimit="10" stroke-width="2"/>
        <g id="Grupo_1220017" data-name="Grupo 1220017" transform="translate(0)">
          <path id="Trazado_1091424" data-name="Trazado 1091424" d="M274.219,67.061v5.875l5.862,15.013h14.086a7.814,7.814,0,0,0,7.814-7.814V67.061Z" transform="translate(-258.404 -56.867)" fill="#ffa78f"/>
          <path id="Trazado_1091425" data-name="Trazado 1091425" d="M368.581,67.061V80.134a7.814,7.814,0,0,1-7.814,7.814H365.9a7.814,7.814,0,0,0,7.814-7.814V67.061Z" transform="translate(-330.138 -56.867)" fill="#f89580"/>
          <g id="Grupo_1220012" data-name="Grupo 1220012" transform="translate(21.677 19.245)">
            <line id="Línea_648" data-name="Línea 648" x2="1.709" transform="translate(0 11.836)" fill="none" stroke="#000" stroke-linecap="round" stroke-linejoin="round" stroke-miterlimit="10" stroke-width="2"/>
            <path id="Trazado_1091426" data-name="Trazado 1091426" d="M353.449,131.774h6.387a7.814,7.814,0,0,0,7.814-7.814v-4.022" transform="translate(-345.75 -119.938)" fill="none" stroke="#000" stroke-linecap="round" stroke-linejoin="round" stroke-miterlimit="10" stroke-width="2"/>
          </g>
          <path id="Trazado_1091427" data-name="Trazado 1091427" d="M189.927,74.683h38.352v7.746H189.927a2.707,2.707,0,0,1-1.189-.275l-6.728-3.29a.342.342,0,0,1,0-.615l6.728-3.29A2.707,2.707,0,0,1,189.927,74.683Z" transform="translate(-181.819 -63.184)" fill="#ffcebf"/>
          <rect id="Rectángulo_421242" data-name="Rectángulo 421242" width="38.893" height="7.746" transform="translate(8.108 11.499)" fill="#ffe177"/>
          <g id="Grupo_1220013" data-name="Grupo 1220013" transform="translate(0 11.499)">
            <path id="Trazado_1091428" data-name="Trazado 1091428" d="M354.1,82.429h17.515V74.683h-3.424" transform="translate(-324.611 -74.683)" fill="none" stroke="#000" stroke-linecap="round" stroke-linejoin="round" stroke-miterlimit="10" stroke-width="2"/>
            <path id="Trazado_1091429" data-name="Trazado 1091429" d="M197.634,74.683h-7.707a2.707,2.707,0,0,0-1.189.275l-6.728,3.29a.342.342,0,0,0,0,.615l6.728,3.29a2.707,2.707,0,0,0,1.189.275h5.755" transform="translate(-181.819 -74.683)" fill="none" stroke="#000" stroke-linecap="round" stroke-linejoin="round" stroke-miterlimit="10" stroke-width="2"/>
          </g>
          <path id="Trazado_1091430" data-name="Trazado 1091430" d="M460.582,74.683h-5.154v7.746h5.154a1.8,1.8,0,0,0,1.8-1.8V76.487A1.8,1.8,0,0,0,460.582,74.683Z" transform="translate(-408.597 -63.184)" fill="#fd8087"/>
          <path id="Trazado_1091431" data-name="Trazado 1091431" d="M468.964,74.683h-3.423a1.8,1.8,0,0,1,1.8,1.8v4.138a1.8,1.8,0,0,1-1.8,1.8h3.423a1.8,1.8,0,0,0,1.8-1.8V76.487A1.8,1.8,0,0,0,468.964,74.683Z" transform="translate(-416.979 -63.184)" fill="#fe646f"/>
          <path id="Trazado_1091432" data-name="Trazado 1091432" d="M460.582,74.683H455.6v7.746h4.983a1.8,1.8,0,0,0,1.8-1.8V76.487A1.8,1.8,0,0,0,460.582,74.683Z" transform="translate(-408.597 -63.184)" fill="none" stroke="#000" stroke-linecap="round" stroke-linejoin="round" stroke-miterlimit="10" stroke-width="2"/>
          <path id="Trazado_1091433" data-name="Trazado 1091433" d="M399.342,30.381h0a3.47,3.47,0,0,0-3.47,3.47v4.977a3.47,3.47,0,0,0,3.47,3.47h0a3.47,3.47,0,0,0,3.47-3.47V33.851A3.47,3.47,0,0,0,399.342,30.381Z" transform="translate(-359.235 -26.465)" fill="#ffcebf"/>
          <path id="Trazado_1091434" data-name="Trazado 1091434" d="M355.321,10.97v8.893a3.47,3.47,0,0,0,3.47,3.47h0a3.47,3.47,0,0,0,3.47-3.47V10.97a3.47,3.47,0,0,0-3.47-3.47h0A3.47,3.47,0,0,0,355.321,10.97Z" transform="translate(-325.625 -7.5)" fill="#ffcebf"/>
          <path id="Trazado_1091435" data-name="Trazado 1091435" d="M275.99,34.457h5.169V25.679a3.47,3.47,0,1,0-6.94,0v9.256A3.526,3.526,0,0,1,275.99,34.457Z" transform="translate(-258.404 -19.691)" fill="#ffcebf"/>
          <path id="Trazado_1091436" data-name="Trazado 1091436" d="M318.24,7.5h0a3.47,3.47,0,0,0-3.47,3.47v11.3h3.387a3.408,3.408,0,0,1,1.875.565,3.465,3.465,0,0,0,1.679-2.968V10.97A3.47,3.47,0,0,0,318.24,7.5Z" transform="translate(-292.014 -7.5)" fill="#ffcebf"/>
          <path id="Trazado_1091437" data-name="Trazado 1091437" d="M275.093,92.772h-8.556a3.724,3.724,0,0,0-3.724,3.724v4.948a7.814,7.814,0,0,0,7.814,7.814H271.8V99.713h3.377a3.47,3.47,0,0,0,3.468-3.6A3.525,3.525,0,0,0,275.093,92.772Z" transform="translate(-248.95 -78.177)" fill="#ffa78f"/>
          <g id="Grupo_1220014" data-name="Grupo 1220014" transform="translate(8.108 11.499)">
            <path id="Trazado_1091438" data-name="Trazado 1091438" d="M236.9,74.683h-7.707v7.746h5.755" transform="translate(-229.191 -74.683)" fill="none" stroke="#000" stroke-linecap="round" stroke-linejoin="round" stroke-miterlimit="10" stroke-width="2"/>
          </g>
          <path id="Trazado_1091439" data-name="Trazado 1091439" d="M399.342,30.381h0a3.47,3.47,0,0,0-3.47,3.47v4.977a3.47,3.47,0,0,0,3.47,3.47h0a3.47,3.47,0,0,0,3.47-3.47V33.851A3.47,3.47,0,0,0,399.342,30.381Z" transform="translate(-359.235 -26.465)" fill="#ffcebf"/>
          <path id="Trazado_1091440" data-name="Trazado 1091440" d="M408.943,30.381h0a3.449,3.449,0,0,0-1.488.339,3.467,3.467,0,0,1,1.983,3.132v4.977a3.468,3.468,0,0,1-1.983,3.132,3.451,3.451,0,0,0,1.488.339h0a3.47,3.47,0,0,0,3.47-3.47V33.851A3.47,3.47,0,0,0,408.943,30.381Z" transform="translate(-368.835 -26.465)" fill="#ffb09e"/>
          <path id="Trazado_1091441" data-name="Trazado 1091441" d="M399.342,30.381h0a3.47,3.47,0,0,0-3.47,3.47v4.977a3.47,3.47,0,0,0,3.47,3.47h0a3.47,3.47,0,0,0,3.47-3.47V33.851A3.47,3.47,0,0,0,399.342,30.381Z" transform="translate(-359.235 -26.465)" fill="none" stroke="#000" stroke-linecap="round" stroke-linejoin="round" stroke-miterlimit="10" stroke-width="2"/>
          <path id="Trazado_1091442" data-name="Trazado 1091442" d="M355.321,10.97v8.893a3.47,3.47,0,0,0,3.47,3.47h0a3.47,3.47,0,0,0,3.47-3.47V10.97a3.47,3.47,0,0,0-3.47-3.47h0A3.47,3.47,0,0,0,355.321,10.97Z" transform="translate(-325.625 -7.5)" fill="#ffcebf"/>
          <path id="Trazado_1091443" data-name="Trazado 1091443" d="M368.392,7.5h0a3.449,3.449,0,0,0-1.488.339,3.467,3.467,0,0,1,1.982,3.132v8.893A3.468,3.468,0,0,1,366.9,23a3.451,3.451,0,0,0,1.488.339h0a3.47,3.47,0,0,0,3.47-3.47V10.97A3.47,3.47,0,0,0,368.392,7.5Z" transform="translate(-335.225 -7.5)" fill="#ffb09e"/>
          <path id="Trazado_1091444" data-name="Trazado 1091444" d="M355.321,10.97v8.893a3.47,3.47,0,0,0,3.47,3.47h0a3.47,3.47,0,0,0,3.47-3.47V10.97a3.47,3.47,0,0,0-3.47-3.47h0A3.47,3.47,0,0,0,355.321,10.97Z" transform="translate(-325.625 -7.5)" fill="none" stroke="#000" stroke-linecap="round" stroke-linejoin="round" stroke-miterlimit="10" stroke-width="2"/>
          <path id="Trazado_1091445" data-name="Trazado 1091445" d="M275.99,34.457h5.169V25.679a3.47,3.47,0,1,0-6.94,0v9.256A3.526,3.526,0,0,1,275.99,34.457Z" transform="translate(-258.404 -19.691)" fill="#ffcebf"/>
          <g id="Grupo_1220015" data-name="Grupo 1220015" transform="translate(17.798 2.517)">
            <path id="Trazado_1091446" data-name="Trazado 1091446" d="M287.29,22.208a3.449,3.449,0,0,0-1.488.339,3.467,3.467,0,0,1,1.983,3.132v8.778h2.975V25.678A3.47,3.47,0,0,0,287.29,22.208Z" transform="translate(-285.802 -22.208)" fill="#ffb09e"/>
          </g>
          <path id="Trazado_1091447" data-name="Trazado 1091447" d="M281.16,34.286V25.679a3.47,3.47,0,1,0-6.94,0v9.055" transform="translate(-258.405 -19.691)" fill="none" stroke="#000" stroke-linecap="round" stroke-linejoin="round" stroke-miterlimit="10" stroke-width="2"/>
          <path id="Trazado_1091448" data-name="Trazado 1091448" d="M318.24,7.5h0a3.47,3.47,0,0,0-3.47,3.47v11.3h3.387a3.408,3.408,0,0,1,1.875.565,3.465,3.465,0,0,0,1.679-2.968V10.97A3.47,3.47,0,0,0,318.24,7.5Z" transform="translate(-292.014 -7.5)" fill="#ffcebf"/>
          <path id="Trazado_1091449" data-name="Trazado 1091449" d="M327.841,7.5h0a3.449,3.449,0,0,0-1.488.339,3.467,3.467,0,0,1,1.983,3.132v8.893a3.449,3.449,0,0,1-.972,2.4h.394a3.408,3.408,0,0,1,1.875.565,3.465,3.465,0,0,0,1.679-2.968V10.97A3.47,3.47,0,0,0,327.841,7.5Z" transform="translate(-301.615 -7.5)" fill="#ffb09e"/>
          <path id="Trazado_1091450" data-name="Trazado 1091450" d="M320.2,22.731a3.466,3.466,0,0,0,1.516-2.867V10.97a3.47,3.47,0,0,0-3.47-3.47h0a3.47,3.47,0,0,0-3.47,3.47V22.095" transform="translate(-292.015 -7.5)" fill="none" stroke="#000" stroke-linecap="round" stroke-linejoin="round" stroke-miterlimit="10" stroke-width="2"/>
          <path id="Trazado_1091451" data-name="Trazado 1091451" d="M275.093,92.772h-8.556a3.724,3.724,0,0,0-3.724,3.724v4.948a7.814,7.814,0,0,0,7.814,7.814H271.8V99.713h3.377a3.47,3.47,0,0,0,3.468-3.6A3.525,3.525,0,0,0,275.093,92.772Z" transform="translate(-248.95 -78.177)" fill="#ffa78f"/>
          <g id="Grupo_1220016" data-name="Grupo 1220016" transform="translate(13.863 14.595)">
            <path id="Trazado_1091452" data-name="Trazado 1091452" d="M275.093,92.772h-8.556a3.724,3.724,0,0,0-3.724,3.724v.29a3.705,3.705,0,0,1,2.012-.591h8.556a3.534,3.534,0,0,1,3.526,3.053,3.467,3.467,0,0,0,1.737-3.132A3.525,3.525,0,0,0,275.093,92.772Z" transform="translate(-262.813 -92.772)" fill="#f89580"/>
          </g>
          <path id="Trazado_1091453" data-name="Trazado 1091453" d="M271.8,103.663V99.712h3.378a3.47,3.47,0,0,0,3.468-3.6,3.525,3.525,0,0,0-3.551-3.344h-8.556a3.724,3.724,0,0,0-3.724,3.724v4.927" transform="translate(-248.95 -78.176)" fill="none" stroke="#000" stroke-linecap="round" stroke-linejoin="round" stroke-miterlimit="10" stroke-width="2"/>
          <path id="Trazado_1091454" data-name="Trazado 1091454" d="M270.369,168.59a7.805,7.805,0,0,0,6.521,3.509h1.172" transform="translate(-255.213 -141.018)" fill="none" stroke="#000" stroke-linecap="round" stroke-linejoin="round" stroke-miterlimit="10" stroke-width="2"/>
        </g>
      </g>
      <g id="Grupo_1220021" data-name="Grupo 1220021" transform="translate(45.831 37.227)">
        <g id="Grupo_1220020" data-name="Grupo 1220020" transform="translate(0 0)">
          <path id="Trazado_1091455" data-name="Trazado 1091455" d="M286.407,230.433h18.134a2.716,2.716,0,0,0,2.716-2.716h0A2.716,2.716,0,0,0,304.541,225H286.407a2.716,2.716,0,0,0-2.716,2.716h0A2.715,2.715,0,0,0,286.407,230.433Z" transform="translate(-283.691 -225.002)" fill="#fe646f"/>
          <path id="Trazado_1091456" data-name="Trazado 1091456" d="M286.407,230.433h18.134a2.716,2.716,0,0,0,2.716-2.716h0A2.716,2.716,0,0,0,304.541,225H286.407a2.716,2.716,0,0,0-2.716,2.716h0A2.715,2.715,0,0,0,286.407,230.433Z" transform="translate(-283.691 -225.002)" fill="none" stroke="#000" stroke-linecap="round" stroke-linejoin="round" stroke-miterlimit="10" stroke-width="2"/>
          <g id="Grupo_1220019" data-name="Grupo 1220019" transform="translate(3.478)">
            <line id="Línea_649" data-name="Línea 649" x1="3.714" y2="5.431" fill="none" stroke="#000" stroke-linecap="round" stroke-linejoin="round" stroke-miterlimit="10" stroke-width="2"/>
            <line id="Línea_650" data-name="Línea 650" x1="3.714" y2="5.431" transform="translate(6.447)" fill="none" stroke="#000" stroke-linecap="round" stroke-linejoin="round" stroke-miterlimit="10" stroke-width="2"/>
            <line id="Línea_651" data-name="Línea 651" x1="3.714" y2="5.431" transform="translate(12.895)" fill="none" stroke="#000" stroke-linecap="round" stroke-linejoin="round" stroke-miterlimit="10" stroke-width="2"/>
          </g>
        </g>
      </g>
      <g id="Grupo_1220025" data-name="Grupo 1220025" transform="translate(36.012 48.791)">
        <g id="Grupo_1220023" data-name="Grupo 1220023" transform="translate(13.298 0)">
          <g id="Grupo_1220022" data-name="Grupo 1220022">
            <line id="Línea_652" data-name="Línea 652" x1="3.714" y2="5.431" fill="none" stroke="#000" stroke-linecap="round" stroke-linejoin="round" stroke-miterlimit="10" stroke-width="2"/>
            <line id="Línea_653" data-name="Línea 653" x1="3.714" y2="5.431" transform="translate(6.447)" fill="none" stroke="#000" stroke-linecap="round" stroke-linejoin="round" stroke-miterlimit="10" stroke-width="2"/>
            <line id="Línea_654" data-name="Línea 654" x1="3.714" y2="5.431" transform="translate(12.895)" fill="none" stroke="#000" stroke-linecap="round" stroke-linejoin="round" stroke-miterlimit="10" stroke-width="2"/>
          </g>
        </g>
        <g id="Grupo_1220024" data-name="Grupo 1220024" transform="translate(0 0)">
          <line id="Línea_655" data-name="Línea 655" x1="3.714" y2="5.431" fill="none" stroke="#000" stroke-linecap="round" stroke-linejoin="round" stroke-miterlimit="10" stroke-width="2"/>
          <line id="Línea_656" data-name="Línea 656" x1="3.715" y2="5.431" transform="translate(6.447)" fill="none" stroke="#000" stroke-linecap="round" stroke-linejoin="round" stroke-miterlimit="10" stroke-width="2"/>
        </g>
      </g>
      <g id="Grupo_1220030" data-name="Grupo 1220030" transform="translate(0 23.197)">
        <path id="Trazado_1091457" data-name="Trazado 1091457" d="M60.358,200.561a.359.359,0,0,1,0-.694,18.135,18.135,0,0,0,13.422-17.51V174.7H37.524v7.657a18.135,18.135,0,0,0,13.422,17.51.359.359,0,0,1,0,.694,18.135,18.135,0,0,0-13.422,17.51v7.657H73.779v-7.657A18.135,18.135,0,0,0,60.358,200.561Z" transform="translate(-33.826 -169.28)" fill="#c8effe"/>
        <g id="Grupo_1220026" data-name="Grupo 1220026" transform="translate(22.905 5.42)">
          <path id="Trazado_1091458" data-name="Trazado 1091458" d="M161.773,339.834a2.7,2.7,0,0,1-.953.175h-7.35a18.1,18.1,0,0,1,7.852,14.931V362.6h8.558v-7.657A18.109,18.109,0,0,0,161.773,339.834Z" transform="translate(-152.833 -311.57)" fill="#99e6fc"/>
          <path id="Trazado_1091459" data-name="Trazado 1091459" d="M158.236,174.7v7.657a18.111,18.111,0,0,1-8.49,15.352h7.987a2.728,2.728,0,0,1,.5.047,18.112,18.112,0,0,0,8.564-15.4V174.7Z" transform="translate(-149.746 -174.7)" fill="#99e6fc"/>
        </g>
        <path id="Trazado_1091460" data-name="Trazado 1091460" d="M90.206,428.1H64.773a.9.9,0,0,0-.9.9v6.755H91.108V429A.9.9,0,0,0,90.206,428.1Z" transform="translate(-55.664 -379.305)" fill="#9e9797"/>
        <path id="Trazado_1091461" data-name="Trazado 1091461" d="M184.578,428.1h-6.846a.9.9,0,0,1,.9.9v6.755h6.846V429A.9.9,0,0,0,184.578,428.1Z" transform="translate(-150.037 -379.305)" fill="#766e6e"/>
        <path id="Trazado_1091462" data-name="Trazado 1091462" d="M90.206,428.1H64.773a.9.9,0,0,0-.9.9v6.755H91.108V429A.9.9,0,0,0,90.206,428.1Z" transform="translate(-55.664 -379.305)" fill="none" stroke="#000" stroke-linecap="round" stroke-linejoin="round" stroke-miterlimit="10" stroke-width="2"/>
        <g id="Grupo_1220027" data-name="Grupo 1220027" transform="translate(3.698 5.592)">
          <path id="Trazado_1091463" data-name="Trazado 1091463" d="M61.646,339.834a18.226,18.226,0,0,0-4.8,4.67" transform="translate(-53.539 -311.741)" fill="none" stroke="#000" stroke-linecap="round" stroke-linejoin="round" stroke-miterlimit="10" stroke-width="2"/>
          <path id="Trazado_1091464" data-name="Trazado 1091464" d="M38.222,349.948a18.13,18.13,0,0,0-.7,4.993v7.486H73.779v-7.486a18.108,18.108,0,0,0-8.107-15.107" transform="translate(-37.524 -311.741)" fill="none" stroke="#000" stroke-linecap="round" stroke-linejoin="round" stroke-miterlimit="10" stroke-width="2"/>
          <path id="Trazado_1091465" data-name="Trazado 1091465" d="M65.216,198.585a18.112,18.112,0,0,0,8.564-15.4V175.7H37.524v7.485a18.113,18.113,0,0,0,8.564,15.4" transform="translate(-37.524 -175.701)" fill="none" stroke="#000" stroke-linecap="round" stroke-linejoin="round" stroke-miterlimit="10" stroke-width="2"/>
        </g>
        <path id="Trazado_1091466" data-name="Trazado 1091466" d="M64.478,219.435a.543.543,0,0,0-.542.565,13.619,13.619,0,0,0,27.214,0,.543.543,0,0,0-.542-.565Z" transform="translate(-55.717 -206.358)" fill="#9e9797"/>
        <path id="Trazado_1091467" data-name="Trazado 1091467" d="M144.068,219.435h-5.135a.543.543,0,0,1,.542.565,13.643,13.643,0,0,1-11.039,12.808A13.615,13.615,0,0,0,144.61,220,.543.543,0,0,0,144.068,219.435Z" transform="translate(-109.178 -206.358)" fill="#766e6e"/>
        <path id="Trazado_1091468" data-name="Trazado 1091468" d="M64.478,219.435a.543.543,0,0,0-.542.565,13.619,13.619,0,0,0,27.214,0,.543.543,0,0,0-.542-.565Z" transform="translate(-55.717 -206.358)" fill="none" stroke="#000" stroke-linecap="round" stroke-linejoin="round" stroke-miterlimit="10" stroke-width="2"/>
        <path id="Trazado_1091469" data-name="Trazado 1091469" d="M57.768,148.624H17.725a1.8,1.8,0,0,1-1.8-1.8v-1.984a1.8,1.8,0,0,1,1.8-1.8H57.768a1.8,1.8,0,0,1,1.8,1.8v1.984A1.8,1.8,0,0,1,57.768,148.624Z" transform="translate(-15.921 -143.032)" fill="#ffe177"/>
        <path id="Trazado_1091470" data-name="Trazado 1091470" d="M227.259,143.031h-6.846a1.8,1.8,0,0,1,1.8,1.8v1.984a1.8,1.8,0,0,1-1.8,1.8h6.846a1.8,1.8,0,0,0,1.8-1.8v-1.984A1.8,1.8,0,0,0,227.259,143.031Z" transform="translate(-185.412 -143.031)" fill="#ffd15b"/>
        <path id="Trazado_1091471" data-name="Trazado 1091471" d="M24.153,143.031H17.725a1.8,1.8,0,0,0-1.8,1.8v1.984a1.8,1.8,0,0,0,1.8,1.8H57.768a1.8,1.8,0,0,0,1.8-1.8v-1.984a1.8,1.8,0,0,0-1.8-1.8H30.144" transform="translate(-15.921 -143.031)" fill="none" stroke="#000" stroke-linecap="round" stroke-linejoin="round" stroke-miterlimit="10" stroke-width="2"/>
        <path id="Trazado_1091472" data-name="Trazado 1091472" d="M17.725,471.831H57.768a1.8,1.8,0,0,1,1.8,1.8v1.984a1.8,1.8,0,0,1-1.8,1.8H17.725a1.8,1.8,0,0,1-1.8-1.8v-1.984A1.8,1.8,0,0,1,17.725,471.831Z" transform="translate(-15.921 -415.554)" fill="#ffe177"/>
        <path id="Trazado_1091473" data-name="Trazado 1091473" d="M227.259,471.831h-6.846a1.8,1.8,0,0,1,1.8,1.8v1.984a1.8,1.8,0,0,1-1.8,1.8h6.846a1.8,1.8,0,0,0,1.8-1.8v-1.984A1.8,1.8,0,0,0,227.259,471.831Z" transform="translate(-185.412 -415.554)" fill="#ffd15b"/>
        <path id="Trazado_1091474" data-name="Trazado 1091474" d="M17.725,471.831H57.768a1.8,1.8,0,0,1,1.8,1.8v1.984a1.8,1.8,0,0,1-1.8,1.8H17.725a1.8,1.8,0,0,1-1.8-1.8v-1.984A1.8,1.8,0,0,1,17.725,471.831Z" transform="translate(-15.921 -415.554)" fill="none" stroke="#000" stroke-linecap="round" stroke-linejoin="round" stroke-miterlimit="10" stroke-width="2"/>
        <line id="Línea_657" data-name="Línea 657" y2="0.902" transform="translate(21.825 30.844)" fill="#fff" stroke="#000" stroke-linecap="round" stroke-linejoin="round" stroke-miterlimit="10" stroke-width="2"/>
        <line id="Línea_658" data-name="Línea 658" y2="0.902" transform="translate(21.825 36.075)" fill="none" stroke="#000" stroke-linecap="round" stroke-linejoin="round" stroke-miterlimit="10" stroke-width="2"/>
        <g id="Grupo_1220028" data-name="Grupo 1220028" transform="translate(15.512 17.947)">
          <line id="Línea_659" data-name="Línea 659" x1="0.902" fill="none" stroke="#000" stroke-linecap="round" stroke-linejoin="round" stroke-miterlimit="10" stroke-width="2"/>
          <line id="Línea_660" data-name="Línea 660" x1="0.902" transform="translate(11.724)" fill="none" stroke="#000" stroke-linecap="round" stroke-linejoin="round" stroke-miterlimit="10" stroke-width="2"/>
        </g>
        <line id="Línea_661" data-name="Línea 661" x1="0.902" transform="translate(21.374 21.735)" fill="none" stroke="#000" stroke-linecap="round" stroke-linejoin="round" stroke-miterlimit="10" stroke-width="2"/>
        <line id="Línea_662" data-name="Línea 662" x1="0.902" transform="translate(21.374 50.956)" fill="#fff" stroke="#000" stroke-linecap="round" stroke-linejoin="round" stroke-miterlimit="10" stroke-width="2"/>
        <g id="Grupo_1220029" data-name="Grupo 1220029" transform="translate(13.438 52.579)">
          <line id="Línea_663" data-name="Línea 663" x1="0.902" fill="#fff" stroke="#000" stroke-linecap="round" stroke-linejoin="round" stroke-miterlimit="10" stroke-width="2"/>
          <line id="Línea_664" data-name="Línea 664" x1="0.902" transform="translate(15.873)" fill="#fff" stroke="#000" stroke-linecap="round" stroke-linejoin="round" stroke-miterlimit="10" stroke-width="2"/>
        </g>
        <line id="Línea_665" data-name="Línea 665" y2="0.902" transform="translate(21.825 41.306)" fill="none" stroke="#000" stroke-linecap="round" stroke-linejoin="round" stroke-miterlimit="10" stroke-width="2"/>
      </g>
      <g id="Grupo_1220033" data-name="Grupo 1220033" transform="translate(10.042 51.626)">
        <g id="Grupo_1220032" data-name="Grupo 1220032" transform="translate(0 0)">
          <path id="Trazado_1091475" data-name="Trazado 1091475" d="M77.31,314.558H95.444a2.716,2.716,0,0,0,2.716-2.716h0a2.716,2.716,0,0,0-2.716-2.716H77.31a2.716,2.716,0,0,0-2.716,2.716h0A2.716,2.716,0,0,0,77.31,314.558Z" transform="translate(-74.594 -309.127)" fill="#fe646f"/>
          <path id="Trazado_1091476" data-name="Trazado 1091476" d="M77.31,314.558H95.444a2.716,2.716,0,0,0,2.716-2.716h0a2.716,2.716,0,0,0-2.716-2.716H77.31a2.716,2.716,0,0,0-2.716,2.716h0A2.716,2.716,0,0,0,77.31,314.558Z" transform="translate(-74.594 -309.127)" fill="none" stroke="#000" stroke-linecap="round" stroke-linejoin="round" stroke-miterlimit="10" stroke-width="2"/>
          <g id="Grupo_1220031" data-name="Grupo 1220031" transform="translate(3.478)">
            <line id="Línea_666" data-name="Línea 666" x1="3.714" y2="5.431" fill="none" stroke="#000" stroke-linecap="round" stroke-linejoin="round" stroke-miterlimit="10" stroke-width="2"/>
            <line id="Línea_667" data-name="Línea 667" x1="3.714" y2="5.431" transform="translate(6.448)" fill="none" stroke="#000" stroke-linecap="round" stroke-linejoin="round" stroke-miterlimit="10" stroke-width="2"/>
            <line id="Línea_668" data-name="Línea 668" x1="3.715" y2="5.431" transform="translate(12.895)" fill="none" stroke="#000" stroke-linecap="round" stroke-linejoin="round" stroke-miterlimit="10" stroke-width="2"/>
          </g>
        </g>
      </g>
    </g>
  </g>
</svg>
