<svg xmlns="http://www.w3.org/2000/svg" xmlns:xlink="http://www.w3.org/1999/xlink" width="93.934" height="93.934" viewBox="0 0 93.934 93.934">
  <defs>
    <filter id="Trazado_978624" x="0" y="0" width="93.934" height="93.934" filterUnits="userSpaceOnUse">
      <feOffset dy="3" input="SourceAlpha"/>
      <feGaussianBlur stdDeviation="3" result="blur"/>
      <feFlood flood-opacity="0.161"/>
      <feComposite operator="in" in2="blur"/>
      <feComposite in="SourceGraphic"/>
    </filter>
  </defs>
  <g id="Grupo_1220155" data-name="Grupo 1220155" transform="translate(-189 -5048.533)">
    <g id="Grupo_1219549" data-name="Grupo 1219549" transform="translate(0 -4210.5)">
      <g id="Grupo_1209932" data-name="Grupo 1209932" transform="translate(198 9265.033)">
        <g id="Grupo_1208071" data-name="Grupo 1208071">
          <g id="Grupo_1144123" data-name="Grupo 1144123">
            <g transform="matrix(1, 0, 0, 1, -9, -6)" filter="url(#Trazado_978624)">
              <g id="Trazado_978624-2" data-name="Trazado 978624" transform="translate(9 6)" fill="#efeadd">
                <path d="M 37.966796875 74.43359375 C 33.04315185546875 74.43359375 28.26757431030273 73.46962738037109 23.77274131774902 71.56847381591797 C 19.43047523498535 69.73184967041016 15.53040790557861 67.10224914550781 12.18087482452393 63.75271987915039 C 8.831341743469238 60.4031867980957 6.201741218566895 56.50312042236328 4.365118980407715 52.16086196899414 C 2.463963508605957 47.66601943969727 1.499996900558472 42.89044189453125 1.499996900558472 37.966796875 C 1.499996900558472 33.04315185546875 2.463963508605957 28.26757431030273 4.365118980407715 23.77274131774902 C 6.201741218566895 19.43047523498535 8.831341743469238 15.53040790557861 12.18087482452393 12.18087482452393 C 15.53040790557861 8.831341743469238 19.43047523498535 6.201741218566895 23.77274131774902 4.365118980407715 C 28.26757431030273 2.463963508605957 33.04315185546875 1.499996900558472 37.966796875 1.499996900558472 C 42.89044189453125 1.499996900558472 47.66601943969727 2.463963508605957 52.16086196899414 4.365118980407715 C 56.50312042236328 6.201741218566895 60.4031867980957 8.831341743469238 63.75271987915039 12.18087482452393 C 67.10224914550781 15.53040790557861 69.73184967041016 19.43047523498535 71.56847381591797 23.77274131774902 C 73.46962738037109 28.26757431030273 74.43359375 33.04315185546875 74.43359375 37.966796875 C 74.43359375 42.89044189453125 73.46962738037109 47.66601943969727 71.56847381591797 52.16086196899414 C 69.73184967041016 56.50313186645508 67.10224914550781 60.4031867980957 63.75271987915039 63.75271987915039 C 60.4031867980957 67.10224914550781 56.50313186645508 69.73184967041016 52.16086196899414 71.56847381591797 C 47.66601943969727 73.46962738037109 42.89044189453125 74.43359375 37.966796875 74.43359375 Z" stroke="none"/>
                <path d="M 37.966796875 3 C 33.2449836730957 3 28.66600799560547 3.924095153808594 24.35705947875977 5.746635437011719 C 20.19359588623047 7.507621765136719 16.45379638671875 10.02927398681641 13.24153518676758 13.24153518676758 C 10.02927398681641 16.45379638671875 7.507621765136719 20.19359588623047 5.746635437011719 24.35705947875977 C 3.924095153808594 28.66600799560547 3 33.2449836730957 3 37.966796875 C 3 42.6886100769043 3.924095153808594 47.26758575439453 5.746635437011719 51.57653427124023 C 7.507621765136719 55.73999786376953 10.02927398681641 59.47979736328125 13.24153518676758 62.69205856323242 C 16.45379638671875 65.90431976318359 20.19359588623047 68.42597198486328 24.35705947875977 70.18695831298828 C 28.66600799560547 72.00949859619141 33.2449836730957 72.93359375 37.966796875 72.93359375 C 42.6886100769043 72.93359375 47.26758575439453 72.00949859619141 51.57653427124023 70.18695831298828 C 55.73999786376953 68.42597198486328 59.47979736328125 65.90431976318359 62.69205856323242 62.69205856323242 C 65.90431976318359 59.47979736328125 68.42597198486328 55.73999786376953 70.18695831298828 51.57653427124023 C 72.00949859619141 47.26758575439453 72.93359375 42.6886100769043 72.93359375 37.966796875 C 72.93359375 33.2449836730957 72.00949859619141 28.66600799560547 70.18695831298828 24.35705947875977 C 68.42597198486328 20.19359588623047 65.90431976318359 16.45379638671875 62.69205856323242 13.24153518676758 C 59.47979736328125 10.02927398681641 55.73999786376953 7.507621765136719 51.57653427124023 5.746635437011719 C 47.26758575439453 3.924095153808594 42.6886100769043 3 37.966796875 3 M 37.966796875 0 C 58.93528366088867 0 75.93359375 16.99831008911133 75.93359375 37.966796875 C 75.93359375 58.93528366088867 58.93528366088867 75.93359375 37.966796875 75.93359375 C 16.99831008911133 75.93359375 0 58.93528366088867 0 37.966796875 C 0 16.99831008911133 16.99831008911133 0 37.966796875 0 Z" stroke="none" fill="#655531"/>
              </g>
            </g>
          </g>
        </g>
      </g>
    </g>
    <g id="_x30_9_Approval" transform="translate(200.596 5057.344)">
      <g id="Grupo_1220154" data-name="Grupo 1220154" transform="translate(6.247 6.005)">
        <path id="Trazado_1091712" data-name="Trazado 1091712" d="M69.225,40.54A28.441,28.441,0,1,1,40.782,12.1,28.441,28.441,0,0,1,69.225,40.54Z" transform="translate(-11.633 -11.391)" fill="#04b18b"/>
        <path id="Trazado_1091713" data-name="Trazado 1091713" d="M91.116,62.426A28.444,28.444,0,0,1,37.124,74.935,28.45,28.45,0,0,0,75.178,36.881,28.428,28.428,0,0,1,91.116,62.426Z" transform="translate(-33.523 -33.281)" fill="#fff" opacity="0.4"/>
        <path id="Trazado_1091714" data-name="Trazado 1091714" d="M132.2,117.763a2.416,2.416,0,0,1-1.22,3.1,41.8,41.8,0,0,0-21.627,24.585,1.823,1.823,0,0,1-2.972.589l-10.97-10.97a2.407,2.407,0,0,1,0-3.4l2.271-2.274a2.407,2.407,0,0,1,3.406,0l2.978,2.978a1.817,1.817,0,0,0,2.838-.34,47.11,47.11,0,0,1,20.829-18.514,2.416,2.416,0,0,1,3.25,1.276Z" transform="translate(-84.39 -100.774)" fill="#efe9e5"/>
        <path id="Trazado_1091715" data-name="Trazado 1091715" d="M130.981,120.863a41.835,41.835,0,0,0-21.632,24.584,1.821,1.821,0,0,1-2.969.592L95.408,135.066a2.4,2.4,0,0,1-.483-2.7,24.823,24.823,0,0,0,30.625-17.775c.711-.375,1.439-.734,2.178-1.075a2.416,2.416,0,0,1,3.254,1.274l1.217,2.981a2.416,2.416,0,0,1-1.217,3.094Z" transform="translate(-84.39 -100.778)" fill="#fff" opacity="0.4"/>
        <g id="Grupo_1220153" data-name="Grupo 1220153" transform="translate(0 0)">
          <path id="Trazado_1091716" data-name="Trazado 1091716" d="M63.073,33.458a.711.711,0,0,0,1.42-.085A29.145,29.145,0,1,0,64.16,39.9a.711.711,0,1,0-1.4-.229,27.738,27.738,0,1,1,.316-6.213Z" transform="translate(-6.247 -6.005)"/>
          <path id="Trazado_1091717" data-name="Trazado 1091717" d="M122.056,107.469a47.9,47.9,0,0,0-21.137,18.79,1.105,1.105,0,0,1-1.728.207l-2.978-2.978a3.118,3.118,0,0,0-4.412,0l-2.271,2.274a3.122,3.122,0,0,0,0,4.409l10.97,10.97a2.534,2.534,0,0,0,4.131-.818.705.705,0,0,0,.041-.136,41.372,41.372,0,0,1,21.234-24.08,3.131,3.131,0,0,0,1.574-4.007l-1.22-2.979A3.124,3.124,0,0,0,122.056,107.469Zm3.243,7.353a41.847,41.847,0,0,0-21.946,24.969l-.033-.014a1.111,1.111,0,0,1-1.813.359l-10.97-10.97a1.7,1.7,0,0,1,0-2.4l2.271-2.274a1.7,1.7,0,0,1,2.4,0l2.978,2.978a2.527,2.527,0,0,0,3.947-.473,46.506,46.506,0,0,1,20.522-18.239,1.7,1.7,0,0,1,2.292.9l1.219,2.979A1.708,1.708,0,0,1,125.3,114.822Z" transform="translate(-79.014 -95.38)"/>
        </g>
      </g>
    </g>
  </g>
</svg>
