<svg xmlns="http://www.w3.org/2000/svg" xmlns:xlink="http://www.w3.org/1999/xlink" width="93.934" height="93.934" viewBox="0 0 93.934 93.934">
  <defs>
    <filter id="Trazado_978624" x="0" y="0" width="93.934" height="93.934" filterUnits="userSpaceOnUse">
      <feOffset dy="3" input="SourceAlpha"/>
      <feGaussianBlur stdDeviation="3" result="blur"/>
      <feFlood flood-opacity="0.161"/>
      <feComposite operator="in" in2="blur"/>
      <feComposite in="SourceGraphic"/>
    </filter>
  </defs>
  <g id="Grupo_1220152" data-name="Grupo 1220152" transform="translate(-819 -5048.533)">
    <g id="Grupo_1219550" data-name="Grupo 1219550" transform="translate(630 -4210.5)">
      <g id="Grupo_1209932" data-name="Grupo 1209932" transform="translate(198 9265.033)">
        <g id="Grupo_1208071" data-name="Grupo 1208071">
          <g id="Grupo_1144123" data-name="Grupo 1144123">
            <g transform="matrix(1, 0, 0, 1, -9, -6)" filter="url(#Trazado_978624)">
              <g id="Trazado_978624-2" data-name="Trazado 978624" transform="translate(9 6)" fill="#efeadd">
                <path d="M 37.966796875 74.43359375 C 33.04315185546875 74.43359375 28.26757431030273 73.46962738037109 23.77274131774902 71.56847381591797 C 19.43047523498535 69.73184967041016 15.53040790557861 67.10224914550781 12.18087482452393 63.75271987915039 C 8.831341743469238 60.4031867980957 6.201741218566895 56.50312042236328 4.365118980407715 52.16086196899414 C 2.463963508605957 47.66601943969727 1.499996900558472 42.89044189453125 1.499996900558472 37.966796875 C 1.499996900558472 33.04315185546875 2.463963508605957 28.26757431030273 4.365118980407715 23.77274131774902 C 6.201741218566895 19.43047523498535 8.831341743469238 15.53040790557861 12.18087482452393 12.18087482452393 C 15.53040790557861 8.831341743469238 19.43047523498535 6.201741218566895 23.77274131774902 4.365118980407715 C 28.26757431030273 2.463963508605957 33.04315185546875 1.499996900558472 37.966796875 1.499996900558472 C 42.89044189453125 1.499996900558472 47.66601943969727 2.463963508605957 52.16086196899414 4.365118980407715 C 56.50312042236328 6.201741218566895 60.4031867980957 8.831341743469238 63.75271987915039 12.18087482452393 C 67.10224914550781 15.53040790557861 69.73184967041016 19.43047523498535 71.56847381591797 23.77274131774902 C 73.46962738037109 28.26757431030273 74.43359375 33.04315185546875 74.43359375 37.966796875 C 74.43359375 42.89044189453125 73.46962738037109 47.66601943969727 71.56847381591797 52.16086196899414 C 69.73184967041016 56.50313186645508 67.10224914550781 60.4031867980957 63.75271987915039 63.75271987915039 C 60.4031867980957 67.10224914550781 56.50313186645508 69.73184967041016 52.16086196899414 71.56847381591797 C 47.66601943969727 73.46962738037109 42.89044189453125 74.43359375 37.966796875 74.43359375 Z" stroke="none"/>
                <path d="M 37.966796875 3 C 33.2449836730957 3 28.66600799560547 3.924095153808594 24.35705947875977 5.746635437011719 C 20.19359588623047 7.507621765136719 16.45379638671875 10.02927398681641 13.24153518676758 13.24153518676758 C 10.02927398681641 16.45379638671875 7.507621765136719 20.19359588623047 5.746635437011719 24.35705947875977 C 3.924095153808594 28.66600799560547 3 33.2449836730957 3 37.966796875 C 3 42.6886100769043 3.924095153808594 47.26758575439453 5.746635437011719 51.57653427124023 C 7.507621765136719 55.73999786376953 10.02927398681641 59.47979736328125 13.24153518676758 62.69205856323242 C 16.45379638671875 65.90431976318359 20.19359588623047 68.42597198486328 24.35705947875977 70.18695831298828 C 28.66600799560547 72.00949859619141 33.2449836730957 72.93359375 37.966796875 72.93359375 C 42.6886100769043 72.93359375 47.26758575439453 72.00949859619141 51.57653427124023 70.18695831298828 C 55.73999786376953 68.42597198486328 59.47979736328125 65.90431976318359 62.69205856323242 62.69205856323242 C 65.90431976318359 59.47979736328125 68.42597198486328 55.73999786376953 70.18695831298828 51.57653427124023 C 72.00949859619141 47.26758575439453 72.93359375 42.6886100769043 72.93359375 37.966796875 C 72.93359375 33.2449836730957 72.00949859619141 28.66600799560547 70.18695831298828 24.35705947875977 C 68.42597198486328 20.19359588623047 65.90431976318359 16.45379638671875 62.69205856323242 13.24153518676758 C 59.47979736328125 10.02927398681641 55.73999786376953 7.507621765136719 51.57653427124023 5.746635437011719 C 47.26758575439453 3.924095153808594 42.6886100769043 3 37.966796875 3 M 37.966796875 0 C 58.93528366088867 0 75.93359375 16.99831008911133 75.93359375 37.966796875 C 75.93359375 58.93528366088867 58.93528366088867 75.93359375 37.966796875 75.93359375 C 16.99831008911133 75.93359375 0 58.93528366088867 0 37.966796875 C 0 16.99831008911133 16.99831008911133 0 37.966796875 0 Z" stroke="none" fill="#655531"/>
              </g>
            </g>
          </g>
        </g>
      </g>
    </g>
    <g id="cancelar" transform="translate(838.387 5064.92)">
      <path id="Trazado_1091705" data-name="Trazado 1091705" d="M61.045,34.273A26.773,26.773,0,1,1,34.273,7.5,26.773,26.773,0,0,1,61.045,34.273Zm0,0" transform="translate(-6.692 -6.693)" fill="#ff929f"/>
      <path id="Trazado_1091706" data-name="Trazado 1091706" d="M31.469,22.348c5.508-4.251,8.269-10.3,9.525-14a26.773,26.773,0,1,0-3.448,52.5C25.91,51.08,24.169,41.05,24.93,34.039a17.106,17.106,0,0,1,6.539-11.691Zm0,0" transform="translate(-6.692 -6.692)" fill="#ff737d"/>
      <path id="Trazado_1091707" data-name="Trazado 1091707" d="M133.709,124.144l6.205-6.205a4.769,4.769,0,0,0-6.744-6.744l-6.205,6.205a2,2,0,0,1-2.821,0l-6.205-6.205a4.769,4.769,0,0,0-6.744,6.744l6.205,6.205a2,2,0,0,1,0,2.821l-6.205,6.205a4.769,4.769,0,0,0,6.744,6.744l6.205-6.205a2,2,0,0,1,2.821,0l6.205,6.205a4.769,4.769,0,0,0,6.744-6.744l-6.205-6.205A1.994,1.994,0,0,1,133.709,124.144Zm0,0" transform="translate(-97.974 -97.974)" fill="#fff"/>
      <path id="Trazado_1091708" data-name="Trazado 1091708" d="M121.469,114.721l-3.531-3.531a4.769,4.769,0,1,0-6.744,6.744l5.361,5.361a17.1,17.1,0,0,1,4.914-8.574Zm0,0" transform="translate(-97.974 -97.971)" fill="#bdfaff"/>
      <path id="Trazado_1091709" data-name="Trazado 1091709" d="M117.935,293.148l.617-.617a26.347,26.347,0,0,1-2.5-10.992l-4.865,4.865a4.769,4.769,0,0,0,6.744,6.744Zm0,0" transform="translate(-97.971 -251.208)" fill="#ccf8ff"/>
      <path id="Trazado_1091710" data-name="Trazado 1091710" d="M27.58,55.161A27.581,27.581,0,0,1,8.078,8.077,27.593,27.593,0,0,1,41.545,3.791a27.739,27.739,0,0,1,9.9,9.956.808.808,0,1,1-1.4.812A25.952,25.952,0,0,0,27.58,1.615,25.965,25.965,0,0,0,9.22,45.94,25.972,25.972,0,0,0,51.613,17.734a.808.808,0,0,1,1.5-.613A27.588,27.588,0,0,1,27.58,55.161Zm0,0"/>
      <path id="Trazado_1091711" data-name="Trazado 1091711" d="M125.879,133.763l-6.205-6.205a1.188,1.188,0,0,0-1.678,0l-6.205,6.205a5.577,5.577,0,1,1-7.887-7.887.808.808,0,1,1,1.143,1.143c-.744.744-2.066,3.639,0,5.6a4.279,4.279,0,0,0,5.6,0l6.205-6.205a2.807,2.807,0,0,1,3.964,0l6.205,6.205c.744.744,3.478,2.234,5.6,0a3.792,3.792,0,0,0,0-5.6l-6.205-6.205a2.806,2.806,0,0,1,0-3.964l6.205-6.205c.744-.744,2.08-3.531,0-5.6a3.755,3.755,0,0,0-5.6,0l-6.205,6.205a2.806,2.806,0,0,1-3.964,0l-6.205-6.205a4.082,4.082,0,0,0-5.6,0c-2.332,2.106-.744,4.857,0,5.6l6.205,6.205a2.806,2.806,0,0,1,0,3.964l-3.821,3.82a.808.808,0,0,1-1.143-1.143l3.821-3.82a1.189,1.189,0,0,0,0-1.679l-6.205-6.205a5.577,5.577,0,1,1,7.887-7.887L118,110.105a1.188,1.188,0,0,0,1.678,0l6.206-6.205a5.577,5.577,0,1,1,7.887,7.887l-6.206,6.206a1.188,1.188,0,0,0,0,1.678l6.205,6.205a5.583,5.583,0,0,1,0,7.887A5.48,5.48,0,0,1,125.879,133.763Zm0,0" transform="translate(-91.255 -91.251)"/>
    </g>
  </g>
</svg>
