<svg xmlns="http://www.w3.org/2000/svg" xmlns:xlink="http://www.w3.org/1999/xlink" width="285" height="190" viewBox="0 0 285 190">
  <defs>
    <clipPath id="clip-path">
      <rect id="Rectángulo_421310" data-name="Rectángulo 421310" width="265" height="190" transform="translate(1019.808 864)" fill="#fff" stroke="#707070" stroke-width="1"/>
    </clipPath>
    <filter id="Rectángulo_421289" x="44.128" y="55.508" width="188.427" height="26.65" filterUnits="userSpaceOnUse">
      <feOffset dy="3" input="SourceAlpha"/>
      <feGaussianBlur stdDeviation="3" result="blur"/>
      <feFlood flood-opacity="0.161"/>
      <feComposite operator="in" in2="blur"/>
      <feComposite in="SourceGraphic"/>
    </filter>
    <filter id="Rectángulo_421290" x="44.128" y="48.462" width="188.427" height="25.046" filterUnits="userSpaceOnUse">
      <feOffset dy="3" input="SourceAlpha"/>
      <feGaussianBlur stdDeviation="3" result="blur-2"/>
      <feFlood flood-opacity="0.161"/>
      <feComposite operator="in" in2="blur-2"/>
      <feComposite in="SourceGraphic"/>
    </filter>
    <filter id="Trazado_1091745" x="59.594" y="-4.627" width="159.608" height="71.09" filterUnits="userSpaceOnUse">
      <feOffset dy="3" input="SourceAlpha"/>
      <feGaussianBlur stdDeviation="3" result="blur-3"/>
      <feFlood flood-opacity="0.161"/>
      <feComposite operator="in" in2="blur-3"/>
      <feComposite in="SourceGraphic"/>
    </filter>
  </defs>
  <g id="Grupo_1220297" data-name="Grupo 1220297" transform="translate(-291 -6103)">
    <rect id="Rectángulo_421311" data-name="Rectángulo 421311" width="285" height="101" rx="26" transform="translate(291 6159)" fill="#56678d"/>
    <g id="Enmascarar_grupo_1098939" data-name="Enmascarar grupo 1098939" transform="translate(-720.808 5239)" clip-path="url(#clip-path)">
      <g id="Grupo_1220296" data-name="Grupo 1220296" transform="translate(1020 864.152)">
        <path id="Trazado_1091718" data-name="Trazado 1091718" d="M86.725,0c47.9,0,86.725,38.235,86.725,85.4,0,46.788-30.784,79.582-78.233,80.188-.3,0-9.261,0-9.644,0C37.676,165.588,0,132.566,0,85.4S38.828,0,86.725,0Z" transform="translate(45.679 7.131)" fill="#edeef2" opacity="0.21"/>
        <g id="Grupo_1220295" data-name="Grupo 1220295">
          <g id="_35905925_law_firm_03" data-name="35905925_law_firm_03" transform="translate(0 0)">
            <g id="Grupo_1220161" data-name="Grupo 1220161" transform="translate(158.715 0)">
              <g id="Grupo_1220159" data-name="Grupo 1220159" transform="translate(7.353 9.53)">
                <g id="Grupo_1220156" data-name="Grupo 1220156" transform="translate(64.37 102.612)">
                  <path id="Trazado_1091719" data-name="Trazado 1091719" d="M1113.352,576.237a.156.156,0,0,0,.062,0c.021,0,.533-.071,1.424-.261a.154.154,0,1,0-.064-.3c-.879.187-1.4.256-1.4.257a.154.154,0,0,0-.021.3Z" transform="translate(-1113.239 -575.676)" fill="#f2d944"/>
                </g>
                <g id="Grupo_1220157" data-name="Grupo 1220157" transform="translate(2.783 3.346)">
                  <path id="Trazado_1091720" data-name="Trazado 1091720" d="M909.912,240.7a.154.154,0,0,1,.1-.191c.9-.266,1.811-.569,2.7-.9a.154.154,0,0,1,.107.289c-.9.334-1.813.639-2.722.907a.153.153,0,0,1-.085,0A.148.148,0,0,1,909.912,240.7Zm5.36-1.971a.154.154,0,0,1,.077-.2c.867-.393,1.724-.819,2.548-1.266a.154.154,0,1,1,.147.27c-.83.451-1.694.88-2.568,1.276a.153.153,0,0,1-.1.008A.158.158,0,0,1,915.272,238.726Zm5.026-2.708a.154.154,0,0,1,.046-.213c.8-.517,1.582-1.068,2.324-1.638a.154.154,0,0,1,.188.244c-.749.575-1.538,1.131-2.345,1.652a.154.154,0,0,1-.125.019A.152.152,0,0,1,920.3,236.018Zm4.538-3.458a.154.154,0,0,1,.01-.218c.7-.641,1.378-1.316,2.01-2.007a.154.154,0,1,1,.227.208c-.639.7-1.322,1.38-2.03,2.027a.154.154,0,0,1-.146.035A.161.161,0,0,1,924.836,232.56Zm3.868-4.19a.154.154,0,0,1-.03-.216c.569-.751,1.11-1.539,1.607-2.341a.154.154,0,1,1,.262.162c-.5.81-1.049,1.605-1.624,2.364a.154.154,0,0,1-.164.055A.162.162,0,0,1,928.7,228.37Zm3.03-4.83a.154.154,0,0,1-.069-.206c.417-.839.8-1.712,1.149-2.6a.154.154,0,1,1,.287.112c-.348.893-.738,1.775-1.16,2.622a.154.154,0,0,1-.179.08A.115.115,0,0,1,931.734,223.539Zm2.1-5.3a.154.154,0,0,1-.1-.191q.059-.2.116-.4c.215-.767.409-1.559.574-2.354a.154.154,0,0,1,.182-.119.156.156,0,0,1,.119.182c-.167.8-.362,1.6-.579,2.374q-.057.2-.117.407a.154.154,0,0,1-.189.1Zm1.076-5.751c.142-.967.253-1.918.33-2.826a.154.154,0,1,1,.307.026c-.078.914-.19,1.871-.333,2.844a.154.154,0,0,1-.175.13l-.02,0A.153.153,0,0,1,934.909,212.488Zm.471-5.664c.011-.983-.021-1.937-.1-2.837a.154.154,0,0,1,.307-.026c.076.91.108,1.874.1,2.866a.154.154,0,0,1-.156.152.151.151,0,0,1-.04-.006A.156.156,0,0,1,935.38,206.824Zm-12.825-8.381a.154.154,0,0,1,.238-.2,2.651,2.651,0,0,0,2.4.95.154.154,0,1,1,.039.305,3,3,0,0,1-1.2-.084A2.943,2.943,0,0,1,922.555,198.443Zm12.329,2.74a17.189,17.189,0,0,0-.794-2.711.154.154,0,1,1,.287-.112,17.487,17.487,0,0,1,.809,2.759.154.154,0,1,1-.3.063Zm-7.331-3.082a.154.154,0,0,1,0-.218,8.524,8.524,0,0,0,1.527-2.336.154.154,0,0,1,.28.129,8.815,8.815,0,0,1-1.584,2.42.154.154,0,0,1-.153.042A.15.15,0,0,1,927.553,198.1Zm-5.774-2.452a5.414,5.414,0,0,1,.183-.983q.051-.184.118-.372a2.967,2.967,0,0,1,.9-1.278.154.154,0,0,1,.2.234,2.665,2.665,0,0,0-.812,1.145q-.062.179-.111.353a5.11,5.11,0,0,0-.173.926.154.154,0,0,1-.167.14l-.028-.005A.153.153,0,0,1,921.779,195.648Zm11.015.327a9.477,9.477,0,0,0-1.885-2.067.154.154,0,0,1,.193-.24,9.8,9.8,0,0,1,1.946,2.134.154.154,0,0,1-.169.235A.146.146,0,0,1,932.794,195.976Zm-7.248-3.858a.154.154,0,0,1,.137-.169,6.967,6.967,0,0,1,2.571.234c.1.029.206.06.309.094a.154.154,0,0,1,.1.194.16.16,0,0,1-.194.1,6.688,6.688,0,0,0-2.753-.314.154.154,0,0,1-.169-.137Zm4.447.76.033-.134a23.028,23.028,0,0,0,.48-2.658.154.154,0,1,1,.306.037,23.4,23.4,0,0,1-.488,2.7l-.033.131a.154.154,0,0,1-.187.111h0A.154.154,0,0,1,929.993,192.878Zm.7-5.625a26.989,26.989,0,0,0-.114-2.837.154.154,0,0,1,.307-.029,27.411,27.411,0,0,1,.115,2.87.154.154,0,0,1-.156.152.163.163,0,0,1-.04-.006A.157.157,0,0,1,930.7,187.253Zm-.526-5.646a26.362,26.362,0,0,0-.713-2.747.154.154,0,0,1,.293-.093,26.614,26.614,0,0,1,.721,2.779.154.154,0,0,1-.12.182.153.153,0,0,1-.181-.12Zm-1.721-5.4a26.274,26.274,0,0,0-1.289-2.526.154.154,0,1,1,.266-.155,26.538,26.538,0,0,1,1.3,2.556.154.154,0,0,1-.182.211A.158.158,0,0,1,928.448,176.209Zm-2.842-4.9c-.551-.753-1.153-1.493-1.789-2.2a.154.154,0,1,1,.229-.206,28.635,28.635,0,0,1,1.808,2.225.154.154,0,0,1-.166.239A.159.159,0,0,1,925.605,171.31Zm-64.5-21.143c-.531-.149-1.059-.3-1.568-.457a.154.154,0,0,1-.1-.192.156.156,0,0,1,.192-.1c.508.153,1.033.306,1.562.455.391.11.779.216,1.179.322h0a.154.154,0,0,1-.081.3q-.592-.157-1.162-.317Zm3.843.833a.154.154,0,0,1,.185-.115c.9.212,1.84.42,2.784.616a.154.154,0,1,1-.062.3c-.947-.2-1.886-.405-2.792-.618l-.007,0A.154.154,0,0,1,864.948,151Zm56.874,16.092c-.682-.629-1.411-1.245-2.168-1.831a.154.154,0,0,1,.189-.243c.764.592,1.5,1.213,2.189,1.848a.154.154,0,0,1-.146.261A.159.159,0,0,1,921.822,167.092Zm-65.009-18.26c-.925-.319-1.828-.653-2.684-.992a.154.154,0,1,1,.114-.286c.852.338,1.75.67,2.671.988a.154.154,0,0,1-.092.294Zm13.724,3.342a.154.154,0,0,1,.179-.124c.912.168,1.858.333,2.81.488a.154.154,0,1,1-.05.3c-.955-.156-1.9-.32-2.817-.489l-.014,0A.154.154,0,0,1,870.537,152.174Zm-19.04-5.461c-.9-.414-1.758-.847-2.56-1.287a.154.154,0,1,1,.148-.27c.8.436,1.651.866,2.542,1.277a.154.154,0,0,1-.106.288Zm24.676,6.388a.153.153,0,0,1,.174-.13c.922.133,1.873.261,2.827.382a.154.154,0,1,1-.039.306c-.956-.121-1.909-.25-2.833-.383l-.02,0A.154.154,0,0,1,876.173,153.1Zm5.665.723a.154.154,0,0,1,.17-.136c.924.1,1.88.2,2.839.293a.154.154,0,0,1-.03.306c-.961-.092-1.917-.191-2.843-.294l-.025,0A.152.152,0,0,1,881.838,153.825Zm-35.355-9.881a23.429,23.429,0,0,1-2.29-1.734.154.154,0,1,1,.2-.233,23.155,23.155,0,0,0,2.26,1.711.154.154,0,0,1-.127.276A.159.159,0,0,1,846.483,143.943Zm70.859,19.67c-.774-.508-1.592-1-2.429-1.473a.154.154,0,1,1,.15-.268c.844.473,1.667.972,2.448,1.484a.154.154,0,0,1-.126.277A.19.19,0,0,1,917.341,163.613Zm-29.821-9.226a.154.154,0,0,1,.169-.138c.958.1,1.914.207,2.841.325a.154.154,0,1,1-.039.305c-.924-.118-1.878-.227-2.833-.324l-.026-.005A.155.155,0,0,1,887.521,154.387Zm24.87,6.444c-.835-.4-1.709-.79-2.6-1.157a.154.154,0,1,1,.117-.284c.894.369,1.773.76,2.613,1.164a.154.154,0,0,1-.108.287A.107.107,0,0,1,912.391,160.832Zm-19.2-5.729a.154.154,0,0,1,.176-.128c.951.148,1.9.31,2.82.482a.154.154,0,0,1-.057.3c-.916-.171-1.862-.333-2.81-.48l-.018,0A.155.155,0,0,1,893.187,155.1Zm13.949,3.555c-.875-.31-1.784-.61-2.7-.889a.154.154,0,0,1,.086-.3h0c.924.281,1.838.582,2.717.894a.154.154,0,0,1-.093.293Zm-8.335-2.513a.154.154,0,0,1,.184-.117c.943.209,1.879.434,2.782.669a.158.158,0,0,1,.11.188.154.154,0,0,1-.188.11c-.9-.234-1.832-.459-2.771-.667l-.008,0A.153.153,0,0,1,898.8,156.145Z" transform="translate(-844.14 -141.939)" fill="#f2d944"/>
                </g>
                <g id="Grupo_1220158" data-name="Grupo 1220158">
                  <path id="Trazado_1091721" data-name="Trazado 1091721" d="M832.839,128.843A.154.154,0,0,0,833,128.6a5.468,5.468,0,0,1-.727-1.183.154.154,0,0,0-.289.108,5.6,5.6,0,0,0,.77,1.261A.153.153,0,0,0,832.839,128.843Z" transform="translate(-831.979 -127.319)" fill="#f2d944"/>
                </g>
              </g>
              <g id="Grupo_1220160" data-name="Grupo 1220160" transform="translate(0 0)">
                <path id="Trazado_1091722" data-name="Trazado 1091722" d="M816.08,109.231l-3.307-3.344,2.792-.561Z" transform="translate(-809.816 -100.829)" fill="#f2d944"/>
                <path id="Trazado_1091723" data-name="Trazado 1091723" d="M802.461,91.557l-2.609-5.837L805.1,91.2Z" transform="translate(-799.852 -85.71)" fill="#f2d944"/>
                <path id="Trazado_1091724" data-name="Trazado 1091724" d="M799.861,85.678l9.614,4.116-2.589.476Z" transform="translate(-799.859 -85.678)" fill="#f2d944"/>
                <path id="Trazado_1091725" data-name="Trazado 1091725" d="M799.852,85.72l5.246,5.5,1.019,2.888.789-3.834Z" transform="translate(-799.852 -85.71)" fill="#f2d944"/>
              </g>
            </g>
            <path id="Trazado_1091726" data-name="Trazado 1091726" d="M1106.954,653.64a2.5,2.5,0,0,0,.728-2.5,3.789,3.789,0,0,0-1.616-2.144,8.15,8.15,0,0,0-2.529-1.04,10.293,10.293,0,0,0-4.505-.293,43.411,43.411,0,0,1,4.241-5.15c.141-.146.284-.29.426-.434l3.192,3.533a8.336,8.336,0,0,0,2.4,2.055,2.845,2.845,0,0,0,3-.164,2.5,2.5,0,0,0,.728-2.5,3.788,3.788,0,0,0-1.616-2.144,8.152,8.152,0,0,0-2.529-1.04,10.133,10.133,0,0,0-4.645-.265,44.266,44.266,0,0,1,5.71-4.72l3.371,3.456a8.338,8.338,0,0,0,2.474,1.961,2.845,2.845,0,0,0,3-.279,2.5,2.5,0,0,0,.631-2.527,3.79,3.79,0,0,0-1.7-2.081,8.146,8.146,0,0,0-2.567-.942,10.468,10.468,0,0,0-4.371-.154,43.546,43.546,0,0,1,4.646-2.679c.474-.235.954-.459,1.438-.676l3.584,3.44a8.332,8.332,0,0,0,2.537,1.879,2.845,2.845,0,0,0,2.984-.377,2.5,2.5,0,0,0,.547-2.547,3.789,3.789,0,0,0-1.765-2.024,8.149,8.149,0,0,0-2.6-.857,11.028,11.028,0,0,0-3.914-.107,41.761,41.761,0,0,1,5.107-1.708l4.67,1.285a8.352,8.352,0,0,0,3.127.445,2.846,2.846,0,0,0,2.447-1.751,2.5,2.5,0,0,0-.731-2.5,3.8,3.8,0,0,0-2.517-.94,8.17,8.17,0,0,0-2.694.482,9.751,9.751,0,0,0-4.319,2.538l-.017,0a42.121,42.121,0,0,0-5.432,1.829,10.8,10.8,0,0,0,2.352-3.364,8.155,8.155,0,0,0,.832-2.605,3.792,3.792,0,0,0-.6-2.617,2.5,2.5,0,0,0-2.383-1.053,2.845,2.845,0,0,0-2.058,2.194,8.347,8.347,0,0,0,.03,3.157l.661,4.793a43.556,43.556,0,0,0-6.144,3.38,10.522,10.522,0,0,0,1.567-4.02,8.147,8.147,0,0,0,.159-2.729,3.786,3.786,0,0,0-1.233-2.385,2.5,2.5,0,0,0-2.57-.428,2.843,2.843,0,0,0-1.45,2.635,8.342,8.342,0,0,0,.813,3.05l1.83,4.476-.182.125a44.905,44.905,0,0,0-5.562,4.625,9.942,9.942,0,0,0,.94-4.714,8.137,8.137,0,0,0-.4-2.7,3.789,3.789,0,0,0-1.691-2.086,2.5,2.5,0,0,0-2.6.1,2.841,2.841,0,0,0-.886,2.873,8.335,8.335,0,0,0,1.415,2.821l2.786,4.141-.071.072-.046-.009.027.029a44.135,44.135,0,0,0-4.538,5.381,10.782,10.782,0,0,0-.676-4.293,8.3,8.3,0,0,0-1.254-2.487,3.867,3.867,0,0,0-2.305-1.475,2.546,2.546,0,0,0-2.485.931,2.893,2.893,0,0,0,.069,3.061,8.5,8.5,0,0,0,2.275,2.274l3.638,2.812.094.1a42.063,42.063,0,0,0-3.731,6.795c-.109.251.262.469.372.215a41.988,41.988,0,0,1,3.656-6.68l3.028,3.352a8.339,8.339,0,0,0,2.4,2.055A2.845,2.845,0,0,0,1106.954,653.64Z" transform="translate(-870.2 -499.512)" fill="#b0bd4c"/>
            <path id="Trazado_1091727" data-name="Trazado 1091727" d="M145.908,648.894a2.5,2.5,0,0,1-.728-2.5,3.789,3.789,0,0,1,1.616-2.144,8.151,8.151,0,0,1,2.529-1.04,10.293,10.293,0,0,1,4.505-.293,43.385,43.385,0,0,0-4.241-5.15c-.14-.146-.283-.29-.426-.434l-3.192,3.533a8.335,8.335,0,0,1-2.4,2.055,2.845,2.845,0,0,1-3-.164,2.5,2.5,0,0,1-.728-2.5,3.788,3.788,0,0,1,1.616-2.144,8.15,8.15,0,0,1,2.529-1.039,10.134,10.134,0,0,1,4.645-.265,44.257,44.257,0,0,0-5.71-4.72l-3.371,3.456a8.335,8.335,0,0,1-2.474,1.961,2.845,2.845,0,0,1-3-.279,2.5,2.5,0,0,1-.631-2.527,3.79,3.79,0,0,1,1.7-2.081,8.146,8.146,0,0,1,2.567-.942,10.466,10.466,0,0,1,4.371-.154,43.551,43.551,0,0,0-4.646-2.679c-.474-.235-.955-.459-1.437-.676l-3.584,3.44a8.329,8.329,0,0,1-2.537,1.879,2.845,2.845,0,0,1-2.984-.377,2.5,2.5,0,0,1-.547-2.547,3.789,3.789,0,0,1,1.765-2.024,8.151,8.151,0,0,1,2.6-.857,11.031,11.031,0,0,1,3.914-.107,41.75,41.75,0,0,0-5.107-1.708l-4.67,1.285a8.352,8.352,0,0,1-3.127.445,2.846,2.846,0,0,1-2.447-1.751,2.5,2.5,0,0,1,.731-2.5,3.8,3.8,0,0,1,2.517-.939,8.166,8.166,0,0,1,2.694.482,9.751,9.751,0,0,1,4.32,2.538l.017,0a42.106,42.106,0,0,1,5.432,1.829,10.8,10.8,0,0,1-2.352-3.364,8.156,8.156,0,0,1-.832-2.605,3.791,3.791,0,0,1,.6-2.617,2.5,2.5,0,0,1,2.382-1.053,2.845,2.845,0,0,1,2.058,2.194,8.343,8.343,0,0,1-.03,3.157l-.66,4.793a43.562,43.562,0,0,1,6.144,3.38,10.522,10.522,0,0,1-1.567-4.02,8.15,8.15,0,0,1-.159-2.729,3.788,3.788,0,0,1,1.233-2.385,2.5,2.5,0,0,1,2.57-.428,2.843,2.843,0,0,1,1.449,2.635,8.339,8.339,0,0,1-.813,3.05l-1.83,4.476.182.125a44.888,44.888,0,0,1,5.562,4.625,9.944,9.944,0,0,1-.94-4.714,8.136,8.136,0,0,1,.4-2.7,3.789,3.789,0,0,1,1.691-2.086,2.5,2.5,0,0,1,2.6.1,2.841,2.841,0,0,1,.886,2.873,8.333,8.333,0,0,1-1.415,2.821l-2.787,4.141.071.072.046-.009-.027.029a44.137,44.137,0,0,1,4.538,5.381,10.776,10.776,0,0,1,.676-4.292,8.31,8.31,0,0,1,1.254-2.487,3.868,3.868,0,0,1,2.305-1.475,2.546,2.546,0,0,1,2.485.931,2.893,2.893,0,0,1-.068,3.061,8.506,8.506,0,0,1-2.275,2.274l-3.638,2.812-.094.1a42.052,42.052,0,0,1,3.731,6.795c.109.251-.262.469-.372.215a41.99,41.99,0,0,0-3.655-6.68L151.308,647a8.343,8.343,0,0,1-2.4,2.055A2.844,2.844,0,0,1,145.908,648.894Z" transform="translate(-116.243 -495.852)" fill="#b0bd4c"/>
            <g id="Grupo_1220168" data-name="Grupo 1220168" transform="translate(208.585 84.063)">
              <g id="Grupo_1220163" data-name="Grupo 1220163" transform="translate(0)">
                <g id="Grupo_1220162" data-name="Grupo 1220162">
                  <path id="Trazado_1091728" data-name="Trazado 1091728" d="M1035.512,477.378c-2.64,5.57-10.789,7.376-13.8,12.945-1.6,3.272-.12,6.348.6,9.347.817,5.508,1.411,11.734-.676,17.745-1.144,2.737-3.223,5.321-3.876,8.091a32.777,32.777,0,0,0,8.527-2c.054-.065.109-.134.161-.2a13.079,13.079,0,0,0,3.1-9.256c-.317-3.092-1.878-6.172-1.118-9.312a12.748,12.748,0,0,1,2.576-4.521,12.887,12.887,0,0,0,2.476-4.618c.739-2.928.4-6.313,2.193-8.9,1.1-1.575,2.852-2.422,4.42-3.437a8.6,8.6,0,0,0,2.334-2.058,8.89,8.89,0,0,0,1.205-2.386c.578-1.668.848-3.423,1.4-5.1a13.3,13.3,0,0,1,2.649-4.58c2.562-2.945,6-4.88,9.156-7.1,2.853-2.01,5.744-4.435,7.162-7.713.048-.111.095-.224.138-.338a3.51,3.51,0,0,0-1.5-.914c-5.554-1.066-9.4,6.841-14.2,9.274-5.755,2.251-10.6,1.853-11.594,9.236A19.355,19.355,0,0,1,1035.512,477.378Z" transform="translate(-1017.759 -452.986)" fill="#318c85"/>
                </g>
              </g>
              <g id="Grupo_1220165" data-name="Grupo 1220165" transform="translate(8.526 1.011)">
                <g id="Grupo_1220164" data-name="Grupo 1220164">
                  <path id="Trazado_1091729" data-name="Trazado 1091729" d="M1085.569,465.454c-3.154,2.22-6.594,4.155-9.156,7.1a13.3,13.3,0,0,0-2.649,4.58c-.551,1.676-.821,3.431-1.4,5.1a8.9,8.9,0,0,1-1.205,2.386,8.6,8.6,0,0,1-2.334,2.058c-1.568,1.015-3.323,1.862-4.42,3.437-1.8,2.583-1.454,5.969-2.193,8.9a12.881,12.881,0,0,1-2.476,4.618,12.747,12.747,0,0,0-2.576,4.521c-.76,3.141.8,6.22,1.118,9.312a13.08,13.08,0,0,1-3.1,9.255c-.052.067-.107.135-.161.2.151-.055.3-.112.448-.172,6.8-2.661,13.047-7.633,11.785-14.572-1.4-3.2-2.863-5.706,1.572-8.775,6.748-5.874,15.723-9.642,13.583-18.688-.673-4.085-3.532-9.872.586-14.083,1.86-1.443,4.183-1.9,6.074-3.282,3.526-2.219,5.911-7.259,3.987-9.728a1.8,1.8,0,0,0-.183-.213c-.043.113-.09.226-.138.338C1091.314,461.019,1088.423,463.444,1085.569,465.454Z" transform="translate(-1055.015 -457.403)" fill="#257872"/>
                </g>
              </g>
              <g id="Grupo_1220167" data-name="Grupo 1220167" transform="translate(8.526 1.011)">
                <g id="Grupo_1220166" data-name="Grupo 1220166">
                  <path id="Trazado_1091730" data-name="Trazado 1091730" d="M1085.569,465.453c-3.154,2.22-6.594,4.155-9.156,7.1a13.3,13.3,0,0,0-2.649,4.58c-.551,1.676-.821,3.431-1.4,5.1a8.9,8.9,0,0,1-1.205,2.386,8.6,8.6,0,0,1-2.334,2.058c-1.568,1.015-3.323,1.862-4.42,3.437-1.8,2.583-1.454,5.969-2.193,8.9a12.881,12.881,0,0,1-2.476,4.618,12.747,12.747,0,0,0-2.576,4.521c-.76,3.141.8,6.22,1.118,9.312a13.08,13.08,0,0,1-3.1,9.256c-.052.067-.107.135-.161.2.151-.055.3-.112.448-.172a18.25,18.25,0,0,0,1.342-2.012,13.361,13.361,0,0,0,1.59-4.228,12.414,12.414,0,0,0-.144-4.737c-.33-1.6-.826-3.181-1-4.814a7.827,7.827,0,0,1,1.215-5.156c.983-1.555,2.277-2.9,3.145-4.531a13.133,13.133,0,0,0,1.237-4.427,25.9,25.9,0,0,1,.855-4.76,7.782,7.782,0,0,1,3.538-4.146c1.586-1,3.273-1.888,4.332-3.5a14.874,14.874,0,0,0,1.74-4.745,17.234,17.234,0,0,1,1.911-5.151,17.964,17.964,0,0,1,4.026-4.357c4.63-3.755,11.5-6.728,13.8-12.569a1.793,1.793,0,0,0-.183-.213c-.043.113-.09.226-.138.338C1091.314,461.018,1088.423,463.444,1085.569,465.453Z" transform="translate(-1055.015 -457.402)" fill="#8bc9c4"/>
                </g>
              </g>
            </g>
            <g id="Grupo_1220171" data-name="Grupo 1220171" transform="translate(14.631 30.971)">
              <path id="Trazado_1091731" data-name="Trazado 1091731" d="M201.539,527.232a1.42,1.42,0,0,0,.21.182,6.219,6.219,0,0,0,2.128,1.095,2.127,2.127,0,0,1,.11-.225c.375-.744.794-1.488,1.246-2.26-.706-2.162-.86-5.643,2.712-10.78,7.222-10.345.364-17.911-6.2-18.164a7.808,7.808,0,0,0-1.621.084L200.039,501l-.507,21.435A6.445,6.445,0,0,0,201.539,527.232Z" transform="translate(-192.837 -433.889)" fill="#d13737"/>
              <rect id="Rectángulo_421286" data-name="Rectángulo 421286" width="2.738" height="138.7" transform="translate(6.179 2.365)" fill="#753721"/>
              <g id="Grupo_1220169" data-name="Grupo 1220169" transform="translate(2.708 2.369)">
                <path id="Trazado_1091732" data-name="Trazado 1091732" d="M183.749,294.07c3.9,3.833,6.892-.7,8.108,7.384.756,5.027-.571,14.878-3.742,20.874-3.065,5.8-2.01,11.124,1.092,15.581-1.064-6.532-1.141-10.245,2.6-16.788,12.018-21,2.418-46.111-.244-66.382-1.407-10.719-1.731-14.57-3.241-23.385.212,12.346-.5,31.138-2.735,42.35C183.94,281.973,179.865,290.256,183.749,294.07Z" transform="translate(-182.122 -231.355)" fill="#dd4747"/>
              </g>
              <g id="Grupo_1220170" data-name="Grupo 1220170" transform="translate(4.732 14.198)">
                <path id="Trazado_1091733" data-name="Trazado 1091733" d="M195.913,283.042s1.462,12.856,2.763,24.865c2.16,19.938,1.31,26.654.507,26.9-.5.153-.23-2.107-4.325-2.075-4.5.035-4.138-5.2-3.549-7.249C195.186,312.021,196.713,292.4,195.913,283.042Z" transform="translate(-190.965 -283.042)" fill="#999"/>
              </g>
              <path id="Trazado_1091734" data-name="Trazado 1091734" d="M195.272,237h-4.425a.817.817,0,1,0,0,1.634h4.425a.817.817,0,1,0,0-1.634Z" transform="translate(-185.512 -233.336)" fill="#753721"/>
              <path id="Trazado_1091735" data-name="Trazado 1091735" d="M193.768,224.278c0,1.808.973,2.159,2.174,2.159s2.174-.351,2.174-2.159S197.143,221,195.942,221,193.768,222.47,193.768,224.278Z" transform="translate(-188.394 -221.004)" fill="#753721"/>
              <path id="Trazado_1091736" data-name="Trazado 1091736" d="M181.276,819.44h-6.883a4.106,4.106,0,0,0-4.106,4.107h15.1A4.106,4.106,0,0,0,181.276,819.44Z" transform="translate(-170.287 -682.481)" fill="#753721"/>
            </g>
            <g id="Grupo_1220177" data-name="Grupo 1220177" transform="translate(36.347 1.221)">
              <g id="Grupo_1220172" data-name="Grupo 1220172" transform="translate(0 155.544)">
                <rect id="Rectángulo_421287" data-name="Rectángulo 421287" width="170.427" height="5.596" transform="translate(8.59)" fill="#faf3e1"/>
                <rect id="Rectángulo_421288" data-name="Rectángulo 421288" width="187.606" height="9.217" transform="translate(0 5.596)" fill="#f0e2c0"/>
              </g>
              <g transform="matrix(1, 0, 0, 1, -44.54, -1.37)" filter="url(#Rectángulo_421289)">
                <rect id="Rectángulo_421289-2" data-name="Rectángulo 421289" width="170.427" height="8.65" transform="translate(53.13 61.51)" fill="#faf3e1"/>
              </g>
              <g transform="matrix(1, 0, 0, 1, -44.54, -1.37)" filter="url(#Rectángulo_421290)">
                <rect id="Rectángulo_421290-2" data-name="Rectángulo 421290" width="170.427" height="7.046" transform="translate(53.13 54.46)" fill="#f0e2c0"/>
              </g>
              <g id="Grupo_1220173" data-name="Grupo 1220173" transform="translate(108.926 68.786)">
                <rect id="Rectángulo_421291" data-name="Rectángulo 421291" width="16.189" height="69.332" transform="translate(3.546 8.713)" fill="#faf3e1"/>
                <path id="Trazado_1091737" data-name="Trazado 1091737" d="M752.735,391.568H741.117l3.5,8.713h16.234l3.5-8.713Z" transform="translate(-741.117 -391.568)" fill="#f0e2c0"/>
                <path id="Trazado_1091738" data-name="Trazado 1091738" d="M752.833,741.3h11.618l-3.5-8.713H744.716l-3.5,8.713Z" transform="translate(-741.192 -654.538)" fill="#f0e2c0"/>
              </g>
              <g id="Grupo_1220174" data-name="Grupo 1220174" transform="translate(151.733 68.786)">
                <rect id="Rectángulo_421292" data-name="Rectángulo 421292" width="16.189" height="69.332" transform="translate(3.546 8.713)" fill="#faf3e1"/>
                <path id="Trazado_1091739" data-name="Trazado 1091739" d="M939.779,391.568H928.161l3.5,8.713H947.9l3.5-8.713Z" transform="translate(-928.161 -391.568)" fill="#f0e2c0"/>
                <path id="Trazado_1091740" data-name="Trazado 1091740" d="M939.877,741.3H951.5l-3.5-8.713H931.76l-3.5,8.713Z" transform="translate(-928.237 -654.538)" fill="#f0e2c0"/>
              </g>
              <g id="Grupo_1220175" data-name="Grupo 1220175" transform="translate(59.679 68.786)">
                <rect id="Rectángulo_421293" data-name="Rectángulo 421293" width="16.189" height="69.332" transform="translate(3.546 8.713)" fill="#faf3e1"/>
                <path id="Trazado_1091741" data-name="Trazado 1091741" d="M537.552,391.568H525.934l3.5,8.713h16.234l3.5-8.713Z" transform="translate(-525.934 -391.568)" fill="#f0e2c0"/>
                <path id="Trazado_1091742" data-name="Trazado 1091742" d="M537.65,741.3h11.618l-3.5-8.713H529.534l-3.5,8.713Z" transform="translate(-526.009 -654.538)" fill="#f0e2c0"/>
              </g>
              <g id="Grupo_1220176" data-name="Grupo 1220176" transform="translate(15.487 68.786)">
                <rect id="Rectángulo_421294" data-name="Rectángulo 421294" width="16.189" height="69.332" transform="translate(3.546 8.713)" fill="#faf3e1"/>
                <path id="Trazado_1091743" data-name="Trazado 1091743" d="M344.46,391.568H332.842l3.5,8.713h16.234l3.5-8.713Z" transform="translate(-332.842 -391.568)" fill="#f0e2c0"/>
                <path id="Trazado_1091744" data-name="Trazado 1091744" d="M344.559,741.3h11.618l-3.5-8.713H336.442l-3.5,8.713Z" transform="translate(-332.918 -654.538)" fill="#f0e2c0"/>
              </g>
              <g transform="matrix(1, 0, 0, 1, -44.54, -1.37)" filter="url(#Trazado_1091745)">
                <path id="Trazado_1091745-2" data-name="Trazado 1091745" d="M440.874,91.012l71.014,53.09H370.28Z" transform="translate(-301.69 -89.64)" fill="#faf3e1"/>
              </g>
              <path id="Trazado_1091746" data-name="Trazado 1091746" d="M507.679,134.394l50.974,37.462H456.517Z" transform="translate(-412.725 -124.466)" fill="#f0e2c0"/>
              <ellipse id="Elipse_14445" data-name="Elipse 14445" cx="10.685" cy="8.312" rx="10.685" ry="8.312" transform="translate(84.175 23.501)" fill="#faf3e1"/>
            </g>
            <g id="Grupo_1220206" data-name="Grupo 1220206" transform="translate(78.386 4.623)">
              <g id="Grupo_1220178" data-name="Grupo 1220178" transform="translate(52.212 131.056)">
                <path id="Trazado_1091747" data-name="Trazado 1091747" d="M684.721,678.521s3.894,21.682-7.72,25.858h11.17V678.521Z" transform="translate(-677.001 -678.521)" fill="#8f4827"/>
                <path id="Trazado_1091748" data-name="Trazado 1091748" d="M733.737,678.521s-3.894,21.682,7.72,25.858h-11.17V678.521Z" transform="translate(-718.092 -678.521)" fill="#8f4827"/>
              </g>
              <path id="Trazado_1091749" data-name="Trazado 1091749" d="M713.92,113.3a14.11,14.11,0,0,0-1.732-3.277,16.1,16.1,0,0,1-1.442-2.559,2.534,2.534,0,0,0-4.716.048,15.334,15.334,0,0,1-1.457,2.632,15.484,15.484,0,0,0-1.664,3.1,8.176,8.176,0,0,0,1.127,6.885,5.95,5.95,0,0,0,1.051,1.145,5.109,5.109,0,0,0,1.8.991,4.985,4.985,0,0,0,1.417.227c.035,0,.07,0,.106,0s.068,0,.1,0a5.14,5.14,0,0,0,3.237-1.2,5.942,5.942,0,0,0,1.036-1.1A8.173,8.173,0,0,0,713.92,113.3ZM710,119.949a2.108,2.108,0,0,1-.217.131l-.018.01a2.861,2.861,0,0,1-1.359.333,2.747,2.747,0,0,1-1.356-.348c-.005,0-.01-.005-.015-.008-.073-.04-.141-.083-.209-.129-1.714-1.157-2.3-4.1-1.744-5.707.6-1.719,2.291-3.557,3.1-5.672a.234.234,0,0,1,.436-.005c.88,2.183,2.549,3.915,3.113,5.677C712.312,116.042,711.692,118.845,710,119.949Z" transform="translate(-644.511 -105.878)" fill="#8f4827"/>
              <g id="Grupo_1220189" data-name="Grupo 1220189" transform="translate(0 26.117)">
                <g id="Grupo_1220181" data-name="Grupo 1220181" transform="translate(0.486)">
                  <g id="Grupo_1220179" data-name="Grupo 1220179" transform="translate(16.265)">
                    <path id="Trazado_1091750" data-name="Trazado 1091750" d="M538.362,258.817a.376.376,0,0,1-.328-.26L522.1,220.779a.639.639,0,0,1,.138-.713c.182-.144.414-.059.518.19l15.931,37.778a.639.639,0,0,1-.138.713A.3.3,0,0,1,538.362,258.817Z" transform="translate(-522.052 -219.995)" fill="#8f4827"/>
                  </g>
                  <g id="Grupo_1220180" data-name="Grupo 1220180">
                    <path id="Trazado_1091751" data-name="Trazado 1091751" d="M451.364,258.817a.376.376,0,0,0,.328-.26l15.931-37.778a.639.639,0,0,0-.138-.713c-.182-.144-.414-.059-.518.19l-15.931,37.778a.639.639,0,0,0,.138.713A.3.3,0,0,0,451.364,258.817Z" transform="translate(-450.985 -219.995)" fill="#8f4827"/>
                  </g>
                </g>
                <g id="Grupo_1220188" data-name="Grupo 1220188" transform="translate(0 37.128)">
                  <g id="Grupo_1220182" data-name="Grupo 1220182" transform="translate(1.818 3.174)">
                    <path id="Trazado_1091752" data-name="Trazado 1091752" d="M460.754,405.906h22.4c2.18,0,3.947-2.314,3.947-5.169V396.1H456.807v4.642C456.807,403.592,458.574,405.906,460.754,405.906Z" transform="translate(-456.807 -396.095)" fill="#ffb83d"/>
                  </g>
                  <g id="Grupo_1220183" data-name="Grupo 1220183" transform="translate(2.283 3.174)">
                    <path id="Trazado_1091753" data-name="Trazado 1091753" d="M487.159,396.1V398.7c0,2.855-1.767,5.169-3.947,5.169h-22.4a3.249,3.249,0,0,1-1.978-.7,3.957,3.957,0,0,0,3.482,2.737h22.4c2.18,0,3.946-2.314,3.946-5.169V396.1Z" transform="translate(-458.839 -396.096)" fill="#e6e6e6"/>
                  </g>
                  <g id="Grupo_1220187" data-name="Grupo 1220187">
                    <path id="Trazado_1091754" data-name="Trazado 1091754" d="M481.493,382.227H450.157c-.748-.025-1.337.8-1.292,1.692a1.424,1.424,0,0,0,1.292,1.481h31.336a1.424,1.424,0,0,0,1.292-1.481C482.829,383.027,482.24,382.2,481.493,382.227Z" transform="translate(-448.862 -382.227)" fill="#8f4827"/>
                    <g id="Grupo_1220186" data-name="Grupo 1220186" transform="translate(0 1.515)">
                      <g id="Grupo_1220184" data-name="Grupo 1220184">
                        <path id="Trazado_1091755" data-name="Trazado 1091755" d="M448.865,389.023v-.179C448.862,388.9,448.862,388.964,448.865,389.023Z" transform="translate(-448.863 -388.845)" fill="#cea020"/>
                      </g>
                      <g id="Grupo_1220185" data-name="Grupo 1220185" transform="translate(33.923)">
                        <path id="Trazado_1091756" data-name="Trazado 1091756" d="M597.089,388.845v.179C597.092,388.964,597.091,388.9,597.089,388.845Z" transform="translate(-597.089 -388.845)" fill="#cea020"/>
                      </g>
                    </g>
                  </g>
                </g>
              </g>
              <g id="Grupo_1220190" data-name="Grupo 1220190" transform="translate(15.633 14.061)">
                <path id="Trazado_1091757" data-name="Trazado 1091757" d="M723.9,319.223a1.373,1.373,0,0,1-2.2,0,1.81,1.81,0,0,1-.441-1.437l.02-.146V169.056l-.02-.146a1.775,1.775,0,0,1,.171-1.031c.005,0,.01.008.015.008a2.746,2.746,0,0,0,1.356.348,2.859,2.859,0,0,0,1.359-.333l.018-.01a1.784,1.784,0,0,1,.164,1.018l-.02.146V317.64l.02.146A1.808,1.808,0,0,1,723.9,319.223Z" transform="translate(-674.539 -167.751)" fill="#8f4827"/>
                <path id="Trazado_1091758" data-name="Trazado 1091758" d="M771.237,176.235a1.507,1.507,0,0,1-.844.8c-.552.212-1.155.431-1.8.648-.353.121-.721.239-1.1.358a48.861,48.861,0,0,1-21.256,1.782,47.961,47.961,0,0,1-21.609-8.687c-.552-.4-1.059-.787-1.52-1.155-.035-.028-.07-.055-.106-.081-.293-.234-.567-.461-.822-.676a1.529,1.529,0,0,1-.428-1.739,2.746,2.746,0,0,0,1.356.348,2.86,2.86,0,0,0,1.359-.333l.018-.01a2.016,2.016,0,0,0,.217-.131c.514.416,1.1.867,1.744,1.339a44.912,44.912,0,0,0,20.205,8.11A45.833,45.833,0,0,0,769.3,174.2a1.524,1.524,0,0,1,.544-.1,1.481,1.481,0,0,1,.461.073,1.524,1.524,0,0,1,1.059,1.351A1.484,1.484,0,0,1,771.237,176.235Z" transform="translate(-674.845 -167.352)" fill="#8f4827"/>
                <path id="Trazado_1091759" data-name="Trazado 1091759" d="M566.892,168.158a1.519,1.519,0,0,1-.534,1.036c-.255.214-.529.441-.824.676-.033.028-.065.053-.1.081-.461.365-.968.754-1.523,1.155a47.961,47.961,0,0,1-21.609,8.687,48.843,48.843,0,0,1-20.835-1.654c-.378-.114-.746-.229-1.1-.345-.807-.265-1.55-.532-2.221-.789a1.507,1.507,0,0,1-.845-.8,1.522,1.522,0,0,1-.118-.413,1.505,1.505,0,0,1,.088-.751,1.533,1.533,0,0,1,.945-.9,1.513,1.513,0,0,1,.476-.078,1.5,1.5,0,0,1,.542.1,45.843,45.843,0,0,0,22.653,2.614,44.931,44.931,0,0,0,20.225-8.125c.648-.469,1.228-.92,1.739-1.334.068.045.136.088.209.129.005,0,.01.008.015.008a2.747,2.747,0,0,0,1.356.348,2.86,2.86,0,0,0,1.359-.333A1.516,1.516,0,0,1,566.892,168.158Z" transform="translate(-517.169 -167.319)" fill="#8f4827"/>
              </g>
              <g id="Grupo_1220191" data-name="Grupo 1220191" transform="translate(46.904 156.914)">
                <path id="Trazado_1091760" data-name="Trazado 1091760" d="M683.361,791.508H658.234c-2.445,0-4.428,1.523-4.428,3.4v1.354h33.982v-1.354C687.788,793.03,685.806,791.508,683.361,791.508Z" transform="translate(-653.806 -791.508)" fill="#8f4827"/>
              </g>
              <g id="Grupo_1220192" data-name="Grupo 1220192" transform="translate(42.407 161.627)">
                <path id="Trazado_1091761" data-name="Trazado 1091761" d="M673.114,812.1H638.176c-3.093,0-4.019,1.522-4.019,3.4v1.929h42.976V815.5C677.133,813.621,676.207,812.1,673.114,812.1Z" transform="translate(-634.157 -812.099)" fill="#8f4827"/>
              </g>
              <g id="Grupo_1220193" data-name="Grupo 1220193" transform="translate(13.862 20.868)">
                <path id="Trazado_1091762" data-name="Trazado 1091762" d="M512.532,197.058c-.1,0-.189.005-.282.013a3.1,3.1,0,0,0-.466,6.1,2.839,2.839,0,0,0,.658.091c.03,0,.06,0,.091,0s.061,0,.091,0a2.851,2.851,0,0,0,.66-.091,3.1,3.1,0,0,0-.751-6.111Zm0,5.054a1.951,1.951,0,1,1,1.951-1.951,1.982,1.982,0,0,1-.083.565A1.954,1.954,0,0,1,512.532,202.112Z" transform="translate(-509.431 -197.058)" fill="#8f4827"/>
              </g>
              <g id="Grupo_1220204" data-name="Grupo 1220204" transform="translate(94.32 26.117)">
                <g id="Grupo_1220196" data-name="Grupo 1220196" transform="translate(0.486)">
                  <g id="Grupo_1220194" data-name="Grupo 1220194" transform="translate(16.265)">
                    <path id="Trazado_1091763" data-name="Trazado 1091763" d="M950.492,258.817a.376.376,0,0,1-.328-.26l-15.931-37.778a.64.64,0,0,1,.137-.713c.182-.144.414-.059.518.19l15.931,37.778a.639.639,0,0,1-.138.713A.3.3,0,0,1,950.492,258.817Z" transform="translate(-934.182 -219.995)" fill="#8f4827"/>
                  </g>
                  <g id="Grupo_1220195" data-name="Grupo 1220195">
                    <path id="Trazado_1091764" data-name="Trazado 1091764" d="M863.493,258.817a.376.376,0,0,0,.328-.26l15.931-37.778a.639.639,0,0,0-.138-.713c-.182-.144-.414-.059-.519.19l-15.931,37.778a.639.639,0,0,0,.138.713A.3.3,0,0,0,863.493,258.817Z" transform="translate(-863.114 -219.995)" fill="#8f4827"/>
                  </g>
                </g>
                <g id="Grupo_1220203" data-name="Grupo 1220203" transform="translate(0 37.128)">
                  <g id="Grupo_1220197" data-name="Grupo 1220197" transform="translate(1.819 3.174)">
                    <path id="Trazado_1091765" data-name="Trazado 1091765" d="M872.884,405.906h22.4c2.18,0,3.947-2.314,3.947-5.169V396.1H868.938v4.642C868.938,403.592,870.7,405.906,872.884,405.906Z" transform="translate(-868.938 -396.095)" fill="#ffb83d"/>
                  </g>
                  <g id="Grupo_1220198" data-name="Grupo 1220198" transform="translate(2.284 3.174)">
                    <path id="Trazado_1091766" data-name="Trazado 1091766" d="M899.289,396.1V398.7c0,2.855-1.767,5.169-3.947,5.169h-22.4a3.249,3.249,0,0,1-1.978-.7,3.957,3.957,0,0,0,3.482,2.737h22.4c2.18,0,3.947-2.314,3.947-5.169V396.1Z" transform="translate(-870.968 -396.096)" fill="#e6e6e6"/>
                  </g>
                  <g id="Grupo_1220202" data-name="Grupo 1220202">
                    <path id="Trazado_1091767" data-name="Trazado 1091767" d="M893.621,382.227H862.284c-.748-.025-1.336.8-1.292,1.692a1.424,1.424,0,0,0,1.292,1.481h31.336a1.424,1.424,0,0,0,1.292-1.481C894.957,383.027,894.369,382.2,893.621,382.227Z" transform="translate(-860.99 -382.227)" fill="#8f4827"/>
                    <g id="Grupo_1220201" data-name="Grupo 1220201" transform="translate(0.001 1.515)">
                      <g id="Grupo_1220199" data-name="Grupo 1220199">
                        <path id="Trazado_1091768" data-name="Trazado 1091768" d="M860.995,389.023v-.179C860.992,388.9,860.992,388.964,860.995,389.023Z" transform="translate(-860.993 -388.845)" fill="#cea020"/>
                      </g>
                      <g id="Grupo_1220200" data-name="Grupo 1220200" transform="translate(33.924)">
                        <path id="Trazado_1091769" data-name="Trazado 1091769" d="M1009.22,388.845v.179Q1009.223,388.934,1009.22,388.845Z" transform="translate(-1009.22 -388.845)" fill="#cea020"/>
                      </g>
                    </g>
                  </g>
                </g>
              </g>
              <g id="Grupo_1220205" data-name="Grupo 1220205" transform="translate(108.181 20.868)">
                <path id="Trazado_1091770" data-name="Trazado 1091770" d="M924.656,197.058c-.063,0-.126,0-.189.008a3.1,3.1,0,0,0-.562,6.1,2.863,2.863,0,0,0,.661.091c.03,0,.06,0,.091,0s.061,0,.091,0a2.827,2.827,0,0,0,.658-.091,3.1,3.1,0,0,0-.748-6.111Zm0,5.054a1.952,1.952,0,0,1-1.9-1.528,1.794,1.794,0,0,1-.048-.424,1.953,1.953,0,0,1,1.951-1.951,1.905,1.905,0,0,1,.87.207,1.95,1.95,0,0,1-.87,3.7Z" transform="translate(-921.553 -197.058)" fill="#8f4827"/>
              </g>
              <path id="Trazado_1091771" data-name="Trazado 1091771" d="M715.983,674.859h-8.434a.615.615,0,0,1-.615-.615v-1.861a.615.615,0,0,1,.615-.615h8.434a.615.615,0,0,1,.615.615v1.861A.615.615,0,0,1,715.983,674.859Z" transform="translate(-647.871 -542.258)" fill="#8f4827"/>
            </g>
            <g id="Grupo_1220273" data-name="Grupo 1220273" transform="translate(31.262 109.401)">
              <g id="Grupo_1220230" data-name="Grupo 1220230" transform="translate(0 43.353)">
                <g id="Grupo_1220208" data-name="Grupo 1220208" transform="translate(67.83 2.666)">
                  <g id="Grupo_1220207" data-name="Grupo 1220207">
                    <path id="Trazado_1091772" data-name="Trazado 1091772" d="M585.309,764.776V778.27H546.086a6.747,6.747,0,1,1,0-13.494Z" transform="translate(-539.337 -764.776)" fill="#fff4e3"/>
                  </g>
                </g>
                <g id="Grupo_1220210" data-name="Grupo 1220210" transform="translate(0 0.001)">
                  <g id="Grupo_1220209" data-name="Grupo 1220209">
                    <path id="Trazado_1091773" data-name="Trazado 1091773" d="M314.327,769.29h42.431v2.666H245.826a2.871,2.871,0,0,1-2.87-2.872V756a2.871,2.871,0,0,1,2.87-2.87H356.758V755.8H317.536C311.647,755.8,307.495,763.378,314.327,769.29Z" transform="translate(-242.956 -753.131)" fill="#206e9e"/>
                  </g>
                </g>
                <g id="Grupo_1220212" data-name="Grupo 1220212" transform="translate(56.901)">
                  <g id="Grupo_1220211" data-name="Grupo 1220211">
                    <rect id="Rectángulo_421295" data-name="Rectángulo 421295" width="2.525" height="18.825" fill="#75b8d1"/>
                  </g>
                </g>
                <g id="Grupo_1220214" data-name="Grupo 1220214" transform="translate(48.933)">
                  <g id="Grupo_1220213" data-name="Grupo 1220213">
                    <rect id="Rectángulo_421296" data-name="Rectángulo 421296" width="2.525" height="18.825" fill="#75b8d1"/>
                  </g>
                </g>
                <path id="Trazado_1091774" data-name="Trazado 1091774" d="M314.327,769.29h15.027l-.3,2.666H245.826a2.871,2.871,0,0,1-2.87-2.872v-.3c13.466,1.361,59.57,2.173,61.1-.647,1.267-2.333-.051-3.365-.064-6.7-.016-4.194,2.69-6.826,5.049-8.306h22.124l-.3,2.664H317.536C311.647,755.8,307.495,763.378,314.327,769.29Z" transform="translate(-242.956 -753.13)" fill="#b6dbde"/>
                <g id="Grupo_1220217" data-name="Grupo 1220217" transform="translate(65.165)">
                  <g id="Grupo_1220216" data-name="Grupo 1220216">
                    <g id="Grupo_1220215" data-name="Grupo 1220215">
                      <path id="Trazado_1091775" data-name="Trazado 1091775" d="M530.356,762.543a6.753,6.753,0,0,0,6.749,6.744h39.222v2.666H537.1a9.413,9.413,0,1,1,0-18.825h39.222v2.666H537.1A6.758,6.758,0,0,0,530.356,762.543Z" transform="translate(-527.69 -753.128)" fill="#75b8d1"/>
                    </g>
                  </g>
                </g>
                <g id="Grupo_1220226" data-name="Grupo 1220226" transform="translate(73.565 4.374)">
                  <g id="Grupo_1220218" data-name="Grupo 1220218" transform="translate(0.232)">
                    <path id="Trazado_1091776" data-name="Trazado 1091776" d="M586.544,773.254h-20.63a.507.507,0,0,1-.507-.507h0a.507.507,0,0,1,.507-.507h20.63a.507.507,0,0,1,.507.507h0A.507.507,0,0,1,586.544,773.254Z" transform="translate(-565.407 -772.241)" fill="#f5dac2"/>
                  </g>
                  <g id="Grupo_1220219" data-name="Grupo 1220219" transform="translate(12.277 9.621)">
                    <path id="Trazado_1091777" data-name="Trazado 1091777" d="M641.952,815.292h-23.41a.507.507,0,0,1-.507-.507h0a.507.507,0,0,1,.507-.507h23.411a.507.507,0,0,1,.507.507h0A.507.507,0,0,1,641.952,815.292Z" transform="translate(-618.035 -814.279)" fill="#f5dac2"/>
                  </g>
                  <g id="Grupo_1220220" data-name="Grupo 1220220" transform="translate(8.017 4.914)">
                    <path id="Trazado_1091778" data-name="Trazado 1091778" d="M612.774,794.726H599.929a.507.507,0,0,1-.507-.507h0a.507.507,0,0,1,.507-.507h12.846a.507.507,0,0,1,.507.507h0A.507.507,0,0,1,612.774,794.726Z" transform="translate(-599.422 -793.713)" fill="#f5dac2"/>
                  </g>
                  <g id="Grupo_1220221" data-name="Grupo 1220221" transform="translate(0 4.914)">
                    <path id="Trazado_1091779" data-name="Trazado 1091779" d="M570.392,794.726H564.9a.507.507,0,0,1-.507-.507h0a.507.507,0,0,1,.507-.507h5.492a.507.507,0,0,1,.507.507h0A.507.507,0,0,1,570.392,794.726Z" transform="translate(-564.393 -793.713)" fill="#f5dac2"/>
                  </g>
                  <g id="Grupo_1220222" data-name="Grupo 1220222" transform="translate(27.968 4.914)">
                    <path id="Trazado_1091780" data-name="Trazado 1091780" d="M692.6,794.726H687.1a.507.507,0,0,1-.507-.507h0a.507.507,0,0,1,.507-.507H692.6a.507.507,0,0,1,.507.507h0A.507.507,0,0,1,692.6,794.726Z" transform="translate(-686.597 -793.713)" fill="#f5dac2"/>
                  </g>
                  <g id="Grupo_1220223" data-name="Grupo 1220223" transform="translate(27.968 0.507)">
                    <path id="Trazado_1091781" data-name="Trazado 1091781" d="M688.844,775.469H687.1a.507.507,0,0,1-.507-.507h0a.507.507,0,0,1,.507-.507h1.74a.507.507,0,0,1,.507.507h0A.507.507,0,0,1,688.844,775.469Z" transform="translate(-686.597 -774.455)" fill="#f5dac2"/>
                  </g>
                  <g id="Grupo_1220224" data-name="Grupo 1220224" transform="translate(7.861 9.621)">
                    <path id="Trazado_1091782" data-name="Trazado 1091782" d="M600.988,815.292h-1.74a.507.507,0,0,1-.507-.507h0a.507.507,0,0,1,.507-.507h1.74a.507.507,0,0,1,.507.507h0A.507.507,0,0,1,600.988,815.292Z" transform="translate(-598.741 -814.279)" fill="#f5dac2"/>
                  </g>
                  <g id="Grupo_1220225" data-name="Grupo 1220225" transform="translate(36.7 4.914)">
                    <path id="Trazado_1091783" data-name="Trazado 1091783" d="M727,794.726h-1.74a.507.507,0,0,1-.507-.507h0a.507.507,0,0,1,.507-.507H727a.507.507,0,0,1,.507.507h0A.507.507,0,0,1,727,794.726Z" transform="translate(-724.754 -793.713)" fill="#f5dac2"/>
                  </g>
                </g>
                <g id="Grupo_1220228" data-name="Grupo 1220228" transform="translate(96.433 7.494)">
                  <g id="Grupo_1220227" data-name="Grupo 1220227">
                    <path id="Trazado_1091784" data-name="Trazado 1091784" d="M664.315,785.871v5.859l2.98-2.071,2.98,2.071v-5.859Z" transform="translate(-664.315 -785.871)" fill="#c24e4e"/>
                  </g>
                </g>
                <g id="Grupo_1220229" data-name="Grupo 1220229" transform="translate(4.68 3.428)">
                  <path id="Trazado_1091785" data-name="Trazado 1091785" d="M268.11,771.508v6.263a2.225,2.225,0,0,1-.644,1.672,2.362,2.362,0,0,1-4.062-1.757h1.107a1.623,1.623,0,0,0,.322,1.009,1.321,1.321,0,0,0,1.854.018,1.438,1.438,0,0,0,.3-.942v-6.263Z" transform="translate(-263.404 -770.73)" fill="#75b8d1"/>
                  <path id="Trazado_1091786" data-name="Trazado 1091786" d="M299.183,779.423v6.664h-1.107V785.1a2.154,2.154,0,0,1-.882.8,2.724,2.724,0,0,1-1.246.286,2.987,2.987,0,0,1-1.4-.322,2.341,2.341,0,0,1-.979-.967,3.182,3.182,0,0,1-.359-1.569v-3.9h1.094v3.758a2.126,2.126,0,0,0,.5,1.514,1.781,1.781,0,0,0,1.362.529,1.82,1.82,0,0,0,1.4-.547,2.253,2.253,0,0,0,.511-1.593v-3.66h1.107Z" transform="translate(-286.39 -776.833)" fill="#75b8d1"/>
                  <path id="Trazado_1091787" data-name="Trazado 1091787" d="M327.24,785.568a2.315,2.315,0,0,1-.961-.73,1.94,1.94,0,0,1-.389-1.076h1.143a1.121,1.121,0,0,0,.468.815,1.779,1.779,0,0,0,1.1.316,1.6,1.6,0,0,0,1-.28.854.854,0,0,0,.365-.705.7.7,0,0,0-.389-.651,5.485,5.485,0,0,0-1.2-.419,8.839,8.839,0,0,1-1.21-.4,2.147,2.147,0,0,1-.8-.6,1.553,1.553,0,0,1-.334-1.04,1.573,1.573,0,0,1,.3-.936,2.057,2.057,0,0,1,.863-.675,3.105,3.105,0,0,1,1.277-.249,2.728,2.728,0,0,1,1.788.559,2.017,2.017,0,0,1,.73,1.532h-1.107a1.144,1.144,0,0,0-.42-.839,1.566,1.566,0,0,0-1.028-.316,1.584,1.584,0,0,0-.948.255.789.789,0,0,0-.353.669.733.733,0,0,0,.213.541,1.552,1.552,0,0,0,.535.341,9.132,9.132,0,0,0,.894.286,9.616,9.616,0,0,1,1.167.383,2.045,2.045,0,0,1,.772.566,1.514,1.514,0,0,1,.334.985,1.688,1.688,0,0,1-.3.985,2.028,2.028,0,0,1-.857.687,3.066,3.066,0,0,1-1.271.249A3.452,3.452,0,0,1,327.24,785.568Z" transform="translate(-311.589 -776.466)" fill="#75b8d1"/>
                  <path id="Trazado_1091788" data-name="Trazado 1091788" d="M354.48,774.682v3.928a.933.933,0,0,0,.207.687,1.019,1.019,0,0,0,.717.2h.815v.936h-1a1.983,1.983,0,0,1-1.386-.426,1.826,1.826,0,0,1-.462-1.4v-3.928h-.863v-.912h.863v-1.678h1.107v1.678h1.739v.912Z" transform="translate(-332.117 -771.18)" fill="#75b8d1"/>
                  <path id="Trazado_1091789" data-name="Trazado 1091789" d="M373.981,769.4a.754.754,0,0,1,.535-1.289.694.694,0,0,1,.517.219.779.779,0,0,1,0,1.07.694.694,0,0,1-.517.219A.728.728,0,0,1,373.981,769.4Zm1.07,1.3v6.664h-1.107V770.7Z" transform="translate(-348.505 -768.107)" fill="#75b8d1"/>
                  <path id="Trazado_1091790" data-name="Trazado 1091790" d="M386.237,780.57a2.976,2.976,0,0,1,1.149-1.2,3.648,3.648,0,0,1,3.709.17,2.813,2.813,0,0,1,1.052,1.654h-1.192a1.712,1.712,0,0,0-.663-.961,2.046,2.046,0,0,0-1.222-.353,1.961,1.961,0,0,0-1.532.65,2.667,2.667,0,0,0-.584,1.842,2.708,2.708,0,0,0,.584,1.861,1.952,1.952,0,0,0,1.532.657,2.07,2.07,0,0,0,1.216-.34,1.727,1.727,0,0,0,.669-.973h1.192a2.931,2.931,0,0,1-1.07,1.635,3.2,3.2,0,0,1-2.006.614,3.3,3.3,0,0,1-1.684-.426,2.966,2.966,0,0,1-1.149-1.2,3.831,3.831,0,0,1-.414-1.824A3.768,3.768,0,0,1,386.237,780.57Z" transform="translate(-357.806 -776.465)" fill="#75b8d1"/>
                  <path id="Trazado_1091791" data-name="Trazado 1091791" d="M424.532,782.8h-5.326a2.094,2.094,0,0,0,2.164,2.092,2.045,2.045,0,0,0,1.2-.334,1.771,1.771,0,0,0,.675-.894h1.192a2.866,2.866,0,0,1-1.07,1.563,3.231,3.231,0,0,1-1.994.6,3.365,3.365,0,0,1-1.7-.426,3.013,3.013,0,0,1-1.173-1.21,3.75,3.75,0,0,1-.426-1.818,3.8,3.8,0,0,1,.414-1.812,2.9,2.9,0,0,1,1.161-1.2,3.455,3.455,0,0,1,1.721-.42,3.345,3.345,0,0,1,1.678.414,2.866,2.866,0,0,1,1.125,1.137,3.356,3.356,0,0,1,.4,1.635A6.579,6.579,0,0,1,424.532,782.8Zm-1.386-1.988a1.82,1.82,0,0,0-.76-.693,2.373,2.373,0,0,0-1.064-.237,2.051,2.051,0,0,0-1.429.535,2.18,2.18,0,0,0-.675,1.483h4.207A2.044,2.044,0,0,0,423.146,780.814Z" transform="translate(-382.677 -776.467)" fill="#75b8d1"/>
                </g>
              </g>
              <g id="Grupo_1220256" data-name="Grupo 1220256" transform="translate(10.773 24.528)">
                <g id="Grupo_1220232" data-name="Grupo 1220232" transform="translate(0 2.666)">
                  <g id="Grupo_1220231" data-name="Grupo 1220231">
                    <path id="Trazado_1091792" data-name="Trazado 1091792" d="M290.028,682.521v13.494h39.223a6.747,6.747,0,1,0,0-13.494Z" transform="translate(-290.028 -682.521)" fill="#fff4e3"/>
                  </g>
                </g>
                <g id="Grupo_1220234" data-name="Grupo 1220234" transform="translate(0.001 0)">
                  <g id="Grupo_1220233" data-name="Grupo 1220233">
                    <path id="Trazado_1091793" data-name="Trazado 1091793" d="M403.834,672.97V687.6a2.1,2.1,0,0,1-2.1,2.1H290.032v-2.666h42.431c6.832-5.912,2.68-13.493-3.209-13.493H290.032v-2.666H401.737A2.1,2.1,0,0,1,403.834,672.97Z" transform="translate(-290.032 -670.874)" fill="#ffb83d"/>
                  </g>
                </g>
                <g id="Grupo_1220236" data-name="Grupo 1220236" transform="translate(54.392 0)">
                  <g id="Grupo_1220235" data-name="Grupo 1220235" transform="translate(0)">
                    <rect id="Rectángulo_421297" data-name="Rectángulo 421297" width="2.525" height="18.825" transform="translate(2.525 18.825) rotate(180)" fill="#ffd894"/>
                  </g>
                </g>
                <g id="Grupo_1220238" data-name="Grupo 1220238" transform="translate(60.706 0)">
                  <g id="Grupo_1220237" data-name="Grupo 1220237" transform="translate(0)">
                    <rect id="Rectángulo_421298" data-name="Rectángulo 421298" width="2.525" height="18.825" transform="translate(2.525 18.825) rotate(180)" fill="#ffd894"/>
                  </g>
                </g>
                <path id="Trazado_1091794" data-name="Trazado 1091794" d="M495.324,687.037v.564a2.1,2.1,0,0,1-2.1,2.1H410.486l-.677-2.666h10.935a6.746,6.746,0,1,0,0-13.493H408.675l2.274-2.666H431c1.68,1.42,2.741,6.873,1.209,11.424-2.147,6.379,1.294,4.456,9.283,4.735C448.922,687.3,489.661,687.07,495.324,687.037Z" transform="translate(-381.521 -670.874)" fill="#ebcf9d"/>
                <g id="Grupo_1220240" data-name="Grupo 1220240" transform="translate(0 0.516)">
                  <g id="Grupo_1220239" data-name="Grupo 1220239">
                    <path id="Trazado_1091795" data-name="Trazado 1091795" d="M331.082,675.531a6.737,6.737,0,0,0-5.157-2.4h-35.9v2.15h39.223A6.734,6.734,0,0,1,331.082,675.531Z" transform="translate(-290.028 -673.129)" fill="#ffb32e"/>
                  </g>
                </g>
                <g id="Grupo_1220243" data-name="Grupo 1220243" transform="translate(0.001 0)">
                  <g id="Grupo_1220242" data-name="Grupo 1220242">
                    <g id="Grupo_1220241" data-name="Grupo 1220241">
                      <path id="Trazado_1091796" data-name="Trazado 1091796" d="M338.669,680.289a9.424,9.424,0,0,1-9.415,9.411H290.032v-2.666h39.222a6.746,6.746,0,1,0,0-13.493H290.032v-2.666h39.222A9.423,9.423,0,0,1,338.669,680.289Z" transform="translate(-290.032 -670.875)" fill="#ffd894"/>
                    </g>
                  </g>
                </g>
                <g id="Grupo_1220252" data-name="Grupo 1220252" transform="translate(1.012 4.235)">
                  <g id="Grupo_1220244" data-name="Grupo 1220244" transform="translate(0.259)">
                    <path id="Trazado_1091797" data-name="Trazado 1091797" d="M319.188,690.39h-23.1a.507.507,0,0,1-.507-.507h0a.507.507,0,0,1,.507-.507h23.1a.507.507,0,0,1,.507.507h0A.507.507,0,0,1,319.188,690.39Z" transform="translate(-295.579 -689.376)" fill="#f5dac2"/>
                  </g>
                  <g id="Grupo_1220245" data-name="Grupo 1220245" transform="translate(13.679 9.621)">
                    <path id="Trazado_1091798" data-name="Trazado 1091798" d="M380.926,732.427h-26.2a.507.507,0,0,1-.507-.507h0a.507.507,0,0,1,.507-.507h26.2a.507.507,0,0,1,.507.507h0A.507.507,0,0,1,380.926,732.427Z" transform="translate(-354.219 -731.413)" fill="#f5dac2"/>
                  </g>
                  <g id="Grupo_1220246" data-name="Grupo 1220246" transform="translate(8.932 4.914)">
                    <path id="Trazado_1091799" data-name="Trazado 1091799" d="M348.414,711.861H333.986a.507.507,0,0,1-.507-.507h0a.507.507,0,0,1,.507-.507h14.429a.507.507,0,0,1,.507.507h0A.507.507,0,0,1,348.414,711.861Z" transform="translate(-333.479 -710.848)" fill="#f5dac2"/>
                  </g>
                  <g id="Grupo_1220247" data-name="Grupo 1220247" transform="translate(0 4.914)">
                    <path id="Trazado_1091800" data-name="Trazado 1091800" d="M301.191,711.861h-6.235a.507.507,0,0,1-.507-.507h0a.507.507,0,0,1,.507-.507h6.235a.507.507,0,0,1,.507.507h0A.506.506,0,0,1,301.191,711.861Z" transform="translate(-294.449 -710.848)" fill="#f5dac2"/>
                  </g>
                  <g id="Grupo_1220248" data-name="Grupo 1220248" transform="translate(31.163 4.914)">
                    <path id="Trazado_1091801" data-name="Trazado 1091801" d="M437.355,711.861H431.12a.507.507,0,0,1-.507-.507h0a.507.507,0,0,1,.507-.507h6.235a.507.507,0,0,1,.507.507h0A.507.507,0,0,1,437.355,711.861Z" transform="translate(-430.613 -710.848)" fill="#f5dac2"/>
                  </g>
                  <g id="Grupo_1220249" data-name="Grupo 1220249" transform="translate(31.718)">
                    <path id="Trazado_1091802" data-name="Trazado 1091802" d="M435.6,690.39h-2.055a.507.507,0,0,1-.507-.507h0a.507.507,0,0,1,.507-.507H435.6a.507.507,0,0,1,.507.507h0A.507.507,0,0,1,435.6,690.39Z" transform="translate(-433.041 -689.376)" fill="#f5dac2"/>
                  </g>
                  <g id="Grupo_1220250" data-name="Grupo 1220250" transform="translate(8.759 9.621)">
                    <path id="Trazado_1091803" data-name="Trazado 1091803" d="M335.283,732.427h-2.055a.507.507,0,0,1-.507-.507h0a.507.507,0,0,1,.507-.507h2.055a.507.507,0,0,1,.507.507h0A.507.507,0,0,1,335.283,732.427Z" transform="translate(-332.721 -731.413)" fill="#f5dac2"/>
                  </g>
                  <g id="Grupo_1220251" data-name="Grupo 1220251" transform="translate(40.893 4.914)">
                    <path id="Trazado_1091804" data-name="Trazado 1091804" d="M475.689,711.861h-2.055a.507.507,0,0,1-.507-.507h0a.507.507,0,0,1,.507-.507h2.055a.507.507,0,0,1,.507.507h0A.507.507,0,0,1,475.689,711.861Z" transform="translate(-473.127 -710.848)" fill="#f5dac2"/>
                  </g>
                </g>
                <g id="Grupo_1220254" data-name="Grupo 1220254" transform="translate(26.345 6.463)">
                  <g id="Grupo_1220253" data-name="Grupo 1220253">
                    <path id="Trazado_1091805" data-name="Trazado 1091805" d="M410.421,699.114v5.9l-2.64-2.085-2.64,2.085v-5.9Z" transform="translate(-405.141 -699.114)" fill="#c24e4e"/>
                  </g>
                </g>
                <g id="Grupo_1220255" data-name="Grupo 1220255" transform="translate(70.845 2.919)">
                  <path id="Trazado_1091806" data-name="Trazado 1091806" d="M601.051,693.669h3.933v1.193h-5.4V683.626h1.467Z" transform="translate(-599.584 -683.626)" fill="#e68925"/>
                  <path id="Trazado_1091807" data-name="Trazado 1091807" d="M628.165,695.639a3.978,3.978,0,0,1,1.507-1.588,4.135,4.135,0,0,1,2.136-.564,3.922,3.922,0,0,1,2.015.5,3.331,3.331,0,0,1,1.273,1.257v-1.612h1.483v8.834H635.1v-1.644a3.454,3.454,0,0,1-1.3,1.281,3.882,3.882,0,0,1-2.007.508,4,4,0,0,1-2.128-.58,4.066,4.066,0,0,1-1.5-1.628,5.068,5.068,0,0,1-.548-2.386A4.963,4.963,0,0,1,628.165,695.639Zm6.529.653a2.848,2.848,0,0,0-1.088-1.136,3.085,3.085,0,0,0-3.007-.008,2.8,2.8,0,0,0-1.08,1.128,3.59,3.59,0,0,0-.4,1.741,3.672,3.672,0,0,0,.4,1.765,2.849,2.849,0,0,0,1.08,1.144,2.92,2.92,0,0,0,1.5.395,2.964,2.964,0,0,0,1.507-.395,2.834,2.834,0,0,0,1.088-1.144,3.641,3.641,0,0,0,.4-1.749A3.592,3.592,0,0,0,634.694,696.292Z" transform="translate(-621.201 -691.23)" fill="#e68925"/>
                  <path id="Trazado_1091808" data-name="Trazado 1091808" d="M685.864,694.121l-2.756,8.834h-1.515l-2.128-7.012-2.128,7.012h-1.515l-2.773-8.834h1.5l2.031,7.415,2.192-7.415h1.5l2.144,7.431,2-7.431Z" transform="translate(-656.236 -691.719)" fill="#e68925"/>
                </g>
              </g>
              <g id="Grupo_1220272" data-name="Grupo 1220272" transform="translate(111.247)">
                <g id="Grupo_1220259" data-name="Grupo 1220259" transform="translate(1.524 1.019)">
                  <g id="Grupo_1220258" data-name="Grupo 1220258">
                    <g id="Grupo_1220257" data-name="Grupo 1220257">
                      <path id="Trazado_1091809" data-name="Trazado 1091809" d="M827.994,628.9c-.447-.427-89.124-39.2-89.261-39.921a12.632,12.632,0,0,1-3.018-7.038l-.014-.006,5.026-11.3.009,0a12.651,12.651,0,0,1,7.729-2.48l88.791,39.487C832.106,613.571,829.63,621.338,827.994,628.9Z" transform="translate(-735.701 -568.152)" fill="#fff4e3"/>
                    </g>
                  </g>
                </g>
                <g id="Grupo_1220261" data-name="Grupo 1220261">
                  <g id="Grupo_1220260" data-name="Grupo 1220260">
                    <path id="Trazado_1091810" data-name="Trazado 1091810" d="M825.254,623.735a1.874,1.874,0,0,1-2.511,2.386L736.51,587.773a12.515,12.515,0,0,1-4.055-2.874q-.174-.185-.336-.375c-.114-.129-.223-.26-.33-.4-.088-.111-.175-.221-.26-.338s-.179-.244-.263-.37c-.073-.1-.145-.212-.214-.318s-.145-.228-.213-.344-.121-.2-.179-.305-.119-.217-.176-.328-.1-.2-.147-.291-.1-.21-.15-.316c-.042-.09-.082-.184-.12-.276s-.089-.207-.132-.312l-.052-.136c-.017-.045-.033-.087-.048-.131-.038-.1-.073-.2-.1-.3s-.062-.175-.09-.266-.062-.192-.087-.289-.051-.17-.072-.254-.052-.191-.075-.286-.04-.165-.057-.248-.042-.183-.059-.276-.035-.167-.048-.247-.032-.182-.047-.271-.026-.158-.035-.238-.024-.178-.035-.268-.018-.159-.024-.237a.12.12,0,0,1,0-.032,12.593,12.593,0,0,1,5.007-11.258l.016-.013c.062-.048.127-.094.191-.138s.146-.106.223-.154.132-.088.2-.134.151-.1.23-.147.141-.088.215-.13.162-.1.244-.141.147-.085.222-.123.175-.093.26-.138.159-.08.237-.117.182-.086.276-.127.168-.079.255-.112.191-.083.29-.121.179-.071.27-.106.208-.075.313-.111.19-.066.288-.094.226-.07.34-.1.2-.06.308-.085c.12-.032.239-.061.361-.089s.227-.049.344-.073c.132-.027.265-.05.4-.073s.25-.039.377-.055c.15-.022.3-.038.451-.053s.286-.027.429-.035c.169-.01.336-.018.506-.021s.334-.005.5,0a12.546,12.546,0,0,1,4.881,1.086l86.232,38.349a1.875,1.875,0,1,1-1.524,3.427l-85.932-38.216a9.233,9.233,0,0,0-.873-.337,9.338,9.338,0,0,0-1.312-.334c-.241-.042-.486-.076-.729-.1-.219-.022-.438-.038-.658-.043-.163,0-.331,0-.494,0s-.337.011-.508.027c-.134.009-.266.022-.4.043s-.282.035-.424.061c-.118.019-.237.041-.355.068s-.244.056-.367.087c-.1.026-.206.056-.308.085s-.221.066-.331.106c-.092.031-.186.064-.28.1s-.2.075-.3.117-.173.073-.255.112-.184.083-.27.13a2.43,2.43,0,0,0-.234.118c-.088.043-.171.092-.254.14s-.15.084-.221.128-.152.1-.226.146a2.409,2.409,0,0,0-.2.136c-.076.048-.148.1-.22.155a2.18,2.18,0,0,0-.183.141c-.071.051-.135.1-.2.16s-.119.1-.172.149-.127.108-.187.167-.106.1-.157.153a2.312,2.312,0,0,0-.174.176c-.052.049-.1.1-.148.156a1.9,1.9,0,0,0-.158.179c-.051.053-.1.108-.141.163s-.1.124-.147.185-.086.109-.125.167-.094.126-.137.192-.08.112-.117.171-.084.127-.124.195-.076.117-.11.177-.075.131-.113.2-.067.121-.1.182-.07.133-.1.2a1.473,1.473,0,0,0-.088.183c-.018.033-.032.064-.047.1s-.033.074-.047.113c-.028.063-.056.126-.077.188s-.059.141-.084.212-.047.13-.067.2a1.81,1.81,0,0,0-.073.218c-.022.065-.042.132-.057.2a1.8,1.8,0,0,0-.062.225c-.019.067-.036.135-.049.2s-.035.148-.049.225-.03.137-.041.207-.028.155-.04.235-.018.142-.025.211a1.9,1.9,0,0,0-.024.239,1.56,1.56,0,0,0-.02.214c-.009.082-.011.163-.014.247s-.006.144-.005.22,0,.167,0,.25,0,.151,0,.228.006.17.016.257.011.152.017.23.017.178.032.267.019.159.035.238.026.179.044.269.033.165.053.25.04.186.064.278.041.169.069.253.053.195.089.293.055.175.088.265.072.2.111.3.077.188.116.278c.044.108.094.213.146.318s.093.192.143.286c.06.112.119.224.184.332s.123.208.188.309c.076.122.153.239.238.356s.157.224.243.331c.1.137.209.268.32.4s.217.25.332.37c.154.161.315.315.481.464a7.1,7.1,0,0,0,.579.483,8.8,8.8,0,0,0,1.229.8c.221.126.449.238.686.343l85.932,38.216A1.854,1.854,0,0,1,825.254,623.735Z" transform="translate(-729.044 -563.7)" fill="#28736d"/>
                  </g>
                </g>
                <g id="Grupo_1220262" data-name="Grupo 1220262" transform="translate(13.148 7.542)">
                  <path id="Trazado_1091811" data-name="Trazado 1091811" d="M831.064,617.314l-44.272-19.688a.507.507,0,0,1-.257-.669h0a.507.507,0,0,1,.669-.257l44.272,19.688a.507.507,0,0,1,.257.669h0A.507.507,0,0,1,831.064,617.314Z" transform="translate(-786.491 -596.656)" fill="#f5dac2"/>
                </g>
                <g id="Grupo_1220263" data-name="Grupo 1220263" transform="translate(34.389 27.518)">
                  <path id="Trazado_1091812" data-name="Trazado 1091812" d="M929.683,707.18l-50.077-22.27a.507.507,0,0,1-.257-.669h0a.507.507,0,0,1,.669-.257l50.077,22.27a.507.507,0,0,1,.257.669h0A.507.507,0,0,1,929.683,707.18Z" transform="translate(-879.305 -683.94)" fill="#f5dac2"/>
                </g>
                <g id="Grupo_1220264" data-name="Grupo 1220264" transform="translate(27.407 19.262)">
                  <path id="Trazado_1091813" data-name="Trazado 1091813" d="M877.115,661.293,849.1,648.834a.507.507,0,0,1-.257-.669h0a.507.507,0,0,1,.669-.257l28.015,12.459a.507.507,0,0,1,.257.669h0A.507.507,0,0,1,877.115,661.293Z" transform="translate(-848.799 -647.864)" fill="#f5dac2"/>
                </g>
                <g id="Grupo_1220265" data-name="Grupo 1220265" transform="translate(10.666 11.817)">
                  <path id="Trazado_1091814" data-name="Trazado 1091814" d="M788.609,621.932,775.95,616.3a.507.507,0,0,1-.257-.669h0a.507.507,0,0,1,.669-.257l12.659,5.63a.507.507,0,0,1,.257.669h0A.507.507,0,0,1,788.609,621.932Z" transform="translate(-775.649 -615.332)" fill="#f5dac2"/>
                </g>
                <g id="Grupo_1220266" data-name="Grupo 1220266" transform="translate(69.07 37.79)">
                  <path id="Trazado_1091815" data-name="Trazado 1091815" d="M1043.8,735.42l-12.659-5.63a.507.507,0,0,1-.257-.669h0a.507.507,0,0,1,.669-.257l12.659,5.63a.507.507,0,0,1,.257.669h0A.506.506,0,0,1,1043.8,735.42Z" transform="translate(-1030.843 -728.82)" fill="#f5dac2"/>
                </g>
                <g id="Grupo_1220267" data-name="Grupo 1220267" transform="translate(70.86 33.763)">
                  <path id="Trazado_1091816" data-name="Trazado 1091816" d="M1043.789,714.341l-4.825-2.146a.507.507,0,0,1-.257-.669h0a.507.507,0,0,1,.669-.257l4.825,2.146a.507.507,0,0,1,.258.669h0A.507.507,0,0,1,1043.789,714.341Z" transform="translate(-1038.663 -711.225)" fill="#f5dac2"/>
                </g>
                <g id="Grupo_1220268" data-name="Grupo 1220268" transform="translate(25.169 23.418)">
                  <path id="Trazado_1091817" data-name="Trazado 1091817" d="M844.146,669.139l-4.825-2.146a.507.507,0,0,1-.257-.669h0a.507.507,0,0,1,.669-.257l4.825,2.146a.507.507,0,0,1,.257.669h0A.507.507,0,0,1,844.146,669.139Z" transform="translate(-839.02 -666.023)" fill="#f5dac2"/>
                </g>
                <g id="Grupo_1220269" data-name="Grupo 1220269" transform="translate(87.306 45.899)">
                  <path id="Trazado_1091818" data-name="Trazado 1091818" d="M1115.649,767.371l-4.825-2.146a.507.507,0,0,1-.257-.669h0a.507.507,0,0,1,.669-.257l4.825,2.146a.507.507,0,0,1,.257.669h0A.506.506,0,0,1,1115.649,767.371Z" transform="translate(-1110.523 -764.255)" fill="#f5dac2"/>
                </g>
                <g id="Grupo_1220271" data-name="Grupo 1220271" transform="translate(58.033 28.615)">
                  <g id="Grupo_1220270" data-name="Grupo 1220270">
                    <path id="Trazado_1091819" data-name="Trazado 1091819" d="M988.4,698.309l-2.16-2.927-3.62.357,3.115-7,5.779,2.57Z" transform="translate(-982.616 -688.734)" fill="#cf3a3a"/>
                  </g>
                </g>
              </g>
            </g>
            <g id="Grupo_1220274" data-name="Grupo 1220274" transform="translate(0 171.579)">
              <path id="Trazado_1091820" data-name="Trazado 1091820" d="M353.072,835.383H89.54a.544.544,0,0,0-.54.548h0a.544.544,0,0,0,.54.548H353.071a.545.545,0,0,0,.54-.548h0A.545.545,0,0,0,353.072,835.383Z" transform="translate(-89 -835.383)" fill="#f0dcad"/>
              <path id="Trazado_1091821" data-name="Trazado 1091821" d="M782.023,869.15H723.792a.592.592,0,0,0-.592.592h0a.592.592,0,0,0,.592.592h58.231a.592.592,0,0,0,.592-.592h0A.592.592,0,0,0,782.023,869.15Z" transform="translate(-580.812 -861.422)" fill="#f0dcad"/>
              <path id="Trazado_1091822" data-name="Trazado 1091822" d="M1033.919,869.15h-17.756a.592.592,0,0,0-.592.592h0a.592.592,0,0,0,.592.592h17.756a.592.592,0,0,0,.592-.592h0A.594.594,0,0,0,1033.919,869.15Z" transform="translate(-807.487 -861.422)" fill="#f0dcad"/>
            </g>
            <g id="Grupo_1220288" data-name="Grupo 1220288" transform="translate(48.721 90.928)">
              <path id="Trazado_1091823" data-name="Trazado 1091823" d="M482.4,484.92c-2.631.3-3.671-1.886-7.606-1.935-3.935.05-4.974,2.233-7.606,1.935a2.361,2.361,0,0,0-2.895,1.935V507.45h21V486.856A2.36,2.36,0,0,0,482.4,484.92Z" transform="translate(-431.096 -482.985)" fill="#894027"/>
              <path id="Trazado_1091824" data-name="Trazado 1091824" d="M616.779,524.823c-1.972.223-2.752-1.413-5.7-1.451-2.949.037-3.728,1.674-5.7,1.451a1.769,1.769,0,0,0-2.169,1.451V541.71h15.74V526.274A1.769,1.769,0,0,0,616.779,524.823Z" transform="translate(-538.219 -514.13)" fill="#894027"/>
              <path id="Trazado_1091825" data-name="Trazado 1091825" d="M361.4,524.823c-1.972.223-2.752-1.413-5.7-1.451-2.949.037-3.728,1.674-5.7,1.451a1.769,1.769,0,0,0-2.169,1.451V541.71h15.74V526.274A1.769,1.769,0,0,0,361.4,524.823Z" transform="translate(-341.284 -514.13)" fill="#894027"/>
              <g id="Grupo_1220277" data-name="Grupo 1220277" transform="translate(3.021 19.711)">
                <rect id="Rectángulo_421299" data-name="Rectángulo 421299" width="23.29" height="23.29" fill="#894027"/>
                <rect id="Rectángulo_421300" data-name="Rectángulo 421300" width="16.248" height="15.587" transform="translate(3.521 3.852)" fill="#a3583e"/>
                <g id="Grupo_1220275" data-name="Grupo 1220275" transform="translate(4.736 5.014)">
                  <path id="Trazado_1091826" data-name="Trazado 1091826" d="M366.887,604.282H353.2a.065.065,0,0,1-.065-.065V591.085a.065.065,0,0,1,.065-.065h13.688a.065.065,0,0,1,.065.065v13.132A.065.065,0,0,1,366.887,604.282Zm-13.623-.13h13.558v-13H353.264Z" transform="translate(-353.134 -591.02)" fill="#894027"/>
                </g>
                <g id="Grupo_1220276" data-name="Grupo 1220276" transform="translate(2.081 2.009)">
                  <path id="Trazado_1091827" data-name="Trazado 1091827" d="M360.662,597.161H341.535V577.889h19.127Zm-18.868-.26H360.4V578.149H341.795Z" transform="translate(-341.535 -577.889)" fill="#a3583e"/>
                </g>
              </g>
              <g id="Grupo_1220281" data-name="Grupo 1220281" transform="translate(26.321 15.421)">
                <rect id="Rectángulo_421301" data-name="Rectángulo 421301" width="34.751" height="27.58" fill="#a3583e"/>
                <rect id="Rectángulo_421302" data-name="Rectángulo 421302" width="23.166" height="18.762" transform="translate(5.793 4.409)" fill="#c27348"/>
                <g id="Grupo_1220278" data-name="Grupo 1220278" transform="translate(7.488 5.756)">
                  <path id="Trazado_1091828" data-name="Trazado 1091828" d="M486.745,591.584H466.969V575.517h19.776Zm-19.517-.26h19.257V575.777H467.229Z" transform="translate(-466.969 -575.517)" fill="#a3583e"/>
                </g>
                <g id="Grupo_1220279" data-name="Grupo 1220279" transform="translate(4.08 2.72)">
                  <path id="Trazado_1091829" data-name="Trazado 1091829" d="M478.672,584.391H452.081V562.252h26.591v22.139Zm-26.2-.39h25.811V562.642H452.471Z" transform="translate(-452.081 -562.252)" fill="#c27348"/>
                </g>
                <g id="Grupo_1220280" data-name="Grupo 1220280" transform="translate(11.334 7.021)">
                  <path id="Trazado_1091830" data-name="Trazado 1091830" d="M499.434,588.453a19.15,19.15,0,0,0-8.622,0c-.19.06-.108.359.082.3a13.547,13.547,0,0,1,4.193-.48h.07a13.555,13.555,0,0,1,4.193.48C499.542,588.812,499.623,588.513,499.434,588.453Z" transform="translate(-489.119 -586.375)" fill="#ffb157"/>
                  <path id="Trazado_1091831" data-name="Trazado 1091831" d="M524,610.385a1.868,1.868,0,0,1-1.4,1.812s0,0,0,0a1.867,1.867,0,0,1-2.332-1.807l3.241,0Z" transform="translate(-511.916 -603.67)" fill="#ffb157"/>
                  <rect id="Rectángulo_421303" data-name="Rectángulo 421303" width="0.197" height="4.643" transform="translate(10.119 2.072)" fill="#ffb157"/>
                  <path id="Trazado_1091832" data-name="Trazado 1091832" d="M521.14,594.789l-.17-.073,1.6-4.668.17.073Z" transform="translate(-512.458 -587.987)" fill="#ffb157"/>
                  <path id="Trazado_1091833" data-name="Trazado 1091833" d="M529.766,594.838l.17-.073-1.6-4.668-.17.073Z" transform="translate(-518.01 -588.025)" fill="#ffb157"/>
                  <path id="Trazado_1091834" data-name="Trazado 1091834" d="M483.776,610.385a1.868,1.868,0,0,0,1.4,1.812s0,0,0,0a1.867,1.867,0,0,0,2.332-1.807l-3.241,0Z" transform="translate(-483.776 -603.67)" fill="#ffb157"/>
                  <rect id="Rectángulo_421304" data-name="Rectángulo 421304" width="0.197" height="4.643" transform="translate(1.768 2.072)" fill="#ffb157"/>
                  <path id="Trazado_1091835" data-name="Trazado 1091835" d="M493.258,594.789l.17-.073-1.6-4.668-.17.073Z" transform="translate(-489.857 -587.987)" fill="#ffb157"/>
                  <path id="Trazado_1091836" data-name="Trazado 1091836" d="M484.632,594.838l-.17-.073,1.6-4.668.17.073Z" transform="translate(-484.305 -588.025)" fill="#ffb157"/>
                  <path id="Trazado_1091837" data-name="Trazado 1091837" d="M508.726,635.07v-.118a.477.477,0,0,0-.445-.5h-.43a.477.477,0,0,0-.445.5v.118Z" transform="translate(-501.998 -622.227)" fill="#ffb157"/>
                  <path id="Trazado_1091838" data-name="Trazado 1091838" d="M507.952,637.178v-.17a.7.7,0,0,0-.666-.726h-.643a.7.7,0,0,0-.665.726v.17Z" transform="translate(-500.898 -623.64)" fill="#ffb157"/>
                  <path id="Trazado_1091839" data-name="Trazado 1091839" d="M509.331,581.044h-.205c-.117,0-.212.16-.212.358v11.9h.629V581.444h0V581.4C509.544,581.2,509.448,581.044,509.331,581.044Z" transform="translate(-503.161 -581.044)" fill="#ffb157"/>
                  <path id="Trazado_1091840" data-name="Trazado 1091840" d="M508.962,586.3a.56.56,0,1,1-.56-.56A.56.56,0,0,1,508.962,586.3Z" transform="translate(-502.334 -584.662)" fill="#ffb157"/>
                </g>
              </g>
              <g id="Grupo_1220282" data-name="Grupo 1220282" transform="translate(23.011 12.217)">
                <rect id="Rectángulo_421305" data-name="Rectángulo 421305" width="41.372" height="3.262" fill="#c27348"/>
              </g>
              <g id="Grupo_1220283" data-name="Grupo 1220283" transform="translate(0 17.544)">
                <rect id="Rectángulo_421306" data-name="Rectángulo 421306" width="26.322" height="2.167" fill="#a3583e"/>
              </g>
              <g id="Grupo_1220286" data-name="Grupo 1220286" transform="translate(60.96 19.711)">
                <rect id="Rectángulo_421307" data-name="Rectángulo 421307" width="23.29" height="23.29" fill="#894027"/>
                <rect id="Rectángulo_421308" data-name="Rectángulo 421308" width="16.248" height="15.587" transform="translate(3.521 3.852)" fill="#a3583e"/>
                <g id="Grupo_1220284" data-name="Grupo 1220284" transform="translate(4.736 5.014)">
                  <path id="Trazado_1091841" data-name="Trazado 1091841" d="M620.052,604.282H606.364a.065.065,0,0,1-.065-.065V591.085a.065.065,0,0,1,.065-.065h13.688a.065.065,0,0,1,.065.065v13.132A.065.065,0,0,1,620.052,604.282Zm-13.623-.13h13.558v-13H606.429Z" transform="translate(-606.299 -591.02)" fill="#894027"/>
                </g>
                <g id="Grupo_1220285" data-name="Grupo 1220285" transform="translate(2.081 2.009)">
                  <path id="Trazado_1091842" data-name="Trazado 1091842" d="M613.827,597.161H594.7V577.889h19.127Zm-18.868-.26h18.608V578.149H594.96Z" transform="translate(-594.7 -577.889)" fill="#a3583e"/>
                </g>
              </g>
              <g id="Grupo_1220287" data-name="Grupo 1220287" transform="translate(60.96 17.544)">
                <rect id="Rectángulo_421309" data-name="Rectángulo 421309" width="26.322" height="2.167" fill="#a3583e"/>
              </g>
            </g>
            <g id="Grupo_1220289" data-name="Grupo 1220289" transform="translate(215.009 95.964)">
              <path id="Trazado_1091843" data-name="Trazado 1091843" d="M1049.712,507.147a.747.747,0,0,1-.428,1.107l-2.5.729a.746.746,0,0,1-.934-.894l.619-2.53a.746.746,0,0,1,1.241-.362l1.882,1.8A.705.705,0,0,1,1049.712,507.147Zm-3.27,1.2a.161.161,0,0,0,.026.032.155.155,0,0,0,.153.038l2.5-.729a.158.158,0,0,0,.065-.266l-1.882-1.8a.158.158,0,0,0-.263.076l-.619,2.53A.142.142,0,0,0,1046.442,508.348Z" transform="translate(-1045.828 -504.989)" fill="#f2d944"/>
            </g>
            <g id="Grupo_1220290" data-name="Grupo 1220290" transform="translate(55.625 29.88)">
              <path id="Trazado_1091844" data-name="Trazado 1091844" d="M352.935,218.736l1.253-1.253a.729.729,0,0,0-1.03-1.03l-1.253,1.253-1.253-1.253a.729.729,0,0,0-1.03,1.03l1.253,1.253-1.251,1.251a.729.729,0,1,0,1.03,1.03l1.251-1.251,1.251,1.251a.729.729,0,0,0,1.03-1.03Z" transform="translate(-349.408 -216.239)" fill="#ffb86b"/>
            </g>
            <g id="Grupo_1220292" data-name="Grupo 1220292" transform="translate(222.365 48.05)">
              <g id="Grupo_1220291" data-name="Grupo 1220291" transform="translate(0 0)">
                <path id="Trazado_1091845" data-name="Trazado 1091845" d="M1080.072,299.832a2.1,2.1,0,1,1,2.1-2.1A2.1,2.1,0,0,1,1080.072,299.832Zm0-3.544a1.443,1.443,0,1,0,1.443,1.443A1.445,1.445,0,0,0,1080.072,296.288Z" transform="translate(-1077.971 -295.631)" fill="#f2d944"/>
              </g>
            </g>
            <g id="Grupo_1220294" data-name="Grupo 1220294" transform="translate(39.935 92.66)">
              <g id="Grupo_1220293" data-name="Grupo 1220293" transform="translate(0 0)">
                <path id="Trazado_1091846" data-name="Trazado 1091846" d="M282.95,494.752a2.1,2.1,0,1,1,2.1-2.1A2.1,2.1,0,0,1,282.95,494.752Zm0-3.544a1.443,1.443,0,1,0,1.443,1.443A1.445,1.445,0,0,0,282.95,491.208Z" transform="translate(-280.849 -490.551)" fill="#f2d944"/>
              </g>
            </g>
          </g>
        </g>
      </g>
    </g>
  </g>
</svg>
