<svg xmlns="http://www.w3.org/2000/svg" xmlns:xlink="http://www.w3.org/1999/xlink" width="93.934" height="93.934" viewBox="0 0 93.934 93.934">
  <defs>
    <filter id="Trazado_982547" x="0" y="0" width="93.934" height="93.934" filterUnits="userSpaceOnUse">
      <feOffset dy="3" input="SourceAlpha"/>
      <feGaussianBlur stdDeviation="3" result="blur"/>
      <feFlood flood-opacity="0.161"/>
      <feComposite operator="in" in2="blur"/>
      <feComposite in="SourceGraphic"/>
    </filter>
  </defs>
  <g id="Grupo_1220441" data-name="Grupo 1220441" transform="translate(-191.066 -8068)">
    <g id="Grupo_1219553" data-name="Grupo 1219553" transform="translate(0 -381.729)">
      <g id="Grupo_1214711" data-name="Grupo 1214711" transform="translate(-0.229 3321.729)">
        <g id="Grupo_1214432" data-name="Grupo 1214432" transform="translate(-0.771 -2738.674)">
          <g id="Grupo_1183196" data-name="Grupo 1183196" transform="translate(1 1016.674)">
            <g id="Grupo_1179610" data-name="Grupo 1179610" transform="translate(8 4723.467)">
              <g id="Grupo_1175227" data-name="Grupo 1175227" transform="translate(-5.967 140.533)">
                <g id="Grupo_1167337" data-name="Grupo 1167337" transform="translate(198.033 1992)">
                  <g id="Grupo_1166720" data-name="Grupo 1166720">
                    <g id="Grupo_1164305" data-name="Grupo 1164305">
                      <g id="Grupo_1163948" data-name="Grupo 1163948">
                        <g id="Grupo_1158168" data-name="Grupo 1158168">
                          <g id="Grupo_1152576" data-name="Grupo 1152576">
                            <g id="Grupo_1148633" data-name="Grupo 1148633">
                              <g id="Grupo_1148525" data-name="Grupo 1148525">
                                <g transform="matrix(1, 0, 0, 1, -9, -6)" filter="url(#Trazado_982547)">
                                  <g id="Trazado_982547-2" data-name="Trazado 982547" transform="translate(9 6)" fill="#f7f4ed">
                                    <path d="M 37.966796875 74.43359375 C 33.04315185546875 74.43359375 28.26757431030273 73.46962738037109 23.77274131774902 71.56847381591797 C 19.43047523498535 69.73184967041016 15.53040790557861 67.10224914550781 12.18087482452393 63.75271987915039 C 8.831341743469238 60.4031867980957 6.201741218566895 56.50312042236328 4.365118980407715 52.16086196899414 C 2.463963508605957 47.66601943969727 1.499996900558472 42.89044189453125 1.499996900558472 37.966796875 C 1.499996900558472 33.04315185546875 2.463963508605957 28.26757431030273 4.365118980407715 23.77274131774902 C 6.201741218566895 19.43047523498535 8.831341743469238 15.53040790557861 12.18087482452393 12.18087482452393 C 15.53040790557861 8.831341743469238 19.43047523498535 6.201741218566895 23.77274131774902 4.365118980407715 C 28.26757431030273 2.463963508605957 33.04315185546875 1.499996900558472 37.966796875 1.499996900558472 C 42.89044189453125 1.499996900558472 47.66601943969727 2.463963508605957 52.16086196899414 4.365118980407715 C 56.50312042236328 6.201741218566895 60.4031867980957 8.831341743469238 63.75271987915039 12.18087482452393 C 67.10224914550781 15.53040790557861 69.73184967041016 19.43047523498535 71.56847381591797 23.77274131774902 C 73.46962738037109 28.26757431030273 74.43359375 33.04315185546875 74.43359375 37.966796875 C 74.43359375 42.89044189453125 73.46962738037109 47.66601943969727 71.56847381591797 52.16086196899414 C 69.73184967041016 56.50313186645508 67.10224914550781 60.4031867980957 63.75271987915039 63.75271987915039 C 60.4031867980957 67.10224914550781 56.50313186645508 69.73184967041016 52.16086196899414 71.56847381591797 C 47.66601943969727 73.46962738037109 42.89044189453125 74.43359375 37.966796875 74.43359375 Z" stroke="none"/>
                                    <path d="M 37.966796875 3 C 33.2449836730957 3 28.66600799560547 3.924095153808594 24.35705947875977 5.746635437011719 C 20.19359588623047 7.507637023925781 16.45379638671875 10.02928161621094 13.24153518676758 13.24153518676758 C 10.02927398681641 16.45379638671875 7.507621765136719 20.19359588623047 5.746635437011719 24.35705947875977 C 3.924095153808594 28.66600799560547 3 33.2449836730957 3 37.966796875 C 3 42.6886100769043 3.924095153808594 47.26758575439453 5.746635437011719 51.57653427124023 C 7.507621765136719 55.73999786376953 10.02927398681641 59.47979736328125 13.24153518676758 62.69205856323242 C 16.45379638671875 65.90431976318359 20.19359588623047 68.42597198486328 24.35705947875977 70.18695831298828 C 28.66600799560547 72.00949859619141 33.2449836730957 72.93359375 37.966796875 72.93359375 C 42.6886100769043 72.93359375 47.26758575439453 72.00949859619141 51.57653427124023 70.18695831298828 C 55.73999786376953 68.42597198486328 59.47979736328125 65.90431976318359 62.69205856323242 62.69205856323242 C 65.90431976318359 59.47979736328125 68.42597198486328 55.73999786376953 70.18695831298828 51.57653427124023 C 72.00949859619141 47.26758575439453 72.93359375 42.6886100769043 72.93359375 37.966796875 C 72.93359375 33.2449836730957 72.00949859619141 28.66600799560547 70.18695831298828 24.35705947875977 C 68.42597198486328 20.19359588623047 65.90431976318359 16.45379638671875 62.69205856323242 13.24153518676758 C 59.47979736328125 10.02928161621094 55.73999786376953 7.507637023925781 51.57653427124023 5.746635437011719 C 47.26758575439453 3.924095153808594 42.6886100769043 3 37.966796875 3 M 37.966796875 0 C 58.93528366088867 0 75.93359375 16.99832153320312 75.93359375 37.966796875 C 75.93359375 58.93528366088867 58.93528366088867 75.93359375 37.966796875 75.93359375 C 16.99831008911133 75.93359375 0 58.93528366088867 0 37.966796875 C 0 16.99832153320312 16.99831008911133 0 37.966796875 0 Z" stroke="none" fill="#655531"/>
                                  </g>
                                </g>
                              </g>
                            </g>
                          </g>
                        </g>
                      </g>
                    </g>
                  </g>
                </g>
              </g>
            </g>
          </g>
        </g>
      </g>
    </g>
    <g id="debt_9881968" transform="translate(192.932 8074.835)">
      <g id="Grupo_1220430" data-name="Grupo 1220430" transform="translate(38.745 16.992)">
        <g id="Grupo_1220429" data-name="Grupo 1220429" transform="translate(0 0)">
          <g id="Grupo_1220427" data-name="Grupo 1220427">
            <path id="Trazado_1092072" data-name="Trazado 1092072" d="M254.961,87.1a13.988,13.988,0,0,0-4.7.809,8.7,8.7,0,0,1-7.952,7.176A14.016,14.016,0,1,0,254.961,87.1Z" transform="translate(-240.947 -87.103)" fill="#ffe177"/>
            <path id="Trazado_1092073" data-name="Trazado 1092073" d="M334.714,87.1a14.054,14.054,0,0,0-3.216.371,14.018,14.018,0,0,1,0,27.285A14.015,14.015,0,1,0,334.714,87.1Z" transform="translate(-320.7 -87.103)" fill="#ffd15b"/>
            <path id="Trazado_1092074" data-name="Trazado 1092074" d="M242.248,95.212a14,14,0,1,0,8.14-7.346" transform="translate(-240.946 -87.103)" fill="none" stroke="#000" stroke-linecap="round" stroke-linejoin="round" stroke-miterlimit="10" stroke-width="2"/>
            <g id="Grupo_1220426" data-name="Grupo 1220426" transform="translate(9.565 5.554)">
              <path id="Trazado_1092075" data-name="Trazado 1092075" d="M330.056,156.59h0a2.637,2.637,0,0,0-2.637-2.637h-3.626a2.637,2.637,0,0,0-2.637,2.637v.769A2.637,2.637,0,0,0,323.794,160h3.626a2.637,2.637,0,0,1,2.637,2.637v.769a2.637,2.637,0,0,1-2.637,2.637h-3.626a2.637,2.637,0,0,1-2.637-2.637h0" transform="translate(-321.157 -151.536)" fill="none" stroke="#000" stroke-linecap="round" stroke-linejoin="round" stroke-miterlimit="10" stroke-width="2"/>
              <line id="Línea_693" data-name="Línea 693" y2="2.417" transform="translate(4.45)" fill="none" stroke="#000" stroke-linecap="round" stroke-linejoin="round" stroke-miterlimit="10" stroke-width="2"/>
              <line id="Línea_694" data-name="Línea 694" y2="2.417" transform="translate(4.45 14.502)" fill="none" stroke="#000" stroke-linecap="round" stroke-linejoin="round" stroke-miterlimit="10" stroke-width="2"/>
            </g>
          </g>
          <g id="Grupo_1220428" data-name="Grupo 1220428" transform="translate(5.16 12.665)">
            <line id="Línea_695" data-name="Línea 695" y2="1.933" fill="#fff" stroke="#000" stroke-linecap="round" stroke-linejoin="round" stroke-miterlimit="10" stroke-width="2"/>
            <line id="Línea_696" data-name="Línea 696" y2="1.933" transform="translate(17.709)" fill="none" stroke="#000" stroke-linecap="round" stroke-linejoin="round" stroke-miterlimit="10" stroke-width="2"/>
          </g>
        </g>
      </g>
      <g id="Grupo_1220431" data-name="Grupo 1220431" transform="translate(11.37 47.853)">
        <path id="Trazado_1092076" data-name="Trazado 1092076" d="M200.614,347.209a5.331,5.331,0,0,0-7.262.258l-8.047,8.047a1.193,1.193,0,0,1-.843.349H173.12a1.757,1.757,0,0,1-1.757-1.757h0a1.757,1.757,0,0,1,1.757-1.757h5.27a4.939,4.939,0,0,0,4.939-4.939h0a.951.951,0,0,0-.951-.951H169.34a6.668,6.668,0,0,0-5.208,2.5,1.634,1.634,0,0,1-1.275.6h-2.378v12.576h26.148a2.239,2.239,0,0,0,1.583-.656l12.47-12.47A1.23,1.23,0,0,0,200.614,347.209Z" transform="translate(-142.698 -345.906)" fill="#ffcebf"/>
        <path id="Trazado_1092077" data-name="Trazado 1092077" d="M17.98,376.524H12.324a.954.954,0,0,0-.954.954v10.668a.954.954,0,0,0,.954.954H17.98V376.524Z" transform="translate(-11.37 -372.873)" fill="#ffcebf"/>
      </g>
      <g id="Grupo_1220432" data-name="Grupo 1220432" transform="translate(43.201 47.853)">
        <path id="Trazado_1092078" data-name="Trazado 1092078" d="M365.238,347.215a5.332,5.332,0,0,0-5.423-.942,5.3,5.3,0,0,1,1.562.942,1.23,1.23,0,0,1,.065,1.8l-12.47,12.47a2.239,2.239,0,0,1-1.583.656h3.86a2.239,2.239,0,0,0,1.583-.656l12.47-12.47A1.23,1.23,0,0,0,365.238,347.215Z" transform="translate(-339.152 -345.913)" fill="#ffb09e"/>
        <path id="Trazado_1092079" data-name="Trazado 1092079" d="M283.254,351.491h0a4.939,4.939,0,0,1-4.939,4.939h3.86a4.939,4.939,0,0,0,4.939-4.939h0a.951.951,0,0,0-.951-.951H282.3A.951.951,0,0,1,283.254,351.491Z" transform="translate(-278.315 -349.988)" fill="#ffb09e"/>
      </g>
      <g id="Grupo_1220433" data-name="Grupo 1220433" transform="translate(11.37 47.853)">
        <path id="Trazado_1092080" data-name="Trazado 1092080" d="M17.861,376.524H12.324a.954.954,0,0,0-.954.954v10.668a.954.954,0,0,0,.954.954h5.537" transform="translate(-11.37 -372.873)" fill="none" stroke="#000" stroke-linecap="round" stroke-linejoin="round" stroke-miterlimit="10" stroke-width="2"/>
        <path id="Trazado_1092081" data-name="Trazado 1092081" d="M188.865,352.835l-2.678,2.678a1.192,1.192,0,0,1-.843.349H174a1.757,1.757,0,0,1-1.757-1.757h0A1.757,1.757,0,0,1,174,352.348h5.27a4.939,4.939,0,0,0,4.939-4.939h0a.951.951,0,0,0-.951-.951H170.22a6.668,6.668,0,0,0-5.208,2.5,1.634,1.634,0,0,1-1.275.6h-2.259v12.576h26.029a2.239,2.239,0,0,0,1.583-.656l12.47-12.47a1.23,1.23,0,0,0-.065-1.8,5.331,5.331,0,0,0-7.262.258l-2.418,2.418" transform="translate(-143.579 -345.906)" fill="none" stroke="#000" stroke-linecap="round" stroke-linejoin="round" stroke-miterlimit="10" stroke-width="2"/>
      </g>
      <g id="Grupo_1220434" data-name="Grupo 1220434" transform="translate(21.141 37.951)">
        <path id="Trazado_1092082" data-name="Trazado 1092082" d="M93.311,267.433v-2.139a2.431,2.431,0,0,1,2.424-2.424h0a2.431,2.431,0,0,1,2.424,2.424v2.139a2.431,2.431,0,0,1-2.424,2.424h0A2.431,2.431,0,0,1,93.311,267.433Z" transform="translate(-93.311 -262.87)" fill="#e1d3ce"/>
        <path id="Trazado_1092083" data-name="Trazado 1092083" d="M105.727,262.87h0a2.4,2.4,0,0,0-1.072.254,2.429,2.429,0,0,1,1.353,2.17v2.139a2.429,2.429,0,0,1-1.353,2.17,2.4,2.4,0,0,0,1.072.254h0a2.431,2.431,0,0,0,2.424-2.424v-2.139A2.431,2.431,0,0,0,105.727,262.87Z" transform="translate(-103.302 -262.87)" fill="#cdbfba"/>
        <path id="Trazado_1092084" data-name="Trazado 1092084" d="M93.311,267.433v-2.139a2.431,2.431,0,0,1,2.424-2.424h0a2.431,2.431,0,0,1,2.424,2.424v2.139a2.431,2.431,0,0,1-2.424,2.424h0A2.431,2.431,0,0,1,93.311,267.433Z" transform="translate(-93.311 -262.87)" fill="none" stroke="#000" stroke-linecap="round" stroke-linejoin="round" stroke-miterlimit="10" stroke-width="2"/>
        <line id="Línea_697" data-name="Línea 697" y2="5.372" transform="translate(2.424 5.426)" fill="none" stroke="#000" stroke-linecap="round" stroke-linejoin="round" stroke-miterlimit="10" stroke-width="2"/>
      </g>
      <g id="Grupo_1220435" data-name="Grupo 1220435" transform="translate(21.141 28.685)">
        <path id="Trazado_1092085" data-name="Trazado 1092085" d="M93.311,189.73v-2.139a2.431,2.431,0,0,1,2.424-2.424h0a2.431,2.431,0,0,1,2.424,2.424v2.139a2.431,2.431,0,0,1-2.424,2.424h0A2.431,2.431,0,0,1,93.311,189.73Z" transform="translate(-93.311 -185.167)" fill="#e1d3ce"/>
        <path id="Trazado_1092086" data-name="Trazado 1092086" d="M105.727,185.166h0a2.4,2.4,0,0,0-1.072.254,2.429,2.429,0,0,1,1.353,2.17v2.139a2.429,2.429,0,0,1-1.353,2.17,2.4,2.4,0,0,0,1.072.254h0a2.431,2.431,0,0,0,2.424-2.424V187.59A2.431,2.431,0,0,0,105.727,185.166Z" transform="translate(-103.302 -185.166)" fill="#cdbfba"/>
        <path id="Trazado_1092087" data-name="Trazado 1092087" d="M93.311,189.73v-2.139a2.431,2.431,0,0,1,2.424-2.424h0a2.431,2.431,0,0,1,2.424,2.424v2.139a2.431,2.431,0,0,1-2.424,2.424h0A2.431,2.431,0,0,1,93.311,189.73Z" transform="translate(-93.311 -185.167)" fill="none" stroke="#000" stroke-linecap="round" stroke-linejoin="round" stroke-miterlimit="10" stroke-width="2"/>
        <line id="Línea_698" data-name="Línea 698" y2="3.843" transform="translate(2.424 5.422)" fill="none" stroke="#000" stroke-linecap="round" stroke-linejoin="round" stroke-miterlimit="10" stroke-width="2"/>
      </g>
      <g id="Grupo_1220438" data-name="Grupo 1220438" transform="translate(25.989 28.685)">
        <g id="Grupo_1220436" data-name="Grupo 1220436" transform="translate(0)">
          <path id="Trazado_1092088" data-name="Trazado 1092088" d="M154.393,185.166h2.139a2.431,2.431,0,0,1,2.424,2.424h0a2.431,2.431,0,0,1-2.424,2.424h-2.139a2.431,2.431,0,0,1-2.424-2.424h0A2.431,2.431,0,0,1,154.393,185.166Z" transform="translate(-149.823 -185.166)" fill="#e1d3ce"/>
          <path id="Trazado_1092089" data-name="Trazado 1092089" d="M173.1,185.166h-2.139c-.061,0-.121,0-.181.009a2.422,2.422,0,0,1,0,4.83c.06,0,.12.009.181.009H173.1a2.424,2.424,0,1,0,0-4.848Z" transform="translate(-166.394 -185.166)" fill="#cdbfba"/>
          <path id="Trazado_1092090" data-name="Trazado 1092090" d="M154.393,185.166h2.139a2.431,2.431,0,0,1,2.424,2.424h0a2.431,2.431,0,0,1-2.424,2.424h-2.139a2.431,2.431,0,0,1-2.424-2.424h0A2.431,2.431,0,0,1,154.393,185.166Z" transform="translate(-149.823 -185.166)" fill="none" stroke="#000" stroke-linecap="round" stroke-linejoin="round" stroke-miterlimit="10" stroke-width="2"/>
          <line id="Línea_699" data-name="Línea 699" x1="3.708" transform="translate(0 2.424)" fill="none" stroke="#000" stroke-linecap="round" stroke-linejoin="round" stroke-miterlimit="10" stroke-width="2"/>
        </g>
        <g id="Grupo_1220437" data-name="Grupo 1220437" transform="translate(9.134 2.424)">
          <line id="Línea_700" data-name="Línea 700" x1="3.622" fill="none" stroke="#000" stroke-linecap="round" stroke-linejoin="round" stroke-miterlimit="10" stroke-width="2"/>
        </g>
      </g>
      <path id="Trazado_1092091" data-name="Trazado 1092091" d="M65.806,354.378v16.107a.954.954,0,0,0,.954.954h9.5a.954.954,0,0,0,.954-.954V354.378a.954.954,0,0,0-.954-.954h-9.5A.954.954,0,0,0,65.806,354.378Z" transform="translate(-47.945 -304.675)" fill="#b9acac"/>
      <path id="Trazado_1092092" data-name="Trazado 1092092" d="M125.752,353.424H122a.954.954,0,0,1,.954.954v16.107a.954.954,0,0,1-.954.954h3.754a.954.954,0,0,0,.954-.954V354.378A.954.954,0,0,0,125.752,353.424Z" transform="translate(-97.436 -304.675)" fill="#9e9797"/>
      <path id="Trazado_1092093" data-name="Trazado 1092093" d="M65.806,364.476v6.009a.954.954,0,0,0,.954.954h9.5a.954.954,0,0,0,.954-.954V354.378a.954.954,0,0,0-.954-.954h-9.5a.954.954,0,0,0-.954.954V360.3" transform="translate(-47.945 -304.675)" fill="none" stroke="#000" stroke-linecap="round" stroke-linejoin="round" stroke-miterlimit="10" stroke-width="2"/>
      <g id="Grupo_1220440" data-name="Grupo 1220440" transform="translate(30.687 7.5)">
        <circle id="Elipse_14446" data-name="Elipse 14446" cx="8.81" cy="8.81" r="8.81" transform="translate(0 0)" fill="#fd8087"/>
        <path id="Trazado_1092094" data-name="Trazado 1092094" d="M229.032,7.5a8.807,8.807,0,0,0-2.466.352,8.81,8.81,0,0,1,0,16.915A8.81,8.81,0,1,0,229.032,7.5Z" transform="translate(-220.222 -7.5)" fill="#fe646f"/>
        <path id="Trazado_1092095" data-name="Trazado 1092095" d="M175.469,18.4a8.81,8.81,0,1,0,0-4.174" transform="translate(-175.218 -7.5)" fill="none" stroke="#000" stroke-linecap="round" stroke-linejoin="round" stroke-miterlimit="10" stroke-width="2"/>
        <line id="Línea_701" data-name="Línea 701" x1="4.44" y2="7.69" transform="translate(6.59 4.965)" fill="none" stroke="#000" stroke-linecap="round" stroke-linejoin="round" stroke-miterlimit="10" stroke-width="2"/>
        <g id="Grupo_1220439" data-name="Grupo 1220439" transform="translate(5.671 5.671)">
          <line id="Línea_702" data-name="Línea 702" fill="none" stroke="#000" stroke-linecap="round" stroke-linejoin="round" stroke-miterlimit="10" stroke-width="2"/>
          <line id="Línea_703" data-name="Línea 703" transform="translate(6.279 6.279)" fill="none" stroke="#000" stroke-linecap="round" stroke-linejoin="round" stroke-miterlimit="10" stroke-width="2"/>
        </g>
      </g>
    </g>
  </g>
</svg>
