<svg xmlns="http://www.w3.org/2000/svg" width="97.159" height="125.39" viewBox="0 0 97.159 125.39">
  <g id="Grupo_1220472" data-name="Grupo 1220472" transform="translate(-1287.841 -8704)">
    <rect id="Rectángulo_421408" data-name="Rectángulo 421408" width="67" height="124" transform="translate(1318 8704)" fill="#56678d"/>
    <g id="commitment_9882153" transform="translate(1217.365 8712.24)">
      <g id="Grupo_1220447" data-name="Grupo 1220447" transform="translate(91.911 7.5)">
        <path id="Trazado_1092096" data-name="Trazado 1092096" d="M202.925,63.23H167.173a1.883,1.883,0,0,1-1.883-1.883V9.383A1.883,1.883,0,0,1,167.173,7.5h35.752a1.883,1.883,0,0,1,1.883,1.883V61.347A1.883,1.883,0,0,1,202.925,63.23Z" transform="translate(-165.29 -7.5)" fill="#ffe177"/>
        <path id="Trazado_1092097" data-name="Trazado 1092097" d="M305.441,7.5h-9.086a1.883,1.883,0,0,1,1.883,1.883V61.347a1.883,1.883,0,0,1-1.883,1.883h9.086a1.883,1.883,0,0,0,1.883-1.883V9.383A1.883,1.883,0,0,0,305.441,7.5Z" transform="translate(-267.806 -7.5)" fill="#ffd15b"/>
        <path id="Trazado_1092098" data-name="Trazado 1092098" d="M165.29,39.55V51.706L176.814,63.23h16.47l11.524-11.524V9.383A1.883,1.883,0,0,0,202.925,7.5H167.173a1.883,1.883,0,0,0-1.883,1.883v6.672" transform="translate(-165.29 -7.5)" fill="none" stroke="#000" stroke-linecap="round" stroke-linejoin="round" stroke-miterlimit="10" stroke-width="2"/>
        <line id="Línea_704" data-name="Línea 704" x2="15.404" transform="translate(12.057 7.762)" fill="none" stroke="#000" stroke-linecap="round" stroke-linejoin="round" stroke-miterlimit="10" stroke-width="2"/>
        <g id="Grupo_1220446" data-name="Grupo 1220446" transform="translate(8.01 19.51)">
          <line id="Línea_705" data-name="Línea 705" x2="23.498" fill="none" stroke="#000" stroke-linecap="round" stroke-linejoin="round" stroke-miterlimit="10" stroke-width="2"/>
          <line id="Línea_706" data-name="Línea 706" x2="23.498" transform="translate(0 8.529)" fill="none" stroke="#000" stroke-linecap="round" stroke-linejoin="round" stroke-miterlimit="10" stroke-width="2"/>
          <line id="Línea_707" data-name="Línea 707" x2="23.498" transform="translate(0 17.058)" fill="none" stroke="#000" stroke-linecap="round" stroke-linejoin="round" stroke-miterlimit="10" stroke-width="2"/>
          <line id="Línea_708" data-name="Línea 708" x2="23.498" transform="translate(0 25.586)" fill="none" stroke="#000" stroke-linecap="round" stroke-linejoin="round" stroke-miterlimit="10" stroke-width="2"/>
        </g>
      </g>
      <g id="Grupo_1220452" data-name="Grupo 1220452" transform="translate(71.476 39.339)">
        <path id="Trazado_1092099" data-name="Trazado 1092099" d="M299.107,162.054v17.913a3.293,3.293,0,0,1-.965,2.329l-4.392,4.392a3.293,3.293,0,0,1-4.657,0l-2.3-2.3a3.293,3.293,0,0,1,0-4.657L289.515,177a7.772,7.772,0,0,0,0-10.991l-.434-.434a.649.649,0,0,0-.918,0l-13.357,13.357a12.055,12.055,0,0,0-3.531,8.524v42.628h18.4V205.97a5.869,5.869,0,0,1,1.719-4.15L306.213,187a6.587,6.587,0,0,0,1.929-4.657V154.318a.649.649,0,0,0-.649-.649h0A8.385,8.385,0,0,0,299.107,162.054Z" transform="translate(-227.754 -153.669)" fill="#ffcebf"/>
        <g id="Grupo_1220448" data-name="Grupo 1220448" transform="translate(57.452)">
          <path id="Trazado_1092100" data-name="Trazado 1092100" d="M357.516,153.668h0a8.344,8.344,0,0,0-3.822.922v26.16a6.587,6.587,0,0,1-1.929,4.657l-14.817,14.817a5.869,5.869,0,0,0-1.719,4.15v25.713H339.7V205.969a5.87,5.87,0,0,1,1.719-4.15L356.236,187a6.586,6.586,0,0,0,1.929-4.657V154.317A.649.649,0,0,0,357.516,153.668Z" transform="translate(-335.229 -153.668)" fill="#ffb09e"/>
        </g>
        <path id="Trazado_1092101" data-name="Trazado 1092101" d="M321.242,219.092l-2.724,2.724a3.293,3.293,0,0,0,0,4.657l2.3,2.3a3.29,3.29,0,0,0,4.564.084c-.031-.029-.063-.054-.093-.084l-2.3-2.3a3.293,3.293,0,0,1,0-4.657l2.724-2.724a7.772,7.772,0,0,0,0-10.991l-.434-.434a.649.649,0,0,0-.918,0l-1.942,1.942A7.774,7.774,0,0,1,321.242,219.092Z" transform="translate(-263.952 -195.756)" fill="#ffb09e"/>
        <g id="Grupo_1220449" data-name="Grupo 1220449" transform="translate(43.521)">
          <rect id="Rectángulo_421406" data-name="Rectángulo 421406" width="18.401" height="6.739" transform="translate(0 62.376)" fill="none" stroke="#000" stroke-linecap="round" stroke-linejoin="round" stroke-miterlimit="10" stroke-width="2"/>
          <path id="Trazado_1092102" data-name="Trazado 1092102" d="M299.107,174.869v5.1a3.293,3.293,0,0,1-.965,2.329l-4.392,4.392a3.293,3.293,0,0,1-4.657,0l-2.3-2.3a3.293,3.293,0,0,1,0-4.657L289.515,177a7.772,7.772,0,0,0,0-10.991l-.434-.434a.649.649,0,0,0-.918,0l-13.357,13.357a12.055,12.055,0,0,0-3.531,8.524v21.279h18.4v-2.77a5.87,5.87,0,0,1,1.719-4.15L306.213,187a6.586,6.586,0,0,0,1.929-4.657V154.317a.649.649,0,0,0-.649-.649h0a8.385,8.385,0,0,0-8.385,8.385v5.192" transform="translate(-271.275 -153.668)" fill="none" stroke="#000" stroke-linecap="round" stroke-linejoin="round" stroke-miterlimit="10" stroke-width="2"/>
        </g>
        <path id="Trazado_1092103" data-name="Trazado 1092103" d="M80.511,162.054v17.913a3.293,3.293,0,0,0,.965,2.329l4.392,4.392a3.293,3.293,0,0,0,4.657,0l2.3-2.3a3.293,3.293,0,0,0,0-4.657L90.1,177a7.772,7.772,0,0,1,0-10.991l.434-.434a.649.649,0,0,1,.918,0l13.357,13.357a12.055,12.055,0,0,1,3.531,8.524v42.628h-18.4V205.97a5.87,5.87,0,0,0-1.719-4.15L73.406,187a6.587,6.587,0,0,1-1.929-4.657V154.318a.649.649,0,0,1,.649-.649h0A8.385,8.385,0,0,1,80.511,162.054Z" transform="translate(-71.477 -153.669)" fill="#ffcebf"/>
        <g id="Grupo_1220450" data-name="Grupo 1220450" transform="translate(0 0)">
          <path id="Trazado_1092104" data-name="Trazado 1092104" d="M76,162.054v17.913a3.293,3.293,0,0,0,.965,2.329l4.392,4.392a3.291,3.291,0,0,0,4.586.065c-.024-.022-.049-.042-.071-.065L81.475,182.3a3.293,3.293,0,0,1-.965-2.329V162.054a8.385,8.385,0,0,0-8.385-8.385h0a.649.649,0,0,0-.649.649v.3A8.382,8.382,0,0,1,76,162.054Z" transform="translate(-71.476 -153.669)" fill="#ffb09e"/>
        </g>
        <path id="Trazado_1092105" data-name="Trazado 1092105" d="M167.413,221.024l-13.357-13.357a.649.649,0,0,0-.918,0l-.434.434a7.782,7.782,0,0,0-1.193,1.535L162.9,221.024a12.055,12.055,0,0,1,3.531,8.524v42.628h4.514V229.548A12.056,12.056,0,0,0,167.413,221.024Z" transform="translate(-134.077 -195.756)" fill="#ffb09e"/>
        <g id="Grupo_1220451" data-name="Grupo 1220451" transform="translate(0 0)">
          <path id="Trazado_1092106" data-name="Trazado 1092106" d="M85.736,199.333l2.487,2.487a5.869,5.869,0,0,1,1.719,4.15v2.77h18.4V187.461a12.054,12.054,0,0,0-3.531-8.524L91.455,165.58a.649.649,0,0,0-.918,0l-.434.434a7.772,7.772,0,0,0,0,10.991l2.724,2.724a3.293,3.293,0,0,1,0,4.657l-2.3,2.3a3.293,3.293,0,0,1-4.657,0L81.475,182.3a3.293,3.293,0,0,1-.965-2.329V162.054a8.385,8.385,0,0,0-8.385-8.385h0a.649.649,0,0,0-.649.649v28.027A6.587,6.587,0,0,0,73.405,187l6.94,6.94" transform="translate(-71.476 -153.669)" fill="none" stroke="#000" stroke-linecap="round" stroke-linejoin="round" stroke-miterlimit="10" stroke-width="2"/>
          <rect id="Rectángulo_421407" data-name="Rectángulo 421407" width="18.401" height="6.739" transform="translate(18.465 62.376)" fill="none" stroke="#000" stroke-linecap="round" stroke-linejoin="round" stroke-miterlimit="10" stroke-width="2"/>
        </g>
      </g>
      <g id="Grupo_1220461" data-name="Grupo 1220461" transform="translate(86.015 94.41)">
        <g id="Grupo_1220460" data-name="Grupo 1220460" transform="translate(0)">
          <g id="Grupo_1220459" data-name="Grupo 1220459">
            <path id="Trazado_1092107" data-name="Trazado 1092107" d="M141.873,413.795h44.006a3.652,3.652,0,0,0,3.652-3.652h0a3.652,3.652,0,0,0-3.652-3.652H141.873a3.652,3.652,0,0,0-3.653,3.652h0A3.652,3.652,0,0,0,141.873,413.795Z" transform="translate(-138.221 -406.49)" fill="#fe646f"/>
            <path id="Trazado_1092108" data-name="Trazado 1092108" d="M141.873,413.795h44.006a3.652,3.652,0,0,0,3.652-3.652h0a3.652,3.652,0,0,0-3.652-3.652H141.873a3.652,3.652,0,0,0-3.653,3.652h0A3.652,3.652,0,0,0,141.873,413.795Z" transform="translate(-138.221 -406.49)" fill="none" stroke="#000" stroke-linecap="round" stroke-linejoin="round" stroke-miterlimit="10" stroke-width="2"/>
            <g id="Grupo_1220458" data-name="Grupo 1220458" transform="translate(6.358)">
              <g id="Grupo_1220453" data-name="Grupo 1220453">
                <line id="Línea_709" data-name="Línea 709" x1="4.996" y2="7.305" fill="none" stroke="#000" stroke-linecap="round" stroke-linejoin="round" stroke-miterlimit="10" stroke-width="2"/>
              </g>
              <g id="Grupo_1220454" data-name="Grupo 1220454" transform="translate(8.4)">
                <line id="Línea_710" data-name="Línea 710" x1="4.996" y2="7.305" fill="none" stroke="#000" stroke-linecap="round" stroke-linejoin="round" stroke-miterlimit="10" stroke-width="2"/>
              </g>
              <g id="Grupo_1220455" data-name="Grupo 1220455" transform="translate(16.8)">
                <line id="Línea_711" data-name="Línea 711" x1="4.996" y2="7.305" fill="none" stroke="#000" stroke-linecap="round" stroke-linejoin="round" stroke-miterlimit="10" stroke-width="2"/>
              </g>
              <g id="Grupo_1220456" data-name="Grupo 1220456" transform="translate(25.199)">
                <line id="Línea_712" data-name="Línea 712" x1="4.996" y2="7.305" fill="none" stroke="#000" stroke-linecap="round" stroke-linejoin="round" stroke-miterlimit="10" stroke-width="2"/>
              </g>
              <g id="Grupo_1220457" data-name="Grupo 1220457" transform="translate(33.599)">
                <line id="Línea_713" data-name="Línea 713" x1="4.996" y2="7.305" fill="none" stroke="#000" stroke-linecap="round" stroke-linejoin="round" stroke-miterlimit="10" stroke-width="2"/>
              </g>
            </g>
          </g>
        </g>
      </g>
      <g id="Grupo_1220470" data-name="Grupo 1220470" transform="translate(86.015 108.454)">
        <g id="Grupo_1220469" data-name="Grupo 1220469" transform="translate(0)">
          <g id="Grupo_1220468" data-name="Grupo 1220468">
            <path id="Trazado_1092109" data-name="Trazado 1092109" d="M141.873,478.269h44.006a3.652,3.652,0,0,0,3.652-3.653h0a3.652,3.652,0,0,0-3.652-3.652H141.873a3.652,3.652,0,0,0-3.653,3.652h0A3.652,3.652,0,0,0,141.873,478.269Z" transform="translate(-138.221 -470.964)" fill="#fe646f"/>
            <path id="Trazado_1092110" data-name="Trazado 1092110" d="M141.873,478.269h44.006a3.652,3.652,0,0,0,3.652-3.653h0a3.652,3.652,0,0,0-3.652-3.652H141.873a3.652,3.652,0,0,0-3.653,3.652h0A3.652,3.652,0,0,0,141.873,478.269Z" transform="translate(-138.221 -470.964)" fill="none" stroke="#000" stroke-linecap="round" stroke-linejoin="round" stroke-miterlimit="10" stroke-width="2"/>
            <g id="Grupo_1220467" data-name="Grupo 1220467" transform="translate(6.358)">
              <g id="Grupo_1220462" data-name="Grupo 1220462">
                <line id="Línea_714" data-name="Línea 714" x1="4.996" y2="7.305" fill="none" stroke="#000" stroke-linecap="round" stroke-linejoin="round" stroke-miterlimit="10" stroke-width="2"/>
              </g>
              <g id="Grupo_1220463" data-name="Grupo 1220463" transform="translate(8.4)">
                <line id="Línea_715" data-name="Línea 715" x1="4.996" y2="7.305" fill="none" stroke="#000" stroke-linecap="round" stroke-linejoin="round" stroke-miterlimit="10" stroke-width="2"/>
              </g>
              <g id="Grupo_1220464" data-name="Grupo 1220464" transform="translate(16.8)">
                <line id="Línea_716" data-name="Línea 716" x1="4.996" y2="7.305" fill="none" stroke="#000" stroke-linecap="round" stroke-linejoin="round" stroke-miterlimit="10" stroke-width="2"/>
              </g>
              <g id="Grupo_1220465" data-name="Grupo 1220465" transform="translate(25.199)">
                <line id="Línea_717" data-name="Línea 717" x1="4.996" y2="7.305" fill="none" stroke="#000" stroke-linecap="round" stroke-linejoin="round" stroke-miterlimit="10" stroke-width="2"/>
              </g>
              <g id="Grupo_1220466" data-name="Grupo 1220466" transform="translate(33.599)">
                <line id="Línea_718" data-name="Línea 718" x1="4.996" y2="7.305" fill="none" stroke="#000" stroke-linecap="round" stroke-linejoin="round" stroke-miterlimit="10" stroke-width="2"/>
              </g>
            </g>
          </g>
        </g>
      </g>
      <g id="Grupo_1220471" data-name="Grupo 1220471" transform="translate(79.915 16.049)">
        <circle id="Elipse_14447" data-name="Elipse 14447" cx="11.753" cy="11.753" r="11.753" transform="translate(0 0)" fill="#00f2a6"/>
        <path id="Trazado_1092111" data-name="Trazado 1092111" d="M152,46.748a11.744,11.744,0,0,0-3.391.5,11.755,11.755,0,0,1,0,22.509A11.754,11.754,0,1,0,152,46.748Z" transform="translate(-140.246 -46.748)" fill="#05e39c"/>
        <path id="Trazado_1092112" data-name="Trazado 1092112" d="M112.727,62.05a11.753,11.753,0,1,0,.18-7.624" transform="translate(-112.18 -46.747)" fill="none" stroke="#000" stroke-linecap="round" stroke-linejoin="round" stroke-miterlimit="10" stroke-width="2"/>
        <path id="Trazado_1092113" data-name="Trazado 1092113" d="M139.241,88.821l4.086,4.147L150.1,85.8" transform="translate(-132.919 -77.296)" fill="none" stroke="#000" stroke-linecap="round" stroke-linejoin="round" stroke-miterlimit="10" stroke-width="2"/>
      </g>
    </g>
  </g>
</svg>
