<svg xmlns="http://www.w3.org/2000/svg" xmlns:xlink="http://www.w3.org/1999/xlink" width="93.934" height="93.934" viewBox="0 0 93.934 93.934">
  <defs>
    <filter id="Trazado_982547" x="0" y="0" width="93.934" height="93.934" filterUnits="userSpaceOnUse">
      <feOffset dy="3" input="SourceAlpha"/>
      <feGaussianBlur stdDeviation="3" result="blur"/>
      <feFlood flood-opacity="0.161"/>
      <feComposite operator="in" in2="blur"/>
      <feComposite in="SourceGraphic"/>
    </filter>
  </defs>
  <g id="Grupo_1220476" data-name="Grupo 1220476" transform="translate(-191.066 -10200.387)">
    <g id="Grupo_1219565" data-name="Grupo 1219565" transform="translate(0 1750.657)">
      <g id="Grupo_1214711" data-name="Grupo 1214711" transform="translate(-0.229 3321.729)">
        <g id="Grupo_1214432" data-name="Grupo 1214432" transform="translate(-0.771 -2738.674)">
          <g id="Grupo_1183196" data-name="Grupo 1183196" transform="translate(1 1016.674)">
            <g id="Grupo_1179610" data-name="Grupo 1179610" transform="translate(8 4723.467)">
              <g id="Grupo_1175227" data-name="Grupo 1175227" transform="translate(-5.967 140.533)">
                <g id="Grupo_1167337" data-name="Grupo 1167337" transform="translate(198.033 1992)">
                  <g id="Grupo_1166720" data-name="Grupo 1166720">
                    <g id="Grupo_1164305" data-name="Grupo 1164305">
                      <g id="Grupo_1163948" data-name="Grupo 1163948">
                        <g id="Grupo_1158168" data-name="Grupo 1158168">
                          <g id="Grupo_1152576" data-name="Grupo 1152576">
                            <g id="Grupo_1148633" data-name="Grupo 1148633">
                              <g id="Grupo_1148525" data-name="Grupo 1148525">
                                <g transform="matrix(1, 0, 0, 1, -9, -6)" filter="url(#Trazado_982547)">
                                  <g id="Trazado_982547-2" data-name="Trazado 982547" transform="translate(9 6)" fill="#f7f4ed">
                                    <path d="M 37.966796875 74.43359375 C 33.04315185546875 74.43359375 28.26757431030273 73.46962738037109 23.77274131774902 71.56847381591797 C 19.43047523498535 69.73184967041016 15.53040790557861 67.10224914550781 12.18087482452393 63.75271987915039 C 8.831341743469238 60.4031867980957 6.201741218566895 56.50312042236328 4.365118980407715 52.16086196899414 C 2.463963508605957 47.66601943969727 1.499996900558472 42.89044189453125 1.499996900558472 37.966796875 C 1.499996900558472 33.04315185546875 2.463963508605957 28.26757431030273 4.365118980407715 23.77274131774902 C 6.201741218566895 19.43047523498535 8.831341743469238 15.53040790557861 12.18087482452393 12.18087482452393 C 15.53040790557861 8.831341743469238 19.43047523498535 6.201741218566895 23.77274131774902 4.365118980407715 C 28.26757431030273 2.463963508605957 33.04315185546875 1.499996900558472 37.966796875 1.499996900558472 C 42.89044189453125 1.499996900558472 47.66601943969727 2.463963508605957 52.16086196899414 4.365118980407715 C 56.50312042236328 6.201741218566895 60.4031867980957 8.831341743469238 63.75271987915039 12.18087482452393 C 67.10224914550781 15.53040790557861 69.73184967041016 19.43047523498535 71.56847381591797 23.77274131774902 C 73.46962738037109 28.26757431030273 74.43359375 33.04315185546875 74.43359375 37.966796875 C 74.43359375 42.89044189453125 73.46962738037109 47.66601943969727 71.56847381591797 52.16086196899414 C 69.73184967041016 56.50313186645508 67.10224914550781 60.4031867980957 63.75271987915039 63.75271987915039 C 60.4031867980957 67.10224914550781 56.50313186645508 69.73184967041016 52.16086196899414 71.56847381591797 C 47.66601943969727 73.46962738037109 42.89044189453125 74.43359375 37.966796875 74.43359375 Z" stroke="none"/>
                                    <path d="M 37.966796875 3 C 33.2449836730957 3 28.66600799560547 3.924095153808594 24.35705947875977 5.746635437011719 C 20.19359588623047 7.507637023925781 16.45379638671875 10.02928161621094 13.24153518676758 13.24153518676758 C 10.02927398681641 16.45379638671875 7.507621765136719 20.19359588623047 5.746635437011719 24.35705947875977 C 3.924095153808594 28.66600799560547 3 33.2449836730957 3 37.966796875 C 3 42.6886100769043 3.924095153808594 47.26758575439453 5.746635437011719 51.57653427124023 C 7.507621765136719 55.73999786376953 10.02927398681641 59.47979736328125 13.24153518676758 62.69205856323242 C 16.45379638671875 65.90431976318359 20.19359588623047 68.42597198486328 24.35705947875977 70.18695831298828 C 28.66600799560547 72.00949859619141 33.2449836730957 72.93359375 37.966796875 72.93359375 C 42.6886100769043 72.93359375 47.26758575439453 72.00949859619141 51.57653427124023 70.18695831298828 C 55.73999786376953 68.42597198486328 59.47979736328125 65.90431976318359 62.69205856323242 62.69205856323242 C 65.90431976318359 59.47979736328125 68.42597198486328 55.73999786376953 70.18695831298828 51.57653427124023 C 72.00949859619141 47.26758575439453 72.93359375 42.6886100769043 72.93359375 37.966796875 C 72.93359375 33.2449836730957 72.00949859619141 28.66600799560547 70.18695831298828 24.35705947875977 C 68.42597198486328 20.19359588623047 65.90431976318359 16.45379638671875 62.69205856323242 13.24153518676758 C 59.47979736328125 10.02928161621094 55.73999786376953 7.507637023925781 51.57653427124023 5.746635437011719 C 47.26758575439453 3.924095153808594 42.6886100769043 3 37.966796875 3 M 37.966796875 0 C 58.93528366088867 0 75.93359375 16.99832153320312 75.93359375 37.966796875 C 75.93359375 58.93528366088867 58.93528366088867 75.93359375 37.966796875 75.93359375 C 16.99831008911133 75.93359375 0 58.93528366088867 0 37.966796875 C 0 16.99832153320312 16.99831008911133 0 37.966796875 0 Z" stroke="none" fill="#655531"/>
                                  </g>
                                </g>
                              </g>
                            </g>
                          </g>
                        </g>
                      </g>
                    </g>
                  </g>
                </g>
              </g>
            </g>
          </g>
        </g>
      </g>
    </g>
    <g id="balance_1595078" transform="translate(196.244 10222.979)">
      <path id="Trazado_1092114" data-name="Trazado 1092114" d="M201.665,42.461v24.83l-.005.016V91.5a.669.669,0,0,0,.668.669h16.4a.669.669,0,0,0,.669-.669V66.979l-.006-.013a6.04,6.04,0,0,0,3.279-5.374V42.461Zm0,0" transform="translate(-168.741 -35.529)" fill="#fec491"/>
      <path id="Trazado_1092115" data-name="Trazado 1092115" d="M206.123,192.509V177.885l.005-.01V162.864h-4.463v15.012l-.005.01v14.624c0,.223.3.4.668.4h4.464c-.369,0-.669-.181-.669-.4Zm0,0" transform="translate(-168.741 -136.278)" fill="#f9b480"/>
      <path id="Trazado_1092116" data-name="Trazado 1092116" d="M99.717,40.078v4.734H23.961V40.078Zm0,0" transform="translate(-20.05 -33.536)" fill="#ddede5"/>
      <path id="Trazado_1092117" data-name="Trazado 1092117" d="M48.626,53.961H23.961v2.468H99.717V53.961Zm0,0" transform="translate(-20.05 -45.152)" fill="#ceddd5"/>
      <path id="Trazado_1092118" data-name="Trazado 1092118" d="M480.234,31.945v3.918a2.367,2.367,0,1,1-4.734,0V31.945a2.367,2.367,0,1,1,4.734,0Zm0,0" transform="translate(-397.879 -24.75)" fill="#feb12e"/>
      <path id="Trazado_1092119" data-name="Trazado 1092119" d="M12.234,31.945v3.918a2.367,2.367,0,0,1-4.734,0V31.945a2.367,2.367,0,0,1,4.734,0Zm0,0" transform="translate(-6.276 -24.75)" fill="#feb12e"/>
      <path id="Trazado_1092120" data-name="Trazado 1092120" d="M9.867,35.863V31.945A2.363,2.363,0,0,1,11.05,29.9,2.364,2.364,0,0,0,7.5,31.945v3.918a2.365,2.365,0,0,0,3.55,2.048,2.365,2.365,0,0,1-1.183-2.048Zm0,0" transform="translate(-6.276 -24.75)" fill="#f49b19"/>
      <path id="Trazado_1092121" data-name="Trazado 1092121" d="M477.867,29.578a2.369,2.369,0,0,0-2.367,2.367v3.918a2.367,2.367,0,1,0,4.734,0V31.945A2.367,2.367,0,0,0,477.867,29.578Zm0,0" transform="translate(-397.879 -24.75)" fill="#feb12e"/>
      <path id="Trazado_1092122" data-name="Trazado 1092122" d="M368.149,264.078v7.1a12.325,12.325,0,0,1-24.649,0v-7.1Zm0,0" transform="translate(-287.427 -220.97)" fill="#c57d4e"/>
      <path id="Trazado_1092123" data-name="Trazado 1092123" d="M42.149,264.078v7.1a12.325,12.325,0,0,1-24.649,0v-7.1Zm0,0" transform="translate(-14.643 -220.97)" fill="#c57d4e"/>
      <path id="Trazado_1092124" data-name="Trazado 1092124" d="M351.417,271.179v-7.1H343.5v7.1a12.325,12.325,0,0,0,16.283,11.672A12.327,12.327,0,0,1,351.417,271.179Zm0,0" transform="translate(-287.427 -220.97)" fill="#b7693d"/>
      <path id="Trazado_1092125" data-name="Trazado 1092125" d="M25.417,271.179v-7.1H17.5v7.1a12.325,12.325,0,0,0,16.283,11.672A12.327,12.327,0,0,1,25.417,271.179Zm0,0" transform="translate(-14.643 -220.97)" fill="#b7693d"/>
      <path id="Trazado_1092126" data-name="Trazado 1092126" d="M33.374,251.078a2.2,2.2,0,1,1,0,4.408H9.7a2.2,2.2,0,1,1,0-4.408Zm0,0" transform="translate(-6.276 -210.092)" fill="#984537"/>
      <path id="Trazado_1092127" data-name="Trazado 1092127" d="M202.961,10.313v7.621H197.3V10.313A2.814,2.814,0,0,1,200.113,7.5h.036A2.814,2.814,0,0,1,202.961,10.313Zm0,0" transform="translate(-165.093 -6.276)" fill="#f4ae7a"/>
      <path id="Trazado_1092128" data-name="Trazado 1092128" d="M200.417,10.313a2.809,2.809,0,0,1,1.273-2.352,2.8,2.8,0,0,0-1.54-.461h-.036a2.814,2.814,0,0,0-2.813,2.813v7.621h3.116Zm0,0" transform="translate(-165.094 -6.276)" fill="#f2a16b"/>
      <path id="Trazado_1092129" data-name="Trazado 1092129" d="M237.639,17.934v.142a2.853,2.853,0,0,0-.888-.142H231.98V10.313a2.83,2.83,0,0,1,5.659.018Zm0,0" transform="translate(-194.112 -6.276)" fill="#f4ae7a"/>
      <path id="Trazado_1092130" data-name="Trazado 1092130" d="M236.367,7.968a2.829,2.829,0,0,0-4.387,2.345v7.621H235.1V10.313a2.83,2.83,0,0,1,1.271-2.345Zm0,0" transform="translate(-194.112 -6.276)" fill="#f2a16b"/>
      <path id="Trazado_1092131" data-name="Trazado 1092131" d="M269.479,7.5a2.831,2.831,0,0,0-2.831,2.831v8.355l1.909.072a2.881,2.881,0,0,0,.922.156,2.83,2.83,0,0,0,2.831-2.813V10.313A2.831,2.831,0,0,0,269.479,7.5Zm0,0" transform="translate(-223.121 -6.276)" fill="#f4ae7a"/>
      <path id="Trazado_1092132" data-name="Trazado 1092132" d="M269.764,18.685V10.331a2.823,2.823,0,0,1,.829-2,2.877,2.877,0,0,1,.443-.361,2.83,2.83,0,0,0-4.388,2.363v8.355l1.909.072a2.881,2.881,0,0,0,.922.156,2.811,2.811,0,0,0,1.041-.2Zm0,0" transform="translate(-223.121 -6.276)" fill="#f2a16b"/>
      <path id="Trazado_1092133" data-name="Trazado 1092133" d="M193.543,59.69a2.834,2.834,0,0,1-2.8,2.388h-8.288v2.778h.589a6.791,6.791,0,0,1,6.79,6.791v6.47a1.2,1.2,0,0,1-1.2,1.2h-5.6A6.034,6.034,0,0,1,177,73.271V60.161a3.744,3.744,0,0,1,3.745-3.743h10a2.853,2.853,0,0,1,.888.142v0a2.83,2.83,0,0,1,1.909,3.128Zm0,0" transform="translate(-148.107 -47.208)" fill="#fcba88"/>
      <path id="Trazado_1092134" data-name="Trazado 1092134" d="M220.73,68.557a2.818,2.818,0,0,1-2,.829h-7.142a1.145,1.145,0,0,0-1.145,1.145v.876h8.288a2.826,2.826,0,0,0,2.642-3.84A2.821,2.821,0,0,1,220.73,68.557Zm0,0" transform="translate(-176.089 -56.537)" fill="#f7ad7c"/>
      <path id="Trazado_1092135" data-name="Trazado 1092135" d="M179.837,73.271V60.161a3.744,3.744,0,0,1,3.744-3.743h-2.836A3.744,3.744,0,0,0,177,60.161v13.11a6.035,6.035,0,0,0,6.042,6.041h2.836a6.034,6.034,0,0,1-6.041-6.041Zm0,0" transform="translate(-148.107 -47.208)" fill="#f7ad7c"/>
      <path id="Trazado_1092136" data-name="Trazado 1092136" d="M306.988,10.313V16.1a2.811,2.811,0,0,1-2.813,2.813h-.036a2.813,2.813,0,0,1-2.811-2.813V10.313A2.813,2.813,0,0,1,304.139,7.5h.036A2.813,2.813,0,0,1,306.988,10.313Zm0,0" transform="translate(-252.139 -6.276)" fill="#f4ae7a"/>
      <path id="Trazado_1092137" data-name="Trazado 1092137" d="M304.444,16.1V10.313a2.809,2.809,0,0,1,1.272-2.352,2.8,2.8,0,0,0-1.541-.461h-.036a2.813,2.813,0,0,0-2.811,2.813V16.1a2.813,2.813,0,0,0,2.811,2.813h.036a2.8,2.8,0,0,0,1.541-.461,2.809,2.809,0,0,1-1.272-2.352Zm0,0" transform="translate(-252.139 -6.276)" fill="#f2a16b"/>
      <path id="Trazado_1092138" data-name="Trazado 1092138" d="M359.933,251.722a2.2,2.2,0,0,1-1.559,3.763H334.7a2.2,2.2,0,1,1,0-4.407h23.67A2.2,2.2,0,0,1,359.933,251.722Zm0,0" transform="translate(-278.223 -210.092)" fill="#984537"/>
      <path id="Trazado_1092139" data-name="Trazado 1092139" d="M477.867,35.863V31.945A2.359,2.359,0,0,1,479.05,29.9a2.366,2.366,0,0,0-3.55,2.048v3.918a2.365,2.365,0,0,0,3.55,2.048,2.365,2.365,0,0,1-1.184-2.048Zm0,0" transform="translate(-397.879 -24.75)" fill="#f49b19"/>
      <path id="Trazado_1092140" data-name="Trazado 1092140" d="M79.988,14.7a3.6,3.6,0,0,0,3.591-3.591V7.2a3.59,3.59,0,0,0-6.651-1.877H56.073V4.037A4.042,4.042,0,0,0,52.036,0H52a4.021,4.021,0,0,0-2.818,1.15,4.044,4.044,0,0,0-5.655,0,4.045,4.045,0,0,0-5.655-.005A4.024,4.024,0,0,0,35.056,0H35.02a4.042,4.042,0,0,0-4.037,4.037V5.318h-7a1.224,1.224,0,1,0,0,2.449h7v.5a4.989,4.989,0,0,0-2.375,1.782H17.56l-.666-2.285h2.188a1.224,1.224,0,1,0,0-2.449H6.651A3.59,3.59,0,0,0,0,7.2v3.918A3.591,3.591,0,0,0,6.9,12.5h5.349L4.314,39.762H3.428a3.425,3.425,0,0,0-1.8,6.343v4.1a13.549,13.549,0,0,0,27.1,0V46.2A3.427,3.427,0,0,0,27.1,39.762h-.886L18.273,12.5h9.418c-.013.149-.022.3-.022.453v13.11a7.273,7.273,0,0,0,4.024,6.5V55.6h-.923a1.224,1.224,0,1,0,0,2.449H52.808a1.224,1.224,0,0,0,0-2.449h-.924v-10.2a1.224,1.224,0,1,0-2.449,0V55.6H34.143V33.285a7.383,7.383,0,0,0,.793.044h.738a1.224,1.224,0,1,0,0-2.449h-.738a4.823,4.823,0,0,1-4.817-4.817V12.953a2.522,2.522,0,0,1,2.519-2.519h10a1.607,1.607,0,0,1,1.606,1.606,1.557,1.557,0,0,1-.02.239c0,.02-.007.04-.009.059a1.607,1.607,0,0,1-1.577,1.307H34.352a1.224,1.224,0,0,0-1.224,1.224v2.779a1.224,1.224,0,0,0,1.224,1.224h.589a5.573,5.573,0,0,1,5.567,5.567,1.224,1.224,0,1,0,2.449,0,8.027,8.027,0,0,0-7.38-7.99v-.355h7.064a4.057,4.057,0,0,0,3.622-2.236c.032,0,.064,0,.1,0a4.037,4.037,0,0,0,2.824-1.15A4.026,4.026,0,0,0,52,13.861h.036a4.1,4.1,0,0,0,.673-.057V26.063a4.823,4.823,0,0,1-4.817,4.817,1.224,1.224,0,0,0,0,2.449,7.254,7.254,0,0,0,1.544-.167V40.5a1.224,1.224,0,0,0,2.449,0V32.129a7.264,7.264,0,0,0,3.273-6.066V12.5H65.305L57.366,39.762h-.885A3.427,3.427,0,0,0,54.849,46.2v4.006a13.549,13.549,0,1,0,27.1,0V46.1a3.425,3.425,0,0,0-1.8-6.343h-.886L71.326,12.5h5.349a3.6,3.6,0,0,0,3.312,2.2ZM15.01,10.052H7.182V7.767h7.162Zm-11.419,2.2a1.144,1.144,0,0,1-1.143-1.143V7.2a1.143,1.143,0,1,1,2.285,0v3.918A1.144,1.144,0,0,1,3.591,12.256Zm22.69,37.953a11.1,11.1,0,1,1-22.2,0V46.618h22.2Zm1.8-7.019a.981.981,0,0,1-.979.979H3.428a.979.979,0,1,1,0-1.959H27.1A.981.981,0,0,1,28.077,43.19Zm-4.416-3.428H6.864L14.8,12.5h.919Zm46.057-29.71h-1.15l.666-2.285H76.4v2.285Zm10.269-4A1.144,1.144,0,0,1,81.13,7.2v3.918a1.143,1.143,0,0,1-2.285,0V7.2A1.144,1.144,0,0,1,79.988,6.053ZM40.7,2.449A1.608,1.608,0,0,1,42.3,4.055V7.985H39.092V4.055A1.608,1.608,0,0,1,40.7,2.449ZM33.432,4.037A1.59,1.59,0,0,1,35.02,2.449h.036a1.59,1.59,0,0,1,1.588,1.588V7.985H33.432V4.037Zm13.21,7.35A4.063,4.063,0,0,0,44.753,8.58V4.055a1.606,1.606,0,1,1,3.211,0V9.807a1.608,1.608,0,0,1-1.322,1.579ZM52,11.413a1.59,1.59,0,0,1-1.588-1.588V4.037A1.59,1.59,0,0,1,52,2.449h.036a1.59,1.59,0,0,1,1.588,1.588V9.824a1.59,1.59,0,0,1-1.588,1.588Zm4.065-1.361c0-.075.007-.151.007-.228V7.767H66.684l-.666,2.285ZM79.5,50.209a11.1,11.1,0,1,1-22.2,0V46.618H79.5ZM81.13,43.19a.981.981,0,0,1-.979.979H56.481a.979.979,0,1,1,0-1.959h23.67A.981.981,0,0,1,81.13,43.19Zm-4.416-3.428h-16.8L67.856,12.5h.919Zm0,0" transform="translate(0 0)"/>
    </g>
  </g>
</svg>
