<svg xmlns="http://www.w3.org/2000/svg" width="84.237" height="105" viewBox="0 0 84.237 105">
  <g id="Grupo_1220126" data-name="Grupo 1220126" transform="translate(-153.5 -2678.102)">
    <rect id="Rectángulo_421283" data-name="Rectángulo 421283" width="57" height="105" transform="translate(180.737 2678.102)" fill="#cbd0dc"/>
    <g id="obligation_9882248" transform="translate(154.5 2684.359)">
      <g id="Grupo_1220125" data-name="Grupo 1220125" transform="translate(0 0)">
        <g id="Grupo_1220103" data-name="Grupo 1220103" transform="translate(25.641 39.415)">
          <g id="Grupo_1220102" data-name="Grupo 1220102" transform="translate(0 0)">
            <g id="Grupo_1220101" data-name="Grupo 1220101">
              <rect id="Rectángulo_421282" data-name="Rectángulo 421282" width="24.763" height="6.148" fill="#fd4755"/>
              <line id="Línea_669" data-name="Línea 669" x2="24.412" transform="translate(0.176 6.148)" fill="none" stroke="#000" stroke-linecap="round" stroke-linejoin="round" stroke-miterlimit="10" stroke-width="2"/>
              <g id="Grupo_1220100" data-name="Grupo 1220100" transform="translate(3.314)">
                <g id="Grupo_1220097" data-name="Grupo 1220097" transform="translate(14.138)">
                  <line id="Línea_670" data-name="Línea 670" y1="6.148" x2="4.204" fill="none" stroke="#000" stroke-linecap="round" stroke-linejoin="round" stroke-miterlimit="10" stroke-width="2"/>
                </g>
                <g id="Grupo_1220098" data-name="Grupo 1220098" transform="translate(7.069)">
                  <line id="Línea_671" data-name="Línea 671" y1="6.148" x2="4.204" fill="none" stroke="#000" stroke-linecap="round" stroke-linejoin="round" stroke-miterlimit="10" stroke-width="2"/>
                </g>
                <g id="Grupo_1220099" data-name="Grupo 1220099">
                  <line id="Línea_672" data-name="Línea 672" y1="6.148" x2="4.204" fill="none" stroke="#000" stroke-linecap="round" stroke-linejoin="round" stroke-miterlimit="10" stroke-width="2"/>
                </g>
              </g>
            </g>
          </g>
        </g>
        <g id="Grupo_1220110" data-name="Grupo 1220110" transform="translate(43.791 12.343)">
          <g id="Grupo_1220104" data-name="Grupo 1220104" transform="translate(6.438)">
            <path id="Trazado_1091614" data-name="Trazado 1091614" d="M343.825,99.832V79.34a1.639,1.639,0,0,0-1.639-1.639H326.65a1.639,1.639,0,0,0-1.639,1.639V99.832Z" transform="translate(-325.011 -77.701)" fill="#ffcebf"/>
            <path id="Trazado_1091615" data-name="Trazado 1091615" d="M325.011,236.536v13.693a8.3,8.3,0,0,1,2.082-.264h15.359a8.331,8.331,0,0,1,1.372.115V236.536H325.011Z" transform="translate(-325.011 -208.609)" fill="#ffcebf"/>
          </g>
          <g id="Grupo_1220105" data-name="Grupo 1220105" transform="translate(18.091)">
            <path id="Trazado_1091616" data-name="Trazado 1091616" d="M392.927,79.34V99.832h5.522V79.34a1.639,1.639,0,0,0-1.639-1.639h-5.521A1.64,1.64,0,0,1,392.927,79.34Z" transform="translate(-391.288 -77.701)" fill="#ffb09e"/>
            <path id="Trazado_1091617" data-name="Trazado 1091617" d="M400.612,236.536v13.429h4.149a8.329,8.329,0,0,1,1.372.115V236.536h-5.522Z" transform="translate(-398.973 -208.609)" fill="#ffb09e"/>
          </g>
          <g id="Grupo_1220106" data-name="Grupo 1220106" transform="translate(6.438)">
            <path id="Trazado_1091618" data-name="Trazado 1091618" d="M343.825,250.7v-13.16H325.011v13.305" transform="translate(-325.011 -209.434)" fill="none" stroke="#000" stroke-linecap="round" stroke-linejoin="round" stroke-miterlimit="10" stroke-width="2"/>
            <path id="Trazado_1091619" data-name="Trazado 1091619" d="M325.011,92.347v7.309h18.814V79.34a1.639,1.639,0,0,0-1.639-1.639H326.65a1.639,1.639,0,0,0-1.639,1.639v6.853" transform="translate(-325.011 -77.701)" fill="none" stroke="#000" stroke-linecap="round" stroke-linejoin="round" stroke-miterlimit="10" stroke-width="2"/>
          </g>
          <g id="Grupo_1220109" data-name="Grupo 1220109" transform="translate(0 41.151)">
            <g id="Grupo_1220107" data-name="Grupo 1220107" transform="translate(0 0)">
              <path id="Trazado_1091620" data-name="Trazado 1091620" d="M288.556,332.158a3.621,3.621,0,0,1,7.243,0h.325a3.621,3.621,0,0,1,7.243,0h.325a3.6,3.6,0,0,1,1.64-3.031l.576.121a3.649,3.649,0,0,1-2.214-3.175,3.622,3.622,0,0,1,3.619-3.754h3.845V311.749H296.914a8.52,8.52,0,0,0-8.52,8.52v11.889Z" transform="translate(-288.394 -311.749)" fill="#ffa78f"/>
            </g>
            <path id="Trazado_1091621" data-name="Trazado 1091621" d="M312.273,311.749H296.913a8.52,8.52,0,0,0-8.52,8.52v14.254" transform="translate(-288.393 -311.749)" fill="none" stroke="#000" stroke-linecap="round" stroke-linejoin="round" stroke-miterlimit="10" stroke-width="2"/>
            <path id="Trazado_1091622" data-name="Trazado 1091622" d="M292.177,419.3h0a3.784,3.784,0,0,0,3.784-3.784v-5.426a3.784,3.784,0,0,0-3.784-3.784h0a3.784,3.784,0,0,0-3.784,3.784v5.426A3.784,3.784,0,0,0,292.177,419.3Z" transform="translate(-288.393 -389.683)" fill="#ffcebf"/>
            <path id="Trazado_1091623" data-name="Trazado 1091623" d="M300.936,406.308h0a3.76,3.76,0,0,0-1.915.524,3.778,3.778,0,0,1,1.869,3.259v5.426a3.779,3.779,0,0,1-1.869,3.259,3.762,3.762,0,0,0,1.915.524h0a3.784,3.784,0,0,0,3.784-3.784v-5.426A3.784,3.784,0,0,0,300.936,406.308Z" transform="translate(-297.152 -389.683)" fill="#ffb09e"/>
            <path id="Trazado_1091624" data-name="Trazado 1091624" d="M292.177,419.3h0a3.784,3.784,0,0,0,3.784-3.784v-5.426a3.784,3.784,0,0,0-3.784-3.784h0a3.784,3.784,0,0,0-3.784,3.784v5.426A3.784,3.784,0,0,0,292.177,419.3Z" transform="translate(-288.393 -389.683)" fill="none" stroke="#000" stroke-linecap="round" stroke-linejoin="round" stroke-miterlimit="10" stroke-width="2"/>
            <path id="Trazado_1091625" data-name="Trazado 1091625" d="M339,419.788v-9.7a3.784,3.784,0,0,0-3.784-3.784h0a3.784,3.784,0,0,0-3.784,3.784v9.7a3.784,3.784,0,0,0,3.784,3.784h0A3.784,3.784,0,0,0,339,419.788Z" transform="translate(-323.868 -389.683)" fill="#ffcebf"/>
            <path id="Trazado_1091626" data-name="Trazado 1091626" d="M343.978,406.308a3.76,3.76,0,0,0-1.915.524,3.778,3.778,0,0,1,1.869,3.259v9.7a3.779,3.779,0,0,1-1.869,3.259,3.779,3.779,0,0,0,5.7-3.259v-9.7A3.784,3.784,0,0,0,343.978,406.308Z" transform="translate(-332.627 -389.683)" fill="#ffb09e"/>
            <path id="Trazado_1091627" data-name="Trazado 1091627" d="M339,419.788v-9.7a3.784,3.784,0,0,0-3.784-3.784h0a3.784,3.784,0,0,0-3.784,3.784v9.7a3.784,3.784,0,0,0,3.784,3.784h0A3.784,3.784,0,0,0,339,419.788Z" transform="translate(-323.868 -389.683)" fill="none" stroke="#000" stroke-linecap="round" stroke-linejoin="round" stroke-miterlimit="10" stroke-width="2"/>
            <path id="Trazado_1091628" data-name="Trazado 1091628" d="M423.156,410.653H417.52V420.2a3.784,3.784,0,0,0,3.784,3.784h0a3.784,3.784,0,0,0,3.784-3.784V410.139A3.871,3.871,0,0,1,423.156,410.653Z" transform="translate(-394.817 -392.84)" fill="#ffcebf"/>
            <path id="Trazado_1091629" data-name="Trazado 1091629" d="M431.916,410.653h-1.9V420.2a3.779,3.779,0,0,1-1.869,3.259,3.762,3.762,0,0,0,1.915.524h0a3.784,3.784,0,0,0,3.784-3.784V410.139A3.872,3.872,0,0,1,431.916,410.653Z" transform="translate(-403.577 -392.84)" fill="#ffb09e"/>
            <path id="Trazado_1091630" data-name="Trazado 1091630" d="M417.52,411.7v9.385a3.784,3.784,0,0,0,3.784,3.784h0a3.784,3.784,0,0,0,3.784-3.784v-9.873" transform="translate(-394.817 -393.725)" fill="none" stroke="#000" stroke-linecap="round" stroke-linejoin="round" stroke-miterlimit="10" stroke-width="2"/>
            <path id="Trazado_1091631" data-name="Trazado 1091631" d="M378.262,426.2a3.784,3.784,0,0,0,3.784-3.784V410.119h-3.693a3.74,3.74,0,0,1-2.071-.628,3.782,3.782,0,0,0-1.8,3.224v9.7A3.784,3.784,0,0,0,378.262,426.2Z" transform="translate(-359.342 -392.306)" fill="#ffcebf"/>
            <g id="Grupo_1220108" data-name="Grupo 1220108" transform="translate(17.004 17.969)">
              <path id="Trazado_1091632" data-name="Trazado 1091632" d="M387.112,413.958c-.046,0-.091-.005-.137-.007v12.137a3.779,3.779,0,0,1-1.869,3.259,3.779,3.779,0,0,0,5.7-3.259v-12.13Z" transform="translate(-385.106 -413.951)" fill="#ffb09e"/>
            </g>
            <path id="Trazado_1091633" data-name="Trazado 1091633" d="M376.127,410.057a3.779,3.779,0,0,0-1.65,3.125v9.7a3.784,3.784,0,0,0,7.568,0v-12.13" transform="translate(-359.342 -392.772)" fill="none" stroke="#000" stroke-linecap="round" stroke-linejoin="round" stroke-miterlimit="10" stroke-width="2"/>
            <path id="Trazado_1091634" data-name="Trazado 1091634" d="M374.48,326.079a3.843,3.843,0,0,0,3.872,3.646h9.329a4.06,4.06,0,0,0,4.06-4.06v-5.4a8.52,8.52,0,0,0-8.52-8.52h-1.278v10.408h-3.683A3.784,3.784,0,0,0,374.48,326.079Z" transform="translate(-359.342 -311.749)" fill="#ffa78f"/>
            <path id="Trazado_1091635" data-name="Trazado 1091635" d="M387.149,317.18a8.48,8.48,0,0,1,.933,3.875v5.4a4.06,4.06,0,0,1-4.06,4.06h-9.329c-.068,0-.136-.006-.2-.01,0,.018,0,.036,0,.054a3.843,3.843,0,0,0,3.872,3.646h9.329a4.06,4.06,0,0,0,4.06-4.06v-5.4A8.517,8.517,0,0,0,387.149,317.18Z" transform="translate(-359.352 -316.225)" fill="#f89580"/>
            <path id="Trazado_1091636" data-name="Trazado 1091636" d="M381.944,311.749h1.278a8.52,8.52,0,0,1,8.52,8.52v5.4a4.06,4.06,0,0,1-4.06,4.06h-9.329a3.843,3.843,0,0,1-3.872-3.646,3.784,3.784,0,0,1,3.781-3.922h3.683v-3.113" transform="translate(-359.342 -311.749)" fill="none" stroke="#000" stroke-linecap="round" stroke-linejoin="round" stroke-miterlimit="10" stroke-width="2"/>
          </g>
        </g>
        <g id="Grupo_1220117" data-name="Grupo 1220117" transform="translate(0 0)">
          <path id="Trazado_1091637" data-name="Trazado 1091637" d="M81.245,197.848H96.6a8.329,8.329,0,0,0,1.372-.115v39.831a1.639,1.639,0,0,1-1.639,1.639H80.8a1.639,1.639,0,0,1-1.639-1.639v-39.98A8.3,8.3,0,0,0,81.245,197.848Z" transform="translate(-72.16 -164.163)" fill="#bb5d4c"/>
          <g id="Grupo_1220111" data-name="Grupo 1220111" transform="translate(18.63 33.57)">
            <path id="Trazado_1091638" data-name="Trazado 1091638" d="M151.1,198.545h-4.176v39.716a1.639,1.639,0,0,1-1.639,1.639h5.548a1.639,1.639,0,0,0,1.639-1.639V198.43A8.327,8.327,0,0,1,151.1,198.545Z" transform="translate(-145.287 -198.43)" fill="#a44f3e"/>
          </g>
          <g id="Grupo_1220112" data-name="Grupo 1220112" transform="translate(7.003 33.666)">
            <path id="Trazado_1091639" data-name="Trazado 1091639" d="M79.163,199.064v10.78H97.977V198.978" transform="translate(-79.163 -198.978)" fill="none" stroke="#000" stroke-linecap="round" stroke-linejoin="round" stroke-miterlimit="10" stroke-width="2"/>
            <path id="Trazado_1091640" data-name="Trazado 1091640" d="M79.163,311.7v6.765a1.639,1.639,0,0,0,1.639,1.639H96.337a1.639,1.639,0,0,0,1.639-1.639V295.746H79.163v9.8" transform="translate(-79.163 -278.732)" fill="none" stroke="#000" stroke-linecap="round" stroke-linejoin="round" stroke-miterlimit="10" stroke-width="2"/>
          </g>
          <g id="Grupo_1220116" data-name="Grupo 1220116">
            <g id="Grupo_1220113" data-name="Grupo 1220113" transform="translate(9.635 13.48)">
              <path id="Trazado_1091641" data-name="Trazado 1091641" d="M116.734,84.171a3.621,3.621,0,0,1-7.243,0h-.325a3.621,3.621,0,0,1-7.243,0H101.6a3.6,3.6,0,0,1-1.64,3.031l-.576-.121a3.648,3.648,0,0,1,2.214,3.175,3.622,3.622,0,0,1-3.619,3.754H94.132V104.58h14.244a8.52,8.52,0,0,0,8.52-8.52V84.171h-.162Z" transform="translate(-94.132 -84.171)" fill="#d78878"/>
            </g>
            <path id="Trazado_1091642" data-name="Trazado 1091642" d="M159.877,84.171a3.621,3.621,0,0,1-4.878,3.4V96.06a8.52,8.52,0,0,1-8.52,8.52h5.04a8.52,8.52,0,0,0,8.52-8.52V84.171Z" transform="translate(-127.64 -70.691)" fill="#c96e59"/>
            <path id="Trazado_1091643" data-name="Trazado 1091643" d="M87.79,93.495h15.359a8.52,8.52,0,0,0,8.52-8.52V70.72" transform="translate(-79.27 -59.605)" fill="none" stroke="#000" stroke-linecap="round" stroke-linejoin="round" stroke-miterlimit="10" stroke-width="2"/>
            <path id="Trazado_1091644" data-name="Trazado 1091644" d="M184.349,31.787h0a3.784,3.784,0,0,0-3.784,3.784V41a3.784,3.784,0,0,0,3.784,3.784h0A3.784,3.784,0,0,0,188.133,41V35.571A3.784,3.784,0,0,0,184.349,31.787Z" transform="translate(-155.733 -27.517)" fill="#bb5d4c"/>
            <path id="Trazado_1091645" data-name="Trazado 1091645" d="M194.3,31.787h0a3.768,3.768,0,0,0-1.66.383,3.784,3.784,0,0,1,2.124,3.4V41a3.784,3.784,0,0,1-2.124,3.4,3.768,3.768,0,0,0,1.66.383h0A3.784,3.784,0,0,0,198.089,41V35.571A3.784,3.784,0,0,0,194.3,31.787Z" transform="translate(-165.689 -27.517)" fill="#a44f3e"/>
            <path id="Trazado_1091646" data-name="Trazado 1091646" d="M184.349,31.787h0a3.784,3.784,0,0,0-3.784,3.784V41a3.784,3.784,0,0,0,3.784,3.784h0A3.784,3.784,0,0,0,188.133,41V35.571A3.784,3.784,0,0,0,184.349,31.787Z" transform="translate(-155.733 -27.517)" fill="none" stroke="#000" stroke-linecap="round" stroke-linejoin="round" stroke-miterlimit="10" stroke-width="2"/>
            <path id="Trazado_1091647" data-name="Trazado 1091647" d="M137.523,11.284v9.7a3.784,3.784,0,0,0,3.784,3.784h0a3.784,3.784,0,0,0,3.784-3.784v-9.7A3.784,3.784,0,0,0,141.307,7.5h0A3.784,3.784,0,0,0,137.523,11.284Z" transform="translate(-120.259 -7.5)" fill="#bb5d4c"/>
            <path id="Trazado_1091648" data-name="Trazado 1091648" d="M151.109,7.5a3.765,3.765,0,0,0-1.693.4,3.783,3.783,0,0,1,2.091,3.384v9.7a3.783,3.783,0,0,1-2.091,3.384,3.784,3.784,0,0,0,5.477-3.384v-9.7A3.784,3.784,0,0,0,151.109,7.5Z" transform="translate(-130.061 -7.5)" fill="#a44f3e"/>
            <path id="Trazado_1091649" data-name="Trazado 1091649" d="M137.523,11.284v9.7a3.784,3.784,0,0,0,3.784,3.784h0a3.784,3.784,0,0,0,3.784-3.784v-9.7A3.784,3.784,0,0,0,141.307,7.5h0A3.784,3.784,0,0,0,137.523,11.284Z" transform="translate(-120.259 -7.5)" fill="none" stroke="#000" stroke-linecap="round" stroke-linejoin="round" stroke-miterlimit="10" stroke-width="2"/>
            <path id="Trazado_1091650" data-name="Trazado 1091650" d="M53.37,36.443h5.636V26.9a3.784,3.784,0,0,0-3.784-3.784h0A3.784,3.784,0,0,0,51.438,26.9V36.958A3.872,3.872,0,0,1,53.37,36.443Z" transform="translate(-49.309 -20.367)" fill="#bb5d4c"/>
            <g id="Grupo_1220114" data-name="Grupo 1220114" transform="translate(4.235 2.745)">
              <path id="Trazado_1091651" data-name="Trazado 1091651" d="M65.1,23.112h0a3.768,3.768,0,0,0-1.678.392A3.783,3.783,0,0,1,65.524,26.9v9.547h3.355V26.9A3.784,3.784,0,0,0,65.1,23.112Z" transform="translate(-63.418 -23.112)" fill="#a44f3e"/>
            </g>
            <path id="Trazado_1091652" data-name="Trazado 1091652" d="M59.006,36.281V26.9a3.784,3.784,0,0,0-3.784-3.784h0A3.784,3.784,0,0,0,51.438,26.9v.471" transform="translate(-49.309 -20.367)" fill="none" stroke="#000" stroke-linecap="round" stroke-linejoin="round" stroke-miterlimit="10" stroke-width="2"/>
            <line id="Línea_673" data-name="Línea 673" y2="3.717" transform="translate(2.129 12.685)" fill="none" stroke="#000" stroke-linecap="round" stroke-linejoin="round" stroke-miterlimit="10" stroke-width="2"/>
            <path id="Trazado_1091653" data-name="Trazado 1091653" d="M98.264,7.5a3.784,3.784,0,0,0-3.784,3.784V23.576h3.693a3.74,3.74,0,0,1,2.071.628,3.782,3.782,0,0,0,1.8-3.224v-9.7A3.784,3.784,0,0,0,98.264,7.5Z" transform="translate(-84.783 -7.5)" fill="#bb5d4c"/>
            <path id="Trazado_1091654" data-name="Trazado 1091654" d="M108.066,7.5a3.765,3.765,0,0,0-1.693.4,3.783,3.783,0,0,1,2.091,3.384v9.7a3.769,3.769,0,0,1-1.033,2.6h.544a3.74,3.74,0,0,1,2.071.628,3.782,3.782,0,0,0,1.8-3.224v-9.7A3.784,3.784,0,0,0,108.066,7.5Z" transform="translate(-94.585 -7.5)" fill="#a44f3e"/>
            <path id="Trazado_1091655" data-name="Trazado 1091655" d="M100.4,24.106a3.779,3.779,0,0,0,1.65-3.125v-9.7a3.784,3.784,0,1,0-7.568,0v12.13" transform="translate(-84.784 -7.501)" fill="none" stroke="#000" stroke-linecap="round" stroke-linejoin="round" stroke-miterlimit="10" stroke-width="2"/>
            <path id="Trazado_1091656" data-name="Trazado 1091656" d="M56.592,101.657a3.843,3.843,0,0,0-3.872-3.646H43.39a4.06,4.06,0,0,0-4.06,4.06v5.4a8.52,8.52,0,0,0,8.52,8.52h1.278V105.579H52.81A3.784,3.784,0,0,0,56.592,101.657Z" transform="translate(-39.33 -82.097)" fill="#d78878"/>
            <g id="Grupo_1220115" data-name="Grupo 1220115" transform="translate(0 15.914)">
              <path id="Trazado_1091657" data-name="Trazado 1091657" d="M56.592,101.657a3.843,3.843,0,0,0-3.872-3.646H43.39a4.06,4.06,0,0,0-4.06,4.06v.007a4.04,4.04,0,0,1,2.347-.748h9.329a3.843,3.843,0,0,1,3.871,3.632A3.779,3.779,0,0,0,56.592,101.657Z" transform="translate(-39.33 -98.011)" fill="#c96e59"/>
            </g>
            <path id="Trazado_1091658" data-name="Trazado 1091658" d="M49.128,115.987H47.85a8.52,8.52,0,0,1-8.52-8.52v-5.4a4.06,4.06,0,0,1,4.06-4.06H52.72a3.843,3.843,0,0,1,3.872,3.646,3.784,3.784,0,0,1-3.781,3.922H49.128v3.113" transform="translate(-39.33 -82.097)" fill="none" stroke="#000" stroke-linecap="round" stroke-linejoin="round" stroke-miterlimit="10" stroke-width="2"/>
          </g>
        </g>
        <g id="Grupo_1220120" data-name="Grupo 1220120" transform="translate(46.299 34.298)">
          <g id="Grupo_1220119" data-name="Grupo 1220119">
            <path id="Trazado_1091659" data-name="Trazado 1091659" d="M326.26,202.571H305.734a3.074,3.074,0,0,0-3.074,3.074h0a3.074,3.074,0,0,0,3.074,3.074H326.26a3.074,3.074,0,0,0,3.074-3.074h0A3.074,3.074,0,0,0,326.26,202.571Z" transform="translate(-302.66 -202.571)" fill="#fd8087"/>
            <path id="Trazado_1091660" data-name="Trazado 1091660" d="M326.26,202.571H305.734a3.074,3.074,0,0,0-3.074,3.074h0a3.074,3.074,0,0,0,3.074,3.074H326.26a3.074,3.074,0,0,0,3.074-3.074h0A3.074,3.074,0,0,0,326.26,202.571Z" transform="translate(-302.66 -202.571)" fill="none" stroke="#000" stroke-linecap="round" stroke-linejoin="round" stroke-miterlimit="10" stroke-width="2"/>
            <g id="Grupo_1220118" data-name="Grupo 1220118" transform="translate(3.937)">
              <line id="Línea_674" data-name="Línea 674" y1="6.148" x2="4.204" transform="translate(14.595)" fill="none" stroke="#000" stroke-linecap="round" stroke-linejoin="round" stroke-miterlimit="10" stroke-width="2"/>
              <line id="Línea_675" data-name="Línea 675" y1="6.148" x2="4.204" transform="translate(7.298)" fill="none" stroke="#000" stroke-linecap="round" stroke-linejoin="round" stroke-miterlimit="10" stroke-width="2"/>
              <line id="Línea_676" data-name="Línea 676" y1="6.148" x2="4.204" fill="none" stroke="#000" stroke-linecap="round" stroke-linejoin="round" stroke-miterlimit="10" stroke-width="2"/>
            </g>
          </g>
        </g>
        <g id="Grupo_1220124" data-name="Grupo 1220124" transform="translate(3.074 44.532)">
          <g id="Grupo_1220123" data-name="Grupo 1220123">
            <g id="Grupo_1220122" data-name="Grupo 1220122">
              <path id="Trazado_1091661" data-name="Trazado 1091661" d="M80.412,260.781H59.886a3.074,3.074,0,0,0-3.074,3.074h0a3.074,3.074,0,0,0,3.074,3.074H80.412a3.074,3.074,0,0,0,3.074-3.074h0A3.074,3.074,0,0,0,80.412,260.781Z" transform="translate(-56.812 -260.781)" fill="#fd8087"/>
              <path id="Trazado_1091662" data-name="Trazado 1091662" d="M80.412,260.781H59.886a3.074,3.074,0,0,0-3.074,3.074h0a3.074,3.074,0,0,0,3.074,3.074H80.412a3.074,3.074,0,0,0,3.074-3.074h0A3.074,3.074,0,0,0,80.412,260.781Z" transform="translate(-56.812 -260.781)" fill="none" stroke="#000" stroke-linecap="round" stroke-linejoin="round" stroke-miterlimit="10" stroke-width="2"/>
              <g id="Grupo_1220121" data-name="Grupo 1220121" transform="translate(3.937)">
                <line id="Línea_677" data-name="Línea 677" y1="6.148" x2="4.204" transform="translate(14.595)" fill="none" stroke="#000" stroke-linecap="round" stroke-linejoin="round" stroke-miterlimit="10" stroke-width="2"/>
                <line id="Línea_678" data-name="Línea 678" y1="6.148" x2="4.204" transform="translate(7.298)" fill="none" stroke="#000" stroke-linecap="round" stroke-linejoin="round" stroke-miterlimit="10" stroke-width="2"/>
                <line id="Línea_679" data-name="Línea 679" y1="6.148" x2="4.204" fill="none" stroke="#000" stroke-linecap="round" stroke-linejoin="round" stroke-miterlimit="10" stroke-width="2"/>
              </g>
            </g>
          </g>
        </g>
      </g>
      <line id="Línea_680" data-name="Línea 680" x1="21.264" transform="translate(25.817 39.415)" fill="none" stroke="#000" stroke-linecap="round" stroke-linejoin="round" stroke-miterlimit="10" stroke-width="2"/>
    </g>
  </g>
</svg>
