<svg xmlns="http://www.w3.org/2000/svg" xmlns:xlink="http://www.w3.org/1999/xlink" width="103" height="103" viewBox="0 0 103 103">
  <defs>
    <filter id="Trazado_978624" x="0" y="0" width="103" height="103" filterUnits="userSpaceOnUse">
      <feOffset dy="3" input="SourceAlpha"/>
      <feGaussianBlur stdDeviation="3" result="blur"/>
      <feFlood flood-opacity="0.161"/>
      <feComposite operator="in" in2="blur"/>
      <feComposite in="SourceGraphic"/>
    </filter>
  </defs>
  <g id="Grupo_1220038" data-name="Grupo 1220038" transform="translate(-615 -4716)">
    <g id="Grupo_1219313" data-name="Grupo 1219313" transform="translate(0 537)">
      <g id="Grupo_1209912" data-name="Grupo 1209912" transform="translate(449.5 3121)">
        <g id="Grupo_1178144" data-name="Grupo 1178144" transform="translate(-19.5 -2004)">
          <g id="Grupo_1177896" data-name="Grupo 1177896" transform="translate(14 196)">
            <g id="Grupo_1176881" data-name="Grupo 1176881">
              <g id="Grupo_1175148" data-name="Grupo 1175148" transform="translate(0 1580)">
                <g id="Grupo_1173798" data-name="Grupo 1173798" transform="translate(-3 -3520)">
                  <g id="Grupo_1171925" data-name="Grupo 1171925" transform="translate(-22 -2246)">
                    <g id="Grupo_1164524" data-name="Grupo 1164524" transform="translate(205 7058)">
                      <g id="Grupo_1144123" data-name="Grupo 1144123">
                        <g transform="matrix(1, 0, 0, 1, -9, -6)" filter="url(#Trazado_978624)">
                          <g id="Trazado_978624-2" data-name="Trazado 978624" transform="translate(9 6)" fill="#e5f0f6">
                            <path d="M 42.5 83.5 C 36.96437835693359 83.5 31.59512901306152 82.41617584228516 26.54141235351562 80.27863311767578 C 21.65934181213379 78.21369171142578 17.27447128295898 75.25723266601562 13.50862312316895 71.49137878417969 C 9.742764472961426 67.72553253173828 6.786305904388428 63.34066009521484 4.721364498138428 58.45858764648438 C 2.583823442459106 53.40486907958984 1.5 48.03562164306641 1.5 42.5 C 1.5 36.96437835693359 2.583823442459106 31.59512901306152 4.721364498138428 26.54141235351562 C 6.786305904388428 21.65934181213379 9.742764472961426 17.27447128295898 13.50862312316895 13.50862312316895 C 17.27447128295898 9.742764472961426 21.65934181213379 6.786305904388428 26.54141235351562 4.721364498138428 C 31.59512901306152 2.583823442459106 36.96437835693359 1.5 42.5 1.5 C 48.03562164306641 1.5 53.40486907958984 2.583823442459106 58.45858764648438 4.721364498138428 C 63.34066009521484 6.786305904388428 67.72553253173828 9.742764472961426 71.49137878417969 13.50862312316895 C 75.25723266601562 17.27447128295898 78.21369171142578 21.65934181213379 80.27863311767578 26.54141235351562 C 82.41617584228516 31.59512901306152 83.5 36.96437835693359 83.5 42.5 C 83.5 48.03562164306641 82.41617584228516 53.40486907958984 80.27863311767578 58.45858764648438 C 78.21369171142578 63.34066009521484 75.25723266601562 67.72553253173828 71.49137878417969 71.49137878417969 C 67.72553253173828 75.25723266601562 63.34066009521484 78.21369171142578 58.45858764648438 80.27863311767578 C 53.40486907958984 82.41617584228516 48.03562164306641 83.5 42.5 83.5 Z" stroke="none"/>
                            <path d="M 42.5 3 C 37.16621398925781 3 31.99356079101562 4.043960571289062 27.125732421875 6.102882385253906 C 22.42246627807617 8.092185974121094 18.19785308837891 10.94070434570312 14.56928253173828 14.56928253173828 C 10.94070434570312 18.19785308837891 8.092185974121094 22.42246627807617 6.102882385253906 27.125732421875 C 4.043960571289062 31.99356079101562 3 37.16621398925781 3 42.5 C 3 47.83378601074219 4.043960571289062 53.00643920898438 6.102882385253906 57.87425231933594 C 8.092185974121094 62.57753372192383 10.94070434570312 66.80213165283203 14.56928253173828 70.43071746826172 C 18.19786834716797 74.05929565429688 22.42246627807617 76.90781402587891 27.125732421875 78.89711761474609 C 31.99356079101562 80.95603942871094 37.16621398925781 82 42.5 82 C 47.83378601074219 82 53.00642395019531 80.95603942871094 57.87425231933594 78.89711761474609 C 62.57753372192383 76.90781402587891 66.80213165283203 74.05929565429688 70.43071746826172 70.43071746826172 C 74.05929565429688 66.80213165283203 76.90781402587891 62.57753372192383 78.89711761474609 57.87425231933594 C 80.95603942871094 53.00642395019531 82 47.83378601074219 82 42.5 C 82 37.16621398925781 80.95603942871094 31.99356079101562 78.89711761474609 27.125732421875 C 76.90781402587891 22.42246627807617 74.05929565429688 18.19786834716797 70.43071746826172 14.56928253173828 C 66.80213165283203 10.94070434570312 62.57753372192383 8.092185974121094 57.87425231933594 6.102882385253906 C 53.00643920898438 4.043960571289062 47.83378601074219 3 42.5 3 M 42.5 0 C 65.97209167480469 0 85 19.02789306640625 85 42.5 C 85 65.97209167480469 65.97209167480469 85 42.5 85 C 19.02789306640625 85 0 65.97209167480469 0 42.5 C 0 19.02789306640625 19.02789306640625 0 42.5 0 Z" stroke="none" fill="#1172b3"/>
                          </g>
                        </g>
                      </g>
                    </g>
                  </g>
                </g>
              </g>
            </g>
          </g>
        </g>
      </g>
    </g>
    <g id="abogado_5_" data-name="abogado (5)" transform="translate(624.374 4719.279)">
      <g id="Grupo_1220036" data-name="Grupo 1220036" transform="translate(7.987 1.285)">
        <path id="Trazado_1091477" data-name="Trazado 1091477" d="M147.641,11.046h-5.47l-7.71,7.449-3.227,6.254V61.927h24.933l.6-4.87,5.62-9.093V30.044a19.612,19.612,0,0,0-14.747-19Z" transform="translate(-111.183 -10.439)" fill="#e79380"/>
        <path id="Trazado_1091478" data-name="Trazado 1091478" d="M93.885,27.352A19.864,19.864,0,0,1,108.669,8.108,19.62,19.62,0,0,0,84.205,27.352V58l.633.987h9.68L93.885,58Z" transform="translate(-72.211 -7.501)" fill="#df7e66"/>
        <path id="Trazado_1091479" data-name="Trazado 1091479" d="M62.966,318.94c.131-.443-4.209-22.671-4.209-22.671l.132-7.24L51.237,292l-3.752,3.685-.886,3.327v25.1l.744,1.413.364.424H62.966l.632-.681v-6.208c-.417-.029-.646-.067-.632-.116Z" transform="translate(-41.048 -240.795)" fill="#7b6c79"/>
        <path id="Trazado_1091480" data-name="Trazado 1091480" d="M20.256,336.725V313.893a11.775,11.775,0,0,1,5.047-9.611l-4.412,1.711A11.453,11.453,0,0,0,14.2,316.367v19.989a2.229,2.229,0,0,0,2.229,2.229h4.79A2.275,2.275,0,0,1,20.256,336.725Z" transform="translate(-14.202 -253.434)" fill="#665e68"/>
        <path id="Trazado_1091481" data-name="Trazado 1091481" d="M267.743,323.061a1.6,1.6,0,0,1-1.6-1.6v-2.711a1.6,1.6,0,0,1,1.6-1.6h1.552a4.933,4.933,0,0,1,2.5-5.2,10.6,10.6,0,0,0-4.388-3.514l-1.578-.611a3.737,3.737,0,0,1-1.454.293H258.3a3.732,3.732,0,0,1-2.42-.887v.136l2.426,5.311-6.131,21.345-.611.013v5.84l.611,1.152h19.69A2.229,2.229,0,0,0,274.1,338.8V323.061Z" transform="translate(-210.899 -255.878)" fill="#7b6c79"/>
        <path id="Trazado_1091482" data-name="Trazado 1091482" d="M202.12,320.69h-7.053v31.492h10.291V324.433Z" transform="translate(-164.079 -267.031)" fill="#b5dcff"/>
        <path id="Trazado_1091483" data-name="Trazado 1091483" d="M151.814,320.69h-6.692l-2.987,3.743v27.749h9.679Z" transform="translate(-120.216 -267.031)" fill="#8bcaff"/>
        <path id="Trazado_1091484" data-name="Trazado 1091484" d="M204.724,247.567l-1.417-.549a1.237,1.237,0,0,1-.79-1.15l0-4.143-.839-.534h-6.607v14.848H198l1.407-.571,5.711-6.586Z" transform="translate(-164.079 -201.153)" fill="#ffcebe"/>
        <path id="Trazado_1091485" data-name="Trazado 1091485" d="M154.868,241.19h-5.994l-.85.559v4.111c0,.946-.844,1.174-1.2,1.314l-1,.387.185,2.253,5.34,5.911,1.2.314h2.32V241.19Z" transform="translate(-123.271 -201.152)" fill="#ffb1a0"/>
        <path id="Trazado_1091486" data-name="Trazado 1091486" d="M106.293,279.8l-4.077,1.581L99.558,286.9a6.806,6.806,0,0,0-.26,5.3l7,19.1V279.8Z" transform="translate(-84.374 -233.15)" fill="#938493"/>
        <path id="Trazado_1091487" data-name="Trazado 1091487" d="M261.869,286.929l-.729-1.513-3.629-4.656-2.377-.921v31.485l7-19.1A6.8,6.8,0,0,0,261.869,286.929Z" transform="translate(-213.855 -233.179)" fill="#938493"/>
        <path id="Trazado_1091488" data-name="Trazado 1091488" d="M97.375,137.279v.832l2.089,2h3.712v-4.178l-.614-.78h-.007a5.933,5.933,0,0,0-4.6,1.347h0A4.708,4.708,0,0,0,97.375,137.279Z" transform="translate(-83.125 -113.235)" fill="#ffcebe"/>
        <path id="Trazado_1091489" data-name="Trazado 1091489" d="M269.783,140.081l1.546-1.13.259-1.7a4.729,4.729,0,0,0-.586-.782,5.625,5.625,0,0,0-4.595-1.345H266.4v.008l-.665.857v4.092h4.048Z" transform="translate(-222.64 -113.207)" fill="#ffcebe"/>
        <path id="Trazado_1091490" data-name="Trazado 1091490" d="M94.288,147.836a4.426,4.426,0,0,0-.638,2.286,4.906,4.906,0,0,0,5.833,4.614l.607-.443v-4.572l-.607.443A5.1,5.1,0,0,1,94.288,147.836Z" transform="translate(-80.038 -123.792)" fill="#ffb1a0"/>
        <path id="Trazado_1091491" data-name="Trazado 1091491" d="M266.389,150.163l-.655-.49v4.572l.655.49a4.906,4.906,0,0,0,5.836-4.613,4.426,4.426,0,0,0-.638-2.286A5.1,5.1,0,0,1,266.389,150.163Z" transform="translate(-222.639 -123.792)" fill="#ffb1a0"/>
        <path id="Trazado_1091492" data-name="Trazado 1091492" d="M359.525,331.285a4.934,4.934,0,0,0-4.86,5.8l.648.386h8.224l.848-.386a4.933,4.933,0,0,0-4.86-5.8Z" transform="translate(-296.27 -275.811)" fill="#eab900"/>
        <path id="Trazado_1091493" data-name="Trazado 1091493" d="M381.318,365.146h-6.9l-.451.136-.657.557-.157.414v3.66l.428.766.867.375h6.872a1.6,1.6,0,0,0,1.6-1.6v-2.711A1.6,1.6,0,0,0,381.318,365.146Z" transform="translate(-311.652 -303.871)" fill="#ffe02f"/>
        <path id="Trazado_1091494" data-name="Trazado 1091494" d="M343.1,369.456v-2.711a1.6,1.6,0,0,1,1.6-1.6h-6.446a1.6,1.6,0,0,0-1.6,1.6v2.711a1.6,1.6,0,0,0,1.6,1.6H344.7A1.6,1.6,0,0,1,343.1,369.456Z" transform="translate(-281.408 -303.871)" fill="#fbc700"/>
        <path id="Trazado_1091495" data-name="Trazado 1091495" d="M463.311,279.6h-6.142c-.174.155-.35.316-.35.316V282.9l.849,1.314,1.021.671,1.166.337h.237a3.748,3.748,0,0,0,3.748-3.748v-1.345A.528.528,0,0,0,463.311,279.6Z" transform="translate(-380.984 -232.979)" fill="#ffe02f"/>
        <path id="Trazado_1091496" data-name="Trazado 1091496" d="M425.294,281.472v-1.345a.528.528,0,0,1,.528-.528h-6.694a.528.528,0,0,0-.528.528v1.345a3.748,3.748,0,0,0,3.748,3.748h6.072c.1,0,.208-.005.311-.014A3.748,3.748,0,0,1,425.294,281.472Z" transform="translate(-349.314 -232.98)" fill="#fbc700"/>
        <g id="Grupo_1220035" data-name="Grupo 1220035" transform="translate(43.656 46.618)">
          <path id="Trazado_1091497" data-name="Trazado 1091497" d="M313.717,279.6h-6.142c-.174.155-.35.316-.35.316V282.9l.849,1.314,1.021.671,1.166.337h.237a3.748,3.748,0,0,0,3.748-3.748v-1.345A.528.528,0,0,0,313.717,279.6Z" transform="translate(-300.676 -279.598)" fill="#ffe02f"/>
          <path id="Trazado_1091498" data-name="Trazado 1091498" d="M275.7,281.472v-1.345a.528.528,0,0,1,.528-.528h-6.694a.528.528,0,0,0-.528.528v1.345a3.748,3.748,0,0,0,3.748,3.748h6.072c.1,0,.208-.005.311-.014A3.748,3.748,0,0,1,275.7,281.472Z" transform="translate(-269.007 -279.599)" fill="#fbc700"/>
        </g>
        <path id="Trazado_1091499" data-name="Trazado 1091499" d="M384.52,188.823h-.486l-1.413,1.919-.428,1.447a12.376,12.376,0,0,0,.207,1.98,8.339,8.339,0,0,1,.692.9l1.428.487a3.977,3.977,0,0,0,0-6.732Z" transform="translate(-319.145 -157.757)" fill="#ffe02f"/>
        <path id="Trazado_1091500" data-name="Trazado 1091500" d="M364.421,189.225a3.975,3.975,0,0,1,1.858-3.366,3.978,3.978,0,1,0,0,6.732A3.975,3.975,0,0,1,364.421,189.225Z" transform="translate(-300.904 -154.794)" fill="#fbc700"/>
        <path id="Trazado_1091501" data-name="Trazado 1091501" d="M142.134,289.368a8.863,8.863,0,0,0,6.921-1.64,1.4,1.4,0,0,0-.085-2.126,24.388,24.388,0,0,1-6.2-7.227l-.632.245v10.748Z" transform="translate(-120.215 -231.966)" fill="#dbedff"/>
        <path id="Trazado_1091502" data-name="Trazado 1091502" d="M219.5,278.651l-.635-.246a24.389,24.389,0,0,1-6.2,7.222,1.4,1.4,0,0,0-.085,2.126,8.863,8.863,0,0,0,6.921,1.64V278.651Z" transform="translate(-178.217 -231.991)" fill="#dbedff"/>
        <path id="Trazado_1091503" data-name="Trazado 1091503" d="M182.012,107.909c-.381,0-.41-.01-2.522-.189a7.059,7.059,0,0,1-6.14-5.341.2.2,0,0,0-.4,0,7.134,7.134,0,0,1-4.326,4.924l-.744.938v11.365l2.287,4.8,2.284,2.513,3.973,1.3a12.176,12.176,0,0,0,8.885-11.684v-8.62Z" transform="translate(-141.552 -85.992)" fill="#ffdecf"/>
        <path id="Trazado_1091504" data-name="Trazado 1091504" d="M135.289,141.227v-9.344a6.609,6.609,0,0,1-1.881.43c.171-.013-2.161.177-2.576.177h-3.18v8.738a12,12,0,0,0,12.286,11.988,11.726,11.726,0,0,0,3.718-.592A11.91,11.91,0,0,1,135.289,141.227Z" transform="translate(-108.215 -110.573)" fill="#ffcebe"/>
      </g>
      <g id="Grupo_1220037" data-name="Grupo 1220037" transform="translate(6.702)">
        <path id="Trazado_1091505" data-name="Trazado 1091505" d="M192.411,352.021a1.285,1.285,0,0,0-1.285,1.285v18.618a1.285,1.285,0,0,0,2.57,0V353.306A1.285,1.285,0,0,0,192.411,352.021Z" transform="translate(-159.529 -291.709)"/>
        <path id="Trazado_1091506" data-name="Trazado 1091506" d="M90.313,46.619h-.026l-3.608-6.4a1.284,1.284,0,0,0-.78-2.4,17.1,17.1,0,0,1-2.207.144,18.051,18.051,0,0,1-7.233-1.552,5.264,5.264,0,1,0-10.433,0,18.407,18.407,0,0,1-5.549,1.467V20.89A20.876,20.876,0,0,0,39.587,0H39.43A21.069,21.069,0,0,0,18.7,21.136V50.907l-4.484,1.738-.025.01A12.665,12.665,0,0,0,6.7,64.218V84.207a3.518,3.518,0,0,0,3.514,3.514H36.588a1.285,1.285,0,0,0,0-2.57h-5.4V60.114c3.084.081,6.124-1.358,6.948-2.657h2.893c.8,1.261,3.805,2.741,6.949,2.657V85.151h-5.4a1.285,1.285,0,1,0,0,2.57H68.956a3.518,3.518,0,0,0,3.514-3.514V79.43a1.285,1.285,0,1,0-2.57,0v4.777a.945.945,0,0,1-.944.944H62.473v-13.1a1.285,1.285,0,1,0-2.57,0v13.1H50.551V79.658l6.917-18.886a8.137,8.137,0,0,0-.159-5.963h4.155A5.2,5.2,0,0,0,62.9,54.6a9.611,9.611,0,0,1,4.116,2.529,6.226,6.226,0,0,0-1.979,4.144,2.9,2.9,0,0,0-3.087,2.883V66.87a2.886,2.886,0,0,0,2.883,2.883H69.9v3.68a1.285,1.285,0,0,0,2.57,0v-3.68h5.184a2.886,2.886,0,0,0,2.883-2.883V64.159a2.886,2.886,0,0,0-2.883-2.883h-.205a6.233,6.233,0,0,0-4.921-5.667V40.821A5.278,5.278,0,0,0,75.505,38.8a21.022,21.022,0,0,0,5.834,1.592l-3.513,6.229H77.8a1.815,1.815,0,0,0-1.813,1.813v1.345A5.039,5.039,0,0,0,81.02,54.81h6.072a5.039,5.039,0,0,0,5.033-5.033V48.432a1.815,1.815,0,0,0-1.813-1.813Zm-28.606,0H55.148l3.28-5.815ZM21.266,21.136A18.492,18.492,0,0,1,39.449,2.57h.138A18.309,18.309,0,0,1,57.907,20.89v3.569a6.518,6.518,0,0,0-6.24-2.543,37.05,37.05,0,0,1-5.634-.184,5.747,5.747,0,0,1-5-4.363,1.489,1.489,0,0,0-2.9,0,5.747,5.747,0,0,1-5.09,4.378,50.537,50.537,0,0,1-5.685.156,6.659,6.659,0,0,0-6.1,2.555Zm35.022,6.479a3.522,3.522,0,0,1-3.256,3.37V24.446A3.262,3.262,0,0,1,56.288,27.615ZM39.161,42.627A10.758,10.758,0,0,1,28.709,31.939V24.487c4.284,0,8.281.068,10.878-4.043a8.324,8.324,0,0,0,5.752,3.794,34.568,34.568,0,0,0,5.123.249v7.335a10.823,10.823,0,0,1-11.3,10.806ZM26.139,24.457v6.528C22,30.468,21.592,24.985,26.139,24.457Zm2.481,60.694H19.269V65.814a1.285,1.285,0,0,0-2.57,0V85.151H10.216a.945.945,0,0,1-.944-.944V64.218a10.191,10.191,0,0,1,5.881-9.181l8.1-3.142-1.245,2.582a8.135,8.135,0,0,0-.309,6.3L28.62,79.658v5.493Zm0-12.966-4.5-12.3a5.551,5.551,0,0,1,.211-4.3l2.438-5.059,1.854-.719ZM21.266,49.91V30.77a6.338,6.338,0,0,0,4.976,2.8,13.144,13.144,0,0,0,5.213,8.978v3.405C31.4,45.986,21.328,49.886,21.266,49.91Zm14.687,6.195a7.6,7.6,0,0,1-4.762,1.44V51.056a26.541,26.541,0,0,0,4.738,4.861.119.119,0,0,1,.023.188Zm5.679-2.191a2.811,2.811,0,0,0-.768.972H38.308a2.781,2.781,0,0,0-.768-.972,23.553,23.553,0,0,1-5.117-5.581,2.471,2.471,0,0,0,1.6-2.341V44.04a13.778,13.778,0,0,0,11.113.009l0,1.944V46a2.511,2.511,0,0,0,1.6,2.341,23.656,23.656,0,0,1-5.11,5.569Zm6.349,3.631a7.606,7.606,0,0,1-4.762-1.44.119.119,0,0,1,.01-.177,26.566,26.566,0,0,0,4.752-4.872Zm-.272-11.581,0-3.45a13.455,13.455,0,0,0,5.21-8.943,6.332,6.332,0,0,0,4.991-2.8v7.169c-.443-.023-.886-.062-1.325-.119a1.284,1.284,0,0,0-.777,2.4l-3.608,6.4a1.816,1.816,0,0,0-1.34.565l-3.148-1.219Zm7.345,13.925-4.5,12.3V51.172a5.01,5.01,0,0,0,3.87,3.544l.423.876A5.549,5.549,0,0,1,55.054,59.889Zm8.872-10.112a2.467,2.467,0,0,1-2.463,2.463H55.391a2.467,2.467,0,0,1-2.463-2.463v-.588h11Zm1.513,3.08a5.006,5.006,0,0,0,1.057-3.08V48.432a1.815,1.815,0,0,0-1.813-1.813h-.026L61.144,40.39A21.031,21.031,0,0,0,66.979,38.8a5.278,5.278,0,0,0,2.978,2.023V55.608a6.163,6.163,0,0,0-.683.187A11.684,11.684,0,0,0,65.44,52.857ZM77.653,63.846a.313.313,0,0,1,.313.313V66.87a.313.313,0,0,1-.313.313H64.831a.313.313,0,0,1-.313-.313V64.158a.313.313,0,0,1,.313-.313Zm-2.784-2.57H67.616a3.651,3.651,0,0,1,7.253,0ZM71.242,38.41a2.694,2.694,0,1,1,2.694-2.693A2.7,2.7,0,0,1,71.242,38.41ZM84.057,40.8l3.279,5.815H80.777Zm5.5,8.973a2.466,2.466,0,0,1-2.463,2.463H81.021a2.466,2.466,0,0,1-2.463-2.463v-.588h11Z" transform="translate(-6.702)"/>
      </g>
    </g>
  </g>
</svg>
