<svg xmlns="http://www.w3.org/2000/svg" xmlns:xlink="http://www.w3.org/1999/xlink" width="103" height="103" viewBox="0 0 103 103">
  <defs>
    <filter id="Trazado_978624" x="0" y="0" width="103" height="103" filterUnits="userSpaceOnUse">
      <feOffset dy="3" input="SourceAlpha"/>
      <feGaussianBlur stdDeviation="3" result="blur"/>
      <feFlood flood-opacity="0.161"/>
      <feComposite operator="in" in2="blur"/>
      <feComposite in="SourceGraphic"/>
    </filter>
  </defs>
  <g id="Grupo_1220299" data-name="Grupo 1220299" transform="translate(-192 -6571)">
    <g id="Grupo_1208646" data-name="Grupo 1208646" transform="translate(0 6257)">
      <g id="Grupo_1180764" data-name="Grupo 1180764" transform="translate(1 -4144)">
        <g id="Grupo_1179463" data-name="Grupo 1179463" transform="translate(200 4464)">
          <g id="Grupo_1144531" data-name="Grupo 1144531">
            <g transform="matrix(1, 0, 0, 1, -9, -6)" filter="url(#Trazado_978624)">
              <g id="Trazado_978624-2" data-name="Trazado 978624" transform="translate(9 6)" fill="#edeef2">
                <path d="M 42.5 83.5 C 36.96437835693359 83.5 31.59512901306152 82.41617584228516 26.54141235351562 80.27863311767578 C 21.65934181213379 78.21369171142578 17.27447128295898 75.25723266601562 13.50862312316895 71.49137878417969 C 9.742764472961426 67.72553253173828 6.786305904388428 63.34066009521484 4.721364498138428 58.45858764648438 C 2.583823442459106 53.40486907958984 1.5 48.03562164306641 1.5 42.5 C 1.5 36.96437835693359 2.583823442459106 31.59512901306152 4.721364498138428 26.54141235351562 C 6.786305904388428 21.65934181213379 9.742764472961426 17.27447128295898 13.50862312316895 13.50862312316895 C 17.27447128295898 9.742764472961426 21.65934181213379 6.786305904388428 26.54141235351562 4.721364498138428 C 31.59512901306152 2.583823442459106 36.96437835693359 1.5 42.5 1.5 C 48.03562164306641 1.5 53.40486907958984 2.583823442459106 58.45858764648438 4.721364498138428 C 63.34066009521484 6.786305904388428 67.72553253173828 9.742764472961426 71.49137878417969 13.50862312316895 C 75.25723266601562 17.27447128295898 78.21369171142578 21.65934181213379 80.27863311767578 26.54141235351562 C 82.41617584228516 31.59512901306152 83.5 36.96437835693359 83.5 42.5 C 83.5 48.03562164306641 82.41617584228516 53.40486907958984 80.27863311767578 58.45858764648438 C 78.21369171142578 63.34066009521484 75.25723266601562 67.72553253173828 71.49137878417969 71.49137878417969 C 67.72553253173828 75.25723266601562 63.34066009521484 78.21369171142578 58.45858764648438 80.27863311767578 C 53.40486907958984 82.41617584228516 48.03562164306641 83.5 42.5 83.5 Z" stroke="none"/>
                <path d="M 42.5 3 C 37.16621398925781 3 31.99356079101562 4.043960571289062 27.125732421875 6.102882385253906 C 22.42246627807617 8.092185974121094 18.19785308837891 10.94070434570312 14.56928253173828 14.56928253173828 C 10.94070434570312 18.19785308837891 8.092185974121094 22.42246627807617 6.102882385253906 27.125732421875 C 4.043960571289062 31.99356079101562 3 37.16621398925781 3 42.5 C 3 47.83378601074219 4.043960571289062 53.00643920898438 6.102882385253906 57.87425231933594 C 8.092185974121094 62.57753372192383 10.94070434570312 66.80213165283203 14.56928253173828 70.43071746826172 C 18.19786834716797 74.05929565429688 22.42246627807617 76.90781402587891 27.125732421875 78.89711761474609 C 31.99356079101562 80.95603942871094 37.16621398925781 82 42.5 82 C 47.83378601074219 82 53.00642395019531 80.95603942871094 57.87425231933594 78.89711761474609 C 62.57753372192383 76.90781402587891 66.80213165283203 74.05929565429688 70.43071746826172 70.43071746826172 C 74.05929565429688 66.80213165283203 76.90781402587891 62.57753372192383 78.89711761474609 57.87425231933594 C 80.95603942871094 53.00642395019531 82 47.83378601074219 82 42.5 C 82 37.16621398925781 80.95603942871094 31.99356079101562 78.89711761474609 27.125732421875 C 76.90781402587891 22.42246627807617 74.05929565429688 18.19786834716797 70.43071746826172 14.56928253173828 C 66.80213165283203 10.94070434570312 62.57753372192383 8.092185974121094 57.87425231933594 6.102882385253906 C 53.00643920898438 4.043960571289062 47.83378601074219 3 42.5 3 M 42.5 0 C 65.97209167480469 0 85 19.02789306640625 85 42.5 C 85 65.97209167480469 65.97209167480469 85 42.5 85 C 19.02789306640625 85 0 65.97209167480469 0 42.5 C 0 19.02789306640625 19.02789306640625 0 42.5 0 Z" stroke="none" fill="#56678d"/>
              </g>
            </g>
          </g>
        </g>
      </g>
    </g>
    <g id="_15-Court" data-name="15-Court" transform="translate(209 6593.613)">
      <path id="Trazado_1091847" data-name="Trazado 1091847" d="M1,59H67.25v4.274H1Z" transform="translate(0.069 4.044)" fill="#f2f6fc"/>
      <g id="Grupo_1220298" data-name="Grupo 1220298" transform="translate(4.274 32.056)">
        <path id="Trazado_1091848" data-name="Trazado 1091848" d="M24.548,55v4.274H16V55h8.548Z" transform="translate(-3.177 -28.286)" fill="#cdd2e1"/>
        <path id="Trazado_1091849" data-name="Trazado 1091849" d="M12.548,55v4.274H4V55h8.548Z" transform="translate(-4 -28.286)" fill="#cdd2e1"/>
        <path id="Trazado_1091850" data-name="Trazado 1091850" d="M12.548,30v4.274H4V30Z" transform="translate(-4 -30)" fill="#cdd2e1"/>
        <path id="Trazado_1091851" data-name="Trazado 1091851" d="M24.548,30v4.274H16V30Z" transform="translate(-3.177 -30)" fill="#cdd2e1"/>
      </g>
      <path id="Trazado_1091852" data-name="Trazado 1091852" d="M18,34h4.274V56.44H18Z" transform="translate(1.234 2.331)" fill="#9196aa"/>
      <path id="Trazado_1091853" data-name="Trazado 1091853" d="M36.548,55v4.274H28V55h8.548Z" transform="translate(1.919 3.77)" fill="#cdd2e1"/>
      <path id="Trazado_1091854" data-name="Trazado 1091854" d="M36.548,30v4.274H28V30Z" transform="translate(1.919 2.056)" fill="#cdd2e1"/>
      <path id="Trazado_1091855" data-name="Trazado 1091855" d="M30,34h4.274V56.44H30Z" transform="translate(2.056 2.331)" fill="#9196aa"/>
      <path id="Trazado_1091856" data-name="Trazado 1091856" d="M48.548,55v4.274H40V55h8.548Z" transform="translate(2.742 3.77)" fill="#cdd2e1"/>
      <path id="Trazado_1091857" data-name="Trazado 1091857" d="M48.548,30v4.274H40V30Z" transform="translate(2.742 2.056)" fill="#cdd2e1"/>
      <path id="Trazado_1091858" data-name="Trazado 1091858" d="M42,34h4.274V56.44H42Z" transform="translate(2.879 2.331)" fill="#9196aa"/>
      <path id="Trazado_1091859" data-name="Trazado 1091859" d="M60.548,55v4.274H52V55h8.548Z" transform="translate(3.565 3.77)" fill="#cdd2e1"/>
      <path id="Trazado_1091860" data-name="Trazado 1091860" d="M60.548,30v4.274H52V30Z" transform="translate(3.565 2.056)" fill="#cdd2e1"/>
      <path id="Trazado_1091861" data-name="Trazado 1091861" d="M54,34h4.274V56.44H54Z" transform="translate(3.702 2.331)" fill="#9196aa"/>
      <path id="Trazado_1091862" data-name="Trazado 1091862" d="M6,34h4.274V56.44H6Z" transform="translate(0.411 2.331)" fill="#9196aa"/>
      <path id="Trazado_1091863" data-name="Trazado 1091863" d="M64.976,12.754V18.1H60.7V14.891L33.988,5.274,7.274,14.891V18.1H3V12.754L33.988,1Z" transform="translate(0.206 0.069)" fill="#9196aa"/>
      <path id="Trazado_1091864" data-name="Trazado 1091864" d="M60.427,14.617v3.206H7V14.617L33.714,5Z" transform="translate(0.48 0.343)" fill="#cdd2e1"/>
      <path id="Trazado_1091865" data-name="Trazado 1091865" d="M33.714,5,7,14.617v3.206L33.714,8.206l26.714,9.617V14.617Z" transform="translate(0.48 0.343)" fill="#707789"/>
      <path id="Trazado_1091866" data-name="Trazado 1091866" d="M64.976,21v5.343H3V21H64.976Z" transform="translate(0.206 1.44)" fill="#cdd2e1"/>
      <path id="Trazado_1091867" data-name="Trazado 1091867" d="M67.25,26v4.274H1V26H67.25Z" transform="translate(0.069 1.782)" fill="#f2f6fc"/>
      <path id="Trazado_1091868" data-name="Trazado 1091868" d="M67.25,17v4.274H1V17H67.25Z" transform="translate(0.069 1.165)" fill="#f2f6fc"/>
      <path id="Trazado_1091869" data-name="Trazado 1091869" d="M44,52v4.274H64.3V52H44Z" transform="translate(3.016 3.565)" fill="#ffe4c2"/>
      <path id="Trazado_1091870" data-name="Trazado 1091870" d="M44,54v2.137H64.3V54H44Z" transform="translate(3.016 3.702)" fill="#f2d1a5"/>
      <path id="Trazado_1091871" data-name="Trazado 1091871" d="M32.137,49.274V59.96H30v4.274H47.1V59.96H44.96V49.274H47.1V45H30v4.274Z" transform="translate(2.056 3.085)" fill="#d18a56"/>
      <path id="Trazado_1091872" data-name="Trazado 1091872" d="M0,0H17.1V4.274H0Z" transform="translate(49.153 52.359) rotate(180)" fill="#b56d3c"/>
      <path id="Trazado_1091873" data-name="Trazado 1091873" d="M0,0H17.1V4.274H0Z" transform="translate(49.153 67.319) rotate(180)" fill="#b56d3c"/>
      <path id="Trazado_1091874" data-name="Trazado 1091874" d="M0,0H5.343V4.274H0Z" transform="translate(37.399 52.359) rotate(180)" fill="#94572e"/>
      <path id="Trazado_1091875" data-name="Trazado 1091875" d="M0,0H5.343V4.274H0Z" transform="translate(37.399 67.319) rotate(180)" fill="#94572e"/>
      <path id="Trazado_1091876" data-name="Trazado 1091876" d="M0,0H3.206V10.685H0Z" transform="translate(37.399 63.044) rotate(180)" fill="#b56d3c"/>
      <path id="Trazado_1091877" data-name="Trazado 1091877" d="M0,0H4.274V4.274H0Z" transform="translate(34.194 59.839) rotate(180)" fill="#ffe4c2"/>
      <path id="Trazado_1091878" data-name="Trazado 1091878" d="M0,0H4.274V2.137H0Z" transform="translate(34.194 59.839) rotate(180)" fill="#f2d1a5"/>
      <path id="Trazado_1091879" data-name="Trazado 1091879" d="M67.319,23.508a1.069,1.069,0,0,0,1.069-1.069V18.165A1.069,1.069,0,0,0,67.319,17.1H66.25V12.823a1.069,1.069,0,0,0-.69-1L34.572.069a1.061,1.061,0,0,0-.757,0L2.827,11.824a1.069,1.069,0,0,0-.69,1V17.1H1.069A1.069,1.069,0,0,0,0,18.165V22.44a1.069,1.069,0,0,0,1.069,1.069H2.137v3.206H1.069A1.069,1.069,0,0,0,0,27.782v4.274a1.069,1.069,0,0,0,1.069,1.069H3.206v3.206A1.069,1.069,0,0,0,4.274,37.4H5.343V57.7H4.274A1.069,1.069,0,0,0,3.206,58.77v3.206H1.069A1.069,1.069,0,0,0,0,63.044v4.274a1.069,1.069,0,0,0,1.069,1.069H28.851V66.25H2.137V64.113H28.851V61.976H26.714V58.77A1.069,1.069,0,0,0,25.645,57.7H24.577V37.4h1.069a1.069,1.069,0,0,0,1.069-1.069V33.125h2.137v3.206A1.069,1.069,0,0,0,29.919,37.4h1.069v7.48h2.137V37.4h2.137v7.48H37.4V37.4h1.069a1.069,1.069,0,0,0,1.069-1.069V33.125h2.137v3.206A1.069,1.069,0,0,0,42.742,37.4h1.069v7.48h2.137V37.4h2.137v7.48h2.137V37.4H51.29a1.069,1.069,0,0,0,1.069-1.069V33.125H54.5v3.206A1.069,1.069,0,0,0,55.565,37.4h1.069v14.96H58.77V37.4h2.137v14.96h2.137V37.4h1.069a1.069,1.069,0,0,0,1.069-1.069V33.125h2.137a1.069,1.069,0,0,0,1.069-1.069V27.782a1.069,1.069,0,0,0-1.069-1.069H66.25V23.508ZM4.274,13.56,34.194,2.211,64.113,13.56V17.1H61.976V14.96a1.069,1.069,0,0,0-.707-1.006L34.556,4.337a1.069,1.069,0,0,0-.724,0L7.118,13.954a1.069,1.069,0,0,0-.706,1.006V17.1H4.274ZM59.839,17.1H8.548V15.708L34.194,6.475l25.645,9.232ZM16.028,33.125v3.206A1.069,1.069,0,0,0,17.1,37.4h1.069V57.7H17.1a1.069,1.069,0,0,0-1.069,1.069v3.206H13.891V58.77A1.069,1.069,0,0,0,12.823,57.7H11.754V37.4h1.069a1.069,1.069,0,0,0,1.069-1.069V33.125Zm-4.274,2.137H5.343V33.125h6.411ZM7.48,37.4H9.617V57.7H7.48ZM5.343,61.976V59.839h6.411v2.137Zm12.823,0V59.839h6.411v2.137ZM22.44,57.7H20.3V37.4H22.44Zm2.137-22.44H18.165V33.125h6.411Zm12.823,0H30.988V33.125H37.4Zm12.823,0H43.811V33.125h6.411Zm12.823,0H56.633V33.125h6.411Zm1.069-8.548H10.685v2.137H66.25v2.137H2.137V28.851H8.548V26.714H4.274V23.508H57.7V21.371H2.137V19.234H66.25v2.137H59.839v2.137h4.274Z"/>
      <path id="Trazado_1091880" data-name="Trazado 1091880" d="M63.96,58H49v2.137H62.891v2.137H49v2.137H63.96a1.069,1.069,0,0,0,1.069-1.069V59.069A1.069,1.069,0,0,0,63.96,58Z" transform="translate(3.359 3.976)"/>
      <path id="Trazado_1091881" data-name="Trazado 1091881" d="M65.468,51.48H46.234V50.411H47.3a1.069,1.069,0,0,0,1.069-1.069V45.069A1.069,1.069,0,0,0,47.3,44h-17.1a1.069,1.069,0,0,0-1.069,1.069v4.274a1.069,1.069,0,0,0,1.069,1.069h1.069V51.48H28.069A1.069,1.069,0,0,0,27,52.548v4.274a1.069,1.069,0,0,0,1.069,1.069h3.206V58.96H30.206a1.069,1.069,0,0,0-1.069,1.069V64.3a1.069,1.069,0,0,0,1.069,1.069H47.3A1.069,1.069,0,0,0,48.371,64.3V60.028A1.069,1.069,0,0,0,47.3,58.96H46.234V57.891H65.468a1.069,1.069,0,0,0,1.069-1.069V52.548A1.069,1.069,0,0,0,65.468,51.48ZM29.137,55.754V53.617h2.137v2.137Zm8.548,3.206V61.1h8.548v2.137H31.274V61.1h4.274V58.96H33.411V50.411h6.411V48.274H31.274V46.137h14.96v2.137H41.96v2.137H44.1V58.96ZM64.4,55.754H46.234V53.617H64.4Z" transform="translate(1.851 3.016)"/>
    </g>
  </g>
</svg>
