<svg xmlns="http://www.w3.org/2000/svg" xmlns:xlink="http://www.w3.org/1999/xlink" width="130" height="159" viewBox="0 0 130 159">
  <defs>
    <clipPath id="clip-path">
      <path id="path7317" d="M0-682.665H121.311v121.311H0Z" transform="translate(0 682.665)"/>
    </clipPath>
  </defs>
  <g id="Grupo_1220095" data-name="Grupo 1220095" transform="translate(-1230 -5766)">
    <rect id="Rectángulo_421281" data-name="Rectángulo 421281" width="79" height="159" transform="translate(1281 5766)" fill="#ba9c5a"/>
    <g id="g7311" transform="translate(1230 6474.623)">
      <g id="g7313" transform="translate(0 -682.665)">
        <g id="g7315" transform="translate(0 0)" clip-path="url(#clip-path)">
          <g id="g7321" transform="translate(42.321 102.149)">
            <path id="path7323" d="M-43.046-80.446h-.61a8.693,8.693,0,0,1-8.692-8.692,8.692,8.692,0,0,1,8.692-8.692h.61a8.692,8.692,0,0,1,8.692,8.692,8.692,8.692,0,0,1-8.692,8.692" transform="translate(52.348 97.83)" fill="#e2dee2"/>
          </g>
          <g id="g7325" transform="translate(42.321 109.67)">
            <path id="path7327" d="M-34.4-5.422h0a8.725,8.725,0,0,1,.083-1.172h-7.437a8.763,8.763,0,0,0-.081,1.172,8.692,8.692,0,0,0,8.692,8.692h.61a8.663,8.663,0,0,0,3.413-.7,8.694,8.694,0,0,1-5.28-8" transform="translate(41.84 6.593)" fill="#cbc4cb"/>
          </g>
          <g id="g7329" transform="translate(42.321 102.149)">
            <path id="path7331" d="M-43.046-80.446h-.61a8.693,8.693,0,0,1-8.692-8.692,8.692,8.692,0,0,1,8.692-8.692h.61a8.692,8.692,0,0,1,8.692,8.692A8.692,8.692,0,0,1-43.046-80.446Z" transform="translate(52.348 97.83)" fill="none" stroke="#000" stroke-linecap="round" stroke-linejoin="round" stroke-miterlimit="10" stroke-width="2.5"/>
          </g>
          <g id="g7333" transform="translate(19.6 16.587)">
            <path id="path7335" d="M-293.555-146.777a31.719,31.719,0,0,0-31.332-31.717,31.937,31.937,0,0,0-32.107,31.717,31.684,31.684,0,0,0,13.883,26.231,10.225,10.225,0,0,1,4.365,6.718l2.339,13.739h22.264l2.321-13.635a10.419,10.419,0,0,1,4.416-6.845,31.683,31.683,0,0,0,13.85-26.208" transform="translate(356.994 178.496)" fill="#fed402"/>
          </g>
          <g id="g7337" transform="translate(51.166 56.4)">
            <path id="path7339" d="M0,0V41.784" fill="none" stroke="#000" stroke-linecap="round" stroke-linejoin="round" stroke-miterlimit="10" stroke-width="2.5"/>
          </g>
          <g id="g7341" transform="translate(19.599 17.322)">
            <path id="path7343" d="M-84.441-295.847l.645,3.79h8.5l-1.148-6.744a10.225,10.225,0,0,0-4.365-6.718A31.684,31.684,0,0,1-94.695-331.75,31.916,31.916,0,0,1-77.689-359.78a31.993,31.993,0,0,0-25,30.985,31.683,31.683,0,0,0,13.883,26.231,10.225,10.225,0,0,1,4.365,6.718" transform="translate(102.689 359.78)" fill="#fac600"/>
          </g>
          <g id="g7345" transform="translate(19.6 16.587)">
            <path id="path7347" d="M-293.555-146.777a31.719,31.719,0,0,0-31.332-31.717,31.937,31.937,0,0,0-32.107,31.717,31.684,31.684,0,0,0,13.883,26.231,10.225,10.225,0,0,1,4.365,6.718l2.339,13.739h22.264l2.321-13.635a10.419,10.419,0,0,1,4.416-6.845A31.683,31.683,0,0,0-293.555-146.777Z" transform="translate(356.994 178.496)" fill="none" stroke="#000" stroke-linecap="round" stroke-linejoin="round" stroke-miterlimit="10" stroke-width="2.5"/>
          </g>
          <g id="g7349" transform="translate(33.172 93.254)">
            <path id="path7351" d="M-148.956-37.983h-28.086a4.1,4.1,0,0,1-4.1-4.1,4.1,4.1,0,0,1,4.1-4.1h28.086a4.1,4.1,0,0,1,4.1,4.1,4.1,4.1,0,0,1-4.1,4.1" transform="translate(181.146 46.192)" fill="#a79ca7"/>
          </g>
          <g id="g7353" transform="translate(33.172 93.254)">
            <path id="path7355" d="M-46.045-18.992h0a4.1,4.1,0,0,1,4.1-4.1h-9.951a4.1,4.1,0,0,0-4.1,4.1,4.1,4.1,0,0,0,4.1,4.1h9.951a4.1,4.1,0,0,1-4.1-4.1" transform="translate(55.996 23.096)" fill="#918291"/>
          </g>
          <g id="g7357" transform="translate(31.811 28.951)">
            <path id="path7359" d="M-179.128-89.563a19.355,19.355,0,0,1-19.355,19.355,19.355,19.355,0,0,1-19.355-19.355,19.355,19.355,0,0,1,19.355-19.355,19.355,19.355,0,0,1,19.355,19.355" transform="translate(217.838 108.918)" fill="#fff"/>
          </g>
          <g id="g7361" transform="translate(31.811 28.951)">
            <path id="path7363" d="M-45.762-89.563a19.361,19.361,0,0,1,14.41-18.715,19.377,19.377,0,0,0-4.945-.64A19.355,19.355,0,0,0-55.652-89.563,19.355,19.355,0,0,0-36.3-70.208a19.377,19.377,0,0,0,4.945-.64,19.361,19.361,0,0,1-14.41-18.715" transform="translate(55.652 108.918)" fill="#f3f0f3"/>
          </g>
          <g id="g7365" transform="translate(31.811 28.951)">
            <path id="path7367" d="M-177.618-73.252a19.357,19.357,0,0,0-19.029-15.83A19.355,19.355,0,0,0-216-69.727a19.355,19.355,0,0,0,19.355,19.355A19.362,19.362,0,0,0-177.885-64.96" transform="translate(216.002 89.082)" fill="none" stroke="#000" stroke-linecap="round" stroke-linejoin="round" stroke-miterlimit="10" stroke-width="2.5"/>
          </g>
          <g id="g7369" transform="translate(33.172 85.045)">
            <path id="path7371" d="M-148.956-37.982h-28.086a4.1,4.1,0,0,1-4.1-4.1,4.1,4.1,0,0,1,4.1-4.1h28.086a4.1,4.1,0,0,1,4.1,4.1,4.1,4.1,0,0,1-4.1,4.1" transform="translate(181.146 46.191)" fill="#918291"/>
          </g>
          <g id="g7373" transform="translate(33.172 85.046)">
            <path id="path7375" d="M-46.045-18.991h0a4.1,4.1,0,0,1,4.1-4.1h-9.951a4.1,4.1,0,0,0-4.1,4.1,4.1,4.1,0,0,0,4.1,4.1h9.951a4.1,4.1,0,0,1-4.1-4.1" transform="translate(55.996 23.095)" fill="#7a6d79"/>
          </g>
          <g id="g7377" transform="translate(33.172 85.045)">
            <path id="path7379" d="M-129.371-37.982h4.232a4.1,4.1,0,0,0,4.1-4.1,4.1,4.1,0,0,0-4.1-4.1h-28.086a4.1,4.1,0,0,0-4.1,4.1,4.1,4.1,0,0,0,4.1,4.1h15.561" transform="translate(157.329 46.191)" fill="none" stroke="#000" stroke-linecap="round" stroke-linejoin="round" stroke-miterlimit="10" stroke-width="2.5"/>
          </g>
          <g id="g7381" transform="translate(33.172 93.254)">
            <path id="path7383" d="M-148.956,0a4.1,4.1,0,0,1,4.1,4.1,4.1,4.1,0,0,1-4.1,4.1h-28.086a4.1,4.1,0,0,1-4.1-4.1,4.1,4.1,0,0,1,4.1-4.1" transform="translate(181.146)" fill="none" stroke="#000" stroke-linecap="round" stroke-linejoin="round" stroke-miterlimit="10" stroke-width="2.5"/>
          </g>
          <g id="g7385" transform="translate(33.172 101.462)">
            <path id="path7387" d="M-148.956-37.982h-28.086a4.1,4.1,0,0,1-4.1-4.1,4.1,4.1,0,0,1,4.1-4.1h28.086a4.1,4.1,0,0,1,4.1,4.1,4.1,4.1,0,0,1-4.1,4.1" transform="translate(181.146 46.191)" fill="#918291"/>
          </g>
          <g id="g7389" transform="translate(33.172 101.462)">
            <path id="path7391" d="M-46.045-18.991h0a4.1,4.1,0,0,1,4.1-4.1h-9.951a4.1,4.1,0,0,0-4.1,4.1,4.1,4.1,0,0,0,4.1,4.1h9.951a4.1,4.1,0,0,1-4.1-4.1" transform="translate(55.996 23.095)" fill="#7a6d79"/>
          </g>
          <g id="g7393" transform="translate(33.172 101.462)">
            <path id="path7395" d="M-148.956-37.982h-28.086a4.1,4.1,0,0,1-4.1-4.1,4.1,4.1,0,0,1,4.1-4.1h28.086a4.1,4.1,0,0,1,4.1,4.1A4.1,4.1,0,0,1-148.956-37.982Z" transform="translate(181.146 46.191)" fill="none" stroke="#000" stroke-linecap="round" stroke-linejoin="round" stroke-miterlimit="10" stroke-width="2.5"/>
          </g>
          <g id="g7397" transform="translate(43.275 43.565)">
            <path id="path7399" d="M0-17.528l6,6,9.785-9.785" transform="translate(0 21.316)" fill="none" stroke="#000" stroke-linecap="round" stroke-linejoin="round" stroke-miterlimit="10" stroke-width="2.5"/>
          </g>
          <g id="g7401" transform="translate(4.79 48.306)">
            <path id="path7403" d="M0,0H7.5" fill="none" stroke="#000" stroke-linecap="round" stroke-linejoin="round" stroke-miterlimit="10" stroke-width="2.5"/>
          </g>
          <g id="g7405" transform="translate(51.319 1.777)">
            <path id="path7407" d="M0,0V7.5" fill="none" stroke="#000" stroke-linecap="round" stroke-linejoin="round" stroke-miterlimit="10" stroke-width="2.5"/>
          </g>
          <g id="g7409" transform="translate(11.024 67.818)">
            <path id="path7411" d="M0-17.364l6.5-3.752" transform="translate(0 21.116)" fill="none" stroke="#000" stroke-linecap="round" stroke-linejoin="round" stroke-miterlimit="10" stroke-width="2.5"/>
          </g>
          <g id="g7413" transform="translate(28.054 8.011)">
            <path id="path7415" d="M0,0,3.752,6.5" fill="none" stroke="#000" stroke-linecap="round" stroke-linejoin="round" stroke-miterlimit="10" stroke-width="2.5"/>
          </g>
          <g id="g7417" transform="translate(70.831 8.011)">
            <path id="path7419" d="M0-30.075l3.753-6.5" transform="translate(0 36.575)" fill="none" stroke="#000" stroke-linecap="round" stroke-linejoin="round" stroke-miterlimit="10" stroke-width="2.5"/>
          </g>
          <g id="g7421" transform="translate(11.024 25.042)">
            <path id="path7423" d="M0,0,6.5,3.752" fill="none" stroke="#000" stroke-linecap="round" stroke-linejoin="round" stroke-miterlimit="10" stroke-width="2.5"/>
          </g>
          <g id="g7425" transform="translate(76.692 26.777)">
            <path id="path7427" d="M-46.076-110.832V-129.8a4.979,4.979,0,0,0-4.979-4.979,4.978,4.978,0,0,0-4.978,4.979v38.349A8.073,8.073,0,0,0-48.5-83.4v13.475H-23.74V-83.4A8.073,8.073,0,0,0-16.2-91.456v-19.376Z" transform="translate(56.033 134.784)" fill="#f6a96c"/>
          </g>
          <g id="g7429" transform="translate(76.692 26.777)">
            <path id="path7431" d="M-22.164-200.493v-38.349a4.976,4.976,0,0,1,2.584-4.364,4.952,4.952,0,0,0-2.395-.614,4.978,4.978,0,0,0-4.979,4.978v38.349a8.073,8.073,0,0,0,7.535,8.054v13.475h4.79V-192.44a8.073,8.073,0,0,1-7.535-8.054" transform="translate(26.953 243.821)" fill="#ea9b58"/>
          </g>
          <g id="g7433" transform="translate(76.692 26.777)">
            <path id="path7435" d="M-46.076-110.832V-129.8a4.979,4.979,0,0,0-4.979-4.979,4.978,4.978,0,0,0-4.978,4.979v38.349A8.073,8.073,0,0,0-48.5-83.4v13.475H-23.74V-83.4A8.073,8.073,0,0,0-16.2-91.456v-19.376Z" transform="translate(56.033 134.784)" fill="none" stroke="#000" stroke-linecap="round" stroke-linejoin="round" stroke-miterlimit="10" stroke-width="2.5"/>
          </g>
          <g id="g7437" transform="translate(86.65 45.077)">
            <path id="path7439" d="M-46.076-82.19h-9.957V-94.973a4.978,4.978,0,0,1,4.978-4.979,4.979,4.979,0,0,1,4.979,4.979Z" transform="translate(56.033 99.952)" fill="#f6a96c"/>
          </g>
          <g id="g7441" transform="translate(86.65 45.077)">
            <path id="path7443" d="M-34.161-2.867a4.954,4.954,0,0,0-2.4-.62h0a4.978,4.978,0,0,0-4.978,4.978V14.275h4.808V1.492a4.975,4.975,0,0,1,2.575-4.359" transform="translate(41.544 3.487)" fill="#ea9b58"/>
          </g>
          <g id="g7445" transform="translate(86.65 45.077)">
            <path id="path7447" d="M-46.076-82.19h-9.957V-94.973a4.978,4.978,0,0,1,4.978-4.979,4.979,4.979,0,0,1,4.979,4.979Z" transform="translate(56.033 99.952)" fill="none" stroke="#000" stroke-linecap="round" stroke-linejoin="round" stroke-miterlimit="10" stroke-width="2.5"/>
          </g>
          <g id="g7449" transform="translate(96.607 45.077)">
            <path id="path7451" d="M-23.037-82.19h-4.978V-94.973a4.979,4.979,0,0,1,4.978-4.979h0a4.979,4.979,0,0,1,4.978,4.979v7.8a4.979,4.979,0,0,1-4.979,4.979" transform="translate(28.016 99.952)" fill="#f6a96c"/>
          </g>
          <g id="g7453" transform="translate(96.607 45.077)">
            <path id="path7455" d="M-34.148-2.858a4.956,4.956,0,0,0-2.4-.618A4.979,4.979,0,0,0-41.528,1.5V14.285h4.8V1.5a4.976,4.976,0,0,1,2.578-4.361" transform="translate(41.528 3.476)" fill="#ea9b58"/>
          </g>
          <g id="g7457" transform="translate(96.607 45.077)">
            <path id="path7459" d="M-23.037-82.19h-4.978V-94.973a4.979,4.979,0,0,1,4.978-4.979h0a4.979,4.979,0,0,1,4.978,4.979v7.8A4.979,4.979,0,0,1-23.037-82.19Z" transform="translate(28.016 99.952)" fill="none" stroke="#000" stroke-linecap="round" stroke-linejoin="round" stroke-miterlimit="10" stroke-width="2.5"/>
          </g>
          <g id="g7461" transform="translate(106.564 45.077)">
            <path id="path7463" d="M-23.039-82.19h0a4.979,4.979,0,0,1-4.979-4.979v-7.8a4.979,4.979,0,0,1,4.979-4.979,4.979,4.979,0,0,1,4.979,4.979v7.8a4.979,4.979,0,0,1-4.979,4.979" transform="translate(28.017 99.952)" fill="#f6a96c"/>
          </g>
          <g id="g7465" transform="translate(106.564 45.077)">
            <path id="path7467" d="M-22.191-59.152v-7.8a4.976,4.976,0,0,1,2.581-4.363,4.955,4.955,0,0,0-2.4-.616,4.978,4.978,0,0,0-4.978,4.979v7.8a4.979,4.979,0,0,0,4.978,4.979,4.955,4.955,0,0,0,2.4-.616,4.976,4.976,0,0,1-2.581-4.363" transform="translate(26.987 71.934)" fill="#ea9b58"/>
          </g>
          <g id="g7469" transform="translate(106.564 45.077)">
            <path id="path7471" d="M-23.039-82.19h0a4.979,4.979,0,0,1-4.979-4.979v-7.8a4.979,4.979,0,0,1,4.979-4.979,4.979,4.979,0,0,1,4.979,4.979v7.8A4.979,4.979,0,0,1-23.039-82.19Z" transform="translate(28.017 99.952)" fill="none" stroke="#000" stroke-linecap="round" stroke-linejoin="round" stroke-miterlimit="10" stroke-width="2.5"/>
          </g>
          <g id="g7473" transform="translate(76.692 56.649)">
            <path id="path7475" d="M-89.039,0H-103.3a4.979,4.979,0,0,0-4.979,4.979v8.477a8.074,8.074,0,0,0,8.073,8.074h1.884V9.957h9.285a4.979,4.979,0,0,0,4.979-4.978A4.979,4.979,0,0,0-89.039,0" transform="translate(108.281)" fill="#f6a96c"/>
          </g>
          <g id="g7477" transform="translate(76.692 56.649)">
            <path id="path7479" d="M-37.359-99.625a8.074,8.074,0,0,1-8.073-8.074v-8.477a4.979,4.979,0,0,1,4.978-4.978H-26.19a4.979,4.979,0,0,1,4.978,4.978A4.979,4.979,0,0,1-26.19-111.2h-9.285v3.768" transform="translate(45.432 121.154)" fill="none" stroke="#000" stroke-linecap="round" stroke-linejoin="round" stroke-miterlimit="10" stroke-width="2.5"/>
          </g>
          <g id="g7481" transform="translate(79.383 86.106)">
            <path id="path7483" d="M0-9.585V2.027A2.071,2.071,0,0,0,2.071,4.1h30.3a2.071,2.071,0,0,0,2.072-2.071V-9.585a2.071,2.071,0,0,0-2.072-2.071H2.071A2.071,2.071,0,0,0,0-9.585" transform="translate(0 11.656)" fill="#8ac9fe"/>
          </g>
          <g id="g7485" transform="translate(79.383 86.106)">
            <path id="path7487" d="M-46-63.316V-74.927A2.071,2.071,0,0,1-43.932-77h-9.941a2.071,2.071,0,0,0-2.072,2.071v11.612a2.071,2.071,0,0,0,2.072,2.071h9.941A2.071,2.071,0,0,1-46-63.316" transform="translate(55.945 76.998)" fill="#60b8fe"/>
          </g>
          <g id="g7489" transform="translate(79.383 86.106)">
            <path id="path7491" d="M-132.619-72.9h3.716a2.071,2.071,0,0,0,2.071-2.071V-86.583a2.071,2.071,0,0,0-2.071-2.071h-30.3a2.071,2.071,0,0,0-2.072,2.071v11.612a2.071,2.071,0,0,0,2.072,2.071h18.3" transform="translate(161.278 88.654)" fill="none" stroke="#000" stroke-linecap="round" stroke-linejoin="round" stroke-miterlimit="10" stroke-width="2.5"/>
          </g>
        </g>
      </g>
    </g>
  </g>
</svg>
