<svg xmlns="http://www.w3.org/2000/svg" xmlns:xlink="http://www.w3.org/1999/xlink" width="400" height="259" viewBox="0 0 400 259">
  <defs>
    <clipPath id="clip-path">
      <rect id="Rectángulo_421189" data-name="Rectángulo 421189" width="400" height="259" transform="translate(1020 816)" fill="#fff" stroke="#707070" stroke-width="1"/>
    </clipPath>
  </defs>
  <g id="Enmascarar_grupo_1098936" data-name="Enmascarar grupo 1098936" transform="translate(-1020 -816)" clip-path="url(#clip-path)">
    <g id="Grupo_1220093" data-name="Grupo 1220093">
      <rect id="Rectángulo_421188" data-name="Rectángulo 421188" width="362" height="139" rx="37" transform="translate(1039 894)" fill="#ba9c5a"/>
      <g id="Grupo_1219628" data-name="Grupo 1219628" transform="translate(827.338 581.021)">
        <g id="Grupo_1219608" data-name="Grupo 1219608" transform="translate(276.509 286.9)">
          <path id="Trazado_1090673" data-name="Trazado 1090673" d="M302.9,276.141c-10.161,1.6,0,16.228,0,16.228S313.065,277.736,302.9,276.141Z" transform="translate(-249.766 -276.141)" fill="#7c4a10"/>
          <g id="Grupo_1219606" data-name="Grupo 1219606" transform="translate(4.969 15.354)">
            <path id="Trazado_1090674" data-name="Trazado 1090674" d="M280.63,323.047l2.083-36.063.709.316,8.006,35.747h1.192l-8.19-36.571-2.782-1.239-2.183,37.81Z" transform="translate(-267.751 -285.237)" fill="#3c3c3c"/>
            <path id="Trazado_1090675" data-name="Trazado 1090675" d="M273.745,322.762,285.315,286l-1.111-.349-11.679,37.111Z" transform="translate(-272.525 -284.952)" fill="#3c3c3c"/>
          </g>
          <path id="Trazado_1090676" data-name="Trazado 1090676" d="M269.581,307.235c.066,7.613,7.761,13.767,17.251,13.767s17.185-6.156,17.249-13.767Z" transform="translate(-269.581 -254.75)" fill="#7c4a10"/>
          <g id="Grupo_1219607" data-name="Grupo 1219607" transform="translate(76.436 15.354)">
            <path id="Trazado_1090677" data-name="Trazado 1090677" d="M334.808,322.762l-11.679-37.111L322.02,286l11.568,36.762Z" transform="translate(-309.941 -284.952)" fill="#3c3c3c"/>
            <path id="Trazado_1090678" data-name="Trazado 1090678" d="M316.056,323.047l8.006-35.747.707-.316,2.083,36.063h1.166l-2.184-37.81-2.78,1.239-8.19,36.571Z" transform="translate(-314.864 -285.237)" fill="#3c3c3c"/>
          </g>
          <path id="Trazado_1090679" data-name="Trazado 1090679" d="M346.6,307.235c-.066,7.613-7.761,13.767-17.251,13.767s-17.185-6.156-17.251-13.767Z" transform="translate(-240.329 -254.75)" fill="#7c4a10"/>
          <path id="Trazado_1090680" data-name="Trazado 1090680" d="M303.412,310.918a11.3,11.3,0,0,0,.668-3.683h-34.5a11.264,11.264,0,0,0,.668,3.683Z" transform="translate(-269.58 -254.75)" fill="#f4bc02"/>
          <path id="Trazado_1090681" data-name="Trazado 1090681" d="M345.934,310.918a11.344,11.344,0,0,0,.668-3.683H312.1a11.307,11.307,0,0,0,.668,3.683Z" transform="translate(-240.329 -254.75)" fill="#f4bc02"/>
          <path id="Trazado_1090682" data-name="Trazado 1090682" d="M310.31,287.857l-6.573-2.62-6.569,2.62s6.382,26.467,1.737,55.356l4.833,1.359,4.834-1.359C303.927,314.324,310.31,287.857,310.31,287.857Z" transform="translate(-250.602 -269.883)" fill="#7c4a10"/>
          <path id="Trazado_1090683" data-name="Trazado 1090683" d="M324.214,326.293c-2.053-4.7-8.632-8.144-16.449-8.144s-14.395,3.443-16.447,8.144Z" transform="translate(-254.628 -247.242)" fill="#7c4a10"/>
          <path id="Trazado_1090684" data-name="Trazado 1090684" d="M308.728,319.689c0,2.088-2.439,3.781-5.449,3.781s-5.445-1.693-5.445-3.781,2.437-3.781,5.445-3.781S308.728,317.6,308.728,319.689Z" transform="translate(-250.144 -248.783)" fill="#8b6b4d"/>
          <path id="Trazado_1090685" data-name="Trazado 1090685" d="M304.26,285.36c-.206.191-.39.365-.522.493-.13-.128-.312-.3-.52-.493l-6.051,2.412a52.459,52.459,0,0,1,1.7,6.828c.871.263,3.832.673,4.875-5.515,1.045,6.188,4,5.778,4.875,5.515a52.593,52.593,0,0,1,1.7-6.828Z" transform="translate(-250.603 -269.799)" fill="#9d9c96" opacity="0.35"/>
          <path id="Trazado_1090686" data-name="Trazado 1090686" d="M318.683,285.813s-8.065-8.725-15.956-5.236-17.394,12.022-27.282,5.236c0,0-.388,16.093,21.621,7.174,0,0,7.062-4.654,16.182,1.163C313.248,294.15,318.1,296.475,318.683,285.813Z" transform="translate(-265.548 -273.656)" fill="#8b6b4d"/>
          <path id="Trazado_1090687" data-name="Trazado 1090687" d="M301.06,285.813s8.067-8.725,15.958-5.236,17.393,12.022,27.281,5.236c0,0,.387,16.093-21.619,7.174,0,0-7.062-4.654-16.182,1.163C306.5,294.15,301.642,296.475,301.06,285.813Z" transform="translate(-247.925 -273.656)" fill="#8b6b4d"/>
          <path id="Trazado_1090688" data-name="Trazado 1090688" d="M306.235,286.735a3.676,3.676,0,1,1-3.676-3.676A3.676,3.676,0,0,1,306.235,286.735Z" transform="translate(-249.423 -271.382)" fill="#f4bc02"/>
          <path id="Trazado_1090689" data-name="Trazado 1090689" d="M329.956,328.15H288.9l.739-2.2a4.792,4.792,0,0,1,4.544-3.268h30.491a4.789,4.789,0,0,1,4.544,3.268Z" transform="translate(-256.29 -244.125)" fill="#7c4a10"/>
          <path id="Trazado_1090690" data-name="Trazado 1090690" d="M336.346,331.384H286.21l1.229-3.237a4.8,4.8,0,0,1,4.482-3.094h38.713a4.791,4.791,0,0,1,4.482,3.094Z" transform="translate(-258.141 -242.493)" fill="#8b6b4d"/>
        </g>
        <g id="Grupo_1219619" data-name="Grupo 1219619" transform="translate(423.643 300.961)">
          <g id="Grupo_1219617" data-name="Grupo 1219617">
            <g id="Grupo_1219612" data-name="Grupo 1219612" transform="translate(21.535)">
              <path id="Trazado_1090691" data-name="Trazado 1090691" d="M416.712,299.828l-15.624-15.357v15.357Z" transform="translate(-347.779 -284.471)" fill="#cdcdcd"/>
              <g id="Grupo_1219609" data-name="Grupo 1219609">
                <path id="Trazado_1090692" data-name="Trazado 1090692" d="M422.815,284.471H369.506v82.617h68.933v-67.26H422.815Z" transform="translate(-369.506 -284.471)" fill="#e4e5e5"/>
                <path id="Trazado_1090693" data-name="Trazado 1090693" d="M401.088,299.828h15.624l-15.624-15.357Z" transform="translate(-347.779 -284.471)" fill="#c9c9c9"/>
              </g>
              <g id="Grupo_1219610" data-name="Grupo 1219610" transform="translate(8.504 41.308)">
                <rect id="Rectángulo_421016" data-name="Rectángulo 421016" width="53.348" height="3.575" fill="#a0a4a4"/>
                <rect id="Rectángulo_421017" data-name="Rectángulo 421017" width="53.348" height="3.573" transform="translate(0 6.551)" fill="#a0a4a4"/>
                <rect id="Rectángulo_421018" data-name="Rectángulo 421018" width="53.348" height="3.573" transform="translate(0 13.102)" fill="#a0a4a4"/>
                <rect id="Rectángulo_421019" data-name="Rectángulo 421019" width="53.348" height="3.573" transform="translate(0 19.653)" fill="#a0a4a4"/>
                <rect id="Rectángulo_421020" data-name="Rectángulo 421020" width="53.348" height="3.575" transform="translate(0 26.202)" fill="#a0a4a4"/>
              </g>
              <g id="Grupo_1219611" data-name="Grupo 1219611" transform="translate(8.504 21.894)">
                <rect id="Rectángulo_421021" data-name="Rectángulo 421021" width="53.348" height="3.573" fill="#a0a4a4"/>
                <rect id="Rectángulo_421022" data-name="Rectángulo 421022" width="53.348" height="3.573" transform="translate(0 6.551)" fill="#a0a4a4"/>
                <rect id="Rectángulo_421023" data-name="Rectángulo 421023" width="53.348" height="3.575" transform="translate(0 13.1)" fill="#a0a4a4"/>
              </g>
            </g>
            <path id="Trazado_1090694" data-name="Trazado 1090694" d="M411.284,294.519h-41.7v65.317h57.328v-49.96Z" transform="translate(-347.92 -277.558)" fill="#c6c8c8" opacity="0.74"/>
            <g id="Grupo_1219616" data-name="Grupo 1219616" transform="translate(0 19.415)">
              <path id="Trazado_1090695" data-name="Trazado 1090695" d="M403.954,311.328,388.33,295.973v15.355Z" transform="translate(-335.021 -295.973)" fill="#cdcdcd"/>
              <g id="Grupo_1219613" data-name="Grupo 1219613">
                <path id="Trazado_1090696" data-name="Trazado 1090696" d="M410.057,295.973H356.748V378.59h68.933V311.328H410.057Z" transform="translate(-356.748 -295.973)" fill="#dedfdf"/>
                <path id="Trazado_1090697" data-name="Trazado 1090697" d="M388.33,311.328h15.624L388.33,295.973Z" transform="translate(-335.021 -295.973)" fill="#a8a8a8"/>
              </g>
              <g id="Grupo_1219614" data-name="Grupo 1219614" transform="translate(8.504 41.308)">
                <path id="Trazado_1090698" data-name="Trazado 1090698" d="M379.714,320.445H361.786v3.573h17.823A30.213,30.213,0,0,1,379.714,320.445Z" transform="translate(-361.786 -320.445)" fill="#b5b8b8"/>
                <path id="Trazado_1090699" data-name="Trazado 1090699" d="M379.824,324.789c-.015-.155-.027-.311-.039-.462h-18V327.9h18.431Q379.972,326.376,379.824,324.789Z" transform="translate(-361.785 -317.774)" fill="#b5b8b8"/>
                <path id="Trazado_1090700" data-name="Trazado 1090700" d="M380.821,328.206H361.786v3.575h20.237A23.853,23.853,0,0,1,380.821,328.206Z" transform="translate(-361.786 -315.106)" fill="#b5b8b8"/>
                <path id="Trazado_1090701" data-name="Trazado 1090701" d="M383.647,332.087H361.786v3.573h25.086A17.108,17.108,0,0,1,383.647,332.087Z" transform="translate(-361.786 -312.436)" fill="#b5b8b8"/>
                <path id="Trazado_1090702" data-name="Trazado 1090702" d="M390.465,333.094a5.45,5.45,0,0,1-2.3,2.567h8.825v-3.573h-4.833A19.042,19.042,0,0,1,390.465,333.094Z" transform="translate(-343.639 -312.435)" fill="#b5b8b8"/>
                <rect id="Rectángulo_421024" data-name="Rectángulo 421024" width="53.348" height="3.573" transform="translate(0 26.202)" fill="#b5b8b8"/>
              </g>
              <g id="Grupo_1219615" data-name="Grupo 1219615" transform="translate(8.504 21.893)">
                <rect id="Rectángulo_421025" data-name="Rectángulo 421025" width="53.348" height="3.575" transform="translate(0)" fill="#b5b8b8"/>
                <path id="Trazado_1090703" data-name="Trazado 1090703" d="M395.239,316.4h1.345v-3.573h-7.832A26.463,26.463,0,0,1,395.239,316.4Z" transform="translate(-343.235 -306.273)" fill="#b5b8b8"/>
                <path id="Trazado_1090704" data-name="Trazado 1090704" d="M385.566,315.089a21.76,21.76,0,0,1,2.107-2.265H361.786V316.4h22.072A12.36,12.36,0,0,1,385.566,315.089Z" transform="translate(-361.786 -306.273)" fill="#b5b8b8"/>
                <path id="Trazado_1090705" data-name="Trazado 1090705" d="M381.5,316.705H361.786v3.573h18.363A14.114,14.114,0,0,1,381.5,316.705Z" transform="translate(-361.786 -303.603)" fill="#b5b8b8"/>
              </g>
            </g>
          </g>
          <path id="Trazado_1090706" data-name="Trazado 1090706" d="M400.7,308.609c-14.152,0-26.921,11.473-26.921,25.625s12.769,25.625,26.921,25.625a25.477,25.477,0,0,0,13.269-3.725v-5.651h14.846l-5.381-4.433a25.62,25.62,0,0,0-22.733-37.44Zm0,43.024c-9.608,0-18.7-7.79-18.7-17.4s9.088-17.4,18.7-17.4a17.4,17.4,0,0,1,0,34.8Z" transform="translate(-345.034 -267.865)" fill="#838383" opacity="0.24"/>
          <g id="Grupo_1219618" data-name="Grupo 1219618" transform="translate(21.619 38.72)">
            <path id="Trazado_1090707" data-name="Trazado 1090707" d="M391,346.641l-8.8-9.179,2.858-2.979,2.65,2.588,1.229-.679-7.218-7.275,2.1-5.268-.132-.626-2.022-2.267L383.894,317l7.108-.876,15.259,14.829S409.031,348.111,391,346.641Z" transform="translate(-361.227 -301.414)" fill="#838383" opacity="0.54"/>
            <path id="Trazado_1090708" data-name="Trazado 1090708" d="M390.471,331.662a3.857,3.857,0,0,0,1.323-.682,4.1,4.1,0,0,0,1.293-3.337,3.846,3.846,0,0,0-.864-2.414,10.11,10.11,0,0,0-2.562-2.184l-2.259-1.436a8.745,8.745,0,0,1-1.573-1.17,1.694,1.694,0,0,1-.437-1.225,1.47,1.47,0,0,1,.429-1.151,2.072,2.072,0,0,1,1.4-.385,1.473,1.473,0,0,1,1.315.508,3.074,3.074,0,0,1,.343,1.663h3.844a4.376,4.376,0,0,0-1.126-3.128q-1.129-1.127-4.323-1.129t-4.5.969a3.444,3.444,0,0,0-1.306,2.962,3.245,3.245,0,0,0,.787,2.157,8.039,8.039,0,0,0,1.544,1.369,3.9,3.9,0,0,0-1.323.682,4.1,4.1,0,0,0-1.293,3.337,3.838,3.838,0,0,0,.866,2.414,10.068,10.068,0,0,0,2.561,2.184l2.257,1.436a8.744,8.744,0,0,1,1.573,1.17,1.694,1.694,0,0,1,.437,1.225,1.47,1.47,0,0,1-.429,1.153,2.078,2.078,0,0,1-1.4.383,1.479,1.479,0,0,1-1.315-.506,3.1,3.1,0,0,1-.343-1.678v-.025h-3.843a4.4,4.4,0,0,0,1.128,3.165q1.127,1.127,4.321,1.129t4.5-.969a3.445,3.445,0,0,0,1.308-2.962,3.248,3.248,0,0,0-.787-2.157A8.157,8.157,0,0,0,390.471,331.662Zm-4.659-3.232a2.69,2.69,0,0,1-.623-1.769,2.389,2.389,0,0,1,.351-1.462,1.436,1.436,0,0,1,1.04-.43,7.707,7.707,0,0,1,1.882,1.517,2.693,2.693,0,0,1,.623,1.769,2.4,2.4,0,0,1-.349,1.462,1.437,1.437,0,0,1-1.041.43A7.668,7.668,0,0,1,385.812,328.43Z" transform="translate(-361.558 -301.782)" fill="#353535"/>
            <path id="Trazado_1090709" data-name="Trazado 1090709" d="M436.743,360.364,417.917,344.85a25.657,25.657,0,1,0-5.3,6.951l18.571,15.3a4.322,4.322,0,0,0,6.083-.587l.054-.068A4.319,4.319,0,0,0,436.743,360.364Zm-41.562-9.932a17.4,17.4,0,1,1,17.4-17.4A17.4,17.4,0,0,1,395.181,350.433Z" transform="translate(-369.556 -307.41)" fill="#353535"/>
          </g>
        </g>
        <g id="Grupo_1219626" data-name="Grupo 1219626" transform="translate(259.51 260.502)">
          <g id="Grupo_1219621" data-name="Grupo 1219621" transform="translate(61.249)">
            <path id="Trazado_1090710" data-name="Trazado 1090710" d="M378.487,264.508c-3.947-1.717-15.529-3.96-20.828-4-5.3.044-16.881,2.287-20.828,4-18.35,7.979-18.574,23.476-18.574,47.615h78.8C397.061,287.984,396.838,272.487,378.487,264.508Z" transform="translate(-280.344 -260.5)" fill="#3c3c3c"/>
            <g id="Grupo_1219620" data-name="Grupo 1219620" transform="translate(44.905 99.995)">
              <path id="Trazado_1090711" data-name="Trazado 1090711" d="M370.5,319.742H339.951s4.665,26.536-17.551,48.475L353.757,406.1h2.935l31.359-37.886C365.834,346.278,370.5,319.742,370.5,319.742Z" transform="translate(-322.398 -319.742)" fill="#fcc083"/>
              <path id="Trazado_1090712" data-name="Trazado 1090712" d="M364.942,319.742H334.4a56.368,56.368,0,0,1-3.919,28.2c12.759-4.978,22.927-15.479,34.151-25.12C364.748,320.866,364.942,319.742,364.942,319.742Z" transform="translate(-316.842 -319.742)" fill="#e8aa63"/>
              <path id="Trazado_1090713" data-name="Trazado 1090713" d="M338.306,332.454A59.424,59.424,0,0,1,322.4,359.471l31.359,37.886h2.935l31.359-37.886a59.424,59.424,0,0,1-15.907-27.017l-16.766,9.26Z" transform="translate(-322.399 -310.997)" fill="#eceded"/>
              <path id="Trazado_1090714" data-name="Trazado 1090714" d="M331.907,332.454c-2.258,8.362,14.773,21.484,14.773,21.484l-8.512,43.419,10.658,6.4,10.634-6.4-8.008-43.18s16.554-13.362,14.3-21.724l-16.766,9.26Z" transform="translate(-316 -310.997)" fill="#353535"/>
            </g>
            <path id="Trazado_1090715" data-name="Trazado 1090715" d="M398.694,304.313c-1.178-3.04-3.237-1.469-4.841.532.461-23.594-12-35.574-12-35.574H335.068s-12.54,11.954-12.141,35.4c-1.58-1.914-3.551-3.31-4.7-.36-2.127,5.486,2.871,13,1.914,20.618-.646,5.152,3.416,4.633,5.989,3.2A89.29,89.29,0,0,0,330.853,342c4.892,11.377,18.929,21.737,27.542,21.737S380.84,353.292,385.936,342a65.953,65.953,0,0,0,4.736-13.934c2.562,1.49,6.769,2.1,6.11-3.129C395.821,317.313,400.821,309.8,398.694,304.313Z" transform="translate(-280.728 -254.469)" fill="#fcc083"/>
            <path id="Trazado_1090716" data-name="Trazado 1090716" d="M376.441,337.461l-8.9-5.2-15.609,9.581-15.608-9.581-8.9,5.2,15.337,21.749,9.176-13.639,9.177,13.639Z" transform="translate(-274.043 -211.133)" fill="#7d7d7d" opacity="0.35"/>
            <path id="Trazado_1090717" data-name="Trazado 1090717" d="M341.938,343.832l9.177,12.493,14.675-21.753-8.244-5.2Z" transform="translate(-264.053 -213.12)" fill="#eceded"/>
            <path id="Trazado_1090718" data-name="Trazado 1090718" d="M351.772,343.832,342.6,356.325l-14.952-21.209,8.214-5.741Z" transform="translate(-273.886 -213.12)" fill="#eceded"/>
            <path id="Trazado_1090719" data-name="Trazado 1090719" d="M442.854,352.223c-5.947-10.828-51.369-21.761-51.369-21.761s.005.076.008.169l-.572-.169c0,.056,1.5,15.04-5.5,36.455-2.319,7.1-4.927,14.31-7.192,20.335-.891,2.368-4.551,12.234-4.551,12.234s-4.492-9.866-5.383-12.234c-2.265-6.023-4.873-13.232-7.192-20.335-6.993-21.415-5.5-36.4-5.5-36.455l-.57.169c0-.093.007-.162.008-.169s-45.421,10.933-51.371,21.761c-3.109,5.663-6.08,51.2-7.879,72.79H450.733C448.934,403.425,445.965,357.886,442.854,352.223Z" transform="translate(-295.796 -212.372)" fill="#4d5053"/>
            <path id="Trazado_1090720" data-name="Trazado 1090720" d="M382.247,350.854l5.778-16.724L374.4,330.119s.856,14.521-5.4,35.282a333.076,333.076,0,0,1-12.636,33.7,352.909,352.909,0,0,1-12.432-33.7c-6.257-20.762-5.4-35.282-5.4-35.282l-13.624,4.011,5.778,16.724-9.861,4.757,35.6,44.925,35.69-44.925Z" transform="translate(-278.578 -212.608)" fill="#787878"/>
            <path id="Trazado_1090721" data-name="Trazado 1090721" d="M325.661,274.612s26.238,49.232,67.427-1.912C393.088,272.7,356.986,244.021,325.661,274.612Z" transform="translate(-275.25 -260.502)" fill="#3c3c3c"/>
            <path id="Trazado_1090722" data-name="Trazado 1090722" d="M329.089,326.873c-1.693-14.559-3.129-48.618,18.67-58.12l-6.672-3.226s-19.5,3.943-21.288,34.056l5.229,31.786h.047A4.03,4.03,0,0,0,329.089,326.873Z" transform="translate(-279.284 -257.044)" fill="#3c3c3c"/>
            <path id="Trazado_1090723" data-name="Trazado 1090723" d="M369.805,331.287h.214l5.2-31.583c-1.791-30.113-21.288-34.056-21.288-34.056l-6.671,3.226c21.776,9.493,20.362,43.5,18.674,58.081A3.885,3.885,0,0,0,369.805,331.287Z" transform="translate(-260.394 -256.961)" fill="#3c3c3c"/>
          </g>
          <path id="Trazado_1090724" data-name="Trazado 1090724" d="M353.563,338.533l-6.941-6.823-4.5,1.325.024.071c-13.907,4.088-34.586,11.194-38.468,18.259-3.109,5.663-6.08,51.2-7.879,72.79h57.767V338.533Z" transform="translate(-234.546 -211.514)" fill="#c6c8c8" opacity="0.74"/>
          <g id="Grupo_1219625" data-name="Grupo 1219625" transform="translate(0 107.258)">
            <path id="Trazado_1090725" data-name="Trazado 1090725" d="M322.975,344.692l-21-20.647v20.647Z" transform="translate(-230.3 -324.045)" fill="#cdcdcd"/>
            <g id="Grupo_1219622" data-name="Grupo 1219622">
              <path id="Trazado_1090726" data-name="Trazado 1090726" d="M331.18,324.045H259.51V435.122h92.675v-90.43h-21Z" transform="translate(-259.51 -324.045)" fill="#e8e9e9"/>
              <path id="Trazado_1090727" data-name="Trazado 1090727" d="M301.97,344.692h21l-21-20.647Z" transform="translate(-230.3 -324.045)" fill="#a8a8a8"/>
            </g>
            <g id="Grupo_1219623" data-name="Grupo 1219623" transform="translate(11.432 55.537)">
              <rect id="Rectángulo_421026" data-name="Rectángulo 421026" width="71.724" height="4.807" fill="#b5b8b8"/>
              <rect id="Rectángulo_421027" data-name="Rectángulo 421027" width="71.724" height="4.806" transform="translate(0 8.808)" fill="#b5b8b8"/>
              <rect id="Rectángulo_421028" data-name="Rectángulo 421028" width="71.724" height="4.806" transform="translate(0 17.615)" fill="#b5b8b8"/>
              <rect id="Rectángulo_421029" data-name="Rectángulo 421029" width="71.724" height="4.806" transform="translate(0 26.422)" fill="#b5b8b8"/>
              <rect id="Rectángulo_421030" data-name="Rectángulo 421030" width="71.724" height="4.806" transform="translate(0 35.228)" fill="#b5b8b8"/>
            </g>
            <g id="Grupo_1219624" data-name="Grupo 1219624" transform="translate(11.432 29.436)">
              <rect id="Rectángulo_421031" data-name="Rectángulo 421031" width="71.724" height="4.807" fill="#b5b8b8"/>
              <rect id="Rectángulo_421032" data-name="Rectángulo 421032" width="71.724" height="4.806" transform="translate(0 8.808)" fill="#b5b8b8"/>
              <rect id="Rectángulo_421033" data-name="Rectángulo 421033" width="71.724" height="4.807" transform="translate(0 17.614)" fill="#b5b8b8"/>
            </g>
          </g>
          <path id="Trazado_1090728" data-name="Trazado 1090728" d="M292.527,324.045c-.012.273-.017.537-.015.761-.013-.28-.051-.511-.078-.761h-8.777c-.025.282-.037.549-.035.78a4.816,4.816,0,0,0-.236-.78H275.15a5.211,5.211,0,0,0-.117,1.693,3.027,3.027,0,0,0-.538-1.693h-5.867a6.8,6.8,0,0,0-.95,3.722v8.843c-.034,2.243,1.475,4.076,3.367,4.1h.071a3.415,3.415,0,0,0,3.045-2.137,4.6,4.6,0,0,0,.441-1.892l.015-9.044h.712l-.042,11.6-.035,3.089c-.037,2.594,1.7,4.714,3.894,4.736l.081,0c2.188.022,3.992-2.064,4.031-4.659l.012-1,.069-13.767h.9l-.074,13.806-.034,2.5c-.037,2.594,1.706,4.714,3.9,4.736l.079,0c2.189.022,3.994-2.064,4.033-4.659l.052-4.141.054-12.248h.822l-.046,11.856-.035,2.829c-.035,2.594,1.708,4.714,3.9,4.736l.081,0c2.188.022,3.992-2.064,4.031-4.659,0,0,.16-14.265.16-14.6v-.025c0-1.058.074-2.419,0-3.722h-8.629Z" transform="translate(-253.892 -216.787)" fill="#c6c8c8" opacity="0.74"/>
          <path id="Trazado_1090729" data-name="Trazado 1090729" d="M299.755,328.3c-.008-2.915.614-8.112-3.04-8.112a8.017,8.017,0,0,0-4.012.444c-1.992.932-1.548,5.639-1.548,5.639.039-4.806-1.663-5.619-4.409-5.678-5.442-.118-4.449,5.678-4.449,5.678,0-2.858-1.708-4.615-4.13-4.618-5.243-.008-4.529,4.618-4.529,4.618a3.059,3.059,0,0,0-1.956-2.851,4.256,4.256,0,0,0-3.813.4,5.9,5.9,0,0,0-1.585,4.482v8.843c-.032,2.243,1.477,4.076,3.369,4.1h.069a3.413,3.413,0,0,0,3.045-2.137,4.633,4.633,0,0,0,.442-1.892l.015-9.044h.711l-.042,11.6-.035,3.089c-.037,2.594,1.706,4.714,3.894,4.736l.081,0c2.188.022,3.992-2.064,4.031-4.659l.012-1,.069-13.767h.9l-.076,13.806-.032,2.5c-.037,2.594,1.707,4.714,3.894,4.736l.081,0c2.188.022,3.992-2.064,4.031-4.659l.052-4.14.056-12.248h.822l-.047,11.856-.034,2.829c-.037,2.594,1.706,4.714,3.9,4.736l.079,0c2.189.022,3.992-2.064,4.031-4.659,0,0,.162-14.265.162-14.6A.061.061,0,0,1,299.755,328.3Z" transform="translate(-254.851 -219.466)" fill="#fcc083"/>
        </g>
        <g id="Grupo_1219627" data-name="Grupo 1219627" transform="translate(426.914 408.676)">
          <path id="Trazado_1090730" data-name="Trazado 1090730" d="M377.378,352.822v16.446h5.381v-13a1.784,1.784,0,0,1,1.747-1.82H406.9a1.783,1.783,0,0,1,1.747,1.82v13h5.381V352.822a4.451,4.451,0,0,0-4.36-4.537H381.736A4.448,4.448,0,0,0,377.378,352.822Z" transform="translate(-345.827 -348.285)" fill="#7c4a10"/>
          <path id="Trazado_1090731" data-name="Trazado 1090731" d="M453.161,427.236h-89.2a5.587,5.587,0,0,1-5.273-5.855V361.834a5.586,5.586,0,0,1,5.273-5.855h89.2a5.588,5.588,0,0,1,5.273,5.855V421.38A5.585,5.585,0,0,1,453.161,427.236Z" transform="translate(-358.686 -342.992)" fill="#8c5119"/>
          <path id="Trazado_1090732" data-name="Trazado 1090732" d="M453.161,400.852h-89.2c-2.912,0-5.273-1.651-5.273-3.688v-37.5c0-2.037,2.36-3.688,5.273-3.688h89.2c2.912,0,5.273,1.651,5.273,3.688v37.5C458.434,399.2,456.074,400.852,453.161,400.852Z" transform="translate(-358.686 -342.992)" fill="#9d6b3b" opacity="0.35"/>
          <path id="Trazado_1090733" data-name="Trazado 1090733" d="M453.161,395.162h-89.2c-2.912,0-5.273-1.441-5.273-3.219V359.2c0-1.779,2.36-3.219,5.273-3.219h89.2c2.912,0,5.273,1.442,5.273,3.219v32.745C458.434,393.721,456.074,395.162,453.161,395.162Z" transform="translate(-358.686 -342.991)" fill="#9d6b3b"/>
          <path id="Trazado_1090734" data-name="Trazado 1090734" d="M398.533,377.074H385.2a2.29,2.29,0,0,0-2.243,2.336v8.332a2.29,2.29,0,0,0,2.243,2.336h13.335a2.29,2.29,0,0,0,2.243-2.336V379.41A2.29,2.29,0,0,0,398.533,377.074Zm-.932,9.054a1.438,1.438,0,0,1-1.443,1.431h-8.585a1.437,1.437,0,0,1-1.443-1.431v-5.1a1.438,1.438,0,0,1,1.443-1.431h8.585a1.437,1.437,0,0,1,1.443,1.431Z" transform="translate(-341.99 -328.48)" fill="#ffc002"/>
        </g>
      </g>
    </g>
  </g>
</svg>
