<svg xmlns="http://www.w3.org/2000/svg" width="120.439" height="128" viewBox="0 0 120.439 128">
  <g id="Grupo_1220008" data-name="Grupo 1220008" transform="translate(-511.561 -3050)">
    <rect id="Rectángulo_421239" data-name="Rectángulo 421239" width="83" height="128" transform="translate(549 3050)" fill="#1172b3"/>
    <g id="blindfold_6333063" transform="translate(511.56 3060.565)">
      <g id="Grupo_1220006" data-name="Grupo 1220006" transform="translate(1.712 2.4)">
        <path id="Trazado_1091388" data-name="Trazado 1091388" d="M245.455,196.015a7.381,7.381,0,1,0-13.074,2.175,7.381,7.381,0,1,0,13.074-2.175Z" transform="translate(-179.893 -145.742)" fill="#a65d4e"/>
        <path id="Trazado_1091389" data-name="Trazado 1091389" d="M113.564,149.116c-2.865-1.3-5.922-3.733-5.922-7.176s3.03-5.314,5.922-5.314H146.15c2.892,0,5.694,1.87,5.694,5.314s-2.829,5.874-5.694,7.176Z" transform="translate(-84.74 -107.258)" fill="#d09180"/>
        <path id="Trazado_1091390" data-name="Trazado 1091390" d="M391.587,8.315c-2.836-.424-6.063.2-7.741,1.881a6.861,6.861,0,0,0-1,8.436C391.6,22.737,395.559,12.288,391.587,8.315Z" transform="translate(-296.239 -8.187)" fill="#ebae9d"/>
        <path id="Trazado_1091391" data-name="Trazado 1091391" d="M119.215,135.661h-6.86a63.571,63.571,0,0,1-5.775,12.7,9.485,9.485,0,0,1-2.216,2.065s-.775,4.991-7.831,4.991c-2.354,1.372-4.794,2.728-6.936,3.894l-8.172,7.208H60.846l-10.372,2.994a26.975,26.975,0,0,0-9.079,4.622c-4.157,3.232-9.183,10.736-12.84,17.351l32.089,13.719L91.488,176.44c3.653-2.921,19.8-15.533,23.109-22.324,1.851-3.8,3.587-10.73,4.619-18.455Z" transform="translate(-23.736 -106.513)" fill="#ebae9d"/>
        <path id="Trazado_1091392" data-name="Trazado 1091392" d="M123.33,10.629a7.619,7.619,0,0,0-4.246-1.881c1.971,3-.078,11.923-8.738,10.317a6.856,6.856,0,0,0,5.847,3.274,96.323,96.323,0,0,1-3.838,15.428l4.459,2.426a84.73,84.73,0,0,1-3.428,12.34h-9.022a89.258,89.258,0,0,1-7.831,4.991c3.55,2.866,7.126,4.092,10.7,3.677A163.117,163.117,0,0,1,91.488,75.345l-3.2-9.85A12.349,12.349,0,0,0,89.6,61.419c-3.662,1.992-6.453,3.426-6.453,3.426l-7.417-4.169L61.98,61.44V68.3l-1.134.327c.355.367.716.7,1.073,1.005,3.761,3.193,8.033,5.051,11.507,5.051a13.268,13.268,0,0,0,4.33-.812V94.746L46.124,89.695a25.191,25.191,0,0,1,1.531-2.948,1.715,1.715,0,1,0-2.938-1.769c-2.548,4.232-3.889,7.847-3.753,12.134L28.555,93.595v13.719H85.8l7.263-27.33s19.975-15.149,24.282-23.763c4.019-8.037,9.92-41.663,5.99-45.593Z" transform="translate(-23.736 -8.62)" fill="#d09180"/>
        <path id="Trazado_1091393" data-name="Trazado 1091393" d="M119.423,372.341v-9.582H100.234a16.506,16.506,0,0,0-1.446,8.47l3.924,3.4Z" transform="translate(-77.846 -281.684)" fill="#bed9fd"/>
        <path id="Trazado_1091394" data-name="Trazado 1091394" d="M99.071,399.8a18.454,18.454,0,0,0,1.638,5.685l2.973.927,16.022-3.649v-1.851h-12.63A29.355,29.355,0,0,1,99.071,399.8Z" transform="translate(-78.128 -310.257)" fill="#9ec8fc"/>
        <path id="Trazado_1091395" data-name="Trazado 1091395" d="M176.024,291.267l-1.649-14.223-7.679,4.58c-2.368,6.964-7.427,15.511-17.729,24.6l19.8,2.287C172.885,301.613,174.658,297.421,176.024,291.267Z" transform="translate(-116.616 -215.569)" fill="#faf8f8"/>
        <path id="Trazado_1091396" data-name="Trazado 1091396" d="M233.312,255.411l2.517,7.75V243.688a4.7,4.7,0,0,0-4.414-3.081,4.547,4.547,0,0,0-2.816,1.421l-.186.542a34.029,34.029,0,0,1-1.911,10.949,12.651,12.651,0,0,0,2.773-.443A3.31,3.31,0,0,1,233.312,255.411Z" transform="translate(-176.422 -187.463)" fill="#e1dee2"/>
        <path id="Trazado_1091397" data-name="Trazado 1091397" d="M145.835,404.665h-19.8q-2.569,2.266-5.582,4.573l-1.215.927L136.1,415.42l9.74-8.468Z" transform="translate(-93.685 -314.008)" fill="#e1dee2"/>
        <path id="Trazado_1091398" data-name="Trazado 1091398" d="M242.245,339.366l-8.794-22.322a67.767,67.767,0,0,1-7.9,20.035Z" transform="translate(-175.691 -246.422)" fill="#bed9fd"/>
        <path id="Trazado_1091399" data-name="Trazado 1091399" d="M28.056,395.714s4.043,4.573,12.294,4.573a3.715,3.715,0,0,0,3.964-3.964l-2.287-6.2c-.534-.041-1.1-.056-1.678-.056H30.061L12.3,379.817a71.951,71.951,0,0,0-4.414,9.23,6.633,6.633,0,0,0-.318,3.353,7.88,7.88,0,0,0,6.585,3.314Z" transform="translate(-7.48 -294.842)" fill="#ebae9d"/>
        <path id="Trazado_1091400" data-name="Trazado 1091400" d="M42.323,424.909v6.2c0,1.013-.317,1.678-1.678,1.678-8.251,0-12.294-4.573-12.294-4.573h-13.9a20.88,20.88,0,0,1-6.585-1.028,6.668,6.668,0,0,0,6.585,5.6h13.9s4.043,6.86,12.294,6.86c3.8,0,6.251-.512,6.251-3.964v-6.86C46.9,425.947,44.96,425.11,42.323,424.909Z" transform="translate(-7.775 -329.623)" fill="#d09180"/>
        <path id="Trazado_1091401" data-name="Trazado 1091401" d="M332.67,193.275a1.807,1.807,0,0,0,0-2.065H321.016a1.951,1.951,0,0,0-1.112,3.448C324.634,197.526,328.639,196.782,332.67,193.275Z" transform="translate(-247.933 -149.361)" fill="#ffd064"/>
        <path id="Trazado_1091402" data-name="Trazado 1091402" d="M336.893,191.21h-1.885a1.983,1.983,0,0,1-.661,1.162c-4.032,3.507-8.052,4.188-12.1,2.287,5.229,4.548,10.535,4.548,15.763,0A1.951,1.951,0,0,0,336.893,191.21Z" transform="translate(-250.269 -149.361)" fill="#ebb044"/>
        <path id="Trazado_1091403" data-name="Trazado 1091403" d="M442.912,253.275a1.807,1.807,0,0,0,0-2.065H431.258a1.951,1.951,0,0,0-1.112,3.448C434.876,257.526,438.881,256.782,442.912,253.275Z" transform="translate(-332.967 -195.642)" fill="#ffd064"/>
        <path id="Trazado_1091404" data-name="Trazado 1091404" d="M447.135,251.21h-1.885a1.983,1.983,0,0,1-.661,1.162c-4.032,3.507-8.052,4.188-12.1,2.287,5.229,4.548,10.535,4.548,15.763,0a1.951,1.951,0,0,0-1.112-3.448Z" transform="translate(-335.304 -195.642)" fill="#ebb044"/>
        <path id="Trazado_1091405" data-name="Trazado 1091405" d="M163.841,91.315V80.163c0-7.552-2.917-14.432-7.911-17.952a34.649,34.649,0,0,0-6.1-.521c-11.146,0-16.293,4.775-16.293,4.775v13.7l1.244.529s-1.244,2.121-1.244,8.5v2.124a12.968,12.968,0,0,0,4.786,10.008c3.761,3.193,8.033,5.051,11.507,5.051a18.391,18.391,0,0,0,9.73-5.051,13.562,13.562,0,0,0,4.276-10.008Z" transform="translate(-104.717 -49.456)" fill="#ebae9d"/>
        <path id="Trazado_1091406" data-name="Trazado 1091406" d="M221.091,68.222s-3.259-3.018-10.2-4.254a33.946,33.946,0,0,1,5.624,17.952V93.072a13.564,13.564,0,0,1-4.276,10.008,25.766,25.766,0,0,1-7.444,5.051c3.474,0,7.746-1.858,11.507-5.051a12.969,12.969,0,0,0,4.786-10.008V90.949c0-6.378-1.244-8.5-1.244-8.5l1.244-.529Z" transform="translate(-159.68 -51.213)" fill="#d09180"/>
        <path id="Trazado_1091407" data-name="Trazado 1091407" d="M149.836,116.607c5.054,0,11.234.5,14.006,1.336,0,0,0-6.165-2.964-8.571a29.419,29.419,0,0,0-11.042-1.751c-10.973,0-16.293,3.533-16.293,7.97V118.3C136.422,117,140.632,116.607,149.836,116.607Z" transform="translate(-104.718 -84.885)" fill="#bed9fd"/>
        <path id="Trazado_1091408" data-name="Trazado 1091408" d="M166.128,121.5c0-2.53-1.732-4.764-5.251-6.218a29.84,29.84,0,0,1,.584,3.918,1.716,1.716,0,0,1-2.023,1.823,53.377,53.377,0,0,0-9.6-.793c-9.2,0-14.573,1.659-16.293,3.979v6.321c0-3.188,5.319-5.726,16.293-5.726s16.293,2.538,16.293,5.726Z" transform="translate(-104.717 -90.794)" fill="#9ec8fc"/>
        <path id="Trazado_1091409" data-name="Trazado 1091409" d="M240,47.6a6.433,6.433,0,0,0-3.511-6.02c.786,2.307.538,4.732-.916,5.6s-4.364-.161-6.882-2.361l-.235,3.941c2.309,3.206,7.806,3.629,7.806,3.629,2.182,2.3,3.076,8.892,3.076,12.264C239.342,64.648,247.608,54.591,240,47.6Z" transform="translate(-177.932 -33.941)" fill="#a65d4e"/>
        <path id="Trazado_1091410" data-name="Trazado 1091410" d="M236.371,43.644c1.454-.865,1.7-3.291.916-5.6a9.553,9.553,0,0,0-7.575-.479l-.222,3.717c2.518,2.2,5.424,3.228,6.882,2.361Z" transform="translate(-178.726 -30.411)" fill="#b46e5a"/>
        <path id="Trazado_1091411" data-name="Trazado 1091411" d="M131.017,38.712c2.855,2.256,8.735,2.154,10.458,0a6.639,6.639,0,0,0,1.147-5.646c-.693-.88-2.618-1.9-5.868-1.9-3.875,0-8.806,3.024-14.866,3.024a6.664,6.664,0,0,0-2.088,5.376c-7.6,7,.662,17.052.662,17.052,0-3.372.894-9.964,3.076-12.264C123.537,44.353,129.019,42.717,131.017,38.712Z" transform="translate(-91.636 -25.911)" fill="#b46e5a"/>
        <path id="Trazado_1091412" data-name="Trazado 1091412" d="M158.177,39.479a6.879,6.879,0,0,1-2.288,3.947c-1.885,1.439-5.841,1.639-8.327-.141a1.714,1.714,0,0,0-2.4.465c-2.137,3.117-4.677,3.11-6.738,3.326-2.41.253-2.252,3.861.666,3.689,0,0,5.5-.423,7.806-3.629,2.064,2.064,8.788,2.033,10.821,0A6.325,6.325,0,0,0,158.177,39.479Z" transform="translate(-107.192 -32.324)" fill="#a65d4e"/>
        <path id="Trazado_1091413" data-name="Trazado 1091413" d="M223.931,297.1l-13.973-43.019a67.635,67.635,0,0,1-1.649,14.4l5.779,17.791a1.714,1.714,0,0,1-1.631,2.244H200.413c-.914,1.532-1.909,3.06-3,4.573l-4.454,6.182,5.6,1.747Z" transform="translate(-150.549 -197.858)" fill="#9ec8fc"/>
        <path id="Trazado_1091414" data-name="Trazado 1091414" d="M242.258,434.96c-4.957-3.921-10.424-5.619-18.146-5.619H179.977a52.327,52.327,0,0,0-.431,6.86l44.566,3.43,18.8-3.43A1.586,1.586,0,0,0,242.258,434.96Z" transform="translate(-140.202 -333.042)" fill="#faf8f8"/>
        <path id="Trazado_1091415" data-name="Trazado 1091415" d="M237.9,459.341H179.546c0,1.152.035,2.3.1,3.43,0,0,37.022,2.287,44.463,2.287A19.2,19.2,0,0,0,237.9,459.341Z" transform="translate(-140.202 -356.182)" fill="#e1dee2"/>
        <path id="Trazado_1091416" data-name="Trazado 1091416" d="M238.245,459.341c-3.805,2.373-8.1,3.43-13.785,3.43H180c.072,1.183.181,2.337.328,3.43h44.136c7.721,0,13.189-1.7,18.146-5.619a1.586,1.586,0,0,0,.65-1.24Z" transform="translate(-140.55 -356.182)" fill="#c5bec6"/>
      </g>
      <g id="Grupo_1220007" data-name="Grupo 1220007" transform="translate(0.002 0.685)">
        <path id="Trazado_1091417" data-name="Trazado 1091417" d="M116.821,58.565a3.538,3.538,0,0,0-1.882-2.016L108.43,32.124a1.715,1.715,0,0,0-.837-1.065L102.6,28.345q.2-1.207.382-2.425a109.8,109.8,0,0,0,1.32-13.831c.054-3.254-.1-7.2-1.789-8.893A10.2,10.2,0,0,0,95.312.685,10.2,10.2,0,0,0,88.105,3.2a8.577,8.577,0,0,0,4.348,14.467V22.82L82.384,17.34A1.715,1.715,0,0,0,79.908,18.4L73.4,42.829a3.539,3.539,0,0,0-1.882,2.016,3.719,3.719,0,0,0,1.041,4.146c.348.3.7.587,1.049.854-1.489.867-3.016,1.73-4.479,2.542l-.012-.021a9.087,9.087,0,0,0-2.456-8.209,8.853,8.853,0,0,0,3.871-7.075A6.7,6.7,0,0,0,66.6,30.846a20.512,20.512,0,0,0,1.33-3.106c1.6-4.864.75-9.148-2.461-12.436a7.982,7.982,0,0,0-3.616-6.323,11.3,11.3,0,0,0-8.738-1.368,10.793,10.793,0,0,0-6.289-1.674,15.05,15.05,0,0,0-3.994.649A1.715,1.715,0,1,0,43.741,9.9a11.912,11.912,0,0,1,3.088-.528c2.9,0,4.247.9,4.52,1.247A4.62,4.62,0,0,1,51.027,16c-1.373,1.373-7.022,1.373-8.4,0a1.715,1.715,0,0,0-2.6.211c-1.5,2.083-5.236,2.815-6.546,2.921a1.715,1.715,0,0,0-1.113.53c-1.633,1.721-2.552,4.976-3.043,7.939-.121-.3-.237-.613-.342-.934-1.251-3.8-.561-6.947,2.053-9.351a1.716,1.716,0,0,0,.554-1.262A5.322,5.322,0,0,1,32.68,12.38a23.65,23.65,0,0,0,3.964-.5,1.715,1.715,0,0,0-.693-3.359,19.606,19.606,0,0,1-3.988.437,1.714,1.714,0,0,0-1.126.422,8.007,8.007,0,0,0-2.657,5.925c-3.205,3.287-4.055,7.568-2.454,12.429a20.459,20.459,0,0,0,1.311,3.07,7.616,7.616,0,0,0-1.619.986A6.648,6.648,0,0,0,22.9,37.082c0,3.261,2.13,6.212,5.887,8.222a8.628,8.628,0,0,1-1.4,4.291A8.074,8.074,0,0,0,26,54.017c0,1.909.992,3.711,2.947,5.355a1.715,1.715,0,0,0,2.207-2.625,4.126,4.126,0,0,1-1.725-2.73,4.808,4.808,0,0,1,.919-2.7l.166-.286a15.6,15.6,0,0,0,3.7,4.542,27.321,27.321,0,0,0,4.029,2.85v2.367L27.974,63.753a28.83,28.83,0,0,0-3.72,1.358,1.715,1.715,0,1,0,1.4,3.133,25.359,25.359,0,0,1,3.276-1.2l11.506-3.321a1.715,1.715,0,0,0,1.239-1.648V60.034a15.179,15.179,0,0,0,5.159,1,15.1,15.1,0,0,0,5.046-.957c-.7,8.125-4.622,15.5-9.462,21.685H26.9c.068-.116.133-.231.2-.349a1.715,1.715,0,0,0-2.938-1.769,26.547,26.547,0,0,0-1.594,3.067,1.673,1.673,0,0,0-.092.22,17.946,17.946,0,0,0-1.237,10.958L8.858,86.738c.583-1.018,1.185-2.034,1.795-3.023,3.616-5.869,7.086-10.25,9.771-12.338a1.715,1.715,0,1,0-2.105-2.707C11.5,73.968,2.912,89.388.505,96.019a8.386,8.386,0,0,0,7.879,11.254h13a16.5,16.5,0,0,0,13.2,6.86,12.1,12.1,0,0,0,5.291-.867c.154,1.015.34,1.979.56,2.866a1.715,1.715,0,0,0,3.329-.825c-.093-.375-.179-.769-.259-1.175H62.885a1.715,1.715,0,1,0,0-3.43H43.009c-.11-1.107-.182-2.261-.218-3.43H93.165a1.715,1.715,0,1,0,0-3.43H42.79c.036-1.169.108-2.322.218-3.43H85.622c7.251,0,12.332,1.54,16.948,5.145-4.616,3.6-9.7,5.145-16.948,5.145H69.745a1.715,1.715,0,1,0,0,3.43H85.622c8.048,0,13.972-1.847,19.209-5.989a3.219,3.219,0,0,0,0-5.17c-5.237-4.142-11.161-5.989-19.21-5.989H75.383l-4.81-14.807,1.968-7.407c1.382-1.067,5.611-4.376,10.151-8.368C90.2,59.8,94.965,54.539,96.85,50.768c1.638-3.276,3.6-10.586,5.133-18.858l2.785,1.516L98.607,56.547a3.539,3.539,0,0,0-1.882,2.016,3.719,3.719,0,0,0,1.041,4.146c2.946,2.563,5.977,3.844,9.007,3.844s6.061-1.281,9.007-3.844a3.718,3.718,0,0,0,1.041-4.145ZM95.884,16.119A1.715,1.715,0,0,0,94.169,14.4a5.145,5.145,0,0,1-3.638-8.783,8.339,8.339,0,0,1,9.562,0c.6.621,1.669,5.4-.506,19.848q-.086.569-.176,1.137l-3.527-1.92ZM81.565,25.506,86.1,42.534H77.027Zm6.859,20.656a.278.278,0,0,1-.1.242c-4.61,4.01-8.9,4.009-13.513,0a.278.278,0,0,1-.1-.242.229.229,0,0,1,.089-.2H88.351a.3.3,0,0,1,.074.2ZM61.793,56.341a6.46,6.46,0,0,0-1.585-1.46,14.769,14.769,0,0,0,4.37-7.916,5.653,5.653,0,0,1,1.052,5.217,1.715,1.715,0,0,0,.249,1.49c.085.118.163.24.238.364-1.764.955-3.285,1.76-4.323,2.3ZM46.829,34.694c-7.586,0-12.013,1.134-14.578,2.57V33.108h0c0-3.8,5.722-6.255,14.578-6.255s14.578,2.455,14.578,6.255v4.158c-2.565-1.437-6.992-2.57-14.578-2.57Zm18.008,6.523V33.781a3.484,3.484,0,0,1,2.264,3.3A5.4,5.4,0,0,1,64.837,41.218ZM59.956,11.836a4.75,4.75,0,0,1,2.113,4.218,1.715,1.715,0,0,0,.554,1.262c3.5,3.222,2.951,7.288,1.718,10.328-.489-2.975-1.409-6.253-3.05-7.983a1.723,1.723,0,0,0-1.109-.529,11.857,11.857,0,0,1-5.706-2.046,8.362,8.362,0,0,0,.681-6.357,7.743,7.743,0,0,1,4.8,1.106ZM34.51,22.461A14.424,14.424,0,0,0,41.7,19.447a13.4,13.4,0,0,0,10.264,0,14.425,14.425,0,0,0,7.188,3.016,12.422,12.422,0,0,1,1.453,3.89c-.228-.14-.461-.277-.705-.407-3.144-1.674-7.541-2.522-13.067-2.522s-9.923.849-13.067,2.522c-.245.13-.478.267-.705.407a12.422,12.422,0,0,1,1.453-3.89ZM26.329,37.083a3.412,3.412,0,0,1,2.493-3.3V41.25A5.5,5.5,0,0,1,26.329,37.083Zm10.1,15.877a11.246,11.246,0,0,1-4.181-8.7V42.135c0-.837,1.1-1.756,2.929-2.457a30.6,30.6,0,0,1,9.934-1.532v1.438a1.715,1.715,0,0,0,3.43,0V38.147c9.332.25,12.863,2.523,12.863,3.988v2.124a11.246,11.246,0,0,1-4.181,8.7C53.8,55.867,49.915,57.6,46.829,57.6s-6.973-1.736-10.4-4.643ZM39.537,85.19A87.968,87.968,0,0,1,27.9,95.915H25.427a14.109,14.109,0,0,1-.17-10.725Zm-.419,23.264c0,1.478-.2,2.25-4.536,2.25a13.171,13.171,0,0,1-10.817-6.015,1.715,1.715,0,0,0-1.477-.844H8.384A4.956,4.956,0,0,1,3.729,97.19,63.577,63.577,0,0,1,7.2,89.742l16.235,9.373a1.716,1.716,0,0,0,.857.23H34.582c4.22,0,4.536.891,4.536,2.25v6.86ZM43.5,96.984c.08-.406.166-.8.259-1.175a1.715,1.715,0,1,0-3.329-.825c-.152.615-.288,1.268-.409,1.948a11.544,11.544,0,0,0-5.442-1.018H33.368a81.244,81.244,0,0,0,11.24-11.346l.006-.008a56.764,56.764,0,0,0,6.137-9.338A39.206,39.206,0,0,0,55.4,58.432q.9-.518,1.79-1.131a3,3,0,0,1,2.21,1.663,67.715,67.715,0,0,1-8.728,32.244,1.715,1.715,0,1,0,2.976,1.705A70.738,70.738,0,0,0,62.2,67.487l9.581,29.5H43.5ZM93.782,49.235C92.12,52.559,87.508,57.6,80.444,63.812,75.02,68.582,70.047,72.361,70,72.4a1.715,1.715,0,0,0-.621.926l-.755,2.843L63.2,59.477c2.6-1.36,8.634-4.567,13.768-7.63a11.527,11.527,0,0,0,4.6.989c3.031,0,6.061-1.281,9.008-3.844a3.72,3.72,0,0,0,1.041-4.146,3.539,3.539,0,0,0-1.882-2.016l-.823-3.089A75.263,75.263,0,0,0,91.955,32.1,1.715,1.715,0,0,0,88.708,31q-.59,1.737-1.231,3.372L84.249,22.26l9.1,4.951.011.006,5.453,2.968c-1.492,8.344-3.471,15.936-5.028,19.051Zm17.529,7.019h-9.076l4.538-17.029Zm2.218,3.869c-4.609,4.01-8.9,4.01-13.513,0a.278.278,0,0,1-.1-.242.231.231,0,0,1,.089-.2h13.556a.3.3,0,0,1,.074.2.278.278,0,0,1-.1.242Z" transform="translate(-0.002 -0.685)"/>
        <path id="Trazado_1091418" data-name="Trazado 1091418" d="M186.967,192.4a20.326,20.326,0,0,0-12.972,0,1.715,1.715,0,0,0,1.339,3.158,17.151,17.151,0,0,1,10.294,0,1.715,1.715,0,0,0,1.339-3.158Z" transform="translate(-133.405 -147.747)"/>
      </g>
    </g>
  </g>
</svg>
