<svg xmlns="http://www.w3.org/2000/svg" xmlns:xlink="http://www.w3.org/1999/xlink" width="1327" height="535" viewBox="0 0 1327 535">
  <defs>
    <clipPath id="clip-path">
      <rect id="Rect치ngulo_418314" data-name="Rect치ngulo 418314" width="1327" height="535" transform="translate(736 -1611)" fill="#fff" stroke="#707070" stroke-width="1" opacity="0.24"/>
    </clipPath>
    <clipPath id="clip-path-2">
      <rect id="Rect치ngulo_418306" data-name="Rect치ngulo 418306" width="1327" height="638" transform="translate(0 0)" fill="none"/>
    </clipPath>
  </defs>
  <g id="Enmascarar_grupo_1098702" data-name="Enmascarar grupo 1098702" transform="translate(-736 1611)" clip-path="url(#clip-path)">
    <g id="_7865642" data-name="7865642" transform="translate(596.92 -2070.67)">
      <g id="BACKGROUND" transform="translate(139.08 412.67)">
        <path id="Trazado_1079119" data-name="Trazado 1079119" d="M0,0H1327V638H0Z" transform="translate(0 0)" fill="#083e61"/>
      </g>
      <g id="OBJECTS" transform="translate(139.08 412.67)">
        <g id="Grupo_1209748" data-name="Grupo 1209748" clip-path="url(#clip-path-2)">
          <path id="Trazado_1079120" data-name="Trazado 1079120" d="M373.627,0C579.976,0,747.254,167.279,747.254,373.627S579.976,747.254,373.627,747.254,0,579.976,0,373.627,167.279,0,373.627,0Z" transform="translate(599.345 -526.551)" fill="#ba9c5a"/>
        </g>
        <g id="Grupo_1209750" data-name="Grupo 1209750" clip-path="url(#clip-path-2)">
          <g id="Grupo_1209749" data-name="Grupo 1209749" transform="translate(-76.43 -107.461)">
            <path id="Trazado_1079121" data-name="Trazado 1079121" d="M757.535,1185.719c-106.428,0-193.015-86.587-193.015-193.015S651.107,799.69,757.535,799.69,950.549,886.277,950.549,992.7,863.963,1185.719,757.535,1185.719Zm0-382.508c-104.489,0-189.493,85-189.493,189.493s85,189.493,189.493,189.493,189.493-85,189.493-189.493S862.023,803.212,757.535,803.212Z" transform="translate(54.755 -198.406)" fill="#cee2ef"/>
            <path id="Trazado_1079122" data-name="Trazado 1079122" d="M1273.94,832.89c-77.17,0-139.96-62.777-139.96-139.96s62.777-139.96,139.96-139.96,139.96,62.777,139.96,139.96-62.79,139.96-139.96,139.96Zm0-277.356c-75.767,0-137.408,61.642-137.408,137.408s61.642,137.408,137.408,137.408,137.408-61.642,137.408-137.408-61.642-137.408-137.408-137.408Z" transform="translate(211.904 -266.491)" fill="#9ec6e0"/>
            <path id="Trazado_1079123" data-name="Trazado 1079123" d="M219.14,608.37c-77.17,0-139.96-62.777-139.96-139.96s62.777-139.96,139.96-139.96S359.1,391.227,359.1,468.41,296.323,608.37,219.14,608.37Zm0-277.356c-75.767,0-137.408,61.642-137.408,137.408S143.374,605.831,219.14,605.831,356.549,544.19,356.549,468.423,294.907,331.015,219.14,331.015Z" transform="translate(-79.18 -328.45)" fill="#e5f0f6"/>
          </g>
        </g>
        <g id="Grupo_1209752" data-name="Grupo 1209752" clip-path="url(#clip-path-2)">
          <g id="Grupo_1209751" data-name="Grupo 1209751" transform="translate(-59.6 -125.733)">
            <path id="Trazado_1079124" data-name="Trazado 1079124" d="M151.97,688.45a59.6,59.6,0,1,1,59.6-59.6,59.669,59.669,0,0,1-59.6,59.6Zm0-102.613a43.013,43.013,0,1,0,43.013,43.013,43.058,43.058,0,0,0-43.013-43.013Z" transform="translate(-92.37 -243.727)" fill="#ba9c5a"/>
            <path id="Trazado_1079125" data-name="Trazado 1079125" d="M969.569,501.747a93.809,93.809,0,1,1,93.809-93.809A93.913,93.913,0,0,1,969.569,501.747Zm0-171.043a77.221,77.221,0,1,0,77.221,77.221A77.31,77.31,0,0,0,969.569,330.7Z" transform="translate(123.815 -314.13)" fill="#ba9c5a"/>
            <path id="Trazado_1079126" data-name="Trazado 1079126" d="M1211.135,1072.48A116.355,116.355,0,1,1,1327.49,956.125,116.491,116.491,0,0,1,1211.135,1072.48Zm0-216.122a99.767,99.767,0,1,0,99.767,99.767A99.879,99.879,0,0,0,1211.135,856.357Z" transform="translate(184.257 -169.074)" fill="#ba9c5a"/>
          </g>
        </g>
        <g id="Grupo_1209816" data-name="Grupo 1209816" clip-path="url(#clip-path-2)">
          <g id="Grupo_1209815" data-name="Grupo 1209815" transform="translate(-99.87 -16.166)">
            <g id="Grupo_1209783" data-name="Grupo 1209783" transform="translate(1302.782 607.383)">
              <g id="Grupo_1209767" data-name="Grupo 1209767">
                <g id="Grupo_1209759" data-name="Grupo 1209759">
                  <g id="Grupo_1209755" data-name="Grupo 1209755">
                    <g id="Grupo_1209753" data-name="Grupo 1209753" transform="translate(0 40.639)">
                      <path id="Trazado_1079127" data-name="Trazado 1079127" d="M1085.492,923.8a3.662,3.662,0,1,1-3.662,3.662A3.662,3.662,0,0,1,1085.492,923.8Z" transform="translate(-1081.83 -903.474)" fill="#9ec6e0"/>
                      <path id="Trazado_1079128" data-name="Trazado 1079128" d="M1085.492,907.87a3.662,3.662,0,1,1-3.662,3.662A3.662,3.662,0,0,1,1085.492,907.87Z" transform="translate(-1081.83 -907.87)" fill="#9ec6e0"/>
                    </g>
                    <g id="Grupo_1209754" data-name="Grupo 1209754">
                      <path id="Trazado_1079129" data-name="Trazado 1079129" d="M1085.492,891.95a3.662,3.662,0,1,1-3.662,3.662A3.662,3.662,0,0,1,1085.492,891.95Z" transform="translate(-1081.83 -871.624)" fill="#9ec6e0"/>
                      <path id="Trazado_1079130" data-name="Trazado 1079130" d="M1085.492,876.02a3.662,3.662,0,1,1-3.662,3.662A3.662,3.662,0,0,1,1085.492,876.02Z" transform="translate(-1081.83 -876.02)" fill="#9ec6e0"/>
                    </g>
                  </g>
                  <g id="Grupo_1209758" data-name="Grupo 1209758" transform="translate(20.326)">
                    <g id="Grupo_1209756" data-name="Grupo 1209756" transform="translate(0 40.639)">
                      <path id="Trazado_1079131" data-name="Trazado 1079131" d="M1101.422,923.8a3.662,3.662,0,1,1-3.662,3.662A3.662,3.662,0,0,1,1101.422,923.8Z" transform="translate(-1097.76 -903.474)" fill="#9ec6e0"/>
                      <path id="Trazado_1079132" data-name="Trazado 1079132" d="M1101.422,907.87a3.662,3.662,0,1,1-3.662,3.662A3.662,3.662,0,0,1,1101.422,907.87Z" transform="translate(-1097.76 -907.87)" fill="#9ec6e0"/>
                    </g>
                    <g id="Grupo_1209757" data-name="Grupo 1209757">
                      <path id="Trazado_1079133" data-name="Trazado 1079133" d="M1101.422,891.95a3.662,3.662,0,1,1-3.662,3.662A3.662,3.662,0,0,1,1101.422,891.95Z" transform="translate(-1097.76 -871.624)" fill="#9ec6e0"/>
                      <path id="Trazado_1079134" data-name="Trazado 1079134" d="M1101.422,876.02a3.662,3.662,0,1,1-3.662,3.662A3.662,3.662,0,0,1,1101.422,876.02Z" transform="translate(-1097.76 -876.02)" fill="#9ec6e0"/>
                    </g>
                  </g>
                </g>
                <g id="Grupo_1209766" data-name="Grupo 1209766" transform="translate(40.639)">
                  <g id="Grupo_1209762" data-name="Grupo 1209762">
                    <g id="Grupo_1209760" data-name="Grupo 1209760" transform="translate(0 40.639)">
                      <circle id="Elipse_11833" data-name="Elipse 11833" cx="3.662" cy="3.662" r="3.662" transform="translate(0 20.326)" fill="#9ec6e0"/>
                      <path id="Trazado_1079135" data-name="Trazado 1079135" d="M1117.342,907.87a3.662,3.662,0,1,1-3.662,3.662A3.662,3.662,0,0,1,1117.342,907.87Z" transform="translate(-1113.68 -907.87)" fill="#9ec6e0"/>
                    </g>
                    <g id="Grupo_1209761" data-name="Grupo 1209761">
                      <path id="Trazado_1079136" data-name="Trazado 1079136" d="M1117.342,891.95a3.662,3.662,0,1,1-3.662,3.662A3.662,3.662,0,0,1,1117.342,891.95Z" transform="translate(-1113.68 -871.624)" fill="#9ec6e0"/>
                      <path id="Trazado_1079137" data-name="Trazado 1079137" d="M1117.342,876.02a3.662,3.662,0,1,1-3.662,3.662A3.662,3.662,0,0,1,1117.342,876.02Z" transform="translate(-1113.68 -876.02)" fill="#9ec6e0"/>
                    </g>
                  </g>
                  <g id="Grupo_1209765" data-name="Grupo 1209765" transform="translate(20.326)">
                    <g id="Grupo_1209763" data-name="Grupo 1209763" transform="translate(0 40.639)">
                      <circle id="Elipse_11834" data-name="Elipse 11834" cx="3.662" cy="3.662" r="3.662" transform="translate(0 20.326)" fill="#9ec6e0"/>
                      <path id="Trazado_1079138" data-name="Trazado 1079138" d="M1133.272,907.87a3.662,3.662,0,1,1-3.662,3.662A3.662,3.662,0,0,1,1133.272,907.87Z" transform="translate(-1129.61 -907.87)" fill="#9ec6e0"/>
                    </g>
                    <g id="Grupo_1209764" data-name="Grupo 1209764">
                      <path id="Trazado_1079139" data-name="Trazado 1079139" d="M1133.272,891.95a3.662,3.662,0,1,1-3.662,3.662A3.662,3.662,0,0,1,1133.272,891.95Z" transform="translate(-1129.61 -871.624)" fill="#9ec6e0"/>
                      <path id="Trazado_1079140" data-name="Trazado 1079140" d="M1133.272,876.02a3.662,3.662,0,1,1-3.662,3.662A3.662,3.662,0,0,1,1133.272,876.02Z" transform="translate(-1129.61 -876.02)" fill="#9ec6e0"/>
                    </g>
                  </g>
                </g>
              </g>
              <g id="Grupo_1209782" data-name="Grupo 1209782" transform="translate(81.292)">
                <g id="Grupo_1209774" data-name="Grupo 1209774">
                  <g id="Grupo_1209770" data-name="Grupo 1209770">
                    <g id="Grupo_1209768" data-name="Grupo 1209768" transform="translate(0 40.639)">
                      <path id="Trazado_1079141" data-name="Trazado 1079141" d="M1149.2,923.8a3.662,3.662,0,1,1-3.662,3.662A3.662,3.662,0,0,1,1149.2,923.8Z" transform="translate(-1145.54 -903.474)" fill="#9ec6e0"/>
                      <path id="Trazado_1079142" data-name="Trazado 1079142" d="M1149.2,907.87a3.662,3.662,0,1,1-3.662,3.662A3.662,3.662,0,0,1,1149.2,907.87Z" transform="translate(-1145.54 -907.87)" fill="#9ec6e0"/>
                    </g>
                    <g id="Grupo_1209769" data-name="Grupo 1209769">
                      <path id="Trazado_1079143" data-name="Trazado 1079143" d="M1149.2,891.95a3.662,3.662,0,1,1-3.662,3.662A3.662,3.662,0,0,1,1149.2,891.95Z" transform="translate(-1145.54 -871.624)" fill="#9ec6e0"/>
                      <path id="Trazado_1079144" data-name="Trazado 1079144" d="M1149.2,876.02a3.662,3.662,0,1,1-3.662,3.662A3.662,3.662,0,0,1,1149.2,876.02Z" transform="translate(-1145.54 -876.02)" fill="#9ec6e0"/>
                    </g>
                  </g>
                  <g id="Grupo_1209773" data-name="Grupo 1209773" transform="translate(20.313)">
                    <g id="Grupo_1209771" data-name="Grupo 1209771" transform="translate(0 40.639)">
                      <path id="Trazado_1079145" data-name="Trazado 1079145" d="M1165.122,923.8a3.662,3.662,0,1,1-3.662,3.662A3.662,3.662,0,0,1,1165.122,923.8Z" transform="translate(-1161.46 -903.474)" fill="#9ec6e0"/>
                      <path id="Trazado_1079146" data-name="Trazado 1079146" d="M1165.122,907.87a3.662,3.662,0,1,1-3.662,3.662A3.662,3.662,0,0,1,1165.122,907.87Z" transform="translate(-1161.46 -907.87)" fill="#9ec6e0"/>
                    </g>
                    <g id="Grupo_1209772" data-name="Grupo 1209772">
                      <path id="Trazado_1079147" data-name="Trazado 1079147" d="M1165.122,891.95a3.662,3.662,0,1,1-3.662,3.662A3.662,3.662,0,0,1,1165.122,891.95Z" transform="translate(-1161.46 -871.624)" fill="#9ec6e0"/>
                      <path id="Trazado_1079148" data-name="Trazado 1079148" d="M1165.122,876.02a3.662,3.662,0,1,1-3.662,3.662A3.662,3.662,0,0,1,1165.122,876.02Z" transform="translate(-1161.46 -876.02)" fill="#9ec6e0"/>
                    </g>
                  </g>
                </g>
                <g id="Grupo_1209781" data-name="Grupo 1209781" transform="translate(40.639)">
                  <g id="Grupo_1209777" data-name="Grupo 1209777">
                    <g id="Grupo_1209775" data-name="Grupo 1209775" transform="translate(0 40.639)">
                      <circle id="Elipse_11835" data-name="Elipse 11835" cx="3.662" cy="3.662" r="3.662" transform="translate(0 20.326)" fill="#9ec6e0"/>
                      <path id="Trazado_1079149" data-name="Trazado 1079149" d="M1181.052,907.87a3.662,3.662,0,1,1-3.662,3.662A3.662,3.662,0,0,1,1181.052,907.87Z" transform="translate(-1177.39 -907.87)" fill="#9ec6e0"/>
                    </g>
                    <g id="Grupo_1209776" data-name="Grupo 1209776">
                      <path id="Trazado_1079150" data-name="Trazado 1079150" d="M1181.052,891.95a3.662,3.662,0,1,1-3.662,3.662A3.662,3.662,0,0,1,1181.052,891.95Z" transform="translate(-1177.39 -871.624)" fill="#9ec6e0"/>
                      <path id="Trazado_1079151" data-name="Trazado 1079151" d="M1181.052,876.02a3.662,3.662,0,1,1-3.662,3.662A3.662,3.662,0,0,1,1181.052,876.02Z" transform="translate(-1177.39 -876.02)" fill="#9ec6e0"/>
                    </g>
                  </g>
                  <g id="Grupo_1209780" data-name="Grupo 1209780" transform="translate(20.267)">
                    <g id="Grupo_1209778" data-name="Grupo 1209778" transform="translate(0 40.639)">
                      <circle id="Elipse_11836" data-name="Elipse 11836" cx="3.662" cy="3.662" r="3.662" transform="translate(0 27.6) rotate(-88.41)" fill="#9ec6e0"/>
                      <path id="Trazado_1079152" data-name="Trazado 1079152" d="M1196.972,907.87a3.662,3.662,0,1,1-3.662,3.662A3.662,3.662,0,0,1,1196.972,907.87Z" transform="translate(-1193.264 -907.87)" fill="#9ec6e0"/>
                    </g>
                    <g id="Grupo_1209779" data-name="Grupo 1209779" transform="translate(0.046)">
                      <path id="Trazado_1079153" data-name="Trazado 1079153" d="M1196.972,891.95a3.662,3.662,0,1,1-3.662,3.662A3.662,3.662,0,0,1,1196.972,891.95Z" transform="translate(-1193.31 -871.624)" fill="#9ec6e0"/>
                      <path id="Trazado_1079154" data-name="Trazado 1079154" d="M1196.972,876.02a3.662,3.662,0,1,1-3.662,3.662A3.662,3.662,0,0,1,1196.972,876.02Z" transform="translate(-1193.31 -876.02)" fill="#9ec6e0"/>
                    </g>
                  </g>
                </g>
              </g>
            </g>
            <g id="Grupo_1209814" data-name="Grupo 1209814" transform="translate(0 392.881)">
              <g id="Grupo_1209798" data-name="Grupo 1209798">
                <g id="Grupo_1209790" data-name="Grupo 1209790">
                  <g id="Grupo_1209786" data-name="Grupo 1209786">
                    <g id="Grupo_1209784" data-name="Grupo 1209784" transform="translate(0 40.639)">
                      <path id="Trazado_1079155" data-name="Trazado 1079155" d="M64.472,709.45a3.662,3.662,0,1,1-3.662,3.662,3.662,3.662,0,0,1,3.662-3.662Z" transform="translate(-60.81 -689.124)" fill="#9ec6e0"/>
                      <circle id="Elipse_11837" data-name="Elipse 11837" cx="3.662" cy="3.662" r="3.662" fill="#9ec6e0"/>
                    </g>
                    <g id="Grupo_1209785" data-name="Grupo 1209785">
                      <path id="Trazado_1079156" data-name="Trazado 1079156" d="M64.472,677.59a3.662,3.662,0,1,1-3.662,3.662,3.662,3.662,0,0,1,3.662-3.662Z" transform="translate(-60.81 -657.277)" fill="#9ec6e0"/>
                      <circle id="Elipse_11838" data-name="Elipse 11838" cx="3.662" cy="3.662" r="3.662" fill="#9ec6e0"/>
                    </g>
                  </g>
                  <g id="Grupo_1209789" data-name="Grupo 1209789" transform="translate(20.326)">
                    <g id="Grupo_1209787" data-name="Grupo 1209787" transform="translate(0 40.639)">
                      <path id="Trazado_1079157" data-name="Trazado 1079157" d="M80.4,709.45a3.662,3.662,0,1,1-3.662,3.662A3.662,3.662,0,0,1,80.4,709.45Z" transform="translate(-76.74 -689.124)" fill="#9ec6e0"/>
                      <circle id="Elipse_11839" data-name="Elipse 11839" cx="3.662" cy="3.662" r="3.662" fill="#9ec6e0"/>
                    </g>
                    <g id="Grupo_1209788" data-name="Grupo 1209788">
                      <path id="Trazado_1079158" data-name="Trazado 1079158" d="M80.4,677.59a3.662,3.662,0,1,1-3.662,3.662A3.662,3.662,0,0,1,80.4,677.59Z" transform="translate(-76.74 -657.277)" fill="#9ec6e0"/>
                      <circle id="Elipse_11840" data-name="Elipse 11840" cx="3.662" cy="3.662" r="3.662" fill="#9ec6e0"/>
                    </g>
                  </g>
                </g>
                <g id="Grupo_1209797" data-name="Grupo 1209797" transform="translate(40.639)">
                  <g id="Grupo_1209793" data-name="Grupo 1209793">
                    <g id="Grupo_1209791" data-name="Grupo 1209791" transform="translate(0 40.639)">
                      <path id="Trazado_1079159" data-name="Trazado 1079159" d="M96.322,709.45a3.662,3.662,0,1,1-3.662,3.662A3.662,3.662,0,0,1,96.322,709.45Z" transform="translate(-92.66 -689.124)" fill="#9ec6e0"/>
                      <path id="Trazado_1079160" data-name="Trazado 1079160" d="M96.322,693.52a3.662,3.662,0,1,1-3.662,3.662A3.662,3.662,0,0,1,96.322,693.52Z" transform="translate(-92.66 -693.52)" fill="#9ec6e0"/>
                    </g>
                    <g id="Grupo_1209792" data-name="Grupo 1209792">
                      <path id="Trazado_1079161" data-name="Trazado 1079161" d="M96.322,677.59a3.662,3.662,0,1,1-3.662,3.662A3.662,3.662,0,0,1,96.322,677.59Z" transform="translate(-92.66 -657.277)" fill="#9ec6e0"/>
                      <path id="Trazado_1079162" data-name="Trazado 1079162" d="M96.322,661.67a3.662,3.662,0,1,1-3.662,3.662A3.662,3.662,0,0,1,96.322,661.67Z" transform="translate(-92.66 -661.67)" fill="#9ec6e0"/>
                    </g>
                  </g>
                  <g id="Grupo_1209796" data-name="Grupo 1209796" transform="translate(20.326)">
                    <g id="Grupo_1209794" data-name="Grupo 1209794" transform="translate(0 40.639)">
                      <path id="Trazado_1079163" data-name="Trazado 1079163" d="M112.252,709.45a3.662,3.662,0,1,1-3.662,3.662A3.662,3.662,0,0,1,112.252,709.45Z" transform="translate(-108.59 -689.124)" fill="#9ec6e0"/>
                      <path id="Trazado_1079164" data-name="Trazado 1079164" d="M112.252,693.52a3.662,3.662,0,1,1-3.662,3.662A3.662,3.662,0,0,1,112.252,693.52Z" transform="translate(-108.59 -693.52)" fill="#9ec6e0"/>
                    </g>
                    <g id="Grupo_1209795" data-name="Grupo 1209795">
                      <path id="Trazado_1079165" data-name="Trazado 1079165" d="M112.252,677.59a3.662,3.662,0,1,1-3.662,3.662A3.662,3.662,0,0,1,112.252,677.59Z" transform="translate(-108.59 -657.277)" fill="#9ec6e0"/>
                      <path id="Trazado_1079166" data-name="Trazado 1079166" d="M112.252,661.67a3.662,3.662,0,1,1-3.662,3.662A3.662,3.662,0,0,1,112.252,661.67Z" transform="translate(-108.59 -661.67)" fill="#9ec6e0"/>
                    </g>
                  </g>
                </g>
              </g>
              <g id="Grupo_1209813" data-name="Grupo 1209813" transform="translate(81.291)">
                <g id="Grupo_1209805" data-name="Grupo 1209805">
                  <g id="Grupo_1209801" data-name="Grupo 1209801">
                    <g id="Grupo_1209799" data-name="Grupo 1209799" transform="translate(0 40.639)">
                      <path id="Trazado_1079167" data-name="Trazado 1079167" d="M128.182,709.45a3.662,3.662,0,1,1-3.662,3.662,3.662,3.662,0,0,1,3.662-3.662Z" transform="translate(-124.52 -689.124)" fill="#9ec6e0"/>
                      <circle id="Elipse_11841" data-name="Elipse 11841" cx="3.662" cy="3.662" r="3.662" transform="translate(0)" fill="#9ec6e0"/>
                    </g>
                    <g id="Grupo_1209800" data-name="Grupo 1209800">
                      <path id="Trazado_1079168" data-name="Trazado 1079168" d="M128.182,677.59a3.662,3.662,0,1,1-3.662,3.662,3.662,3.662,0,0,1,3.662-3.662Z" transform="translate(-124.52 -657.277)" fill="#9ec6e0"/>
                      <circle id="Elipse_11842" data-name="Elipse 11842" cx="3.662" cy="3.662" r="3.662" transform="translate(0)" fill="#9ec6e0"/>
                    </g>
                  </g>
                  <g id="Grupo_1209804" data-name="Grupo 1209804" transform="translate(20.313)">
                    <g id="Grupo_1209802" data-name="Grupo 1209802" transform="translate(0 40.639)">
                      <path id="Trazado_1079169" data-name="Trazado 1079169" d="M144.1,709.45a3.662,3.662,0,1,1-3.662,3.662A3.662,3.662,0,0,1,144.1,709.45Z" transform="translate(-140.44 -689.124)" fill="#9ec6e0"/>
                      <circle id="Elipse_11843" data-name="Elipse 11843" cx="3.662" cy="3.662" r="3.662" fill="#9ec6e0"/>
                    </g>
                    <g id="Grupo_1209803" data-name="Grupo 1209803">
                      <path id="Trazado_1079170" data-name="Trazado 1079170" d="M144.1,677.59a3.662,3.662,0,1,1-3.662,3.662A3.662,3.662,0,0,1,144.1,677.59Z" transform="translate(-140.44 -657.277)" fill="#9ec6e0"/>
                      <circle id="Elipse_11844" data-name="Elipse 11844" cx="3.662" cy="3.662" r="3.662" fill="#9ec6e0"/>
                    </g>
                  </g>
                </g>
                <g id="Grupo_1209812" data-name="Grupo 1209812" transform="translate(40.639)">
                  <g id="Grupo_1209808" data-name="Grupo 1209808">
                    <g id="Grupo_1209806" data-name="Grupo 1209806" transform="translate(0 40.639)">
                      <path id="Trazado_1079171" data-name="Trazado 1079171" d="M160.032,709.45a3.662,3.662,0,1,1-3.662,3.662A3.662,3.662,0,0,1,160.032,709.45Z" transform="translate(-156.37 -689.124)" fill="#9ec6e0"/>
                      <path id="Trazado_1079172" data-name="Trazado 1079172" d="M160.032,693.52a3.662,3.662,0,1,1-3.662,3.662A3.662,3.662,0,0,1,160.032,693.52Z" transform="translate(-156.37 -693.52)" fill="#9ec6e0"/>
                    </g>
                    <g id="Grupo_1209807" data-name="Grupo 1209807">
                      <path id="Trazado_1079173" data-name="Trazado 1079173" d="M160.032,677.59a3.662,3.662,0,1,1-3.662,3.662A3.662,3.662,0,0,1,160.032,677.59Z" transform="translate(-156.37 -657.277)" fill="#9ec6e0"/>
                      <path id="Trazado_1079174" data-name="Trazado 1079174" d="M160.032,661.67a3.662,3.662,0,1,1-3.662,3.662A3.662,3.662,0,0,1,160.032,661.67Z" transform="translate(-156.37 -661.67)" fill="#9ec6e0"/>
                    </g>
                  </g>
                  <g id="Grupo_1209811" data-name="Grupo 1209811" transform="translate(20.326)">
                    <g id="Grupo_1209809" data-name="Grupo 1209809" transform="translate(0 40.639)">
                      <path id="Trazado_1079175" data-name="Trazado 1079175" d="M175.962,709.45a3.662,3.662,0,1,1-3.662,3.662A3.662,3.662,0,0,1,175.962,709.45Z" transform="translate(-172.3 -689.124)" fill="#9ec6e0"/>
                      <path id="Trazado_1079176" data-name="Trazado 1079176" d="M175.962,693.52a3.662,3.662,0,1,1-3.662,3.662A3.662,3.662,0,0,1,175.962,693.52Z" transform="translate(-172.3 -693.52)" fill="#9ec6e0"/>
                    </g>
                    <g id="Grupo_1209810" data-name="Grupo 1209810">
                      <path id="Trazado_1079177" data-name="Trazado 1079177" d="M175.962,677.59a3.662,3.662,0,1,1-3.662,3.662A3.662,3.662,0,0,1,175.962,677.59Z" transform="translate(-172.3 -657.277)" fill="#9ec6e0"/>
                      <path id="Trazado_1079178" data-name="Trazado 1079178" d="M175.962,661.67a3.662,3.662,0,1,1-3.662,3.662A3.662,3.662,0,0,1,175.962,661.67Z" transform="translate(-172.3 -661.67)" fill="#9ec6e0"/>
                    </g>
                  </g>
                </g>
              </g>
            </g>
          </g>
        </g>
        <g id="Grupo_1209818" data-name="Grupo 1209818" clip-path="url(#clip-path-2)">
          <g id="Grupo_1209817" data-name="Grupo 1209817" transform="translate(-75.204 -485.62)">
            <circle id="Elipse_11845" data-name="Elipse 11845" cx="218.547" cy="218.547" r="218.547" transform="translate(684.065 1273.087) rotate(-45)" fill="#ba9c5a"/>
            <circle id="Elipse_11846" data-name="Elipse 11846" cx="218.547" cy="218.547" r="218.547" transform="translate(0 309.073) rotate(-45)" fill="#ba9c5a"/>
          </g>
        </g>
        <g id="Grupo_1209819" data-name="Grupo 1209819" clip-path="url(#clip-path-2)">
          <path id="Trazado_1079179" data-name="Trazado 1079179" d="M221.252,0C343.446,0,442.5,99.058,442.5,221.252S343.446,442.5,221.252,442.5,0,343.446,0,221.252,99.058,0,221.252,0Z" transform="translate(-166.249 706.074) rotate(-45)" fill="#ba9c5a"/>
        </g>
      </g>
    </g>
  </g>
</svg>
